<svg xmlns="http://www.w3.org/2000/svg" data-name="Layer 1" viewBox="0 0 100 125" x="0px" y="0px"><path d="M98.63,31.38A23,23,0,0,1,79,54.1a20.63,20.63,0,0,0,.57,9.09A1.84,1.84,0,0,1,77,65.36a31.59,31.59,0,0,1-9.33-7c0-.34,0-.68,0-1A28.72,28.72,0,0,0,39,28.67h-.8A23,23,0,0,1,61,8.39H75.63A23,23,0,0,1,98.63,31.38Zm-36.55,26h0a23,23,0,0,1-23,23H35.21c-2.9,5.51-8.31,9.07-12.14,11a1.85,1.85,0,0,1-2.6-2.17A20.7,20.7,0,0,0,21,80.16,23,23,0,0,1,1.38,57.39h0a23,23,0,0,1,23-23H39.06A23,23,0,0,1,62.08,57.39ZM33.84,68.79a2.4,2.4,0,1,0-2.4,2.4A2.4,2.4,0,0,0,33.84,68.79Zm5.78-17.26a8.25,8.25,0,0,0-8.2-7.94h-.05a8.14,8.14,0,0,0-7.32,4.64,2.39,2.39,0,1,0,4.31,2.08,3.39,3.39,0,0,1,3-1.93,3.49,3.49,0,0,1,3.43,3.3A3.4,3.4,0,0,1,32.54,55,5.06,5.06,0,0,0,29,59.75v1.91a2.39,2.39,0,1,0,4.78,0V59.75c0-.14.24-.22.24-.23A8.15,8.15,0,0,0,39.63,51.53Z"/></svg>