<svg id="Layer_2" data-name="Layer 2" xmlns="http://www.w3.org/2000/svg" viewBox="0 0 728 362.19"><defs><style>.cls-1{fill:none;stroke:#231f20;stroke-miterlimit:10;stroke-width:2px;}</style></defs><path class="cls-1" d="M760.66,546.19H536.94a2.16,2.16,0,0,1-2.19-2.89s2.76-9.87-.81-19.07c0,0-4.6-40.34,21.95-45.44,0,0,15.32-4.09,11.24,14.3,0,0-9.7,54.12-2,58.72,0,0,5.35,3.9,18.38,8.68,8.52,3.13,14.33,5.35,15.36,6.52.36.4.19.77-.34,1.1-.34.21-.55.89-5.11-.26-.74-.19,13.58,8,7.71,7.19a35.71,35.71,0,0,1-10.89-3.44q-2.19-1.15,0,0l8.27,4.58a7,7,0,0,1,2.48,2.25c.83,1.3,1.07,2.8-2.91,2.19a50,50,0,0,1-11-2.9c-1.52-.65-1.58-.53-.14.28,0,0,8.36,4.66,1,6.19s-31.17-13.46-31.17-13.46c-1.39-.88-1.38-.9,0,0,0,0,13,7.89,2.54,8.14a16.38,16.38,0,0,1-4.61-.55A17.31,17.31,0,0,1,542,561.77l-1.35-79a18.48,18.48,0,0,1,1-5.8s7.61-19.92,27.26-10c0,0-.76,16.47-10.59,16.6s-21.58,2.42-20.17-19.66c0,0-15.45-13.79-7.79-42.89,0,0,8.68-21.45,8.17-30.39,0,0-7.59,7-5.87,37.79s2.8,31.56,4.12,32.55c0,0,11.45,8.56,27-4.21l-1.22-63.13c0-1.65-.11-4.35-.18-6,0,0-1.41-36.06-39.71-43.21,0,0-16.08,7.15,1.28,63.57,0,0-21.7-17.36-21.19,4.34s13.91,64.29,13.91,64.29c.49,1.58,1.44,4.1,2.11,5.61,0,0,17.68,40.15,4.15,57.51,0,0,.51,6.13-18.64,4.85S469.5,541,469.5,541a7.62,7.62,0,0,0-5.26,1.49L461,545.27l-4.58,3.87-23.83,20.14c-1.26,1.06-1,2.21.64,2.55l67.15,14.09a6.07,6.07,0,0,0,5-1.55l24.17-25c1.15-1.19.75-2.34-.88-2.57l-62.74-8.63a42.56,42.56,0,0,0-6-.29s-16.92.65-16.66-16.46-.64-24.09-.64-24.09A1.94,1.94,0,0,1,445.2,505s56.82,13.35,75.71-12.69c0,0-18.38-32.43-19.91-66.13s-4.6-38.55,6.38-71.49c0,0,5.36-18.89-13-15.57,0,0-21.7-2.81-26-8.68,0,0-13.28,0-12.51,29.36s1.66,30.72,1.66,30.72a55.65,55.65,0,0,1,3,5.2s9.17,19,28.83.59,20-24.58,20-24.58a2.25,2.25,0,0,1,3-2.12s7.27,2.2,11.11-15.42a4.53,4.53,0,0,0-2.55-5.06l-1.59-.29a1.9,1.9,0,0,1-1.37-3.08s19.61-31.66-8.22-48.77-55.4,16.09-50,30.38c0,0-14.87-.08-8.64,20a7.19,7.19,0,0,0,1.07,2.1c1,1.39,2.46,5.22-1.37,13.65-5.1,11.23,2.46,47.87,2.46,47.87.33,1.61.8,4.27,1,5.91,0,0,4.94,34.3-6.55,54,0,0-9.7,33.45-10,37.79,0,0,1.79-43.4,7.41-53.62,0,0,4.08-25.27,3.82-27.06s7.15-27.83-26.8-22.47c0,0,20.3-43.08,29.56-55a1.1,1.1,0,0,0-1.11-1.75c-13.31,2.92-64.57,19-49.13,64.65,0,0,12.76,21.7,10.72,31.4,0,0,3.83,16.08,9.7,21.45,0,0,6.64,12,5.36,42.63,0,0,3.74,18.21,7.78,19.62,0,0,.05.08,0,.09-2,.72-25,9.43-16.2,32.64,0,0,12,11.23,14,2.8l-.72-.94c-1-1.31-.65-1.73.8-.93,0,0,15.49,8.51,10.9.85s-12-10.21-11.24-14.3c0,0,5.62,7.92,6.39-8.93s-10.67-2.12-10.67-2.12a31.76,31.76,0,0,1-4.17,4.27S414.19,550,407,547.72s-16.24,4.58-16.24,4.58a11.67,11.67,0,0,0-3.39,4.64s-9.18,26,3.55,29.59c0,0,1.27-11.49-8.17-22.21S368.23,547,359.55,556.4s-3.14,18.15-3.14,18.15a33.57,33.57,0,0,0,3.73,4.66s12.43,12.43,18.31-6.47c0,0,2.29-12.51-12.51-25.78l-16.57,13.43a4.15,4.15,0,0,1-4.76.14L325,546.41a41.55,41.55,0,0,0-5.14-3s-20.28-9.69-24.36-21.69l-4.39-4.91c-1.1-1.23-1.7-.92-1.34.69,0,0,7.52,33.33,14.41,33.84a68,68,0,0,0,27.57-3.07s30.13,4.6,30.64-4.08l-16.43-15.08c-1.21-1.11-3.1-3-4.19-4.28,0,0-24.83-28.13-25.08-33,0,0-16.85-17.36-16.34-29.36a106.63,106.63,0,0,0-25-47.75s-17.62-32.87-35-21.67h-2.87a5,5,0,0,1-4.21-2.75s-7-15.92,11.67-27.15,37.79-17.36,58-11c0,0,.26,35,18.64,49.79l.41,3.4c.2,1.64-.52,2-1.58.69,0,0-12.36-14.56-29.72,2.8,0,0-1-45.45,8.68-55.66,0,0,4.08-5.62,2-12.26s1-17.1,9.19-7.91c0,0,6.38,25,8.68,12.26,0,0,11-4.35,12.26-2.81l3.24-3.24a1.82,1.82,0,0,1,3.22.66s3.75,9.47,31.07,2.83c0,0,6.38,5.11,10.21-4.59,0,0,5.62-38.05-33.7-51.07,0,0-15.06-4.34-20.94,5.87,0,0-23.48-2-16.85,31.92l13.48-21.71c.87-1.4,1.82-1.22,2.1.41,0,0,6.13,35.09,43.4,37.13,0,0,8.68,7.15,4.09,12.25s-8.86,15.85-8.86,15.85c-.6,1.54-1.67,4-2.38,5.51,0,0-12.76,27.16-24.76,22.3S309.07,374.21,311,345.26c0,0-30.13,53.87,20.94,56.68,0,0-18.89,32.68-15.83,48.51,0,0-6.38,43.66,1.79,51.06s11.39,13.67,11.39,13.67a18.83,18.83,0,0,0,3.62,4.66s13.58,12,16.39,8,7.92-18.38,0-47.24c0,0-4.08-42.12,16.34-66.89,0,0,14.3-26.55,7.66-45.7,0,0-5.11,36.25-24,47,0,0-7.91-15.65-9.7-14.59S359,396.32,371,359.3c0,0,20.94,25,22,48.51,0,0,17.11,57.19,17.87,79.66,0,0,6.9,24,1.53,40.59l.45,21.77c0,1.65.14,1.65.24,0,0,0,1.36-22.8-21.37-19.73,0,0,12.26-14.81-2.81-32.68a48.51,48.51,0,0,1-5.36-23.75s-18.38-33.7-18.64-41.36c0,0,23,97,22,111.06s4.37,11.86,4.37,11.86a42.4,42.4,0,0,1,5.71-1.78s15.71-3.44,16,1.16,18.34,36.52,18.64,40.08c1.87,22-9.53-4.39-9.53-4.39-.66-1.52-1.47-1.44-1.82.18l-.14.64c-5.61,19.4-7-3.65-7-3.65-.1-1.64-.26-1.64-.37,0l-.57,9c-7.41,15.32-9.45-14.81-9.45-14.81-7.13-.89-.83,15.75.88,20a10.33,10.33,0,0,1,.61,2.24c2.86,18.21-8.13,3.07-8.13,3.07-3.35-5-3.12-15.9-3.12-15.9a2.71,2.71,0,0,0-2.93-2.8l-21.59,1.4a15.77,15.77,0,0,0-5.62,1.64l-47.86,26.46c-1.44.8-1.36,1.93.18,2.52L382.54,646a7.28,7.28,0,0,0,5.42-.4l48.38-27.19c1.44-.8,1.34-1.89-.23-2.4l-81.88-27a9.57,9.57,0,0,0-5.63.19l-31.17,12.66c-13.28-12.76-43.41-8.94-43.41-8.94-10.45-.5-12.09,7.07-12.28,10.67a3.32,3.32,0,0,0,1,2.55c2.46,2.37,2.28,8.12,7,13.59,5.27,6.13,5.56-8.57,5.56-8.57a3.28,3.28,0,0,1,3.05-3.16,14.18,14.18,0,0,1,11.3,5.78c4.6,6.12,6.83,5,6.83,5a2.79,2.79,0,0,0,1.24-3.92l-2.69-4.8c-.81-1.44-.89-1.4-.18.09a23,23,0,0,0,5.48,6.62c.29.25.59.49.9.71,4.42,3.23,4.42.45,4.42.45a10.8,10.8,0,0,0-1.77-5.42L300,607.16c-1-1.33-1.17-1.21-.44.27,0,0,1,2.08,6.49,6.34s3.07-1.71,3.07-1.71c-9.2-17.36-27.92-20.42-27.92-20.42-18.38-.34-25.53-18.38-25.53-18.38,2.38-31.66-7.26-39.92-7.26-39.92-1.25-1.08-2.24-.61-2.21,1l.28,12.66c4.76,10.94,3.74,37.79,3.74,37.79-8.51,14.3-14.11,45.39-14.11,45.39-.29,1.62-.7,1.61-.9,0,0,0-2.52-19.83-4.39-26-1.69-5.53-7.49-60.59-9.88-63s-3.06-23.15-3.06-23.15c-4.42-39.83-31.66-6.81-31.66-6.81,18.27,14.18,12.26,50,12.26,50-9.19,29.28,5.78,56.17,5.78,56.17-3.06,7.15-27.57,16.68-21.44,19.06s22.12-8.85,21.78-13.27-13.65-6.73-20.08,0c-4.4,4.6-11.6,5.72-15.71,6a1.56,1.56,0,0,1-1.3-2.53c22.05-28.33,58.54,8.48,58.54,8.48,5.45-79,1.36-120.85-9.53-133.78s-14.64-3.75-14.64-3.75c7.64,8.25,6.13,28.26,6.13,28.26,7.49-11.92,16.34,5.1,16.34,5.1,6.13,12.6,12.11,10.76,12.11,10.76a4.56,4.56,0,0,0,3-3.88l1.92-45.35c-22.13,24.86,11.23,57.54,11.23,57.54,9.54-10.56,8.86-19.07,8.86-19.07-5.45-11.23,1.7-16.68,1.7-16.68,12.93-4.08,11.87-14.72,11.87-14.72-.16-1.64-.44-4.32-.61-6,0,0-1.05-10,5.42-17.11s3.06-16.68,3.06-16.68c-4.76-4.76-1-11.57-1-11.57,3.41-2,4.43-13.28,4.43-13.28,1-17.7-30.64-27.23-45.62-38.13s-40.17,4.6-40.17,4.6c-1.19,7-12.43,16.85-12.43,16.85-11.91,6.81-12.59,19.58-12.59,19.58,6.13,16.34-7,24.17-7,24.17.34,17-9.36,17.36-9.36,17.36-17.7.85-14.13,25.36-14.13,25.36-19.91,19.91-3.3,29.18-3.3,29.18,1.44.8,3.73,2.22,5.09,3.16,0,0,6.21,4.26,6.5-19.74S185,493.77,185,493.77c3.74,4.93,21.79-18.56,21.79-18.56,2.55-5.44,11.23-7.49,11.74-3.57s13.11,13.27,13.11,13.27c25.53,12.77,35.23.52,35.23.52-2.55-2.56,1.53-8.17,1.53-8.17-3.06-4.09,2.05-7.66,2.05-7.66,5.61,2,2.72-6.64,2.72-6.64-4.94-3.58,0-17,0-21.79s-4.51-10.89-4.51-10.89c-6.64-10.47-24.51,12.25-24.51,12.25-17.36,4.85-15.06,13.28-15.06,13.28,0,9.45-12,13.79-12,13.79,3.31,10.72-14.81,20.17-14.81,20.17-5.88,14.55-32.68,17.87-32.68,17.87-31.92,16.08-23.92,74.47-23.92,74.47,3.06,10.89,2.38,37.78,2.38,37.78-2.38,13.62-1.2,16.32-1.2,16.32a1.82,1.82,0,0,1-1.8,2.75H32.66" transform="translate(-32.66 -285.13)"/></svg>