<svg id="Layer_1" data-name="Layer 1" xmlns="http://www.w3.org/2000/svg" xmlns:xlink="http://www.w3.org/1999/xlink" viewBox="0 0 701.07 472.46"><defs><style>.cls-1{fill:url(#linear-gradient);}.cls-2{fill:url(#linear-gradient-2);}.cls-3,.cls-4,.cls-5{stroke-miterlimit:10;stroke-width:0.51px;}.cls-3{fill:url(#linear-gradient-3);stroke:url(#linear-gradient-4);}.cls-4{fill:url(#linear-gradient-5);stroke:url(#linear-gradient-6);}.cls-5{fill:url(#linear-gradient-7);stroke:url(#linear-gradient-8);}.cls-6{opacity:0.25;}</style><linearGradient id="linear-gradient" x1="252.29" y1="625.56" x2="520.03" y2="101.35" gradientUnits="userSpaceOnUse"><stop offset="0" stop-color="#350383"/><stop offset="0.27" stop-color="#4f22c8"/><stop offset="0.51" stop-color="#602be0"/><stop offset="0.75" stop-color="#4f22c8"/><stop offset="1" stop-color="#350383"/></linearGradient><linearGradient id="linear-gradient-2" x1="95.21" y1="390.6" x2="332.32" y2="785.35" gradientUnits="userSpaceOnUse"><stop offset="0" stop-color="#f45cf4"/><stop offset="0.38" stop-color="#771cd1"/><stop offset="1" stop-color="#f45cf4"/></linearGradient><linearGradient id="linear-gradient-3" x1="289.5" y1="582" x2="568.21" y2="494.26" gradientUnits="userSpaceOnUse"><stop offset="0" stop-color="#602be0"/><stop offset="0.18" stop-color="#7c2ce2"/><stop offset="0.51" stop-color="#b82de7"/><stop offset="1" stop-color="#602be0"/></linearGradient><linearGradient id="linear-gradient-4" x1="322.61" y1="537.78" x2="523.22" y2="537.78" gradientUnits="userSpaceOnUse"><stop offset="0" stop-color="#771cd1"/><stop offset="0.25" stop-color="#cd48e9"/><stop offset="0.5" stop-color="#f45cf4"/><stop offset="0.75" stop-color="#cd48e9"/><stop offset="1" stop-color="#771cd1"/></linearGradient><linearGradient id="linear-gradient-5" x1="492.88" y1="459.35" x2="726.94" y2="459.35" gradientTransform="translate(-31.4 36.56) rotate(-4)" xlink:href="#linear-gradient-3"/><linearGradient id="linear-gradient-6" x1="522.9" y1="454.75" x2="689.81" y2="454.75" xlink:href="#linear-gradient-4"/><linearGradient id="linear-gradient-7" x1="487.49" y1="435.28" x2="756.69" y2="435.28" gradientTransform="translate(-31.4 36.56) rotate(-4)" xlink:href="#linear-gradient-3"/><linearGradient id="linear-gradient-8" x1="524.34" y1="429.15" x2="712.07" y2="429.15" xlink:href="#linear-gradient-4"/></defs><path class="cls-1" d="M605.56,219.15c-16.87,153.92-138,282.33-264.82,350-32.24,17.2-77.61,24.57-104.88,24.57a234.6,234.6,0,0,1-114.79-29.8,67.36,67.36,0,0,0,99.27-59.28A129.23,129.23,0,0,0,219,491a.63.63,0,0,1,0-.19,305,305,0,0,1-2.71-89.68c11.87-101.1,73.61-187,160-232.31,42-22.06,134.42-67,193.85-31.86C593.33,150.76,609.53,182.86,605.56,219.15Z" transform="translate(-11 -124)"/><path class="cls-2" d="M220.32,504.56a67.36,67.36,0,0,1-99.27,59.28.83.83,0,0,0-.16-.09c-.76-.42-2.64-1.51-2.82-1.61-47.38-27.4-95-87.87-104.25-125.11-5.3-21.32-3.85-44.64,10.7-63.25,15.37-19.67,39.21-26.16,62.58-25.17,44.55,1.89,92.05,26.09,129.1,52.51a305,305,0,0,0,2.71,89.68.43.43,0,0,0,0,.19C219.09,491.86,220.32,500.82,220.32,504.56Z" transform="translate(-11 -124)"/><path class="cls-3" d="M522.72,492.07c-5.38,29.5-78.36,71.48-123.1,88.37-23.47,8.87-48.71,13.7-74.67,15.59,42.61-12.67,83.73-32.29,114.59-62.9,21.68-21.51,52.14-52.05,71.35-53.7C519.21,478.71,524.14,484.24,522.72,492.07Z" transform="translate(-11 -124)"/><path class="cls-4" d="M524.56,476.4s53-45.9,117.84-44.09c41.5,1.16,46.93,20.68,46.93,20.68s-15.8-13.87-50.86-12.89c-43.57,1.22-82.21,20.77-82.21,20.77Z" transform="translate(-11 -124)"/><path class="cls-5" d="M524.56,476.4s31.82-51.55,74.44-75.18c27-15,56.19-22,80.16-18.19,18.68,3,29.47,13,32.24,19.68,0,0-24.23-21.48-66.77-11.12-36.84,9-53.2,22-67.06,32.44C564.82,433.69,532.1,463.6,524.56,476.4Z" transform="translate(-11 -124)"/><path class="cls-6" d="M220.32,504.56a67.34,67.34,0,0,1-99.27,59.28.55.55,0,0,0-.15-.08l-.86-.49a46.7,46.7,0,0,0,26.51,5.56c37-3.25,64.6-33.49,55.62-88.33a.39.39,0,0,1-.06-.2c-2.79-14.37-6.83-25.7-10.41-52.93-1.55-11.83-2.71-23.95-3.22-35.74-.12-2.83,0-5.66.09-8.48,9.67,5.69,18.93,11.77,27.63,18a305.93,305.93,0,0,0,2.71,89.68.65.65,0,0,0,0,.19C219.09,491.86,220.32,500.82,220.32,504.56Z" transform="translate(-11 -124)"/></svg>