<svg xmlns="http://www.w3.org/2000/svg" viewBox="0 0 709.7 583.74" xmlns:v="https://vecta.io/nano"><defs><linearGradient id="A" x1="208.615" y1="403.438" x2="699.052" y2="848.135" gradientUnits="userSpaceOnUse"><stop offset="0" stop-color="#f45cf4"/><stop offset=".12" stop-color="#d54ceb"/><stop offset=".39" stop-color="#8825d6"/><stop offset=".45" stop-color="#771cd1"/><stop offset="1" stop-color="#f45cf4"/></linearGradient><linearGradient id="B" x1="280.734" y1="642.107" x2="516.772" y2="58.358" gradientUnits="userSpaceOnUse"><stop offset=".1" stop-color="#3d1291"/><stop offset=".35" stop-color="#4e31c4"/><stop offset=".47" stop-color="#5238d9"/><stop offset=".56" stop-color="#533be2"/><stop offset=".63" stop-color="#5238da"/><stop offset=".75" stop-color="#4e31c5"/><stop offset=".75" stop-color="#4e31c4"/><stop offset=".82" stop-color="#4825b1"/><stop offset=".92" stop-color="#40179a"/><stop offset=".99" stop-color="#3d1291"/></linearGradient><linearGradient id="C" x1="404.57" y1="539.43" x2="721.85" y2="370.71" gradientUnits="userSpaceOnUse"><stop offset="0" stop-color="#b82de7"/><stop offset=".22" stop-color="#b42de7"/><stop offset=".43" stop-color="#a92de6"/><stop offset=".64" stop-color="#952ce4"/><stop offset=".84" stop-color="#7a2ce2"/><stop offset="1" stop-color="#602be0"/></linearGradient></defs><g fill="#f3ebff"><path d="M510.67 338.22h0q-3.11 6.84-6.42 13.61l-.47 1a702.12 702.12 0 0 1-47.94 80.83 617 617 0 0 1-68 81.23c-3.33 3.34-6.9 6.59-10.66 9.75l-9.41 7.42-.16.13c-19.36 14.37-41.88 26.19-61.08 34-7.59 2.93-15.23 5.54-22.76 7.87l-1 .29a277.45 277.45 0 0 1-31.93 6.71 248.7 248.7 0 0 1-40.47 2.63c-1.12 0-2.24 0-3.39-.08h-1.46l-1.77-.08-4.58-.25-2.33-.22-4.48-.36-1.46-.13h-.19q-11.33-1.1-22.42-3.22l-1-.2-3.29-.71h-.08l-.33-.08-1.19-.25-3.81-.82c-56.88-13.16-124.32-60-145.38-95.08-12.04-20.15-17.84-44.37-8.81-67.88 9.55-24.86 31.84-38.92 56-45.2 37.93-9.87 82.64-4.91 123 5.75l3.67 1 1.15.32 3.22.91 4.71 1.38 4.17 1.28 8.2 2.64h0c-19.44-106.83 16.74-213.66 90.66-286.87 35.94-35.59 116.21-110.28 187.8-93 28.04 6.81 54.59 34.52 61.86 72.76 17 89.37-.74 180.76-38.17 262.92zm190.42-41.49c-7.2-2-25.49-5.21-52.48 3.88-44.06 14.84-77.37 46.85-77.37 46.85l-21.16 19.8a.92.92 0 0 1-.66.26.8.8 0 0 0 .69-.49l3.54-7.42c15.66-19.67 49.34-55.16 96.54-68.17 31.81-8.77 46.38-.89 51.73 3.7a.92.92 0 0 1-.83 1.59z"/><path d="M708.6 244.16c-9.43-2.92-35.87-8.17-67.87 10.83-34.78 20.65-47.59 38.86-58.28 54-11.19 15.89-21.73 36-28.8 50.61a203.52 203.52 0 0 0-4.94 6.43h0c6.81-20.29 22.56-60.15 48.51-87 22.83-23.66 50.46-40 76.09-43.56 16.87-2.38 29.58 2.17 36.08 7.21a.84.84 0 0 1-.79 1.48zm-257.09 263.9a269.19 269.19 0 0 1-54.14 32 2.49 2.49 0 0 1-2.65-4.17c28.65-24.44 57.26-60.24 78.74-90.14 19-26.46 41-67.8 60-75.48 8.26-3.32 15 .78 16 9.21 3.76 31.82-57.62 97.41-97.95 128.58z"/></g><path d="M316 642a269.37 269.37 0 0 1-33 7 245.73 245.73 0 0 1-54 2c-20.28-1.56-25-3-38.23-5.8-56.88-13.16-124.32-60-145.38-95.08-12.06-20.12-17.86-44.34-8.83-67.85 9.55-24.86 31.84-38.92 56-45.2 46-12 102-2.12 148.07 13.27C276.22 461.5 345 472 391 470c90.71-3.94 152-64 152-64s-47 106-127 181c-4.95 4.64-10.78 8.65-16 13-23.45 19.54-54.6 32.89-84 42z" transform="translate(-32.16 -67.94)" opacity=".9" fill="url(#A)"/><path d="M244.94 486.63a71.84 71.84 0 0 1-82.76 91.43.58.58 0 0 0-.19 0l-1-.23a49.87 49.87 0 0 0 28.78-2.61c36.77-14.87 55.44-54.31 29.17-107.45a.34.34 0 0 1-.12-.18c-7.33-13.79-15-24.09-27.14-50.75-5.27-11.58-16.19-41.22-17-44.12 11.64 2.78 23 6.1 33.79 9.71a326.19 326.19 0 0 0 30.74 90.63.87.87 0 0 0 .1.19c.42.81 4.46 9.57 5.63 13.38z" opacity=".15"/><g transform="translate(-32.16 -67.94)"><path d="M581,143.24c30.82,162.25-52.7,331-160.93,439.59-27.52,27.6-71.5,49.28-99.31,57.78A250.1,250.1,0,0,1,194.37,646a71.84,71.84,0,0,0,82.76-91.44,135.84,135.84,0,0,0-5.63-13.41.55.55,0,0,1-.09-.19,325.28,325.28,0,0,1-30.75-90.62c-19.44-106.84,16.74-213.68,90.66-286.89,35.94-35.59,116.21-110.28,187.8-93C547.18,77.29,573.73,105,581,143.24Z" opacity=".9" fill="url(#B)"/><path d="M740.76 312.1c-9.43-2.92-35.87-8.17-67.87 10.83-34.78 20.65-47.59 38.86-58.28 54-11.19 15.89-21.72 36-28.8 50.61 15.67-19.67 49.33-55.16 96.54-68.17 31.81-8.77 46.38-.89 51.73 3.7a.92.92 0 0 1-.83 1.59c-7.2-2-25.49-5.21-52.48 3.88-44.06 14.84-77.37 46.85-77.37 46.85l-21.16 19.8a.88.88 0 0 1-.69.25.83.83 0 0 1-.86-.81.81.81 0 0 1 .13-.55c6.79-20.27 22.55-60.19 48.53-87.1 22.83-23.66 50.46-40 76.09-43.57 16.87-2.37 29.58 2.18 36.08 7.22a.84.84 0 0 1-.76 1.47zm-159.1 135.37c3.72 31.77-57.63 97.36-98 128.55a269.19 269.19 0 0 1-54.14 32 2.49 2.49 0 0 1-2.65-4.17c28.65-24.44 57.26-60.24 78.74-90.14 19-26.46 41-67.8 60-75.48 8.3-3.29 15.06.77 16.05 9.24z" fill="url(#C)"/></g></svg>