<svg xmlns="http://www.w3.org/2000/svg" viewBox="0 0 500 500"><g id="freepik--background-complete--inject-19"><path d="M454.66,163.44,463,150.07l-4.12-2.55a3.73,3.73,0,0,1-1.71-3.52,21.81,21.81,0,0,0,.08-2.29,3.76,3.76,0,0,1,1.95-3.44l4.24-2.28L456,122.12l-4.24,2.28a3.67,3.67,0,0,1-3.84-.21,23.52,23.52,0,0,0-2.13-1.32,3.69,3.69,0,0,1-1.91-3.35l.15-4.82-15.72-.49-.15,4.84a3.68,3.68,0,0,1-2.13,3.22c-.37.17-.73.36-1.09.55s-.72.4-1.07.61a3.68,3.68,0,0,1-3.85,0l-4.12-2.55-8.29,13.37,4.13,2.56a3.74,3.74,0,0,1,1.7,3.51,22,22,0,0,0-.08,2.3,3.77,3.77,0,0,1-1.95,3.43l-4.24,2.28,7.43,13.86,4.25-2.27a3.76,3.76,0,0,1,3.94.27,21.8,21.8,0,0,0,1.95,1.21,3.69,3.69,0,0,1,2,3.36l-.15,4.86,15.73.49.15-4.83a3.73,3.73,0,0,1,2.18-3.24c.35-.17.7-.34,1.05-.53s.68-.38,1-.57a3.72,3.72,0,0,1,3.92,0Zm-11.88-10.82a12.89,12.89,0,1,1,4.54-15A12.88,12.88,0,0,1,442.78,152.62Z" style="fill:#ebebeb"></path><path d="M42.53,287a2.62,2.62,0,0,1,1.28,2.43c0,.27,0,.54,0,.81s0,.55,0,.82a2.61,2.61,0,0,1-1.27,2.42L39.6,295.2l5.51,9.55L48,303.06a2.6,2.6,0,0,1,2.75.1,15.38,15.38,0,0,0,1.42.82,2.63,2.63,0,0,1,1.45,2.33v3.37h11v-3.37A2.63,2.63,0,0,1,66.13,304a15.38,15.38,0,0,0,1.42-.82,2.6,2.6,0,0,1,2.75-.1l2.93,1.69,5.51-9.55-2.94-1.7a2.6,2.6,0,0,1-1.28-2.42c0-.27,0-.54,0-.81s0-.54,0-.81A2.62,2.62,0,0,1,75.8,287l2.94-1.69-5.51-9.55-2.92,1.69a2.62,2.62,0,0,1-2.75-.09,15.64,15.64,0,0,0-1.43-.83,2.63,2.63,0,0,1-1.45-2.33v-3.37h-11v3.37a2.63,2.63,0,0,1-1.45,2.33,15.64,15.64,0,0,0-1.43.83,2.62,2.62,0,0,1-2.75.09l-2.92-1.69-5.51,9.55Zm16.64-5.79a9,9,0,1,1-9,9A9,9,0,0,1,59.17,281.24Z" style="fill:#ebebeb"></path><path d="M387.07,111.18l-3.21-13.73-4.23,1a3.33,3.33,0,0,1-3.31-1.14,16.67,16.67,0,0,0-1.41-1.5,3.39,3.39,0,0,1-.94-3.42l1.24-4.13-13.5-4.08-1.25,4.14a3.27,3.27,0,0,1-2.56,2.3,20.46,20.46,0,0,0-2.19.51,3.27,3.27,0,0,1-3.33-.92l-3-3.14-10.27,9.65,3,3.16a3.3,3.3,0,0,1,.69,3.39c-.12.35-.24.69-.35,1s-.2.71-.28,1.06a3.32,3.32,0,0,1-2.45,2.44l-4.23,1,3.22,13.73,4.24-1a3.34,3.34,0,0,1,3.31,1.15,19.73,19.73,0,0,0,1.4,1.5,3.37,3.37,0,0,1,.94,3.41l-1.25,4.13,13.5,4.08,1.25-4.14a3.38,3.38,0,0,1,2.67-2.32,19.36,19.36,0,0,0,2-.47,3.33,3.33,0,0,1,3.39.87l3,3.18,10.28-9.66-3-3.15a3.38,3.38,0,0,1-.67-3.44c.12-.33.23-.66.33-1s.19-.67.28-1a3.34,3.34,0,0,1,2.47-2.51Zm-14.38.67a11.55,11.55,0,1,1-6.64-12.4A11.55,11.55,0,0,1,372.69,111.85Z" style="fill:#ebebeb"></path><circle cx="121.07" cy="129.27" r="67.77" transform="translate(-25.75 228.32) rotate(-80.88)" style="fill:#ebebeb"></circle><circle cx="124.18" cy="130.77" r="64.66" style="fill:#dbdbdb"></circle><circle cx="124.18" cy="130.77" r="60.58" style="fill:#fff"></circle><path d="M183.39,117.92c-27.59,16.71-72.93,44.13-98.27,59.16a60.57,60.57,0,0,1-16.55-22.26l83.81-77.67A60.68,60.68,0,0,1,183.39,117.92Z" style="fill:#ebebeb;opacity:0.5"></path><path d="M184.71,132.89a60.1,60.1,0,0,1-4,19.68l-75.56,35.74a60.66,60.66,0,0,1-9.54-4.1C118.44,171,160.14,147,184.71,132.89Z" style="fill:#ebebeb;opacity:0.5"></path><rect x="123.59" y="74.59" width="1.17" height="9.18" style="fill:#c7c7c7"></rect><rect x="97.8" y="81.5" width="1.17" height="9.18" transform="translate(-29.87 60.72) rotate(-30)" style="fill:#c7c7c7"></rect><rect x="78.91" y="100.39" width="1.17" height="9.18" transform="translate(-51.17 121.33) rotate(-60)" style="fill:#c7c7c7"></rect><rect x="68" y="130.19" width="9.18" height="1.17" style="fill:#c7c7c7"></rect><rect x="74.91" y="155.99" width="9.18" height="1.17" transform="translate(-67.64 60.74) rotate(-30)" style="fill:#c7c7c7"></rect><rect x="93.79" y="174.87" width="9.18" height="1.17" transform="translate(-102.76 173.04) rotate(-60.03)" style="fill:#c7c7c7"></rect><rect x="123.59" y="177.77" width="1.17" height="9.18" style="fill:#c7c7c7"></rect><rect x="149.39" y="170.86" width="1.17" height="9.18" transform="translate(-67.64 98.5) rotate(-30)" style="fill:#c7c7c7"></rect><rect x="168.27" y="151.98" width="1.17" height="9.18" transform="translate(-51.17 224.51) rotate(-60)" style="fill:#c7c7c7"></rect><rect x="171.18" y="130.19" width="9.18" height="1.17" style="fill:#c7c7c7"></rect><rect x="164.27" y="104.39" width="9.18" height="1.17" transform="translate(-29.87 98.51) rotate(-30)" style="fill:#c7c7c7"></rect><rect x="145.38" y="85.51" width="9.18" height="1.17" transform="translate(0.47 173) rotate(-60.03)" style="fill:#c7c7c7"></rect><polygon points="125.06 78.75 127.05 134.86 121.31 134.79 123.5 78.73 125.06 78.75" style="fill:#c7c7c7"></polygon><polygon points="160.01 111.21 122.26 135.3 119.52 130.25 159.27 109.83 160.01 111.21" style="fill:#a6a6a6"></polygon><path d="M126.14,130.77a2,2,0,1,1-2-2A2,2,0,0,1,126.14,130.77Z" style="fill:#c7c7c7"></path><path d="M416.56,313.31s-15.66-3.55-24.24-11.46S379,279.78,379,279.78a134.6,134.6,0,0,1,17.56,4.62,29.51,29.51,0,0,1,5.31,7.51,36.51,36.51,0,0,0,0-5.37,23.85,23.85,0,0,1,5.57,3.38C414.55,296.15,416.56,313.31,416.56,313.31Z" style="fill:#dbdbdb"></path><path d="M388.72,286.67c-2.13-1.48-4.3-2.9-6.43-4.39a.12.12,0,0,1,.13-.21c4,2.41,8,5,11.86,7.68,1.34.94,2.66,1.92,4,2.92l-.27-.47c-.47-.78-1-1.56-1.46-2.33a33.3,33.3,0,0,0-3.33-4.43c0-.05,0-.13.08-.08,1.22,1.41,2.44,2.8,3.55,4.29.53.71,1,1.45,1.49,2.2.24.39.48.78.7,1.18l.24.4c2,1.59,4,3.25,5.87,5,1.16,1.08,2.28,2.21,3.37,3.36-.61-1.89-1.14-3.81-1.84-5.67a.05.05,0,0,1,.1,0c.68,2,1.43,3.92,2,5.93,1.2,1.3,2.34,2.64,3.42,4a2.38,2.38,0,0,0-.05-.26c-.18-.73-.36-1.47-.56-2.2-.38-1.42-.8-2.83-1.28-4.21a24.59,24.59,0,0,0-4.2-7.95c0-.05,0-.12.07-.07a30.46,30.46,0,0,1,6,12.52q.25,1,.48,2c.08.35.17.71.23,1.08.48.64.94,1.28,1.38,1.95a67.65,67.65,0,0,1,6.63,13,151.44,151.44,0,0,1,5,15.64.08.08,0,0,1-.16,0c-3.07-9.16-6.19-18.46-11.43-26.64-1.11-1.73-2.31-3.4-3.58-5a29.53,29.53,0,0,1-7.61-1.51,33.8,33.8,0,0,1-7.63-3.69,45,45,0,0,1-3.91-2.95c-.06-.05,0-.13.06-.08a31.45,31.45,0,0,0,7.18,4.34,39.25,39.25,0,0,0,7.9,2.65c1.15.25,2.33.44,3.5.6a65.87,65.87,0,0,0-4.62-5.12c-.53-.53-1.07-1-1.62-1.54a37.62,37.62,0,0,0-5.78-3.32c-2.57-1.24-5.09-2.55-7.63-3.84-1.44-.73-2.86-1.48-4.3-2.18-.06,0,0-.12.05-.09,2.58,1.24,5.19,2.4,7.79,3.59,2.44,1.12,4.91,2.25,7.26,3.56l.3.18c-2.12-1.85-4.32-3.6-6.57-5.3Q391.94,288.9,388.72,286.67Z" style="fill:#a6a6a6"></path><path d="M389.61,294.74c1.28.56,2.57,1.05,3.83,1.64s2.53,1.32,3.76,2a.05.05,0,0,1-.05.09c-1.25-.6-2.51-1.16-3.75-1.78s-2.52-1.32-3.82-1.89C389.52,294.81,389.55,294.71,389.61,294.74Z" style="fill:#a6a6a6"></path><path d="M467.42,234.41a22.37,22.37,0,0,0-4.68,13c-.05,1.4.17,3.36.33,5.66a37,37,0,0,0-10.22,8.73,18.51,18.51,0,0,1,10.33-2.47,32.78,32.78,0,0,1-.6,4.68,17.35,17.35,0,0,0-6.64,1.31,14.79,14.79,0,0,1,6,1.19c-2.79,8.88-11.09,18-34,21.87A48.11,48.11,0,0,1,432,256.16C438.86,242.66,467.42,234.41,467.42,234.41Z" style="fill:#dbdbdb"></path><path d="M420,326.38c.39-3.79.89-7.58,1.48-11.34a225.82,225.82,0,0,1,4.62-22.43,89.41,89.41,0,0,1,3.31-10.21,14.17,14.17,0,0,1-.09-1.84c0-.73,0-1.46,0-2.2,0-1.46.09-2.93.21-4.39a53.07,53.07,0,0,1,1.41-8.59c.42-1.63.9-3.24,1.38-4.85a.05.05,0,1,1,.1,0,64,64,0,0,0-1.69,8.57,82.49,82.49,0,0,0-.77,8.6c0,.78,0,1.57,0,2.36,0,.33,0,.67,0,1a72.43,72.43,0,0,1,3.86-8,96.6,96.6,0,0,1,7.84-11.73,5.07,5.07,0,0,1,.18-1.28c.11-.51.22-1,.34-1.53q.34-1.57.78-3.12c.57-2.08,1.32-4.08,2-6.13a.05.05,0,1,1,.1,0c-.6,2-1,4.13-1.47,6.19-.23,1-.45,2-.68,3.07l-.33,1.53a.5.5,0,0,1,0,.12c.93-1.17,1.87-2.32,2.84-3.45,4.37-5.13,9.17-9.87,14-14.56.59-.58,1.2-1.14,1.8-1.71a0,0,0,1,1,.07.07c-4.61,4.82-9.15,9.68-13.45,14.78-1,1.21-2,2.43-3,3.68.52-.36,1-.7,1.56-1,1.33-.87,2.68-1.72,4.07-2.5s2.79-1.54,4.22-2.25,3-1.32,4.46-2.14c.06,0,.11.07.05.09a32.19,32.19,0,0,0-4.18,2.32c-1.39.82-2.79,1.66-4.15,2.53s-2.7,1.69-4,2.56c-1.12.72-2.21,1.51-3.37,2.18A111,111,0,0,0,436,271.5a79.69,79.69,0,0,0-3.79,7.2l.82-.36,2.1-.93c1.35-.6,2.7-1.18,4.05-1.77,2.57-1.12,5.18-2.14,7.7-3.37A35.8,35.8,0,0,0,451,270c.06,0,.11.05.05.09-4.69,3.24-10,5.52-15.16,7.82l-2.25,1c-.62.27-1.24.58-1.88.82a80,80,0,0,0-3.87,10.61,215.6,215.6,0,0,0-5,22.16c-1.31,7.48-2.2,15-2.88,22.58-.09.94-.18,1.88-.28,2.83a.3.3,0,0,1-.6,0C419.21,334,419.61,330.2,420,326.38Z" style="fill:#a6a6a6"></path><path d="M433.94,263.12c.42-2.33,1-4.6,1.67-6.88a.05.05,0,1,1,.1,0c-.58,2.24-1,4.52-1.41,6.79s-.81,4.64-1.14,7a0,0,0,0,1-.06,0A61.76,61.76,0,0,1,433.94,263.12Z" style="fill:#a6a6a6"></path><path d="M443.81,269.44a41.36,41.36,0,0,1,5-2.8c.83-.44,1.68-.85,2.52-1.26s1.78-.77,2.64-1.21c.07,0,.12.07.06.1-.84.42-1.64.93-2.46,1.38L449,267c-1.68.9-3.32,1.89-5.08,2.62A.13.13,0,0,1,443.81,269.44Z" style="fill:#a6a6a6"></path><path d="M416.27,286.19s-14.48-3.46-21.13-13.18c-6.36-9.28-8.41-25.1-8.57-26.49.26,1.28,3.25,15.1,13.11,21.54C407.23,273,414.53,277.05,416.27,286.19Z" style="fill:#a6a6a6;opacity:0.1"></path><path d="M402.9,261.16a18.51,18.51,0,0,1,5.34,8.8s0,0,0,0a21.73,21.73,0,0,0-5.37-8.73C402.78,261.19,402.85,261.11,402.9,261.16Z" style="fill:#a6a6a6"></path><path d="M416.27,286.19s-14.48-3.46-21.13-13.18c-6.36-9.28-8.41-25.1-8.57-26.49a.42.42,0,0,1,0-.1s6.95,9.88,14.25,12.4S418.37,270.05,416.27,286.19Z" style="fill:#dbdbdb"></path><path d="M389.12,251.87a58.71,58.71,0,0,0,4.48,7.66,30.64,30.64,0,0,0,6,6.13c2,1.56,4,3,6,4.51l-.05-.07c-.37-.56-.77-1.1-1.18-1.62-.83-1.06-1.74-2.06-2.65-3.05-1.8-2-3.64-3.87-5.25-6a21.86,21.86,0,0,1-2.33-3.74c0-.06.07-.09.1,0,2.35,4.89,7.05,8,10.39,12.16a21.42,21.42,0,0,1,1.34,1.83,7.88,7.88,0,0,1,.84,1.47,30.74,30.74,0,0,1,4.94,5,20.29,20.29,0,0,0-.58-2.81,13.94,13.94,0,0,0-1.54-3.67c0-.06.06-.12.09-.06a16.81,16.81,0,0,1,1.69,3.65,12.82,12.82,0,0,1,.53,3.12h0a28.65,28.65,0,0,1,1.95,3.05l-.18-.93c-.28-1.44-.6-2.88-1-4.31a25.87,25.87,0,0,0-3.48-8.16c0-.06.05-.11.09-.06a31.54,31.54,0,0,1,3.86,8c.46,1.42.83,2.86,1.15,4.32.16.71.31,1.43.44,2.15.07.37.15.75.21,1.13a52.67,52.67,0,0,1,3.35,9.82,145.32,145.32,0,0,1,3.08,18.32,150.41,150.41,0,0,1,1,19.45c0,.81-.06,1.62-.1,2.44,0,.21-.33.24-.34,0-.14-3.22-.22-6.43-.41-9.65s-.47-6.42-.82-9.62a169.45,169.45,0,0,0-3-18.73c-1.17-5.3-2.69-10.63-5.59-15.27a28.51,28.51,0,0,0-5.23-6.21c-2-1.83-4.25-3.42-6.39-5.11a34.77,34.77,0,0,1-5.86-5.64,45.57,45.57,0,0,1-4.61-7.48c-.34-.66-.69-1.31-1-2C389,251.87,389.09,251.81,389.12,251.87Z" style="fill:#a6a6a6"></path><path d="M391.62,254a49.33,49.33,0,0,0,3.23,5.65,0,0,0,0,1-.07,0,39.63,39.63,0,0,1-3.26-5.65C391.49,254,391.59,253.93,391.62,254Z" style="fill:#a6a6a6"></path><path d="M469.43,279.78s.23,20.59-12.08,26.53-18.9,1-27.27,3h0c.32-.49,6.29-9.08,15.79-11.44C455.65,295.42,466.47,288.36,469.43,279.78Z" style="fill:#dbdbdb"></path><path d="M469.43,279.78s.23,20.59-12.08,26.53-18.9,1-27.27,3h0a46.23,46.23,0,0,1,14-4.13C451.85,304.22,466.68,299.17,469.43,279.78Z" style="fill:#a6a6a6;opacity:0.1"></path><path d="M429.27,309.66a20.61,20.61,0,0,1,4.9-3.31c.26-.13.53-.23.8-.35s.27-.32.41-.47c.37-.38.76-.75,1.16-1.1a17.27,17.27,0,0,1,2.48-1.78c2-1.2,4.27-2,6.36-3.16.06,0,.11.07.05.1-1,.53-2,1.12-3,1.71s-2,1.11-2.92,1.72a19.91,19.91,0,0,0-2.44,1.83c-.22.19-.42.39-.63.6a33.07,33.07,0,0,1,4.16-1.1c2.25-.46,4.53-.78,6.78-1.26a30.93,30.93,0,0,0,3.27-.88c1-.82,2-1.64,3-2.53a25.43,25.43,0,0,0,3.19-3.53.05.05,0,1,1,.09.06,37.47,37.47,0,0,1-5,5.56c.53-.2,1.06-.41,1.57-.65a25.37,25.37,0,0,0,10.49-8.72c0-.06.13,0,.09.05a28.77,28.77,0,0,1-8.48,8.15,26,26,0,0,1-5.36,2.54,50.49,50.49,0,0,1-6.67,1.57,47.17,47.17,0,0,0-6.52,1.55,19.9,19.9,0,0,0-5.47,2.88,25.57,25.57,0,0,0-7.38,9.15,45.87,45.87,0,0,0-4.06,15c0,.22-.37.22-.35,0C420.29,324.68,422.6,315.67,429.27,309.66Z" style="fill:#a6a6a6"></path><path d="M443.56,303a7,7,0,0,1,2.53-2.29,9.54,9.54,0,0,0,3-2.49c0-.06.13,0,.09.05a10.23,10.23,0,0,1-2.66,2.38,9.48,9.48,0,0,0-2.9,2.4C443.6,303.05,443.53,303,443.56,303Z" style="fill:#a6a6a6"></path><polygon points="437.03 324.86 436.47 336.18 434.75 370.76 408.93 370.76 407.21 336.18 406.65 324.86 437.03 324.86" style="fill:#ebebeb"></polygon><polygon points="437.03 324.86 436.47 336.18 407.21 336.18 406.65 324.86 437.03 324.86" style="fill:#dbdbdb"></polygon><rect x="404.84" y="320.13" width="34" height="10.8" style="fill:#ebebeb"></rect></g><g id="freepik--Shadow--inject-19"><ellipse cx="250" cy="417.87" rx="237.53" ry="26.28" style="fill:#ebebeb"></ellipse></g><g id="freepik--Desk--inject-19"><polygon points="30.76 370.76 85.57 370.52 140.38 370.43 250 370.27 359.62 370.43 414.43 370.52 469.24 370.76 414.43 371.01 359.62 371.1 250 371.26 140.38 371.1 85.57 371.01 30.76 370.76" style="fill:#263238"></polygon></g><g id="freepik--Device--inject-19"><rect x="82.91" y="163.51" width="332.5" height="222.42" style="fill:#dbdbdb"></rect><rect x="85.33" y="166.22" width="327.66" height="216.99" style="fill:#37474f"></rect><rect x="39.6" y="402.6" width="419.11" height="15.26" style="fill:#c7c7c7"></rect><polygon points="39.6 402.6 82.91 385.93 415.41 385.93 458.71 402.6 39.6 402.6" style="fill:#dbdbdb"></polygon><polygon points="86.78 396.69 114.72 385.93 383.6 385.93 411.54 396.69 86.78 396.69" style="fill:#37474f"></polygon><rect x="103.84" y="182.71" width="290.63" height="184.02" style="fill:#fff"></rect><rect x="103.6" y="182.71" width="290.88" height="7.08" style="fill:#a6a6a6"></rect><path d="M109.23,186.25a1.76,1.76,0,1,1-1.76-1.76A1.75,1.75,0,0,1,109.23,186.25Z" style="fill:#c7c7c7"></path><circle cx="114.64" cy="186.25" r="1.76" style="fill:#fff"></circle><path d="M123.57,186.25a1.76,1.76,0,1,1-1.76-1.76A1.75,1.75,0,0,1,123.57,186.25Z" style="fill:#BA68C8"></path></g><g id="freepik--Character--inject-19"><path d="M168.61,167.36c-10.59,14-11.26,34.73-11.26,34.73s-8.94,22-4.07,32.57A20.33,20.33,0,0,0,168,246.46l-2-5.94s5.08,7.28,18.78,8.57,30.64-5.29,39.1-11.2a35.28,35.28,0,0,0,11.72-13.68l-2.16,9.36s12.8-2.28,18.49-17-19-31.31-21.5-35.28-9.21-34.5-40.92-24.56C189.49,156.69,175.9,157.71,168.61,167.36Z" style="fill:#263238"></path><path d="M163.21,246.33c-3.92-1.21-7.49-4.51-9.86-7.77a19.08,19.08,0,0,1-3.77-11.87c.19-5.12,2.2-9.9,4.15-14.56,2-4.82,4.39-9.51,6.32-14.35.1-.27-.3-.42-.45-.2a117.36,117.36,0,0,0-6.55,11.77,54.88,54.88,0,0,0-4.82,11.81,20.6,20.6,0,0,0,.12,11.57,19.78,19.78,0,0,0,5.27,8c2.81,2.64,6.13,4.12,9.46,5.94A.16.16,0,1,0,163.21,246.33Z" style="fill:#263238"></path><path d="M252.65,202.07c-5.51-10.81-16.75-16.57-24.37-25.59-4.13-4.89-7.58-10.46-12.62-14.5-.14-.1-.32.13-.19.24,4.19,3.69,7,8.43,10.27,12.87a83.14,83.14,0,0,0,11.56,12c7.53,6.8,16.53,14.83,16.59,25.84,0,5.09-2.14,11-7,13.31-.18.08,0,.39.16.28a16.15,16.15,0,0,0,7.65-10.22A20.55,20.55,0,0,0,252.65,202.07Z" style="fill:#263238"></path><path d="M253.56,205.06a21.15,21.15,0,0,0-4.6-11.92c-2.76-3.35-6.66-5.49-10.51-7.34-4.45-2.13-9.09-4.08-12.28-8-.13-.17-.36.06-.23.22,5.09,6.48,13.34,8.67,19.45,13.86,7,5.94,8.4,15.83,5.36,24.19a34.75,34.75,0,0,1-9.17,13.34c-.07.06,0,.17.1.1C248.64,223.39,254.3,214.7,253.56,205.06Z" style="fill:#263238"></path><path d="M198,254.06c10.53,11.06,64.64,63.38,88.26,58.5,28.63-5.91,61.88-23.33,74.86-35.71,7.28-6.93-27.81-42-35.13-36.59C314.46,248.8,286.68,263,281.79,265s-46.26-19.33-70.38-27.67C189.69,229.77,190.59,246.27,198,254.06Z" style="fill:#dd6a57"></path><path d="M380.91,261.12c-6.35,8.47-26.12,20.7-32,21.82s-27.82-31.8-25.85-37.65,25.57-32.69,36-35.38S387.5,252.35,380.91,261.12Z" style="fill:#dd6a57"></path><path d="M326.25,240s3.75-13.25,3-25.35c-.66-10.18-2.79-25.22,2.67-25.78,11.21-1.15,16.51,36.36,16.51,36.36s-.33,16.93-11.33,19C330.17,245.62,326.25,240,326.25,240Z" style="fill:#dd6a57"></path><path d="M343.81,217.28c-.56,5.58,6.34,3.05,6.34,3.05s-9,6-7.4,12c1.6,5.75,9.82,2.39,10.42,2.16-.48.33-8.65,6.1-6.37,11.93,2.37,6.06,10,1.28,10.54,1-.36.44-4.93,6.43-2.19,10.47,4.7,6.94,16.82-8,23.59-8.48,0,0,2.05,11.4,2.17,11.72,0,0,11.82-14,10.73-23.13a5.86,5.86,0,0,0-5.17-5.21s4.31-4.1,2.67-8.75c-.85-2.39-5.43-3.15-5.43-3.15s3.32-3.42,1.6-7.47c-1.37-3.23-5.74-3.49-5.74-3.49s1.65-4.77-.81-7.62C373.79,196.54,345,205.33,343.81,217.28Z" style="fill:#dd6a57"></path><path d="M378.88,209.77a.08.08,0,0,0,0-.16c-10.17.58-21.17,4.34-29.11,10.81-.26.22,0,.73.3.55C359.52,215.86,368.33,212.09,378.88,209.77Z" style="fill:#263238"></path><path d="M383.84,220.78c.11,0,.07-.21,0-.21-10.48.66-22.74,5.23-31,13.77-.28.29-.24.84.11.53C358.81,229.61,374.33,222.82,383.84,220.78Z" style="fill:#263238"></path><path d="M357,248.2c8.25-7.88,18.2-12.33,29.07-15.42.14,0,.07-.24-.06-.24-5.73.07-12.46,2.76-17.51,5.3a30.24,30.24,0,0,0-11.78,10.07C356.57,248.08,356.79,248.37,357,248.2Z" style="fill:#263238"></path><path d="M350,220.28c-.31.25.41.43.1.69-1.28,1.12-8.4,8.49-6.65,11.69,1.42,2.57,5.85,2.45,7.53,1.74l4.24-1.79-3.36,3.15a18.94,18.94,0,0,0-3.74,4.81,6.71,6.71,0,0,0-.74,5.46,3.86,3.86,0,0,0,4,2.7,11.6,11.6,0,0,0,5.45-2.06l4.55-3L358.05,248a17.64,17.64,0,0,0-2.28,3.89,7.26,7.26,0,0,0-.62,4.16,3.45,3.45,0,0,0,2.46,2.69,7.73,7.73,0,0,0,4.24-.67,61.06,61.06,0,0,0,8.26-4.58c1.36-.83,2.73-1.66,4.14-2.43a11.42,11.42,0,0,1,4.49-1.63,12.31,12.31,0,0,0-4.27,2c-1.33.86-2.62,1.79-3.91,2.73a52.26,52.26,0,0,1-8.2,5.11,8.94,8.94,0,0,1-5.05,1,4.93,4.93,0,0,1-3.8-3.83,9,9,0,0,1,.64-5.18,19.3,19.3,0,0,1,2.48-4.37l1.24,1.31a13.44,13.44,0,0,1-6.42,2.5,5.63,5.63,0,0,1-3.64-1,6.33,6.33,0,0,1-2.2-3,8.5,8.5,0,0,1,.93-6.91,20.18,20.18,0,0,1,4.2-5.22l.88,1.36c-2.17.84-7.11,1.51-9.8-2.2C339,228.34,348.2,221.42,350,220.28Z" style="fill:#263238"></path><path d="M350.15,220.33a11.4,11.4,0,0,1-3.45,0,2.6,2.6,0,0,1-2.09-1.6,5.32,5.32,0,0,1,.13-3c.31-1.09.7-2.21,1.14-3.36a9,9,0,0,0-2.29,2.92,5.29,5.29,0,0,0-.45,4,3.7,3.7,0,0,0,1.41,1.73,3.87,3.87,0,0,0,2,.55A6.07,6.07,0,0,0,350.15,220.33Z" style="fill:#263238"></path><path d="M317.6,243.91l40.65,45.94s-60.34,29.54-80,25-60.25-35.14-78-57-7-27.94,17.73-19.76,59.69,24.15,63.24,24S317.6,243.91,317.6,243.91Z" style="fill:#BA68C8"></path><path d="M358.25,289.85s-60.34,29.53-80,25c-12.24-2.81-32.58-15.74-50.48-30.39a1.16,1.16,0,0,1-.21-.16c-10.78-8.84-20.66-18.28-27.32-26.49-5.77-7.09-8.52-12.52-8.78-16.34a6.68,6.68,0,0,1,.15-2.13c1.38-6,11.27-6.26,26.36-1.27,24.76,8.17,59.69,24.14,63.25,24s36.37-18.16,36.37-18.16Z" style="fill:#BA68C8"></path><path d="M248.32,285.3a4.33,4.33,0,0,1,2.36-.13,2.28,2.28,0,0,1,1.48,2.09,1.77,1.77,0,0,0,.81,1.53,1.88,1.88,0,0,0,.94.31c.38.07.75.11,1.13.21a4,4,0,0,1-2.38.09,2.29,2.29,0,0,1-1.39-2.12,1.8,1.8,0,0,0-.87-1.49,2,2,0,0,0-1-.28C249.07,285.44,248.69,285.4,248.32,285.3Z" style="fill:#fff"></path><path d="M195.17,243a4.11,4.11,0,0,1-2.37.1,2.21,2.21,0,0,1-1.33-1.59,6.68,6.68,0,0,1,.15-2.13,2.3,2.3,0,0,1,.67,1.57,1.79,1.79,0,0,0,.82,1.53,1.94,1.94,0,0,0,.93.31C194.42,242.86,194.79,242.9,195.17,243Z" style="fill:#fff"></path><path d="M305.48,269.47a4.47,4.47,0,0,1,2.37-.12,2.25,2.25,0,0,1,1.47,2.09,1.81,1.81,0,0,0,.82,1.53,1.87,1.87,0,0,0,.94.3c.37.08.75.12,1.12.22a4,4,0,0,1-2.37.09,2.3,2.3,0,0,1-1.4-2.13,1.75,1.75,0,0,0-.86-1.48,1.9,1.9,0,0,0-1-.28C306.23,269.61,305.86,269.57,305.48,269.47Z" style="fill:#fff"></path><path d="M345,286.17a4.43,4.43,0,0,1,2.36-.12,2.26,2.26,0,0,1,1.48,2.08,1.79,1.79,0,0,0,.81,1.54,1.87,1.87,0,0,0,.94.3c.38.07.75.12,1.13.22a4.15,4.15,0,0,1-2.38.09,2.29,2.29,0,0,1-1.39-2.13,1.8,1.8,0,0,0-.87-1.49,2,2,0,0,0-1-.27C345.79,286.31,345.41,286.27,345,286.17Z" style="fill:#fff"></path><path d="M268.13,297a4.47,4.47,0,0,1,2.37-.12A2.28,2.28,0,0,1,272,299a1.78,1.78,0,0,0,.81,1.53,1.87,1.87,0,0,0,.94.3c.38.08.75.12,1.13.22a4.06,4.06,0,0,1-2.38.09,2.29,2.29,0,0,1-1.39-2.13,1.78,1.78,0,0,0-.87-1.48,1.9,1.9,0,0,0-1-.28C268.88,297.17,268.5,297.12,268.13,297Z" style="fill:#fff"></path><path d="M224.77,242.06a4.47,4.47,0,0,1,2.37-.12,2.27,2.27,0,0,1,1.47,2.09,1.81,1.81,0,0,0,.82,1.53,1.88,1.88,0,0,0,.94.31c.37.07.75.11,1.13.21a4,4,0,0,1-2.38.09,2.29,2.29,0,0,1-1.39-2.12,1.78,1.78,0,0,0-.87-1.49,2,2,0,0,0-1-.28C225.53,242.21,225.15,242.16,224.77,242.06Z" style="fill:#fff"></path><path d="M318.46,294.84a4.33,4.33,0,0,1-1.58,1.76,2.27,2.27,0,0,1-2.52-.43,1.81,1.81,0,0,0-1.66-.51,1.9,1.9,0,0,0-.88.45c-.32.21-.61.45-.95.64.43-.61.75-1.36,1.62-1.74a2.29,2.29,0,0,1,2.49.52,1.77,1.77,0,0,0,1.66.44,2,2,0,0,0,.87-.48C317.83,295.27,318.13,295,318.46,294.84Z" style="fill:#fff"></path><path d="M270.94,276a4.29,4.29,0,0,1-1.59,1.76,2.26,2.26,0,0,1-2.51-.43,1.81,1.81,0,0,0-1.66-.51,1.9,1.9,0,0,0-.88.45c-.32.21-.62.45-.95.64.43-.61.75-1.36,1.61-1.74a2.29,2.29,0,0,1,2.49.52,1.8,1.8,0,0,0,1.67.44,2,2,0,0,0,.87-.48C270.31,276.47,270.6,276.24,270.94,276Z" style="fill:#fff"></path><path d="M294.05,286.32a4.4,4.4,0,0,1-1.58,1.76,2.26,2.26,0,0,1-2.52-.44,1.78,1.78,0,0,0-1.66-.5,1.81,1.81,0,0,0-.88.45c-.32.21-.61.45-1,.64.43-.61.75-1.36,1.62-1.74a2.31,2.31,0,0,1,2.49.51,1.74,1.74,0,0,0,1.66.44,2,2,0,0,0,.88-.48C293.42,286.75,293.72,286.51,294.05,286.32Z" style="fill:#fff"></path><path d="M323.94,252.35a4.43,4.43,0,0,1-1.59,1.76,2.27,2.27,0,0,1-2.52-.43,1.8,1.8,0,0,0-1.66-.51,2,2,0,0,0-.88.45c-.31.21-.61.45-1,.64.44-.61.75-1.36,1.62-1.74a2.29,2.29,0,0,1,2.49.52,1.78,1.78,0,0,0,1.66.44A2.13,2.13,0,0,0,323,253C323.31,252.78,323.6,252.55,323.94,252.35Z" style="fill:#fff"></path><path d="M209.89,250a4.47,4.47,0,0,1,.12,2.37,2.27,2.27,0,0,1-2.09,1.47,1.81,1.81,0,0,0-1.53.82,1.88,1.88,0,0,0-.31.94c-.07.37-.11.75-.21,1.13a4,4,0,0,1-.09-2.38,2.29,2.29,0,0,1,2.12-1.39,1.8,1.8,0,0,0,1.49-.87,2,2,0,0,0,.28-1C209.74,250.73,209.78,250.35,209.89,250Z" style="fill:#fff"></path><path d="M330.52,278.72a4.47,4.47,0,0,1,.12,2.37,2.26,2.26,0,0,1-2.09,1.47,1.77,1.77,0,0,0-1.53.82,1.8,1.8,0,0,0-.3.93c-.08.38-.12.75-.22,1.13a4,4,0,0,1-.09-2.37,2.3,2.3,0,0,1,2.13-1.4,1.76,1.76,0,0,0,1.48-.87,1.87,1.87,0,0,0,.28-.95C330.37,279.47,330.42,279.09,330.52,278.72Z" style="fill:#fff"></path><path d="M296.65,303.59a4.47,4.47,0,0,1,.12,2.37,2.25,2.25,0,0,1-2.09,1.47,1.81,1.81,0,0,0-1.53.82,1.87,1.87,0,0,0-.3.94c-.08.37-.12.75-.22,1.13a4.06,4.06,0,0,1-.09-2.38,2.29,2.29,0,0,1,2.13-1.39,1.78,1.78,0,0,0,1.48-.87,1.9,1.9,0,0,0,.28-1C296.51,304.35,296.55,304,296.65,303.59Z" style="fill:#fff"></path><path d="M290.73,261.57a4.47,4.47,0,0,1,.12,2.37,2.25,2.25,0,0,1-2.09,1.47,1.81,1.81,0,0,0-1.53.82,1.87,1.87,0,0,0-.3.94c-.08.37-.12.75-.22,1.12a4,4,0,0,1-.09-2.37,2.3,2.3,0,0,1,2.13-1.4,1.75,1.75,0,0,0,1.48-.86,1.9,1.9,0,0,0,.28-1C290.59,262.32,290.63,262,290.73,261.57Z" style="fill:#fff"></path><path d="M251.63,258.21a4.38,4.38,0,0,1,.12,2.37,2.25,2.25,0,0,1-2.08,1.47,1.83,1.83,0,0,0-1.54.82,1.87,1.87,0,0,0-.3.94c-.07.37-.12.75-.22,1.12a4.11,4.11,0,0,1-.09-2.37,2.31,2.31,0,0,1,2.13-1.4,1.76,1.76,0,0,0,1.49-.86,2,2,0,0,0,.27-1C251.49,259,251.53,258.59,251.63,258.21Z" style="fill:#fff"></path><path d="M227.78,284.5a1.16,1.16,0,0,1-.21-.16c0-.13.05-.26.09-.4C227.69,284.14,227.74,284.32,227.78,284.5Z" style="fill:#fff"></path><path d="M223.9,266.9a4.49,4.49,0,0,1,1.59-1.76,2.28,2.28,0,0,1,2.52.44,1.82,1.82,0,0,0,2.53.05c.32-.21.62-.44,1-.64-.44.61-.75,1.36-1.62,1.74a2.31,2.31,0,0,1-2.49-.51,1.76,1.76,0,0,0-1.67-.44,1.9,1.9,0,0,0-.87.48C224.53,266.47,224.24,266.71,223.9,266.9Z" style="fill:#fff"></path><path d="M346,295.25c-2.09-3.05-4.81-5.76-7.19-8.59s-5-5.73-7.59-8.56c-5-5.5-10.14-10.84-15.31-16.16-3-3.1-6.13-6.07-9.18-9.14-.11-.11-.3.07-.2.19,4.93,5.73,9.78,11.49,14.83,17.11s10,11,15.19,16.28c1.48,1.52,3,3,4.52,4.48a58.41,58.41,0,0,0,4.72,4.59C345.9,295.55,346.08,295.38,346,295.25Z" style="fill:#263238"></path><path d="M299.91,312.64c-8.78,2.3-16.57,3.41-21.65,2.25-12.24-2.81-32.58-15.74-50.48-30.39a1.16,1.16,0,0,1-.21-.16c-10.78-8.84-20.66-18.28-27.32-26.49-5.77-7.09-8.52-12.52-8.78-16.34a6.68,6.68,0,0,1,.15-2.13c.64-2.76,3.1-4.31,7-4.68Z" style="opacity:0.1"></path><path d="M238.22,313.07l9.47,53.66H134.25c3.23-52.46,33.67-109.84,47.09-126.19,6.72-8.19,20-9.94,30.07-3.26,2.39,1.58,30.22,42.64,32.5,48.63C248.45,297.72,238.22,313.07,238.22,313.07Z" style="fill:#BA68C8"></path><path d="M200.6,273a4.47,4.47,0,0,1,2.37-.12,2.28,2.28,0,0,1,1.47,2.09,1.81,1.81,0,0,0,1.75,1.83c.38.08.75.12,1.13.22a4,4,0,0,1-2.38.09,2.29,2.29,0,0,1-1.39-2.12,1.78,1.78,0,0,0-.87-1.49,2,2,0,0,0-1-.28C201.35,273.12,201,273.07,200.6,273Z" style="fill:#fff"></path><path d="M208,320a4.47,4.47,0,0,1,2.37-.12,2.27,2.27,0,0,1,1.47,2.09,1.81,1.81,0,0,0,.82,1.53,1.87,1.87,0,0,0,.94.3c.37.08.75.12,1.12.22a4,4,0,0,1-2.37.09,2.27,2.27,0,0,1-1.39-2.13,1.78,1.78,0,0,0-.87-1.48,1.9,1.9,0,0,0-1-.28C208.72,320.19,208.35,320.14,208,320Z" style="fill:#fff"></path><path d="M180.17,288.66a4.37,4.37,0,0,1,2.37-.13,2.28,2.28,0,0,1,1.47,2.09,1.78,1.78,0,0,0,.82,1.53,1.81,1.81,0,0,0,.93.31c.38.07.75.11,1.13.21a4,4,0,0,1-2.37.09,2.29,2.29,0,0,1-1.4-2.12,1.77,1.77,0,0,0-.87-1.49,2,2,0,0,0-.95-.28C180.92,288.8,180.55,288.76,180.17,288.66Z" style="fill:#fff"></path><path d="M165.1,336.86a4.43,4.43,0,0,1,2.36-.12,2.24,2.24,0,0,1,1.47,2.09,1.81,1.81,0,0,0,.82,1.53,1.87,1.87,0,0,0,.94.3c.37.08.75.12,1.13.22a4.06,4.06,0,0,1-2.38.09,2.29,2.29,0,0,1-1.39-2.13,1.78,1.78,0,0,0-.87-1.48,1.9,1.9,0,0,0-1-.28C165.85,337,165.47,337,165.1,336.86Z" style="fill:#fff"></path><path d="M232.93,360.27a4.47,4.47,0,0,1,2.37-.12,2.27,2.27,0,0,1,1.47,2.09,1.81,1.81,0,0,0,.82,1.53,1.87,1.87,0,0,0,.94.3c.37.08.75.12,1.13.22a4.06,4.06,0,0,1-2.38.09,2.29,2.29,0,0,1-1.39-2.13,1.78,1.78,0,0,0-.87-1.48,1.9,1.9,0,0,0-1-.28C233.69,360.42,233.31,360.37,232.93,360.27Z" style="fill:#fff"></path><path d="M140.23,343.14a4.06,4.06,0,0,1-2.38.09,1.75,1.75,0,0,1-.46-.26c.05-.33.12-.65.19-1a1.75,1.75,0,0,0,.58.63,1.87,1.87,0,0,0,.94.3C139.48,343,139.85,343,140.23,343.14Z" style="fill:#fff"></path><path d="M188.45,239a4.37,4.37,0,0,1,2.37-.13,2.28,2.28,0,0,1,1.47,2.09,1.77,1.77,0,0,0,.81,1.53,1.88,1.88,0,0,0,.94.31c.38.07.75.11,1.13.21a4,4,0,0,1-2.37.09,2.28,2.28,0,0,1-1.4-2.12,1.77,1.77,0,0,0-.87-1.49,2,2,0,0,0-1-.28C189.2,239.13,188.82,239.09,188.45,239Z" style="fill:#fff"></path><path d="M228.77,307a4.4,4.4,0,0,1-1.58,1.76,2.26,2.26,0,0,1-2.52-.44,1.78,1.78,0,0,0-1.66-.5,1.81,1.81,0,0,0-.88.45c-.32.21-.61.45-.95.64.43-.61.75-1.36,1.62-1.74a2.31,2.31,0,0,1,2.49.51,1.74,1.74,0,0,0,1.66.44,1.9,1.9,0,0,0,.87-.48C228.14,307.39,228.44,307.15,228.77,307Z" style="fill:#fff"></path><path d="M155.86,291.94a4.49,4.49,0,0,1-1.59,1.76,2.21,2.21,0,0,1-1.8,0c.11-.27.21-.54.33-.81a1.86,1.86,0,0,0,1.23.15,2.1,2.1,0,0,0,.88-.49C155.23,292.36,155.53,292.13,155.86,291.94Z" style="fill:#fff"></path><path d="M155.86,324.31a4.35,4.35,0,0,1-1.59,1.76,2.26,2.26,0,0,1-2.51-.43,1.81,1.81,0,0,0-1.66-.51,1.9,1.9,0,0,0-.88.45c-.32.21-.62.45-.95.64.43-.61.75-1.36,1.61-1.74a2.29,2.29,0,0,1,2.49.52,1.8,1.8,0,0,0,1.67.44,2,2,0,0,0,.87-.49C155.23,324.74,155.52,324.51,155.86,324.31Z" style="fill:#fff"></path><path d="M187.31,357a4.43,4.43,0,0,1-1.59,1.76,2.26,2.26,0,0,1-2.52-.44,1.78,1.78,0,0,0-1.66-.5,1.86,1.86,0,0,0-.88.45c-.31.21-.61.45-.95.64.44-.61.75-1.36,1.62-1.74a2.31,2.31,0,0,1,2.49.51,1.75,1.75,0,0,0,1.66.44,2,2,0,0,0,.88-.48C186.67,357.45,187,357.21,187.31,357Z" style="fill:#fff"></path><path d="M189.67,317.33a4.49,4.49,0,0,1-1.59,1.76,2.26,2.26,0,0,1-2.51-.44,1.85,1.85,0,0,0-2.54-.06c-.32.22-.62.45-.95.65.43-.61.74-1.36,1.61-1.74a2.27,2.27,0,0,1,2.49.51,1.8,1.8,0,0,0,1.67.44,2,2,0,0,0,.87-.48C189,317.75,189.33,317.52,189.67,317.33Z" style="fill:#fff"></path><path d="M216.33,350.3a4.57,4.57,0,0,1-1.59,1.76,2.26,2.26,0,0,1-2.52-.44,1.78,1.78,0,0,0-1.66-.5,1.81,1.81,0,0,0-.88.45c-.32.21-.61.44-1,.64.43-.61.75-1.36,1.62-1.74a2.31,2.31,0,0,1,2.49.51,1.74,1.74,0,0,0,1.66.44,2,2,0,0,0,.88-.48C215.69,350.73,216,350.49,216.33,350.3Z" style="fill:#fff"></path><path d="M209.89,250a4.47,4.47,0,0,1,.12,2.37,2.27,2.27,0,0,1-2.09,1.47,1.81,1.81,0,0,0-1.53.82,1.88,1.88,0,0,0-.31.94c-.07.37-.11.75-.21,1.13a4,4,0,0,1-.09-2.38,2.29,2.29,0,0,1,2.12-1.39,1.8,1.8,0,0,0,1.49-.87,2,2,0,0,0,.28-1C209.74,250.73,209.78,250.35,209.89,250Z" style="fill:#fff"></path><path d="M232,333.9a4.37,4.37,0,0,1,.13,2.37,2.28,2.28,0,0,1-2.09,1.47,1.8,1.8,0,0,0-1.53.82,1.88,1.88,0,0,0-.31.94c-.07.37-.11.75-.21,1.12a4,4,0,0,1-.09-2.37,2.28,2.28,0,0,1,2.12-1.4,1.76,1.76,0,0,0,1.49-.86,2,2,0,0,0,.28-1C231.82,334.65,231.86,334.28,232,333.9Z" style="fill:#fff"></path><path d="M227.66,283.94a4.38,4.38,0,0,1,.12,2.37,2.26,2.26,0,0,1-2.08,1.47,1.81,1.81,0,0,0-1.54.82,1.84,1.84,0,0,0-.3.94c-.07.37-.12.75-.22,1.12a4.11,4.11,0,0,1-.09-2.37,2.3,2.3,0,0,1,2.13-1.4,1.77,1.77,0,0,0,1.49-.87,2,2,0,0,0,.27-.95C227.52,284.69,227.56,284.32,227.66,283.94Z" style="fill:#fff"></path><path d="M204.86,296.77a4.47,4.47,0,0,1,.13,2.37,2.28,2.28,0,0,1-2.09,1.47,1.85,1.85,0,0,0-1.84,1.76c-.07.37-.12.75-.22,1.12a4,4,0,0,1-.08-2.37,2.28,2.28,0,0,1,2.12-1.4,1.76,1.76,0,0,0,1.49-.86,2.17,2.17,0,0,0,.28-1C204.72,297.52,204.76,297.15,204.86,296.77Z" style="fill:#fff"></path><path d="M154.07,351.28a4.47,4.47,0,0,1,.12,2.37,2.26,2.26,0,0,1-2.09,1.47,1.79,1.79,0,0,0-1.53.82,1.83,1.83,0,0,0-.3.93c-.07.38-.12.76-.22,1.13a4.11,4.11,0,0,1-.09-2.37,2.3,2.3,0,0,1,2.13-1.4,1.77,1.77,0,0,0,1.49-.87,2,2,0,0,0,.27-.95C153.93,352,154,351.66,154.07,351.28Z" style="fill:#fff"></path><path d="M170.46,272.68a4.47,4.47,0,0,1,.13,2.37,2.28,2.28,0,0,1-2.09,1.47,1.83,1.83,0,0,0-1.84,1.75c-.07.38-.12.75-.22,1.13a4,4,0,0,1-.08-2.37,2.28,2.28,0,0,1,2.12-1.4,1.77,1.77,0,0,0,1.49-.87,2,2,0,0,0,.27-.95C170.32,273.43,170.36,273.05,170.46,272.68Z" style="fill:#fff"></path><path d="M170.46,305.57a4.47,4.47,0,0,1,.13,2.37,2.28,2.28,0,0,1-2.09,1.47,1.83,1.83,0,0,0-1.84,1.75c-.07.38-.12.75-.22,1.13a4.06,4.06,0,0,1-.08-2.38,2.27,2.27,0,0,1,2.12-1.39,1.8,1.8,0,0,0,1.49-.87,2,2,0,0,0,.27-1C170.32,306.32,170.36,305.94,170.46,305.57Z" style="fill:#fff"></path><path d="M196.9,333.9a4.47,4.47,0,0,1,.12,2.37,2.26,2.26,0,0,1-2.09,1.47,1.81,1.81,0,0,0-1.53.82,1.87,1.87,0,0,0-.3.94c-.08.37-.12.75-.22,1.12a4,4,0,0,1-.09-2.37,2.3,2.3,0,0,1,2.13-1.4,1.75,1.75,0,0,0,1.48-.86,1.94,1.94,0,0,0,.28-1C196.75,334.65,196.8,334.28,196.9,333.9Z" style="fill:#fff"></path><path d="M223.9,266.9a4.49,4.49,0,0,1,1.59-1.76,2.28,2.28,0,0,1,2.52.44,1.82,1.82,0,0,0,2.53.05c.32-.21.62-.44,1-.64-.44.61-.75,1.36-1.62,1.74a2.31,2.31,0,0,1-2.49-.51,1.76,1.76,0,0,0-1.67-.44,1.9,1.9,0,0,0-.87.48C224.53,266.47,224.24,266.71,223.9,266.9Z" style="fill:#fff"></path><path d="M183.51,263.54a4.42,4.42,0,0,1,1.59-1.76,2.24,2.24,0,0,1,2.51.44,1.78,1.78,0,0,0,1.66.5,1.81,1.81,0,0,0,.88-.45c.32-.21.62-.44.95-.64-.43.61-.75,1.36-1.61,1.74a2.31,2.31,0,0,1-2.49-.51,1.77,1.77,0,0,0-1.67-.44,1.9,1.9,0,0,0-.87.48C184.14,263.11,183.85,263.35,183.51,263.54Z" style="fill:#fff"></path><path d="M175.68,245.67c-15.08,12.45-69.26,58.56-66,74.93,3.28,16.58,15.83,30,25.48,20.7,8-7.63,43.32-64.26,49.73-79.4C191,247.48,190.5,233.43,175.68,245.67Z" style="fill:#dd6a57"></path><path d="M108.3,316c0,11.48,7.69,33.12,22.62,29.09,9.78-2.63,50.34-69.49,56.88-85.35,7.57-18.37,1-25.59-13-14.76S108.32,299.61,108.3,316Z" style="fill:#BA68C8"></path><path d="M150.42,267.93a4,4,0,0,1-2.37.09,1.86,1.86,0,0,1-.34-.18,6.66,6.66,0,0,0,.56-.5l.09.07a1.87,1.87,0,0,0,.93.3C149.67,267.79,150.05,267.84,150.42,267.93Z" style="fill:#fff"></path><path d="M132.29,306.92a4.47,4.47,0,0,1,2.37-.12,2.25,2.25,0,0,1,1.47,2.09,1.81,1.81,0,0,0,.82,1.53,1.87,1.87,0,0,0,.94.3c.37.08.75.12,1.12.22a4,4,0,0,1-2.37.09,2.3,2.3,0,0,1-1.4-2.13,1.75,1.75,0,0,0-.86-1.48,1.94,1.94,0,0,0-1-.28C133,307.06,132.67,307,132.29,306.92Z" style="fill:#fff"></path><path d="M137.08,340.09c-.22.24-.44.48-.66.7a1.8,1.8,0,0,0-.83-1.18,2,2,0,0,0-1-.27c-.37-.07-.75-.12-1.13-.22a4.48,4.48,0,0,1,2.37-.12A2.12,2.12,0,0,1,137.08,340.09Z" style="fill:#fff"></path><path d="M155.86,291.94a4.42,4.42,0,0,1-1.59,1.76,2.24,2.24,0,0,1-2.51-.44,1.78,1.78,0,0,0-1.66-.5,1.81,1.81,0,0,0-.88.45c-.32.21-.62.44-.95.64.43-.61.75-1.36,1.61-1.74a2.31,2.31,0,0,1,2.49.51,1.77,1.77,0,0,0,1.67.44,1.9,1.9,0,0,0,.87-.48C155.23,292.37,155.52,292.13,155.86,291.94Z" style="fill:#fff"></path><path d="M172.72,248a4.43,4.43,0,0,1,.12,2.36,2.23,2.23,0,0,1-2.08,1.47,1.82,1.82,0,0,0-1.54.82,1.87,1.87,0,0,0-.3.94c-.07.38-.12.75-.22,1.13a4.15,4.15,0,0,1-.09-2.38,2.29,2.29,0,0,1,2.13-1.39,1.8,1.8,0,0,0,1.49-.87,2,2,0,0,0,.27-1C172.58,248.75,172.62,248.37,172.72,248Z" style="fill:#fff"></path><path d="M170.46,272.68a4.47,4.47,0,0,1,.13,2.37,2.28,2.28,0,0,1-2.09,1.47,1.83,1.83,0,0,0-1.84,1.75c-.07.38-.12.75-.22,1.13a4,4,0,0,1-.08-2.37,2.28,2.28,0,0,1,2.12-1.4,1.77,1.77,0,0,0,1.49-.87,2,2,0,0,0,.27-.95C170.32,273.43,170.36,273.05,170.46,272.68Z" style="fill:#fff"></path><path d="M123.08,325.29a4.47,4.47,0,0,1,.12,2.37,2.25,2.25,0,0,1-2.08,1.47,1.82,1.82,0,0,0-1.54.82,1.87,1.87,0,0,0-.3.94c-.07.37-.12.75-.22,1.13a4.15,4.15,0,0,1-.09-2.38,2.29,2.29,0,0,1,2.13-1.39,1.8,1.8,0,0,0,1.49-.87,2,2,0,0,0,.27-1C122.94,326.05,123,325.67,123.08,325.29Z" style="fill:#fff"></path><path d="M186.92,261.76c-.11.25-.24.52-.37.79a1.76,1.76,0,0,0-1.22-.13,1.9,1.9,0,0,0-.87.48c-.32.21-.61.45-1,.64.45-.62.74-1.34,1.59-1.76A2.18,2.18,0,0,1,186.92,261.76Z" style="fill:#fff"></path><path d="M178.15,282.87c-1.35,1.88-2.84,3.66-4.28,5.47l-1,1.3q1.35-2.59,2.64-5.22a79.1,79.1,0,0,0,3.53-7.73c.07-.17-.19-.25-.28-.11-1.35,2.12-2.43,4.38-3.71,6.54s-2.51,4.35-3.73,6.54c-2.46,4.37-5,8.72-7.59,13-5.21,8.56-10.76,16.93-16.5,25.15-1.61,2.3-3.2,4.62-4.89,6.87s-3.28,4.69-5,6.95c-.06.08.05.19.12.11,1.62-2,3.29-3.87,4.94-5.8S145.45,332,147,330c3.09-4,6-8.08,8.86-12.23a301,301,0,0,0,15.81-25.87l.35-.68c.82-.87,1.62-1.77,2.38-2.71,1.43-1.78,2.67-3.69,3.92-5.6C178.36,282.86,178.21,282.78,178.15,282.87Z" style="fill:#263238"></path><path d="M209.32,237.22s3.31,13.56-.64,15.43c-7.37,3.49-20.54-7.35-21.4-9.29-.21-.5-1.31-13.53-2.13-23.65-.54-6.52-1-11.84-1-11.84L210,218.12l-.58,17.82Z" style="fill:#dd6a57"></path><path d="M210,218.12l-.58,17.82a35.77,35.77,0,0,1-24.22-16.23c-.54-6.52-1-11.84-1-11.84l3.23,1.16Z" style="fill:#263238"></path><path d="M214.74,197.86c.39,7.29,5.89,12.91,12.28,12.56s11.25-6.53,10.86-13.81-5.9-12.91-12.29-12.56S214.34,190.58,214.74,197.86Z" style="fill:#455a64"></path><path d="M211,198.53c.44,8.1,6.56,14.35,13.67,14s12.51-7.27,12.08-15.37-6.56-14.36-13.67-14S210.58,190.42,211,198.53Z" style="fill:#c7c7c7"></path><path d="M232.72,192.56c2.41,31.2-16,36.17-22.73,36.68-6.11.47-27,1.28-32.6-29.51s8.12-41.77,22-43.58S230.3,161.35,232.72,192.56Z" style="fill:#dd6a57"></path><path d="M223,187a21.56,21.56,0,0,1-2.13-.38,3.5,3.5,0,0,1-2.09-.81,1.11,1.11,0,0,1,0-1.36,2.74,2.74,0,0,1,2.7-.72,4.07,4.07,0,0,1,2.59,1.36A1.19,1.19,0,0,1,223,187Z" style="fill:#263238"></path><path d="M201.59,188.67a21.5,21.5,0,0,0,2.09-.57,3.52,3.52,0,0,0,2-1,1.1,1.1,0,0,0-.08-1.35,2.75,2.75,0,0,0-2.75-.49,4.06,4.06,0,0,0-2.46,1.58A1.19,1.19,0,0,0,201.59,188.67Z" style="fill:#263238"></path><path d="M207,196.27c0-.08-.15.12-.14.2.25,2.12.19,4.59-1.67,5.46-.06,0,0,.13,0,.12C207.53,201.51,207.58,198.23,207,196.27Z" style="fill:#263238"></path><path d="M204.91,194.22c-3.44,0-3.1,6.91.09,6.87S207.79,194.18,204.91,194.22Z" style="fill:#263238"></path><path d="M203.58,194.65c-.58.42-1.14,1.13-1.86,1.24s-1.5-.56-2.08-1.23c-.06-.07-.11,0-.11.09,0,1.31.62,2.64,2,2.77s2.16-1.1,2.42-2.44C204,194.83,203.81,194.48,203.58,194.65Z" style="fill:#263238"></path><path d="M219.41,194.88c0-.09.17.09.17.18,0,2.13.4,4.57,2.36,5.19.06,0,.06.13,0,.12C219.56,200.14,219.09,196.9,219.41,194.88Z" style="fill:#263238"></path><path d="M221.22,192.57c3.41-.4,4,6.46.8,6.83S218.36,192.91,221.22,192.57Z" style="fill:#263238"></path><path d="M222.68,192.91c.57.32,1.16.94,1.81.93s1.25-.8,1.68-1.55c0-.08.1,0,.11.07.14,1.3-.18,2.7-1.42,3.06s-2.07-.74-2.48-2C222.3,193.16,222.45,192.78,222.68,192.91Z" style="fill:#263238"></path><path d="M208.94,212.76c.51.5,1,1.18,1.8,1.24a5.73,5.73,0,0,0,2.29-.54.07.07,0,0,1,.09.11,2.86,2.86,0,0,1-2.7,1.16,2.23,2.23,0,0,1-1.68-1.87C208.7,212.73,208.87,212.69,208.94,212.76Z" style="fill:#263238"></path><path d="M217.36,204.53s.64,3.15.73,4.65c0,.14-.35.23-.86.29,0,0,0,0-.06,0a7.11,7.11,0,0,1-7.08-2.24c-.11-.14.07-.3.21-.22a10.8,10.8,0,0,0,6.62,1.47c.08-.42-1.26-5.36-1-5.39a13.17,13.17,0,0,1,3.45.56c-1.12-6.6-3.3-13-4.33-19.55a.21.21,0,0,1,.39-.12c2.75,6.51,4.22,14.07,5.56,20.86C221.13,205.68,218,204.75,217.36,204.53Z" style="fill:#263238"></path><path d="M216.19,208.72a7.9,7.9,0,0,1-2.84,2.8,3.55,3.55,0,0,1-2.12.38c-1.6-.22-1.8-1.63-1.66-2.88a8.37,8.37,0,0,1,.47-1.94A10.16,10.16,0,0,0,216.19,208.72Z" style="fill:#263238"></path><path d="M213.35,211.52a3.55,3.55,0,0,1-2.12.38c-1.6-.22-1.8-1.63-1.66-2.88C211.24,209,213,209.92,213.35,211.52Z" style="fill:#f392b9"></path><path d="M177.85,196.93c3.41,0,12.73-8.92,13.84-25.31,0,0-2,14.65-3.23,16.75s5.21-5,6.29-18.22c0,0,7.06,5.66,13.21,7.73s10,2.21,10.46,1.78-8.58-3.79-10.92-6.79c0,0,16.23,8.58,23.86,9.55.88.11-1.15-13.47-12.6-21.81s-26.62-5.52-31.91-.91c0,0-6,.54-12.85,9S174.18,197,177.85,196.93Z" style="fill:#263238"></path><path d="M182.54,201.75s-6.74-9.84-11.2-7.44.55,16.6,5.74,18.59a5.3,5.3,0,0,0,7.12-2.78Z" style="fill:#dd6a57"></path><path d="M172.88,198.35a.07.07,0,0,0,0,.13c3.64,1.52,5.53,4.92,6.84,8.44-1.07-1.36-2.55-2.12-4.37-.84-.09.07,0,.22.1.19a3.27,3.27,0,0,1,3.57,1.17,15.42,15.42,0,0,1,1.69,2.92c.17.33.76.16.64-.22l0-.08C181.43,205.4,177.87,198.86,172.88,198.35Z" style="fill:#263238"></path><path d="M180,211.54a1.1,1.1,0,1,1-1.06-1.13A1.1,1.1,0,0,1,180,211.54Z" style="fill:#fff"></path><path d="M177,209.54a.69.69,0,0,1-.72.66.68.68,0,0,1-.66-.71.69.69,0,0,1,.71-.67A.71.71,0,0,1,177,209.54Z" style="fill:#fff"></path><path d="M171.65,200.51l-2.15.45a.43.43,0,0,1-.51-.34h0a.43.43,0,0,1,.33-.51l2.15-.45a.43.43,0,0,1,.51.34h0A.43.43,0,0,1,171.65,200.51Z" style="fill:#BA68C8"></path><path d="M171.41,199.13l-2.19.13a.43.43,0,0,1-.46-.41h0a.44.44,0,0,1,.41-.46l2.18-.13a.44.44,0,0,1,.47.4h0A.45.45,0,0,1,171.41,199.13Z" style="fill:#BA68C8"></path><path d="M176.07,194.24s-2.64-15.74,1.13-25c4.2-10.24,24.25-18.78,39.94-9.78,0,0-23.84-4.74-33.6,9.86-4.11,6.15-2.14,24.76-2.14,24.76Z" style="fill:#c7c7c7"></path><ellipse cx="178.89" cy="202.17" rx="12.89" ry="14.69" transform="translate(-20.98 20.71) rotate(-6.26)" style="fill:#c7c7c7"></ellipse><path d="M187.92,200.72c.8,7.25-3.71,13.69-10.07,14.39s-12.17-4.61-13-11.86,3.72-13.7,10.08-14.39S187.13,193.47,187.92,200.72Z" style="fill:#455a64"></path><polygon points="204.86 222.03 194.43 220.17 184.59 212.48 185.78 210.96 195.24 218.36 205.19 220.13 204.86 222.03" style="fill:#c7c7c7"></polygon><path d="M203.49,220.76c.28-3,8.25-3.77,7.83.73S203.21,223.74,203.49,220.76Z" style="fill:#37474f"></path><path d="M209.4,236.83l-2.63,14.6-20.28-13.6-3.61,6.46s22,23.71,21.83,22.46L207.87,254l9.69,6.42-4.85-20.16Z" style="fill:#fff"></path><path d="M136.5,339.83c-9.28,11.33-24.38-1.61-26.1-11.69-4.05-23.67,1.16-67.08,8.06-87.65,2.22-6.62,46.18,6,46.29,13.45C164.86,261.76,155.32,316.84,136.5,339.83Z" style="fill:#dd6a57"></path><path d="M117.28,252.39s.66-21.73,8.39-36.21c5.34-10,19.39-30.5,53.24-32,8-.34,19.71,4.86,6.8,10.19-9.17,3.78-16.12,3.41-21.06,6.58,0,0,14.08,8.38,14.11,16.43a149.11,149.11,0,0,1-1.42,21.06,30.82,30.82,0,0,1-4,.09s-.2,7.54-8.62,15.36Z" style="fill:#dd6a57"></path><path d="M132.29,207.44c5.56-2.11,17.42-6.39,28.34-6.51,12.13-.14,35.53,2.86,35.54,11.81,0,6.57-9,6.21-9,6.21s9.41,3.28,8.12,9.21c-1.18,5.41-8.15,4.71-8.15,4.71s5.37,3,3.23,8c-2.57,6-13.4-1.21-21.25,2.62C167.34,244.31,132.29,207.44,132.29,207.44Z" style="fill:#dd6a57"></path><path d="M158.64,213.77c5.56-1.13,18.83-.46,28.38,5,.22.12.24.35,0,.28a119.11,119.11,0,0,0-28.4-5.13C158.58,213.88,158.58,213.78,158.64,213.77Z" style="fill:#263238"></path><path d="M159.14,226c4.89-.48,18.54.82,28,6.64.21.13.22.37,0,.29a127.74,127.74,0,0,0-28-6.82A.06.06,0,0,1,159.14,226Z" style="fill:#263238"></path><path d="M195.12,208.84c-1.32-1.46-3.19-2-4.83-3-.09-.05-.17.1-.08.14,2.89,1.21,5.92,4.07,5.44,7.46-.58,4.08-5.47,5.12-8.86,5.21-.17,0-.09.19.08.22,3.77.66,9.09-.65,9.79-5.09A5.93,5.93,0,0,0,195.12,208.84Z" style="fill:#263238"></path><path d="M186.32,218.52c-.09,0-.16.1-.07.14,5.22,2,8.44,5.63,8.7,7.69a5,5,0,0,1-2.31,5.19,8.86,8.86,0,0,1-5.95.94c-.17,0-.23.22-.07.25,2.45.45,7.16,1,8.86-2.95C196.9,226.48,195.31,221,186.32,218.52Z" style="fill:#263238"></path><path d="M190.17,235.2a7.84,7.84,0,0,0-4.28-3c-.08,0-.14.11,0,.14,3,1.21,5.57,4.8,4.61,8.13-.06.21.25.27.32.08A6.09,6.09,0,0,0,190.17,235.2Z" style="fill:#263238"></path><path d="M191.81,188.89c-.24-1.5-2.13-3-5.76-3.68,0,0,0,0,0,0,3,.82,5.19,2.44,5.17,3.9s-1.1,3-4.28,4.71c-.09,0,0,.09.07.05C188.89,193,192.23,191.58,191.81,188.89Z" style="fill:#263238"></path><path d="M115,244.13l54.4,18.32s-19.82,61.05-29.18,74.16-22.34,10.75-29.83-5.51S115,244.13,115,244.13Z" style="fill:#BA68C8"></path><path d="M143.7,263.91a4.47,4.47,0,0,1,2.37-.12,2.27,2.27,0,0,1,1.47,2.09,1.81,1.81,0,0,0,.82,1.53,1.87,1.87,0,0,0,.94.3c.37.08.75.12,1.12.22a4,4,0,0,1-2.37.09,2.3,2.3,0,0,1-1.4-2.13,1.75,1.75,0,0,0-.86-1.48,2,2,0,0,0-1-.28C144.45,264.06,144.08,264,143.7,263.91Z" style="fill:#fff"></path><path d="M132.29,306.92a4.47,4.47,0,0,1,2.37-.12,2.25,2.25,0,0,1,1.47,2.09,1.81,1.81,0,0,0,.82,1.53,1.87,1.87,0,0,0,.94.3c.37.08.75.12,1.12.22a4,4,0,0,1-2.37.09,2.3,2.3,0,0,1-1.4-2.13,1.75,1.75,0,0,0-.86-1.48,1.94,1.94,0,0,0-1-.28C133,307.06,132.67,307,132.29,306.92Z" style="fill:#fff"></path><path d="M137.15,340.24c-.24.24-.48.46-.72.67a1.79,1.79,0,0,0-.85-1.3,1.93,1.93,0,0,0-1-.27c-.37-.07-.75-.12-1.13-.22a4.48,4.48,0,0,1,2.37-.12A2.15,2.15,0,0,1,137.15,340.24Z" style="fill:#fff"></path><path d="M155.86,291.94a4.42,4.42,0,0,1-1.59,1.76,2.24,2.24,0,0,1-2.51-.44,1.78,1.78,0,0,0-1.66-.5,1.81,1.81,0,0,0-.88.45c-.32.21-.62.44-.95.64.43-.61.75-1.36,1.61-1.74a2.31,2.31,0,0,1,2.49.51,1.77,1.77,0,0,0,1.67.44,1.9,1.9,0,0,0,.87-.48C155.23,292.37,155.52,292.13,155.86,291.94Z" style="fill:#fff"></path><path d="M118.82,295.79a4.5,4.5,0,0,1-1.59,1.76,2.26,2.26,0,0,1-2.52-.44,1.78,1.78,0,0,0-1.66-.5,1.81,1.81,0,0,0-.88.45c-.31.21-.61.45-1,.64.44-.61.75-1.36,1.62-1.74a2.31,2.31,0,0,1,2.49.51,1.75,1.75,0,0,0,1.66.44,2,2,0,0,0,.88-.48C118.18,296.22,118.48,296,118.82,295.79Z" style="fill:#fff"></path><path d="M124.87,255.71a4.35,4.35,0,0,1-1.59,1.76,2.26,2.26,0,0,1-2.51-.43,1.81,1.81,0,0,0-1.66-.51,1.9,1.9,0,0,0-.88.45c-.32.21-.62.45-1,.64.43-.61.75-1.36,1.61-1.74a2.29,2.29,0,0,1,2.49.52,1.8,1.8,0,0,0,1.67.44,2,2,0,0,0,.87-.48C124.24,256.14,124.54,255.91,124.87,255.71Z" style="fill:#fff"></path><path d="M130.3,276a4.47,4.47,0,0,1,.13,2.37,2.28,2.28,0,0,1-2.09,1.47,1.76,1.76,0,0,0-1.53.82,1.72,1.72,0,0,0-.31.93c-.07.38-.12.75-.22,1.13a4,4,0,0,1-.08-2.37,2.28,2.28,0,0,1,2.12-1.4,1.77,1.77,0,0,0,1.49-.87,2.08,2.08,0,0,0,.28-.95C130.16,276.79,130.2,276.41,130.3,276Z" style="fill:#fff"></path><path d="M123.08,325.29a4.47,4.47,0,0,1,.12,2.37,2.25,2.25,0,0,1-2.08,1.47,1.82,1.82,0,0,0-1.54.82,1.87,1.87,0,0,0-.3.94c-.07.37-.12.75-.22,1.13a4.15,4.15,0,0,1-.09-2.38,2.29,2.29,0,0,1,2.13-1.39,1.8,1.8,0,0,0,1.49-.87,2,2,0,0,0,.27-1C122.94,326.05,123,325.67,123.08,325.29Z" style="fill:#fff"></path><path d="M163.33,272.64a92.21,92.21,0,0,0-9.07-3.57c-3.1-1.2-6.23-2.26-9.36-3.33-6.08-2.09-12.21-3.95-18.34-5.79-3.57-1.08-7.16-2-10.73-3-.13,0-.18.22,0,.27,6.14,2.3,12.26,4.69,18.45,6.84s12.17,4.14,18.31,5.95c1.75.52,3.52,1,5.28,1.47a46.24,46.24,0,0,0,5.46,1.44C163.42,272.94,163.46,272.71,163.33,272.64Z" style="fill:#263238"></path><path d="M170.5,262.59c-.15-.49-6.18-2.06-6.49-2.15-.09,0-.13.12,0,.15.29.1,5.4,2.23,5.38,2.27-3,8-5.74,16.08-8.62,24.12s-5.83,16.1-8.55,24.23c-1.53,4.55-1.43,5,.19,1.08s3.28-7.14,4.77-11.12c3-8,5.81-16.13,8.62-24.23C167.36,272.35,170.55,262.75,170.5,262.59Z" style="fill:#263238"></path></g><g id="freepik--call-button--inject-19"><path d="M265.47,357.63H234.53a11.31,11.31,0,0,1-11.3-11.31h0A11.31,11.31,0,0,1,234.53,335h30.94a11.31,11.31,0,0,1,11.3,11.31h0A11.31,11.31,0,0,1,265.47,357.63Z" style="fill:#455a64"></path><g id="freepik--IaQ7Yo--inject-19"><path d="M241.3,346.13a1.86,1.86,0,0,1,.34-1c.08-.14.18-.27.27-.41l.6-.59c.23-.17.45-.34.69-.5a8.56,8.56,0,0,1,3.12-1.21,19.77,19.77,0,0,1,7.74,0,8.34,8.34,0,0,1,3.08,1.19c.25.16.48.34.72.51l.57.58a6.92,6.92,0,0,1,.42.68,7.13,7.13,0,0,1,.25.74l-.18,0H254a.19.19,0,0,1-.2-.11,1.71,1.71,0,0,0-1.45-.93,34.31,34.31,0,0,0-4.42,0,1.71,1.71,0,0,0-1.45.92.16.16,0,0,1-.16.12h-5Z" style="fill:#fff"></path><path d="M241.29,349v-1.73a.45.45,0,0,1,0-.12h5c0,.11,0,.24,0,.36,0,.49,0,1,0,1.47a.57.57,0,0,1-.64.64h-3.74A.56.56,0,0,1,241.29,349Z" style="fill:#fff"></path><path d="M254.06,349c0-.63,0-1.25.05-1.88h4.94s0,.07,0,.11V349a.55.55,0,0,1-.61.61h-3.78A.55.55,0,0,1,254.06,349Z" style="fill:#fff"></path></g></g><g id="freepik--Wrench--inject-19"><path d="M460.38,182.78a19.06,19.06,0,0,1,4.6,19.57l-11.05-11-8.14,3.87-3.88,8.15,11,11.06a19.09,19.09,0,1,1,7.42-31.6Z" style="fill:#BA68C8"></path><path d="M372.48,148.86a19.07,19.07,0,0,1-4.6-19.57l11.05,11.05,8.14-3.88,3.88-8.14L379.9,117.26a19.09,19.09,0,1,1-7.42,31.6Z" style="fill:#BA68C8"></path><rect x="407.16" y="130.47" width="17" height="69.17" transform="translate(5.04 342.26) rotate(-45)" style="fill:#BA68C8"></rect></g><g id="freepik--speech-bubble--inject-19"><path d="M253.31,167.22a17.52,17.52,0,0,1-3-9.71c0-12.3,13.51-22.27,30.16-22.27s30.15,10,30.15,22.27-13.5,22.28-30.15,22.28a36.25,36.25,0,0,1-20.8-6.16l-10.39,2.64Z" style="fill:#BA68C8"></path><path d="M291.31,157.51a3.13,3.13,0,1,0,3.12-3.12A3.13,3.13,0,0,0,291.31,157.51Z" style="fill:#263238"></path><circle cx="280.46" cy="157.51" r="3.13" style="fill:#263238"></circle><path d="M263.36,157.51a3.13,3.13,0,1,0,3.12-3.12A3.13,3.13,0,0,0,263.36,157.51Z" style="fill:#263238"></path></g></svg>