<svg xmlns="http://www.w3.org/2000/svg" viewBox="0 0 500 500"><g id="freepik--background-complete--inject-6"><path d="M95.6,288.52c0-1.92-.11-3.82-.13-5.7l.28.28c-4.54,0-9.09.16-13.63.17l-13.63.06.51-.51,0,11.52-.46-.46c2.24,0,4.48,0,6.74.05l6.77.12,13.75.29Zm-13.36,6.1-6.86.12c-2.29.05-4.59,0-6.89.06H68v-.46L68,282.82v-.52h.52l13.63.07c4.54,0,9.09.11,13.63.17H96v.28c0,1.95-.09,3.9-.13,5.82l-.15,5.7Z" style="fill:#ebebeb"></path><path d="M80.4,303c-.05-1.92-.12-3.81-.14-5.7l.28.28c-4.54.06-9.08.17-13.63.17l-13.63.07.52-.52-.06,11.52-.46-.46c2.25,0,4.49,0,6.74.06l6.77.11,13.75.29ZM67,309.15l-6.86.11c-2.29.05-4.59,0-6.89.06h-.46v-.46l0-11.52v-.51h.52l13.63.06c4.55,0,9.09.12,13.63.17h.29v.28c0,2-.09,3.9-.13,5.82l-.15,5.7Z" style="fill:#ebebeb"></path><path d="M110.81,303c0-1.92-.12-3.81-.14-5.7l.29.28c-4.55.06-9.09.17-13.63.17l-13.63.07.51-.52-.06,11.52-.45-.46c2.24,0,4.48,0,6.73.06l6.78.11,13.75.29Zm-13.37,6.11-6.85.11c-2.29.05-4.6,0-6.89.06h-.46v-.46l-.06-11.52v-.51h.52l13.63.06c4.54,0,9.08.12,13.63.17h.28v.28c0,2-.09,3.9-.14,5.82l-.14,5.7Z" style="fill:#ebebeb"></path><path d="M431.6,303c-.05-1.92-.12-3.81-.14-5.7l.28.28c-4.54.06-9.08.17-13.63.17l-13.63.07.52-.52-.06,11.52-.46-.46c2.25,0,4.49,0,6.74.06l6.78.11,13.74.29Zm-13.37,6.11-6.85.11c-2.3.05-4.6,0-6.9.06H404v-.46L404,297.34v-.51h.51l13.63.06c4.55,0,9.09.12,13.63.17H432v.28c0,2-.09,3.9-.14,5.82l-.15,5.7Z" style="fill:#ebebeb"></path><path d="M431.6,59.05c-.05-1.92-.12-3.82-.14-5.7l.28.28c-4.54,0-9.08.16-13.63.17l-13.63.06.52-.51-.06,11.52-.46-.46c2.25,0,4.49,0,6.74.06l6.78.11,13.74.29Zm-13.37,6.1-6.85.12c-2.3,0-4.6,0-6.9.06H404v-.46L404,53.35v-.52h.51l13.63.07c4.55,0,9.09.12,13.63.17H432v.28c0,1.95-.09,3.9-.14,5.82l-.15,5.7Z" style="fill:#ebebeb"></path><path d="M446.81,73.57c-.05-1.91-.12-3.81-.14-5.7l.28.29c-4.54,0-9.09.16-13.63.16l-13.63.07.51-.52-.05,11.52-.46-.46c2.25,0,4.49,0,6.74.06l6.77.12,13.75.28Zm-13.37,6.11-6.86.12c-2.29,0-4.59,0-6.89,0h-.46v-.47l-.05-11.52v-.51h.52l13.63.06c4.54,0,9.09.12,13.63.17h.29v.27c0,2-.09,3.9-.13,5.82l-.15,5.7Z" style="fill:#ebebeb"></path><path d="M80.4,59.06c-.05-1.92-.12-3.81-.14-5.7l.28.28c-4.54,0-9.08.17-13.63.17l-13.63.07.52-.52-.06,11.52-.46-.46c2.25,0,4.49,0,6.74.06l6.77.11,13.75.29ZM67,65.17l-6.86.11c-2.29,0-4.59,0-6.89.06h-.46v-.46l0-11.52v-.52h.52l13.63.06c4.55,0,9.09.12,13.63.17h.29v.28c0,2-.09,3.9-.13,5.82l-.15,5.7Z" style="fill:#ebebeb"></path><path d="M270.52,129.11c0,1.92.11,3.82.13,5.7l-.28-.28c4.54-.05,9.09-.16,13.63-.17l13.63-.06-.51.51.05-11.52.46.46c-2.25,0-4.49,0-6.74-.06l-6.77-.11-13.75-.29ZM283.88,123l6.86-.11c2.29,0,4.59,0,6.89-.06h.46v.46l.05,11.52v.52h-.52L284,135.26c-4.54,0-9.09-.12-13.63-.17h-.28v-.28c0-1.95.09-3.9.13-5.82l.15-5.7Z" style="fill:#ebebeb"></path><path d="M285.72,114.59c0,1.91.12,3.81.14,5.69l-.28-.28c4.54,0,9.08-.16,13.63-.16l13.63-.07-.52.51.06-11.51.46.45c-2.25,0-4.49,0-6.74,0l-6.77-.12-13.75-.28Zm13.37-6.11,6.86-.12c2.29,0,4.59,0,6.89,0h.45v.47l.05,11.51v.52h-.51l-13.63-.07c-4.55,0-9.09-.11-13.63-.16h-.29v-.28c0-2,.08-3.89.13-5.82l.15-5.69Z" style="fill:#ebebeb"></path><rect x="207.03" y="68.08" width="56.12" height="68.07" style="fill:#dbdbdb"></rect><rect x="213.44" y="74.29" width="43.29" height="55.64" style="fill:#fff"></rect><rect x="213.44" y="74.29" width="1.69" height="55.64" style="fill:#c7c7c7"></rect><rect x="263.14" y="68.08" width="1.69" height="68.07" style="fill:#c7c7c7"></rect><rect x="236.05" y="87.16" width="10.21" height="30.41" transform="translate(482.31 204.73) rotate(180)" style="fill:#dbdbdb"></rect><rect x="223.49" y="81.96" width="27.22" height="14.9" transform="translate(474.21 178.83) rotate(180)" style="fill:none;stroke:#ebebeb;stroke-miterlimit:10"></rect><rect x="372.93" y="68.08" width="56.12" height="68.07" style="fill:#dbdbdb"></rect><rect x="379.34" y="74.29" width="43.29" height="55.64" style="fill:#fff"></rect><rect x="379.34" y="74.29" width="1.69" height="55.64" style="fill:#c7c7c7"></rect><rect x="429.04" y="68.08" width="1.69" height="68.07" style="fill:#c7c7c7"></rect><rect x="393.85" y="87.16" width="10.21" height="30.41" style="fill:#dbdbdb"></rect><rect x="389.39" y="81.96" width="27.22" height="14.9" style="fill:none;stroke:#ebebeb;stroke-miterlimit:10"></rect><rect x="289.98" y="68.08" width="56.12" height="68.07" style="fill:#dbdbdb"></rect><rect x="296.39" y="74.29" width="43.29" height="55.64" style="fill:#fff"></rect><rect x="296.39" y="74.29" width="1.69" height="55.64" style="fill:#c7c7c7"></rect><rect x="346.09" y="68.08" width="1.69" height="68.07" style="fill:#c7c7c7"></rect><rect x="313.84" y="88.68" width="8.74" height="22.11" style="fill:#ebebeb"></rect><rect x="308.3" y="102.11" width="23.49" height="15.24" style="fill:none;stroke:#dbdbdb;stroke-miterlimit:10"></rect></g><g id="freepik--Shadow--inject-6"><ellipse cx="250" cy="409.86" rx="196.41" ry="22.96" style="fill:#ebebeb"></ellipse></g><g id="freepik--Plant--inject-6"><path d="M391.53,267.67c-1,11.68-2.41,23.65-5.49,35-.1.37-.68.2-.63-.16,1.91-13.33,4.09-26.49,4.92-39.95q.21-3.48.35-7c-.36-17.37-18.1-17.48-25.34-33.12s4.91-31.37,4.91-31.37-8.48-2.78-12.13-14.09,17.2-57.72,17.2-57.72c-.09-.42.55-.5.65-.1,3.36,13.33,6.56,26.66,9,40.18a451.72,451.72,0,0,1,7.71,72.8A333.75,333.75,0,0,1,391.53,267.67Z" style="fill:#BA68C8"></path><path d="M390.06,225.61a.43.43,0,0,0,0-.25c-1.1-32.27-5.3-64.6-13.59-96,0-.1-.18-.07-.16,0q4.56,21,7.82,42.18a20.63,20.63,0,0,0-8.66-5.37,0,0,0,1,0,0,.09c3.38,1.65,6.6,3.53,8.9,6.57q.62,4.14,1.19,8.3c-3.94-4.85-9.61-7.43-15.28-9.9a.07.07,0,0,0-.05.13c5.9,2.73,11.74,6.17,15.58,11.55q1.58,11.86,2.63,23.79a22.56,22.56,0,0,0-10.81-6.88c-.13,0-.21.15-.08.19a23.43,23.43,0,0,1,10.92,7.75l.07.05q.36,4.2.66,8.4a28.76,28.76,0,0,0-7.56-5.06c-.08,0-.12.08,0,.11a26.88,26.88,0,0,1,7.56,5.53s.06,0,.09,0c.19,2.66.37,5.32.52,8a38,38,0,0,0-15.27-12,.1.1,0,0,0-.08.19,41.25,41.25,0,0,1,15,12.71.34.34,0,0,0,.38.15c.22,4.08.38,8.18.49,12.27,0,.06.09.07.09,0C390.3,234,390.2,229.8,390.06,225.61Z" style="fill:#263238"></path><path d="M378.07,161.63c-3.13-2.37-7.19-3.51-11-4a.08.08,0,0,0,0,.15c4,.78,7.29,2.39,10.9,4.13C378.07,162,378.2,161.73,378.07,161.63Z" style="fill:#263238"></path><path d="M378,211.8a23.67,23.67,0,0,0-8.26-3.27c-.11,0-.12.14,0,.16a31.36,31.36,0,0,1,8.17,3.31C378,212.06,378.08,211.87,378,211.8Z" style="fill:#263238"></path><path d="M451.45,169.52s-4.34,31.13-8.32,36.23-16,1.87-16.63,1.71c.55.3,10.07,5.58,8.39,11.45-1.72,6.05-10.11,12-20.19,20.5a116.12,116.12,0,0,0-17.37,18.72s0-.05,0-.16a194.06,194.06,0,0,0-2.89,48.6.33.33,0,0,1-.65.07A149.63,149.63,0,0,1,393.4,272a191.9,191.9,0,0,1,16.41-60.24,77.44,77.44,0,0,1,17.24-24.3,124.71,124.71,0,0,1,21.53-16.06l0,0C450.4,170.14,451.45,169.52,451.45,169.52Z" style="fill:#BA68C8"></path><path d="M451.45,169.52s-4.34,31.13-8.32,36.23-16,1.87-16.63,1.71c.55.3,10.07,5.58,8.39,11.45-1.72,6.05-10.11,12-20.19,20.5a116.12,116.12,0,0,0-17.37,18.72s0-.05,0-.16a194.06,194.06,0,0,0-2.89,48.6.33.33,0,0,1-.65.07A149.63,149.63,0,0,1,393.4,272a191.9,191.9,0,0,1,16.41-60.24,77.44,77.44,0,0,1,17.24-24.3,124.71,124.71,0,0,1,21.53-16.06l0,0C450.4,170.14,451.45,169.52,451.45,169.52Z" style="opacity:0.1"></path><path d="M442.67,176.85c-10.66,8.84-21.44,18.31-28.32,30.53a127.43,127.43,0,0,0-6.31,13v0c-.38.9-.76,1.8-1.12,2.7a.32.32,0,0,0-.06.15,264.85,264.85,0,0,0-9.09,28.33c0,.06.07.1.09,0,1.42-4.79,2.95-9.63,4.61-14.43a.36.36,0,0,0,.14,0,20.6,20.6,0,0,1,6.27-1c.14,0,.15-.25,0-.25a22.89,22.89,0,0,0-6.17.6c1.51-4.34,3.12-8.65,4.87-12.89a65.89,65.89,0,0,1,14-.64c.05,0,.07-.07,0-.08a52.74,52.74,0,0,0-13.75,0c.3-.73.62-1.45.93-2.17a71.63,71.63,0,0,1,9.37-.79c.06,0,.06-.09,0-.1a45.68,45.68,0,0,0-9.13.34c1.59-3.66,3.28-7.26,5.11-10.75a69,69,0,0,1,5.14-8.21,57,57,0,0,1,7.61-.7c.07,0,.07-.11,0-.12a20.18,20.18,0,0,0-7.06.1c1.4-1.89,2.86-3.73,4.4-5.5h0c5.35-.72,10.76-1.35,16,.12.09,0,.14-.13.05-.16-5-1.78-10.14-1.43-15.31-.85.62-.7,1.25-1.38,1.88-2a34.93,34.93,0,0,1,9.94-.72.05.05,0,1,0,0-.1,25.46,25.46,0,0,0-9.21,0c4.79-5,10-9.69,15.17-14.3C443.08,176.79,442.92,176.64,442.67,176.85Z" style="fill:#263238"></path><path d="M440.61,198.14a22,22,0,0,0-4.64-.55c-.19,0-.2.31,0,.33,1.53.18,3.08.19,4.62.41A.1.1,0,0,0,440.61,198.14Z" style="fill:#263238"></path><path d="M421.2,227.06a21.12,21.12,0,0,0-7.33.84c-.06,0,0,.11,0,.1,2.43-.36,4.86-.39,7.3-.58C421.39,227.4,421.41,227.08,421.2,227.06Z" style="fill:#263238"></path><path d="M417,216.15a16,16,0,0,0-3.09,0,.09.09,0,0,0,0,.18,15.1,15.1,0,0,0,3.08.12A.16.16,0,0,0,417,216.15Z" style="fill:#263238"></path><path d="M387.38,308.41a.28.28,0,0,1-.55,0,162.63,162.63,0,0,0-5.48-40.48,97.58,97.58,0,0,0-15.76-14.6c-9-6.51-16.42-11-18.25-15.93-1.79-4.82,5.88-9.86,6.31-10.14-.5.17-10.49,3.54-14.06-.39S330.31,197,330.31,197s1,.51,2.75,1.48l.05,0a103.62,103.62,0,0,1,18.81,12,65.1,65.1,0,0,1,16,19.31,161.38,161.38,0,0,1,17.59,49.51A125.39,125.39,0,0,1,387.38,308.41Z" style="fill:#BA68C8"></path><path d="M387.38,308.41a.28.28,0,0,1-.55,0,162.63,162.63,0,0,0-5.48-40.48,97.58,97.58,0,0,0-15.76-14.6c-9-6.51-16.42-11-18.25-15.93-1.79-4.82,5.88-9.86,6.31-10.14-.5.17-10.49,3.54-14.06-.39S330.31,197,330.31,197s1,.51,2.75,1.48l.05,0a103.62,103.62,0,0,1,18.81,12,65.1,65.1,0,0,1,16,19.31,161.38,161.38,0,0,1,17.59,49.51A125.39,125.39,0,0,1,387.38,308.41Z" style="opacity:0.1"></path><path d="M380.78,262.66c-8.82-22.69-21.69-43.79-40.95-59l0,0a105.17,105.17,0,0,1,13.8,13.71,24.16,24.16,0,0,0-12.53,1.13c-.09,0,0,.15.05.13A33.76,33.76,0,0,1,354,218a.24.24,0,0,0,.15,0c.66.78,1.3,1.58,1.93,2.38a39.68,39.68,0,0,0-6.63.09.05.05,0,0,0,0,.1,33,33,0,0,1,7,.25,143.78,143.78,0,0,1,9.27,13.45A10.84,10.84,0,0,0,361,234a.09.09,0,0,0,0,.18,24.87,24.87,0,0,1,4.88.51c.53.87,1.06,1.73,1.58,2.61a44.41,44.41,0,0,0-13.95-.31c-.07,0-.07.12,0,.11a56,56,0,0,1,14.28.77c.49.84.94,1.69,1.42,2.54a30.18,30.18,0,0,0-8.33,0,.09.09,0,0,0,0,.17,31.56,31.56,0,0,1,8.57.35c2.05,3.66,4,7.38,5.82,11.13a7.83,7.83,0,0,0-3.63-.21.05.05,0,0,0,0,.1,16.32,16.32,0,0,1,3.88.65c1.65,3.39,3.23,6.81,4.72,10.23C380.44,263.11,380.9,263,380.78,262.66Z" style="fill:#263238"></path><path d="M365.21,242.86a17.56,17.56,0,0,0-6.7,0c-.06,0-.06.11,0,.1a52.56,52.56,0,0,1,6.64.11C365.31,243.1,365.36,242.89,365.21,242.86Z" style="fill:#263238"></path><path d="M348.48,214.5a11.62,11.62,0,0,0-3.06-.19.1.1,0,0,0,0,.19c1,0,2,.17,3,.26A.13.13,0,0,0,348.48,214.5Z" style="fill:#263238"></path><polygon points="408.9 270.64 401.7 328.15 375.9 328.15 368.71 270.64 408.9 270.64" style="fill:#263238"></polygon></g><g id="freepik--Table--inject-6"><polygon points="41.98 328.02 93.99 327.78 145.99 327.69 250 327.52 354.01 327.69 406.01 327.78 458.02 328.02 406.01 328.27 354.01 328.36 250 328.52 145.99 328.36 93.99 328.27 41.98 328.02" style="fill:#263238"></polygon></g><g id="freepik--Elements--inject-6"><path d="M151.7,304.47s2.13-20.17-9.52-37c-11.32-16.34-48.81-11-54.05-35.07-5-22.78,17-28.51,16.23-46.78s-45.47-26.8-38.53-79.34c6.7-50.75,73.56-78.41,120.49-26.07,21.91,24.44,21.64,56.51,46.22,68.84s49.5-9.42,73.4,9.06,9.31,56-28.84,62.34c-31,5.17-44.17,5.66-52.41,18.82-9.61,15.34,1.51,25.35-7.25,36.45s-26.89,3.88-38.5,8.06c-14.18,5.09-23.71,22.74-23.71,22.74Z" style="fill:#BA68C8"></path><path d="M151.7,304.47s2.13-20.17-9.52-37c-11.32-16.34-48.81-11-54.05-35.07-5-22.78,17-28.51,16.23-46.78s-45.47-26.8-38.53-79.34c6.7-50.75,73.56-78.41,120.49-26.07,21.91,24.44,21.64,56.51,46.22,68.84s49.5-9.42,73.4,9.06,9.31,56-28.84,62.34c-31,5.17-44.17,5.66-52.41,18.82-9.61,15.34,1.51,25.35-7.25,36.45s-26.89,3.88-38.5,8.06c-14.18,5.09-23.71,22.74-23.71,22.74Z" style="fill:#fff;opacity:0.5"></path><path d="M88.89,201.36a84.78,84.78,0,0,0-6.5,14.53A34.24,34.24,0,0,0,80.64,230a27.61,27.61,0,0,0,1.54,6.81,38.38,38.38,0,0,0,3.09,6.62c2.47,4.4,5.76,8.58,9.16,13.12a34.25,34.25,0,0,1-14.22-9.38,29.34,29.34,0,0,1-5-7.44c-.32-.7-.65-1.4-.9-2.12l-.74-2.21a30.92,30.92,0,0,1-.85-4.59,27.87,27.87,0,0,1,.63-9.21,30.58,30.58,0,0,1,3.36-8.33A33.93,33.93,0,0,1,82,206.42,27,27,0,0,1,88.89,201.36Z" style="fill:#BA68C8"></path><path d="M88.89,201.36a84.78,84.78,0,0,0-6.5,14.53A34.24,34.24,0,0,0,80.64,230a27.61,27.61,0,0,0,1.54,6.81,38.38,38.38,0,0,0,3.09,6.62c2.47,4.4,5.76,8.58,9.16,13.12a34.25,34.25,0,0,1-14.22-9.38,29.34,29.34,0,0,1-5-7.44c-.32-.7-.65-1.4-.9-2.12l-.74-2.21a30.92,30.92,0,0,1-.85-4.59,27.87,27.87,0,0,1,.63-9.21,30.58,30.58,0,0,1,3.36-8.33A33.93,33.93,0,0,1,82,206.42,27,27,0,0,1,88.89,201.36Z" style="fill:#fff;opacity:0.5"></path><path d="M205.45,289.59c3.6-1.46,6.82-2.62,9.76-4a27.93,27.93,0,0,0,7.43-4.67,18.55,18.55,0,0,0,4.67-6.8,87.93,87.93,0,0,0,3.05-9.92,17.88,17.88,0,0,1,3.11,11.19,16.5,16.5,0,0,1-1.54,6.16,16.83,16.83,0,0,1-3.89,5.28,19.46,19.46,0,0,1-11.29,4.84,21.73,21.73,0,0,1-5.82-.21A17,17,0,0,1,205.45,289.59Z" style="fill:#BA68C8"></path><path d="M205.45,289.59c3.6-1.46,6.82-2.62,9.76-4a27.93,27.93,0,0,0,7.43-4.67,18.55,18.55,0,0,0,4.67-6.8,87.93,87.93,0,0,0,3.05-9.92,17.88,17.88,0,0,1,3.11,11.19,16.5,16.5,0,0,1-1.54,6.16,16.83,16.83,0,0,1-3.89,5.28,19.46,19.46,0,0,1-11.29,4.84,21.73,21.73,0,0,1-5.82-.21A17,17,0,0,1,205.45,289.59Z" style="fill:#fff;opacity:0.5"></path><path d="M165,53.27a30.82,30.82,0,0,1,9.56,1.47,41.89,41.89,0,0,1,4.57,1.71c.75.32,1.49.67,2.23,1s1.44.77,2.15,1.17a56.3,56.3,0,0,1,15,12.55,64.74,64.74,0,0,1,5.57,8l1.21,2.12a15.72,15.72,0,0,1,1.11,2.16c.67,1.47,1.3,3,1.92,4.45a31.92,31.92,0,0,1,1.55,4.57c.45,1.55.85,3.1,1.24,4.65s.52,3.17.73,4.75.32,3.18.39,4.78c-1.83-2.7-3.27-5.45-4.79-8.13-.82-1.31-1.62-2.62-2.38-3.93-.4-.65-.76-1.32-1.13-2s-.85-1.26-1.24-1.9q-1.25-1.89-2.42-3.78c-.37-.65-.84-1.23-1.27-1.84l-1.29-1.81c-.87-1.19-1.64-2.46-2.62-3.56l-2.72-3.48A109.3,109.3,0,0,0,180,63.8,95.16,95.16,0,0,0,165,53.27Z" style="fill:#BA68C8"></path><path d="M165,53.27a30.82,30.82,0,0,1,9.56,1.47,41.89,41.89,0,0,1,4.57,1.71c.75.32,1.49.67,2.23,1s1.44.77,2.15,1.17a56.3,56.3,0,0,1,15,12.55,64.74,64.74,0,0,1,5.57,8l1.21,2.12a15.72,15.72,0,0,1,1.11,2.16c.67,1.47,1.3,3,1.92,4.45a31.92,31.92,0,0,1,1.55,4.57c.45,1.55.85,3.1,1.24,4.65s.52,3.17.73,4.75.32,3.18.39,4.78c-1.83-2.7-3.27-5.45-4.79-8.13-.82-1.31-1.62-2.62-2.38-3.93-.4-.65-.76-1.32-1.13-2s-.85-1.26-1.24-1.9q-1.25-1.89-2.42-3.78c-.37-.65-.84-1.23-1.27-1.84l-1.29-1.81c-.87-1.19-1.64-2.46-2.62-3.56l-2.72-3.48A109.3,109.3,0,0,0,180,63.8,95.16,95.16,0,0,0,165,53.27Z" style="fill:#fff;opacity:0.5"></path><circle cx="90.79" cy="114.9" r="18.05" transform="translate(-0.79 0.63) rotate(-0.39)" style="fill:#455a64"></circle><path d="M105.31,125.63a21.17,21.17,0,0,0-4.13-5.2c-2.85-2.68-11.44-7.56-14.92-11.21-4.9-5.13-4.5-8.64-3.87-10.3a18.17,18.17,0,0,1,6.61-2c-.18,1.87-.49,7.81,8.19,14.82a21.8,21.8,0,0,0,11.61,4.34A18,18,0,0,1,105.31,125.63Z" style="fill:#37474f"></path><path d="M95.08,132.44a18.1,18.1,0,0,1-20.57-9.72,15,15,0,0,1,3.49-.13c5,.51,9.22,4.49,10.7,6.17A10.57,10.57,0,0,0,95.08,132.44Z" style="fill:#37474f"></path><path d="M103.4,127.82l-.36.34-.33.3c-.26.22-.51.44-.77.64s-.48.37-.72.54l-.28.19-.31.21-.32.2-.38.23-.38.22-.34.18-.74.38h0c-1.17-.06-2.54-.7-4.32-2.26-2.66-2.3-5-6.4-10.17-10.67a22.5,22.5,0,0,0-11.18-4.79h0a18,18,0,0,1,4.09-10.12c1.1.35,4.42,2.09,9.69,10.88a47.1,47.1,0,0,0,5.68,7.81c5.19,5.6,9.22,5.91,11,5.68h0Z" style="fill:#37474f"></path><path d="M92.65,104.6c-.55.58-1.69.4-2.53-.41s-1.08-1.93-.52-2.51,1.68-.39,2.53.41S93.2,104,92.65,104.6Z" style="fill:#263238"></path><path d="M87.41,104.05c-.31.32-1,.2-1.48-.29s-.66-1.14-.35-1.46,1-.2,1.48.28S87.72,103.72,87.41,104.05Z" style="fill:#263238"></path><path d="M92.92,129.68c-.47.49-1.45.32-2.19-.38s-1-1.68-.48-2.17,1.46-.33,2.19.38S93.4,129.18,92.92,129.68Z" style="fill:#263238"></path><path d="M89.59,129.12A.8.8,0,0,1,88.5,129a.79.79,0,0,1-.17-1.08.78.78,0,0,1,1.08.12A.79.79,0,0,1,89.59,129.12Z" style="fill:#263238"></path><path d="M89.66,127.36a.58.58,0,1,1-.13-.67C89.75,126.91,89.81,127.21,89.66,127.36Z" style="fill:#263238"></path><path d="M79.1,123.44a1.54,1.54,0,1,1-.3-1.82A1.34,1.34,0,0,1,79.1,123.44Z" style="fill:#263238"></path><path d="M80.36,121.29a.69.69,0,0,1-1,0,.64.64,0,1,1,.88-.91A.68.68,0,0,1,80.36,121.29Z" style="fill:#263238"></path><path d="M101.94,129.1a145.34,145.34,0,0,1-14.66-8.45,146.79,146.79,0,0,1-14-10.26C66.47,104.63,62.59,99.83,63.77,98s7.06-.27,14.89,3.52c-.32.28-.62.58-.92.89l-.33.36c-4.25-1.74-7.23-2.26-7.94-1.15s1,3.69,4.41,7a99.93,99.93,0,0,0,14,10.76,100.18,100.18,0,0,0,15.53,8.47c4.33,1.79,7.38,2.34,8.11,1.22s-1-3.61-4.23-6.78a17.74,17.74,0,0,0,.66-1.71c6.79,5.73,10.72,10.67,9.54,12.48S110.15,133.17,101.94,129.1Z" style="fill:#BA68C8"></path><g style="opacity:0.2"><path d="M101.94,129.1a145.34,145.34,0,0,1-14.66-8.45,146.79,146.79,0,0,1-14-10.26C66.47,104.63,62.59,99.83,63.77,98s7.06-.27,14.89,3.52c-.32.28-.62.58-.92.89l-.33.36c-4.25-1.74-7.23-2.26-7.94-1.15s1,3.69,4.41,7a99.93,99.93,0,0,0,14,10.76,100.18,100.18,0,0,0,15.53,8.47c4.33,1.79,7.38,2.34,8.11,1.22s-1-3.61-4.23-6.78a17.74,17.74,0,0,0,.66-1.71c6.79,5.73,10.72,10.67,9.54,12.48S110.15,133.17,101.94,129.1Z"></path></g><path d="M100.63,130a160.78,160.78,0,0,1-14.32-8.27h0a159.71,159.71,0,0,1-13.37-9.58c-9.57-7.69-15.19-14.46-13.53-17s10-.29,20.77,5.14l-.66.51c-9.11-4.4-16-6.13-17.44-3.93s3.09,7.9,11,14.47a143.57,143.57,0,0,0,13.58,9.87,144.5,144.5,0,0,0,14.68,8.34c9.21,4.47,16.21,6.24,17.64,4s-3-7.75-10.71-14.21c.07-.27.14-.55.19-.82,9.37,7.57,14.83,14.21,13.19,16.76S111.55,135.55,100.63,130Z" style="fill:#BA68C8"></path><path d="M179.06,48.93a.79.79,0,1,1,.09-1.11A.79.79,0,0,1,179.06,48.93Z" style="fill:#ebebeb"></path><g style="opacity:0.6000000000000001"><path d="M139.49,99.73c-1.07,1-2.27,2.11-3.38,3.21s-2.25,2.26-3.34,3.42c-2.19,2.33-4.33,4.71-6.35,7.18a103,103,0,0,0-10.82,15.57c-6,10.93-9.31,23.67-7.29,36a44.29,44.29,0,0,0,7,17.33,59.41,59.41,0,0,0,13.22,13.89,94,94,0,0,0,16.74,10.14,148.73,148.73,0,0,0,18.37,7.29,149.72,149.72,0,0,1-18.93-6,96,96,0,0,1-17.79-9.17,62.83,62.83,0,0,1-15-13.71,49.12,49.12,0,0,1-9-18.63,55.32,55.32,0,0,1-.72-20.87,72.56,72.56,0,0,1,2.31-10.19,83.49,83.49,0,0,1,3.72-9.75,112.48,112.48,0,0,1,10.55-17.74c2-2.79,4.08-5.49,6.25-8.13q1.62-2,3.32-3.91c1.15-1.3,2.25-2.53,3.55-3.87Z" style="fill:#fff"></path><path d="M119.94,129.94c-1.47,3.77-2.81,7.51-4,11.28-.57,1.9-1.14,3.78-1.59,5.69s-.89,3.82-1.18,5.75a45,45,0,0,0-.53,11.58,32.3,32.3,0,0,0,1.09,5.71,33.08,33.08,0,0,0,2.24,5.5,20.85,20.85,0,0,1-3.5-5,25.25,25.25,0,0,1-2-5.88,34.41,34.41,0,0,1-.06-12.35,51.62,51.62,0,0,1,3.48-11.73A48.4,48.4,0,0,1,119.94,129.94Z" style="fill:#fff"></path><path d="M123.14,97.66c-2.78,3.48-5.34,7-7.74,10.69a112.65,112.65,0,0,0-6.52,11.31c-1.06,1.91-1.88,3.92-2.81,5.89s-1.69,4-2.39,6.07c-1.57,4.08-2.61,8.32-3.82,12.62A51.83,51.83,0,0,1,101.63,131l.42-1.63c.13-.55.35-1.07.52-1.6l1.09-3.19c.89-2.06,1.72-4.15,2.77-6.14s2.16-3.94,3.33-5.85l1.88-2.79c.65-.91,1.35-1.79,2-2.68A51.92,51.92,0,0,1,123.14,97.66Z" style="fill:#fff"></path></g><path d="M152.31,60.68c-.24-.28-14-6.63-26.39,2.88-11.42,8.75-15.36,25.15-13.84,25.54,1.86.48,6.94-7.35,16.71-11.67,3.46-1.53,9,0,9,0Z" style="fill:#BA68C8"></path><path d="M175,87.31c.24.28,4.31,14.86-7.07,25.59-10.46,9.87-27.28,11.14-27.42,9.58-.18-1.91,8.37-5.67,14.19-14.63,2.07-3.17,1.46-8.86,1.46-8.86Z" style="fill:#BA68C8"></path><path d="M144.28,104.73l-14-16.42s5.25-17.82,20.13-28.93a79.93,79.93,0,0,1,24.43-11.85c11.13-3.35,20.63-3.84,22.26-1.93s-.39,11.2-5.46,21.67a80.1,80.1,0,0,1-15.61,22.21C162.71,102.4,144.28,104.73,144.28,104.73Z" style="fill:#ebebeb"></path><rect x="126.05" y="95.54" width="18.26" height="5.55" transform="translate(122.43 -68.35) rotate(49.6)" style="fill:#BA68C8"></rect><path d="M172.79,80.28a10.64,10.64,0,1,1,1.21-15A10.64,10.64,0,0,1,172.79,80.28Z" style="fill:#BA68C8"></path><circle cx="165.89" cy="72.17" r="7.38" transform="translate(0.38 145.22) rotate(-47.33)" style="fill:#455a64"></circle><path d="M191.66,67.27l-16.8-19.74c11.13-3.35,20.63-3.84,22.26-1.93S196.73,56.8,191.66,67.27Z" style="fill:#BA68C8"></path><path d="M182.28,52.72a.78.78,0,0,1-1-1.19.77.77,0,0,1,1.1.08A.79.79,0,0,1,182.28,52.72Z" style="fill:#ebebeb"></path><path d="M185.51,56.51a.78.78,0,1,1,.09-1.1A.78.78,0,0,1,185.51,56.51Z" style="fill:#ebebeb"></path><path d="M188.74,60.3a.78.78,0,0,1-1.1-.09.77.77,0,0,1,.08-1.1.79.79,0,0,1,1.11.09A.78.78,0,0,1,188.74,60.3Z" style="fill:#ebebeb"></path><path d="M192,64.1a.79.79,0,1,1,.09-1.11A.79.79,0,0,1,192,64.1Z" style="fill:#ebebeb"></path><path d="M101.2,249.63c-.13-.67-.22-1.35-.3-2l.75-.08c.07.64.16,1.29.29,1.95Z" style="fill:#263238"></path><path d="M155.06,291.11c-1.34,0-2.7-.13-4-.26l.08-.75c1.32.13,2.66.22,4,.26Zm5.05,0,0-.75c1.32-.06,2.66-.17,4-.32l.08.75C162.8,290.9,161.44,291,160.11,291.07ZM146,290.13c-1.32-.25-2.65-.55-3.94-.89l.19-.72c1.28.33,2.59.63,3.89.87Zm23.11-.14-.14-.74c1.3-.25,2.62-.54,3.91-.86l.18.73C171.77,289.44,170.45,289.74,169.13,290Zm-31.88-2.24c-1.27-.44-2.53-.94-3.77-1.48l.3-.69c1.22.53,2.47,1,3.72,1.47Zm40.68,0-.23-.71c1.25-.41,2.52-.85,3.78-1.33l.26.7C180.48,286.87,179.19,287.32,177.93,287.73Zm8.48-3.27-.32-.68c1.21-.55,2.4-1.16,3.56-1.79l.36.66C188.84,283.29,187.63,283.9,186.41,284.46Zm-57.47-.4c-1.18-.64-2.35-1.33-3.49-2.05l.4-.63c1.12.71,2.28,1.39,3.45,2Zm65.37-4-.41-.63c1.08-.73,2.17-1.52,3.22-2.34l.46.59C196.51,278.47,195.42,279.27,194.31,280Zm-73-.88c-1.07-.81-2.13-1.67-3.14-2.55l.49-.56c1,.87,2,1.71,3.11,2.51Zm80.13-4.76-.51-.55c1-.88,1.92-1.82,2.85-2.79l.54.52C203.36,272.54,202.38,273.49,201.42,274.38Zm-86.95-1.25c-1-1-1.87-2-2.73-3l.57-.48c.85,1,1.76,2,2.69,2.95Zm93.21-5.31-.57-.48c.84-1,1.69-2,2.51-3.11l.6.45C209.38,265.77,208.53,266.82,207.68,267.82Zm-99.05-1.67c-.78-1.11-1.53-2.25-2.21-3.39l.64-.38c.68,1.12,1.41,2.24,2.19,3.34Zm104.57-5.53-.62-.43c.74-1.06,1.49-2.18,2.24-3.33l.63.41C214.7,258.42,213.94,259.55,213.2,260.62ZM104,258.29a40.54,40.54,0,0,1-1.52-3.76l.7-.24c.43,1.21.93,2.45,1.5,3.69ZM218.11,253l-.64-.39c.69-1.14,1.36-2.29,2-3.46l.65.37Q219.15,251.29,218.11,253Zm4.49-7.87-.66-.36q1-1.76,1.89-3.54l.67.34C223.87,242.77,223.24,244,222.6,245.13Zm4.21-8-.67-.34c.61-1.19,1.21-2.39,1.82-3.59l.67.34C228,234.72,227.42,235.92,226.81,237.11Zm4.07-8.09-.67-.33,1.8-3.6.67.34Zm4.06-8.08-.67-.34c.6-1.19,1.21-2.39,1.83-3.59l.66.35Zm4.14-8-.66-.35c.62-1.18,1.26-2.36,1.9-3.55l.66.36C240.34,210.54,239.71,211.72,239.08,212.9Zm4.33-7.91-.65-.37c.66-1.17,1.33-2.32,2-3.48l.64.38C244.73,202.67,244.07,203.83,243.41,205Zm4.6-7.74-.64-.4c.71-1.14,1.43-2.26,2.17-3.39l.63.42C249.43,195,248.71,196.12,248,197.25Zm5-7.51-.61-.43c.76-1.1,1.55-2.19,2.35-3.27l.6.45C254.52,187.56,253.73,188.65,253,189.74Zm5.4-7.22-.58-.47c.84-1.05,1.7-2.09,2.57-3.1l.57.49C260.07,180.44,259.21,181.48,258.37,182.52Zm5.89-6.82-.55-.51c.93-1,1.87-2,2.8-2.9l.53.53C266.11,173.74,265.18,174.71,264.26,175.7Zm6.39-6.33-.5-.56c1-.9,2-1.79,3-2.65l.48.57C272.65,167.58,271.64,168.47,270.65,169.37Zm6.91-5.77-.45-.59c1.06-.81,2.16-1.61,3.25-2.38l.43.61C279.7,162,278.62,162.8,277.56,163.6Zm7.39-5.12-.4-.64c1.13-.71,2.29-1.41,3.46-2.08l.37.65C287.22,157.08,286.07,157.77,285,158.48Z" style="fill:#263238"></path><path d="M293,153.93l-.34-.67c.59-.3,1.19-.6,1.8-.89l.33.67Z" style="fill:#263238"></path><polygon points="290.81 142.16 284.72 158.88 297.5 148.9 346.37 131.18 290.81 142.16" style="fill:#BA68C8"></polygon><polygon points="290.81 142.16 284.72 158.88 297.5 148.9 346.37 131.18 290.81 142.16" style="opacity:0.1"></polygon><polygon points="299.14 152.8 284.72 158.88 297.5 148.9 299.14 152.8" style="fill:#BA68C8"></polygon><polygon points="299.14 152.8 284.72 158.88 297.5 148.9 299.14 152.8" style="opacity:0.30000000000000004"></polygon><polygon points="297.5 148.9 346.37 131.18 306.29 170.29 297.5 148.9" style="fill:#BA68C8"></polygon><polygon points="290.81 142.16 270.5 129.05 346.37 131.18 290.81 142.16" style="fill:#BA68C8"></polygon><path d="M190,217.89c1.66,19.58-9.91,25.6-10.93,31.11a89.66,89.66,0,0,0-.56,10.3l-20,4.07a89.27,89.27,0,0,0-4.55-9.26c-3.09-4.68-16.1-5.69-22.22-24.36-4-12.27,1.38-34,22.52-38.33S188.91,205,190,217.89Z" style="fill:#BA68C8"></path><rect x="157.18" y="231.86" width="1" height="32.99" transform="translate(-81.78 77.47) rotate(-22.08)" style="fill:#fff"></rect><rect x="172.94" y="228.65" width="1" height="32.99" transform="translate(-4.01 2.89) rotate(-0.94)" style="fill:#fff"></rect><path d="M163.86,241.48c-1.63,0-3.37-1.24-4.8-2.94a2.4,2.4,0,0,1-1.51,1.29c-3,.6-5.44-5.3-5.54-5.56l.46-.19c0,.06,2.4,5.8,5,5.26a2.08,2.08,0,0,0,1.27-1.22,13.81,13.81,0,0,1-2.62-5.34c-.35-1.72.09-2.84,1.22-3.07,1.32-.26,2.28.63,2.65,2.46a10.72,10.72,0,0,1-.66,5.89c1.52,1.86,3.4,3.21,5.07,2.87,1.5-.31,2.55-2,3.12-4a8.4,8.4,0,0,1-2.93-5c-.45-2.21.1-3.76,1.44-4,1.07-.22,1.91.73,2.3,2.61a15.32,15.32,0,0,1-.24,6.19,2.9,2.9,0,0,0,2.18.42c1.84-.37,2.57-5.07,2.69-6.86l.5,0c0,.28-.5,6.79-3.09,7.31a3.38,3.38,0,0,1-2.41-.42c-.61,2.09-1.73,3.84-3.47,4.19A3.08,3.08,0,0,1,163.86,241.48Zm-6.11-11.32a1.35,1.35,0,0,0-.33,0c-1.12.23-1,1.65-.83,2.48a13.34,13.34,0,0,0,2.37,4.93,10.32,10.32,0,0,0,.52-5.34C159.31,231.45,158.87,230.16,157.75,230.16Zm8.55-1.75-.19,0c-1.24.25-1.34,2-1.05,3.44a8.38,8.38,0,0,0,2.57,4.57,14.1,14.1,0,0,0,.19-5.79C167.68,230,167.25,228.41,166.3,228.41Z" style="fill:#fff"></path><rect x="156.27" y="260.43" width="25.16" height="4.92" transform="matrix(0.98, -0.2, 0.2, 0.98, -49.06, 38.98)" style="fill:#455a64"></rect><rect x="157.41" y="266.03" width="25.16" height="4.92" transform="translate(-50.16 39.32) rotate(-11.51)" style="fill:#455a64"></rect><rect x="158.55" y="271.63" width="25.16" height="4.92" transform="translate(-51.25 39.66) rotate(-11.51)" style="fill:#455a64"></rect><path d="M153.26,188.06a13.81,13.81,0,0,1-1.61-7.23,12.5,12.5,0,0,1,1.29,3.51A12.75,12.75,0,0,1,153.26,188.06Z" style="fill:#263238"></path><path d="M137.64,196a12.77,12.77,0,0,1-2.87-2.38,12.37,12.37,0,0,1-2.13-3.07,13.95,13.95,0,0,1,5,5.45Z" style="fill:#263238"></path><path d="M128.11,210.77a13.87,13.87,0,0,1-7.06-2.22,13.87,13.87,0,0,1,7.06,2.22Z" style="fill:#263238"></path><path d="M127.22,228.29a12.76,12.76,0,0,1-3.5,1.29,12.44,12.44,0,0,1-3.72.31,13.86,13.86,0,0,1,7.22-1.6Z" style="fill:#263238"></path><path d="M135.21,243.9a12.34,12.34,0,0,1-2.39,2.87,12.62,12.62,0,0,1-3.06,2.14,13.88,13.88,0,0,1,5.45-5Z" style="fill:#263238"></path><path d="M192.6,231.61a12.57,12.57,0,0,1,3.68.63,12.26,12.26,0,0,1,3.38,1.59,14.12,14.12,0,0,1-7.06-2.22Z" style="fill:#263238"></path><path d="M193.49,214.09a12.33,12.33,0,0,1,3.5-1.29,12.13,12.13,0,0,1,3.72-.32,14,14,0,0,1-7.22,1.61Z" style="fill:#263238"></path><path d="M185.5,198.48a12.39,12.39,0,0,1,2.39-2.88,12.13,12.13,0,0,1,3.06-2.13,12.14,12.14,0,0,1-2.39,2.87A12.82,12.82,0,0,1,185.5,198.48Z" style="fill:#263238"></path><path d="M170.77,189a12.46,12.46,0,0,1,.64-3.68,12,12,0,0,1,1.58-3.38,12.25,12.25,0,0,1-.63,3.68A12.55,12.55,0,0,1,170.77,189Z" style="fill:#263238"></path><polygon points="212.08 209.21 207.73 210.02 206.75 214.61 205.78 210.02 201.43 209.21 205.76 208.15 206.75 203.81 207.75 208.15 212.08 209.21" style="fill:#fff"></polygon><polygon points="306.53 197.31 302.17 198.12 301.2 202.71 300.23 198.12 295.87 197.31 300.21 196.25 301.2 191.91 302.19 196.25 306.53 197.31" style="fill:#fff"></polygon><polygon points="122.33 199.56 117.98 200.36 117 204.96 116.03 200.36 111.67 199.56 116.01 198.5 117 194.16 118 198.5 122.33 199.56" style="fill:#fff"></polygon><polygon points="110.52 71.52 106.16 72.32 105.19 76.91 104.22 72.32 99.86 71.52 104.2 70.45 105.19 66.12 106.18 70.45 110.52 71.52" style="fill:#fff"></polygon><polygon points="298.74 176.66 296.3 177.11 295.76 179.68 295.21 177.11 292.78 176.66 295.2 176.07 295.76 173.65 296.31 176.07 298.74 176.66" style="fill:#fff"></polygon><polygon points="159.7 167.25 157.27 167.7 156.72 170.26 156.18 167.7 153.75 167.25 156.17 166.65 156.72 164.23 157.28 166.65 159.7 167.25" style="fill:#fff"></polygon><polygon points="223.82 155.56 221.39 156.01 220.84 158.58 220.3 156.01 217.87 155.56 220.29 154.97 220.84 152.54 221.4 154.97 223.82 155.56" style="fill:#fff"></polygon><polygon points="200.37 259.46 197.93 259.91 197.39 262.48 196.84 259.91 194.41 259.46 196.84 258.87 197.39 256.44 197.94 258.87 200.37 259.46" style="fill:#fff"></polygon><polygon points="108.8 205.53 106.36 205.98 105.82 208.55 105.28 205.98 102.84 205.53 105.27 204.94 105.82 202.52 106.38 204.94 108.8 205.53" style="fill:#fff"></polygon><polygon points="105.82 130.41 103.39 130.86 102.84 133.43 102.3 130.86 99.86 130.41 102.29 129.82 102.84 127.4 103.4 129.82 105.82 130.41" style="fill:#fff"></polygon><path d="M234.55,216.09a.71.71,0,0,0,0,1.41A.71.71,0,0,0,234.55,216.09Z" style="fill:#fff"></path><path d="M96.09,83.93a.71.71,0,0,0,0,1.41A.71.71,0,0,0,96.09,83.93Z" style="fill:#fff"></path><path d="M291.93,192.15a.71.71,0,0,0,0,1.42A.71.71,0,0,0,291.93,192.15Z" style="fill:#fff"></path><path d="M185.11,109.84a.71.71,0,0,0,0,1.42A.71.71,0,0,0,185.11,109.84Z" style="fill:#fff"></path><path d="M128.28,156.19a.71.71,0,0,0,0,1.41A.71.71,0,0,0,128.28,156.19Z" style="fill:#fff"></path><path d="M93.17,143.54a.71.71,0,0,0,0,1.41A.71.71,0,0,0,93.17,143.54Z" style="fill:#fff"></path><path d="M76.72,135.84a.5.5,0,0,0,0,1A.5.5,0,0,0,76.72,135.84Z" style="fill:#fff"></path><path d="M184.12,228.92a.5.5,0,0,0,0,1A.5.5,0,0,0,184.12,228.92Z" style="fill:#fff"></path><path d="M128.28,243.92a.5.5,0,0,0,0,1A.5.5,0,0,0,128.28,243.92Z" style="fill:#fff"></path><path d="M219.54,220.33a1.36,1.36,0,0,0,0,2.71A1.36,1.36,0,0,0,219.54,220.33Z" style="fill:#fff"></path><path d="M112.67,234.74a1.35,1.35,0,0,0,0,2.7A1.35,1.35,0,0,0,112.67,234.74Z" style="fill:#fff"></path><path d="M211.16,200.24a3.67,3.67,0,1,1-2.92-4.29A3.67,3.67,0,0,1,211.16,200.24Z" style="fill:#455a64"></path><rect x="210.12" y="181.65" width="2.8" height="18.45" transform="translate(39.38 -36.16) rotate(10.77)" style="fill:#455a64"></rect><path d="M223.83,197.22a3.67,3.67,0,1,1-2.92-4.29A3.67,3.67,0,0,1,223.83,197.22Z" style="fill:#455a64"></path><rect x="222.79" y="178.62" width="2.8" height="18.45" transform="translate(39.03 -38.57) rotate(10.77)" style="fill:#455a64"></rect><polygon points="227.28 179.09 211.4 183.97 211.86 181.55 227.74 176.66 227.28 179.09" style="fill:#455a64"></polygon><polygon points="226.41 183.65 210.53 188.54 211 186.12 226.88 181.23 226.41 183.65" style="fill:#455a64"></polygon><path d="M134.49,179.73a2.51,2.51,0,1,1-2-2.94A2.51,2.51,0,0,1,134.49,179.73Z" style="fill:#455a64"></path><rect x="133.77" y="166.99" width="1.92" height="12.65" transform="translate(34.75 -22.12) rotate(10.77)" style="fill:#455a64"></rect><rect x="141.63" y="165.09" width="1.92" height="3.66" transform="translate(33.69 -23.7) rotate(10.77)" style="fill:#455a64"></rect><polygon points="143.79 165.78 134.66 168.58 134.97 166.92 144.1 164.12 143.79 165.78" style="fill:#455a64"></polygon><polygon points="143.19 168.91 134.06 171.71 134.38 170.05 143.51 167.25 143.19 168.91" style="fill:#455a64"></polygon><path d="M202.75,245.73a2.52,2.52,0,1,1-2-2.94A2.52,2.52,0,0,1,202.75,245.73Z" style="fill:#455a64"></path><rect x="202.03" y="232.98" width="1.92" height="12.65" transform="translate(48.28 -33.71) rotate(10.77)" style="fill:#455a64"></rect><rect x="209.89" y="231.08" width="1.92" height="3.66" transform="translate(47.22 -35.29) rotate(10.77)" style="fill:#455a64"></rect><polygon points="212.04 231.77 202.91 234.58 203.23 232.92 212.36 230.11 212.04 231.77" style="fill:#455a64"></polygon><polygon points="211.45 234.9 202.31 237.71 202.63 236.05 211.76 233.24 211.45 234.9" style="fill:#455a64"></polygon><path d="M212.28,169.55l-2.06-.12c-3.94-4.7-15.7-9.72-14.56-12.22.21-.45.92-.66,1.94-.74,3.3-.24,9.67,1,10.82.08a29.33,29.33,0,0,0,1.14-3.3l0-.1,0-.1h0l-8.14-2.35c-18.23-11-54.89-23.7-67.17-19.43l-2.73,0h0l-.12.39a.94.94,0,0,0,0,.16l-.75,2.43C124,148.69,207,183,211.28,173.14l.16-.5.66-2.09.31-1ZM185.83,146.9c3.56,1.31,6,3.56,5.47,5s-3.85,1.58-7.42.26-6-3.56-5.49-5S182.26,145.58,185.83,146.9Z" style="fill:#BA68C8"></path><path d="M212.28,169.55c-.08-4.45-11.11-9.61-14.68-13.08-.87-.83-1.29-1.58-1-2.18.95-2.1,12.3.6,13-1l0-.1a.21.21,0,0,0,0-.11c0-.33-.39-.83-1.22-1.5-16.3-13.3-71.11-33-76.81-20.34v0a3.12,3.12,0,0,0-.15.39.94.94,0,0,0,0,.16c-4.5,15.38,76.33,49,80.7,38.85l0-.09.11-.33A2.19,2.19,0,0,0,212.28,169.55Zm-33.89-22.39c.55-1.46,3.87-1.58,7.44-.26s6,3.56,5.47,5-3.85,1.58-7.42.26S177.86,148.61,178.39,147.16Z" style="fill:#BA68C8"></path><path d="M212.28,169.55c-.08-4.45-11.11-9.61-14.68-13.08-.87-.83-1.29-1.58-1-2.18.95-2.1,12.3.6,13-1l0-.1a.21.21,0,0,0,0-.11c0-.33-.39-.83-1.22-1.5-16.3-13.3-71.11-33-76.81-20.34v0a3.12,3.12,0,0,0-.15.39.94.94,0,0,0,0,.16c-4.5,15.38,76.33,49,80.7,38.85l0-.09.11-.33A2.19,2.19,0,0,0,212.28,169.55Zm-33.89-22.39c.55-1.46,3.87-1.58,7.44-.26a10.82,10.82,0,0,1,5.13,3.44,1.72,1.72,0,0,1,.34,1.57c-.54,1.46-3.85,1.58-7.42.26a14.3,14.3,0,0,1-3.43-1.78C178.9,149.29,178.06,148.07,178.39,147.16Z" style="opacity:0.2"></path><path d="M191,150.34a14.59,14.59,0,0,0-3.42-1.78c-3.57-1.31-6.89-1.2-7.43.26a1.72,1.72,0,0,0,.34,1.57c-1.55-1.1-2.39-2.32-2.06-3.23.55-1.46,3.87-1.58,7.44-.26A10.82,10.82,0,0,1,191,150.34Z" style="fill:#BA68C8"></path><path d="M187,157.1a5.77,5.77,0,0,0-3.66.19,2.12,2.12,0,0,0-1,3.25c1.72,2.54,8.06,4.92,10.22,1.7C194.49,159.31,190.12,157.58,187,157.1Z" style="fill:#455a64"></path><path d="M170.33,155.38h.4a4.58,4.58,0,0,0,1.29-.07,2.63,2.63,0,0,0,1.15-.55,1.25,1.25,0,0,0,.51-.65,2.08,2.08,0,0,0-.43-2.21c-.82-1-2.12-1.41-3.19-2.08-1.57-1-2.33-2.5-4.15-3.11-2-.66-4.7-.61-5.85,1C157,151.89,167.33,155.21,170.33,155.38Z" style="fill:#BA68C8"></path><path d="M170.29,137.39c.9,3.15-3.44,3.47-5.42,2.86-1.8-.56-7.45-2.6-6-5.39.9-1.68,3-1.46,4.83-.75C166.41,134.31,169.67,135.23,170.29,137.39Z" style="fill:#263238"></path><path d="M142.45,132.24c-3.36,1.66-1.57,5.86.78,7.44a27.72,27.72,0,0,0,6,2.76c1.33.46,2.93.54,3.84-.74,1.77-2.5-.49-4.74-2.85-6.22C148.08,133.12,145.14,130.92,142.45,132.24Z" style="fill:#ebebeb"></path><path d="M183.84,140.23s11.49-7.31,23-15.41,39.88-20.39,40.88-19.78-24.82,18.64-37.1,25.2-25.11,12.42-25.11,12.42Z" style="fill:#455a64"></path><polygon points="183.92 139.59 192.58 133.51 195.4 138.49 185.95 142.91 183.92 139.59" style="fill:#ebebeb"></polygon><path d="M183.92,139.59c-2.85,0-6,0-8.9,3.49-3.47,4.25-7.08,4.32-7.08,4.32s11.61,4.8,18-4.49Z" style="fill:#263238"></path><path d="M167.42,147.47c.52-.58,3.89-.66,5.94-2.81s7.74,4,3.88,4.42C172.85,149.6,166.46,148.52,167.42,147.47Z" style="fill:#BA68C8"></path><path d="M277.2,210.82s6.48,7.68,12.79,1.08-1.66-12.73-1.66-12.73Z" style="fill:#ff9abb"></path><rect x="255.8" y="160.13" width="16.11" height="53.59" transform="translate(-53.58 248.55) rotate(-46.3)" style="fill:#BA68C8"></rect><rect x="255.8" y="160.13" width="16.11" height="53.59" transform="translate(-53.58 248.55) rotate(-46.3)" style="opacity:0.1"></rect><g style="opacity:0.1"><path d="M249.5,166.49q4.53,4.13,9,8.32l8.9,8.42,8.82,8.5q4.38,4.28,8.72,8.61-4.53-4.14-9-8.33l-8.9-8.42-8.81-8.5Q253.84,170.82,249.5,166.49Z"></path><path d="M247.3,168.8q4.51,4.13,9,8.32l8.89,8.42L274,194q4.39,4.28,8.72,8.61-4.52-4.14-9-8.33l-8.89-8.42L256,177.4Q251.63,173.13,247.3,168.8Z"></path><path d="M245.09,171.11q4.53,4.13,9,8.32l8.9,8.42,8.81,8.5q4.4,4.28,8.73,8.61-4.53-4.14-9-8.33l-8.9-8.42-8.81-8.5Q249.43,175.44,245.09,171.11Z"></path><path d="M242.88,173.41q4.53,4.14,9,8.33l8.9,8.42,8.82,8.5q4.4,4.28,8.72,8.6-4.53-4.12-9-8.32l-8.9-8.42-8.81-8.5Q247.22,177.74,242.88,173.41Z"></path></g><rect x="272.62" y="202" width="18.81" height="4.57" transform="translate(-60.51 267.06) rotate(-46.3)" style="fill:#37474f"></rect><rect x="268.97" y="198.52" width="18.81" height="4.57" transform="translate(-59.12 263.34) rotate(-46.3)" style="fill:#37474f"></rect><path d="M250.06,162.59,237.49,159l-4.14-1.21,1.37,4.11,4.2,12.39,2.81.43s-.58-2.71-.58-2.76l2.81.43-.59-2.77,2.8.47s-.57-2.75-.57-2.8l2.8.46s-.57-2.74-.57-2.79l2.79.46S250.06,162.64,250.06,162.59Z" style="fill:#fff"></path><polygon points="237.49 158.96 233.35 157.75 234.72 161.86 237.49 158.96" style="fill:#263238"></polygon></g><g id="freepik--Character--inject-6"><polygon points="157.08 436.67 71.81 414.21 32.15 435.48 115.55 463.27 157.08 436.67" style="fill:#BA68C8"></polygon><path d="M151.79,436.28l-38,24.44-78.17-26L74,414.37s23.4,3.08,24.49,3.42,11.4,4.62,11.4,4.62,14.48,2.52,15.46,2.85S151.79,436.28,151.79,436.28Z" style="fill:#fff"></path><path d="M109.84,422.41q-4.49,3.22-9,6.38l-9.13,6.26-9.19,6.16q-4.6,3.06-9.27,6,4.48-3.23,9-6.38l9.12-6.26,9.2-6.16Q105.18,425.38,109.84,422.41Z" style="fill:#dbdbdb"></path><path d="M143.42,436.06c-2.78-1.09-5.54-2.2-8.3-3.34l-8.25-3.44-2.06-.87-1-.4c-.35-.1-.72-.17-1.08-.26l-4.35-1q-4.35-1-8.67-2.18c2.93.56,5.86,1.14,8.78,1.76l4.37.95c.37.09.73.15,1.1.26s.71.26,1.07.4l2.07.84c2.74,1.18,5.49,2.35,8.21,3.56S140.72,434.78,143.42,436.06Z" style="fill:#dbdbdb"></path><path d="M140.77,437.62c-2.78-1.09-5.54-2.2-8.3-3.34l-8.25-3.44-2.06-.87-1-.4c-.35-.1-.72-.17-1.08-.26l-4.35-1q-4.35-1-8.67-2.18,4.39.84,8.78,1.77l4.37.94c.37.09.73.15,1.1.26s.71.26,1.07.4l2.07.85c2.74,1.17,5.49,2.34,8.21,3.56S138.07,436.34,140.77,437.62Z" style="fill:#dbdbdb"></path><path d="M138.12,439.18c-2.71-1.06-5.42-2.15-8.11-3.26l-8.07-3.37-2-.84a13.31,13.31,0,0,0-2-.74l-4.24-1q-4.26-1-8.49-2.11,4.3.78,8.58,1.68c1.43.29,2.85.62,4.27,1a13,13,0,0,1,2.1.73l2,.83c2.68,1.16,5.37,2.3,8,3.49S135.49,437.93,138.12,439.18Z" style="fill:#dbdbdb"></path><path d="M135.47,440.74c-2.67-1.05-5.34-2.12-8-3.22l-8-3.31c-1.32-.53-2.65-1.16-4-1.6l-4.17-1q-4.2-1-8.37-2.08,4.24.76,8.46,1.65c1.41.3,2.81.61,4.22.95s2.7,1,4,1.58c2.64,1.14,5.28,2.26,7.9,3.44S132.87,439.51,135.47,440.74Z" style="fill:#dbdbdb"></path><path d="M132.82,442.3q-4-1.56-8-3.2l-7.92-3.31c-1.32-.53-2.65-1.15-3.94-1.6s-2.78-.66-4.17-1q-4.17-1-8.33-2.08,4.23.75,8.43,1.64c1.4.3,2.79.61,4.2.95s2.69,1,4,1.59c2.63,1.13,5.27,2.25,7.88,3.42S130.23,441.08,132.82,442.3Z" style="fill:#dbdbdb"></path><path d="M130.17,443.86q-4-1.56-7.94-3.19l-7.9-3.29c-1.31-.54-2.64-1.15-3.93-1.61s-2.76-.66-4.15-1q-4.16-1-8.3-2.08c2.81.51,5.61,1.05,8.4,1.64,1.4.3,2.78.6,4.19.94,1.4.49,2.68,1.05,4,1.6,2.63,1.13,5.25,2.24,7.85,3.42S127.59,442.64,130.17,443.86Z" style="fill:#dbdbdb"></path><path d="M127.52,445.42c-2.62-1-5.23-2.07-7.83-3.15l-7.8-3.25c-1.3-.52-2.6-1.11-3.89-1.6s-2.71-.67-4.07-1q-4.11-1-8.2-2c2.78.49,5.54,1,8.3,1.61,1.38.31,2.74.57,4.14,1s2.63,1,3.93,1.59c2.59,1.12,5.18,2.21,7.75,3.37S125,444.22,127.52,445.42Z" style="fill:#dbdbdb"></path><path d="M124.88,447c-2.63-1-5.24-2.08-7.84-3.16l-7.8-3.25c-1.3-.52-2.6-1.11-3.89-1.6s-2.71-.67-4.07-1c-2.73-.66-5.47-1.34-8.19-2,2.77.49,5.53,1,8.29,1.61,1.38.31,2.74.57,4.14,1s2.63,1,3.93,1.59c2.59,1.12,5.18,2.21,7.75,3.37S122.33,445.78,124.88,447Z" style="fill:#dbdbdb"></path><path d="M122.68,448.78c-2.66-1-5.32-2.12-8-3.22l-7.91-3.31-3.95-1.65c-1.29-.43-2.74-.69-4.11-1-2.78-.68-5.56-1.36-8.32-2.09q4.22.75,8.42,1.64c1.4.32,2.78.56,4.2,1s2.66,1.06,4,1.63c2.62,1.14,5.26,2.25,7.86,3.44S120.09,447.56,122.68,448.78Z" style="fill:#dbdbdb"></path><path d="M120,450.4c-2.65-1.06-5.29-2.13-7.92-3.23l-7.88-3.33-3.93-1.65c-1.29-.45-2.74-.7-4.11-1.06-2.77-.67-5.54-1.35-8.3-2.08q4.22.75,8.4,1.64c1.4.33,2.78.55,4.19,1s2.66,1.07,4,1.64c2.62,1.14,5.24,2.27,7.83,3.45S117.45,449.17,120,450.4Z" style="fill:#dbdbdb"></path><path d="M117.36,452.15c-2.57-1.06-5.13-2.11-7.68-3.21s-5.08-2.21-7.63-3.29L98.23,444a8.58,8.58,0,0,0-1.93-.64l-2-.49c-2.69-.66-5.38-1.32-8.06-2,2.73.48,5.46,1,8.17,1.58l2,.46c.34.08.68.15,1,.26s.67.25,1,.38c1.28.53,2.56,1.07,3.82,1.64,2.53,1.14,5.08,2.24,7.59,3.42S114.87,450.93,117.36,452.15Z" style="fill:#dbdbdb"></path><path d="M114.72,453.59c-2.61-.95-5.22-1.91-7.81-2.9s-5.18-2-7.77-3c-1.3-.49-2.6-1-3.88-1.47l-4-1.18c-2.66-.81-5.31-1.64-8-2.52,2.71.65,5.39,1.35,8.08,2.07l4,1.12c1.36.45,2.62,1,3.92,1.47,2.58,1,5.17,2.05,7.73,3.13S112.17,452.48,114.72,453.59Z" style="fill:#dbdbdb"></path><path d="M76.43,440.94c-2.49-.87-4.94-1.81-7.38-2.78l-1.83-.7a16,16,0,0,0-1.85-.59l-3.8-1L54,433.7c-2.53-.7-5-1.47-7.56-2.2,2.55.63,5.11,1.23,7.65,1.89l7.62,2,3.81,1a17.36,17.36,0,0,1,1.91.58c.62.22,1.22.48,1.83.73C71.68,438.67,74.07,439.76,76.43,440.94Z" style="fill:#dbdbdb"></path><path d="M79,438.92q-3.68-1.07-7.27-2.31c-1.21-.39-2.41-.83-3.61-1.18l-3.67-1-7.32-2.12c-2.45-.7-4.87-1.46-7.31-2.19,2.47.62,4.94,1.22,7.39,1.87l7.37,2a73.25,73.25,0,0,1,7.32,2.21C74.29,437,76.66,437.92,79,438.92Z" style="fill:#dbdbdb"></path><path d="M81.47,437.13c-2.42-.71-4.83-1.46-7.22-2.27l-3.58-1.19L67,432.74l-7.33-1.89c-2.44-.62-4.87-1.31-7.31-2,2.46.55,4.94,1.07,7.39,1.65l7.38,1.73,3.68.89c1.23.36,2.4.81,3.6,1.23C76.8,435.22,79.15,436.15,81.47,437.13Z" style="fill:#dbdbdb"></path><path d="M83.59,435.81c-2.4-.85-4.72-1.86-7.07-2.79a10.76,10.76,0,0,0-1.76-.6L72.91,432l-8.31-2c5,.94,8.41,1.5,8.41,1.5l1.87.41a9.43,9.43,0,0,1,1.84.6A68.8,68.8,0,0,1,83.59,435.81Z" style="fill:#dbdbdb"></path><path d="M112,455.84c-2.67-.88-5.33-1.78-8-2.72l-7.93-2.82c-1.32-.46-2.65-1-4-1.42l-4-1.27c-2.67-.87-5.33-1.76-8-2.69,2.72.71,5.42,1.47,8.11,2.26l4,1.2c1.36.45,2.67.92,4,1.4,2.63,1,5.27,1.94,7.89,3S109.42,454.78,112,455.84Z" style="fill:#dbdbdb"></path><path d="M74.51,442.91c-2.69-.83-5.38-1.67-8.06-2.55l-8-2.67-4-1.33-4.06-1.19q-4.05-1.21-8.06-2.53c2.74.66,5.46,1.37,8.18,2.09l4.07,1.13c1.37.42,2.7.85,4,1.32,2.66.92,5.33,1.82,8,2.79S71.88,441.9,74.51,442.91Z" style="fill:#dbdbdb"></path><path d="M467.23,284.62c-2.28-1.64-75.3-24.3-78.63-23.4-.36.1-1.13,3.38-4.43,11.53-.16.39-34.9,42.51-34.9,42.51l47.55,25.1L424,302.09s34-6.44,37.5-7.8S469.52,286.27,467.23,284.62Z" style="fill: rgb(255, 196, 192);"></path><path d="M467.23,284.62c-2.28-1.64-75.3-24.3-78.63-23.4-.36.1-1.13,3.38-4.43,11.53-.16.39-4.91,5.91-7.24,8.91,3,2.6,32.2,23.2,40.21,30l6.82-9.61s34-6.44,37.5-7.8S469.52,286.27,467.23,284.62Z" style="fill:#BA68C8"></path><path d="M402.51,268.31a11.44,11.44,0,0,1-1.4,2.33,11.6,11.6,0,0,1-4.19,3.39,10.78,10.78,0,0,1-5.34,1,13,13,0,0,1-5.16-1.65c-.09,0,0-.18.08-.13a11.17,11.17,0,0,0,10.1-.18,11,11,0,0,0,3.74-3.21,11.27,11.27,0,0,0,1.22-2.1,8.5,8.5,0,0,0,.43-1.13c.13-.39.16-.72.54-.94a.39.39,0,0,1,.52.15C403.46,266.44,402.78,267.71,402.51,268.31Z" style="fill:#fff"></path><path d="M451.86,296.48a8.28,8.28,0,0,1-3.94-3.1,21.55,21.55,0,0,1-2.65-4.67,21.26,21.26,0,0,1-1.43-5.07,24.34,24.34,0,0,1-.23-2.56,8.45,8.45,0,0,1,.15-2.61.16.16,0,0,1,.3,0c.16.74.12,1.56.21,2.31a24.15,24.15,0,0,0,.4,2.55,27.88,27.88,0,0,0,1.47,4.79,16.29,16.29,0,0,0,6,7.72A.36.36,0,0,1,451.86,296.48Z" style="fill:#fff"></path><path d="M417.17,302.87c-8.88-6.41-17.72-12.88-26.66-19.2-2.53-1.79-5.05-3.61-7.62-5.36-.08-.06,0-.17.1-.12a305.08,305.08,0,0,1,27.22,18.43c2.46,1.9,4.86,3.89,7.24,5.9A.22.22,0,0,1,417.17,302.87Z" style="fill:#fff"></path><path d="M383.73,279.73a.59.59,0,0,1-.13.18l-.2.14-.39.26c-.27.18-.54.35-.83.51-.55.31-1.11.6-1.68.88-.08,0-.15-.09-.08-.14.54-.33,1.06-.68,1.58-1l.76-.51.4-.28a1,1,0,0,1,.41-.21A.15.15,0,0,1,383.73,279.73Z" style="fill:#fff"></path><path d="M387.87,282.79a.59.59,0,0,1-.13.18l-.2.13-.38.26c-.28.18-.55.35-.83.51-.55.32-1.12.6-1.69.88-.08,0-.15-.09-.08-.14.54-.32,1.06-.67,1.58-1l.76-.52.4-.28a1,1,0,0,1,.41-.21C387.82,282.56,387.93,282.69,387.87,282.79Z" style="fill:#fff"></path><path d="M392,285.84a.59.59,0,0,1-.13.18l-.2.14-.38.26c-.27.17-.55.35-.83.51-.55.31-1.12.6-1.69.87a.07.07,0,0,1-.07-.13c.53-.33,1.05-.68,1.57-1l.76-.51.4-.28a1,1,0,0,1,.41-.21A.15.15,0,0,1,392,285.84Z" style="fill:#fff"></path><path d="M396.15,288.9a.43.43,0,0,1-.13.17l-.2.14-.38.26c-.27.18-.55.35-.83.51-.55.32-1.11.6-1.69.88-.08,0-.15-.09-.07-.14.53-.33,1.06-.68,1.57-1l.76-.52.4-.28a1.14,1.14,0,0,1,.41-.21A.16.16,0,0,1,396.15,288.9Z" style="fill:#fff"></path><path d="M400.29,292a.46.46,0,0,1-.13.18l-.2.14-.38.25c-.27.18-.54.36-.83.52q-.83.46-1.68.87c-.08,0-.16-.09-.08-.13.53-.33,1.06-.68,1.57-1l.76-.52.4-.27a1,1,0,0,1,.41-.21A.15.15,0,0,1,400.29,292Z" style="fill:#fff"></path><path d="M404.44,295a.59.59,0,0,1-.13.18l-.2.14-.39.26c-.27.18-.54.35-.83.51-.55.31-1.11.6-1.68.88-.08,0-.16-.09-.08-.14.54-.33,1.06-.68,1.58-1l.76-.51.4-.28a1,1,0,0,1,.41-.21A.15.15,0,0,1,404.44,295Z" style="fill:#fff"></path><path d="M408.58,298.06a.59.59,0,0,1-.13.18l-.2.13-.38.26-.83.52c-.56.31-1.12.6-1.69.87-.08,0-.15-.09-.08-.13.54-.33,1.06-.68,1.58-1l.76-.52.4-.28a1,1,0,0,1,.41-.21C408.53,297.83,408.64,298,408.58,298.06Z" style="fill:#fff"></path><path d="M412.72,301.11a.59.59,0,0,1-.13.18l-.2.14-.38.26c-.27.18-.55.35-.83.51-.55.31-1.12.6-1.69.88a.08.08,0,0,1-.07-.14c.53-.33,1.05-.68,1.57-1l.76-.51.4-.28a1,1,0,0,1,.41-.21A.15.15,0,0,1,412.72,301.11Z" style="fill:#fff"></path><path d="M416.86,304.17a.55.55,0,0,1-.13.17l-.2.14-.38.26c-.27.18-.55.35-.83.51-.55.32-1.12.6-1.69.88-.08,0-.15-.09-.07-.14.53-.33,1.05-.68,1.57-1l.76-.52.4-.28a1.14,1.14,0,0,1,.41-.21A.16.16,0,0,1,416.86,304.17Z" style="fill:#fff"></path><path d="M410.82,321.69l-41.94-33s-43.07,55-43.8,55.41c0,0-33.82.35-61.14,5.79-4.88,1-26.86-11.71-55.91,12.74l4.37,45.5c45.69,6.54,109.42-3.3,136.58-12.19C374.63,387.54,410.82,321.69,410.82,321.69Z" style="fill:#37474f"></path><path d="M405,326c-9.44-7.79-19-15.47-28.87-22.65-2.82-2-5.73-4-8.51-6.08-.09-.07-.19.08-.1.15,2.42,1.89,4.71,3.93,7.09,5.87s4.75,3.86,7.15,5.76c4.79,3.79,9.74,7.37,14.66,11,2.8,2.06,5.64,4.09,8.48,6.12C404.94,326.22,405,326.07,405,326Z" style="fill:#263238"></path><path d="M372.75,307c-7.55,10.05-15.14,20.06-22.65,30.13q-5.64,7.54-11.29,15.09c-1.67,2.2-3.32,4.26-6.09,5a28.38,28.38,0,0,1-4.19.69l-4.67.58c-12.4,1.52-24.79,3.08-37.19,4.58a71.16,71.16,0,0,1-9.33.68,118,118,0,0,1-13.28-1.14,72.88,72.88,0,0,0-16.82-.89c-11.14.72-18,3.95-28.07,8.72-1.28.6-2.55,1.23-3.8,1.87-.11.06,0,.21.09.16a97.73,97.73,0,0,1,33-9.44,42.37,42.37,0,0,1,13,.33c3,.44,6,1.11,9,1.39a95.54,95.54,0,0,0,13.32-.21c6.23-.66,12.44-1.52,18.66-2.29l18.68-2.3c3.09-.38,6.21-.71,9.29-1.16a11.26,11.26,0,0,0,6.75-3,58.08,58.08,0,0,0,5.14-6.73q2.85-3.88,5.71-7.75c7.46-10.1,14.85-20.23,22.26-30.35l2.79-3.8C373.14,307.08,372.87,306.88,372.75,307Z" style="fill:#263238"></path><path d="M348.63,205.15c-2.34,1.57-49.14,62-49.47,65.45,0,.38,2.77,2.25,9.25,8.19.31.29.63,2.64.92,6.18,1.11,13.28,2,43.3,2,43.3l49-12.06L352,265.1l-2.18-13.29s5.87-34.06,5.83-37.86S351,203.59,348.63,205.15Z" style="fill: rgb(255, 196, 192);"></path><path d="M348.63,205.15c-2.34,1.57-49.14,62-49.47,65.45,0,.38,2.77,2.25,9.25,8.19.31.29.63,2.64.92,6.18,8-3.87,32.67-15.26,42.68-19.87l-2.18-13.29s5.87-34.06,5.83-37.86S351,203.59,348.63,205.15Z" style="fill:#BA68C8"></path><path d="M310.68,260.06a11.73,11.73,0,0,1,3.4,7.24,10.8,10.8,0,0,1-1,5.34,12.82,12.82,0,0,1-3.35,4.25c-.07.07-.17-.05-.09-.12a11.16,11.16,0,0,0,3.36-9.52,10.9,10.9,0,0,0-1.69-4.63,12,12,0,0,0-1.54-1.87,8.77,8.77,0,0,0-.91-.81c-.32-.25-.62-.39-.69-.82a.39.39,0,0,1,.33-.44C309.26,258.51,310.21,259.6,310.68,260.06Z" style="fill:#fff"></path><path d="M354.36,223.71a8.35,8.35,0,0,1-4.3,2.61,22,22,0,0,1-5.29.84A21.34,21.34,0,0,1,337,226a8.4,8.4,0,0,1-2.39-1,.16.16,0,0,1,.1-.28,20.1,20.1,0,0,1,2.24.61,23.92,23.92,0,0,0,2.52.51,27,27,0,0,0,5,.3,16.22,16.22,0,0,0,9.34-2.91A.36.36,0,0,1,354.36,223.71Z" style="fill:#fff"></path><path d="M348.76,260c-9.86,4.77-19.75,9.46-29.56,14.33-2.78,1.38-5.58,2.73-8.34,4.15-.09.05-.15-.1-.06-.15A306.43,306.43,0,0,1,340,263.17c2.84-1.26,5.73-2.42,8.62-3.56A.22.22,0,0,1,348.76,260Z" style="fill:#fff"></path><path d="M312.51,278.44a.59.59,0,0,1,.09.2l0,.24c0,.16,0,.31,0,.46,0,.33.05.65.06,1,0,.63,0,1.26,0,1.9,0,.08-.15.09-.16,0,0-.63-.09-1.25-.16-1.88,0-.3-.06-.61-.09-.91l-.06-.49a1,1,0,0,1,0-.46C312.28,278.38,312.45,278.34,312.51,278.44Z" style="fill:#fff"></path><path d="M317.16,276.25a.75.75,0,0,1,.1.2,1.94,1.94,0,0,1,0,.24c0,.15,0,.31.05.46,0,.32.05.65.06,1,0,.64,0,1.27,0,1.9,0,.09-.16.1-.16,0,0-.63-.1-1.26-.17-1.88l-.09-.92c0-.16,0-.32-.05-.48a1,1,0,0,1,0-.46A.15.15,0,0,1,317.16,276.25Z" style="fill:#fff"></path><path d="M321.82,274.06a.46.46,0,0,1,.09.2,2,2,0,0,1,0,.24c0,.15,0,.31,0,.46,0,.32.06.65.06,1,0,.64,0,1.27,0,1.9,0,.09-.15.09-.16,0,0-.62-.09-1.25-.16-1.87l-.09-.92c0-.16,0-.32-.05-.48a.89.89,0,0,1,0-.46A.15.15,0,0,1,321.82,274.06Z" style="fill:#fff"></path><path d="M326.48,271.87a.46.46,0,0,1,.09.2l0,.24c0,.15,0,.3,0,.46,0,.32.05.64.06,1,0,.63,0,1.27,0,1.9a.08.08,0,0,1-.16,0c0-.62-.09-1.25-.16-1.88,0-.3-.07-.6-.1-.91s0-.32-.05-.48a1,1,0,0,1,0-.46A.16.16,0,0,1,326.48,271.87Z" style="fill:#fff"></path><path d="M331.13,269.68a.48.48,0,0,1,.09.19,2.13,2.13,0,0,1,0,.25c0,.15,0,.3.05.45,0,.33.05.65.05,1,0,.63,0,1.27,0,1.9a.08.08,0,0,1-.15,0c0-.63-.1-1.25-.17-1.88l-.09-.91c0-.16,0-.32-.05-.48a.93.93,0,0,1,0-.47A.15.15,0,0,1,331.13,269.68Z" style="fill:#fff"></path><path d="M335.79,267.48a.59.59,0,0,1,.09.2l0,.24c0,.16,0,.31,0,.46,0,.33.05.65.06,1,0,.63,0,1.26,0,1.9,0,.08-.15.09-.16,0,0-.63-.09-1.25-.16-1.88,0-.3-.06-.61-.09-.91l-.06-.49a1,1,0,0,1,0-.46C335.56,267.42,335.73,267.38,335.79,267.48Z" style="fill:#fff"></path><path d="M340.44,265.29a.75.75,0,0,1,.1.2,1.94,1.94,0,0,1,0,.24c0,.16,0,.31.05.46,0,.33.05.65.06,1,0,.64,0,1.27,0,1.9,0,.09-.16.1-.16,0,0-.63-.1-1.26-.17-1.88l-.09-.91c0-.17,0-.33-.05-.49a1,1,0,0,1,0-.46A.15.15,0,0,1,340.44,265.29Z" style="fill:#fff"></path><path d="M345.1,263.1a.46.46,0,0,1,.09.2,2,2,0,0,1,0,.24c0,.15,0,.31,0,.46,0,.32.06.65.06,1,0,.64,0,1.27,0,1.9,0,.09-.15.1-.16,0,0-.63-.09-1.26-.16-1.88l-.09-.92c0-.16,0-.32-.05-.48a.89.89,0,0,1,0-.46A.15.15,0,0,1,345.1,263.1Z" style="fill:#fff"></path><path d="M349.76,260.91a.46.46,0,0,1,.09.2l0,.24c0,.15,0,.3,0,.46,0,.32.05.65.06,1,0,.64,0,1.27,0,1.9a.08.08,0,0,1-.16,0c0-.62-.09-1.25-.16-1.87,0-.31-.07-.61-.1-.92,0-.16,0-.32,0-.48a1,1,0,0,1,0-.46A.16.16,0,0,1,349.76,260.91Z" style="fill:#fff"></path><path d="M354.51,279.42,305,289.93S311,359.21,310.76,360c0,0-29.27,3.3-49.49,2.19,0,0-30-14.78-53.24,10.73l-3.29,44.76c64.7,7.85,151.32,4.21,162.8-17.82C380,375.92,354.51,279.42,354.51,279.42Z" style="fill:#37474f"></path><path d="M310.64,359.68c-5.49,0-14.7,1-20.18,1.25s-14.89.53-20.32.81c-3.14.17-5.76,0-8.88.27a.09.09,0,0,0,0,.18,278.14,278.14,0,0,0,36.29-.63c3.13-.28,10.1-1,13.21-1.49C310.92,360.05,311.18,359.68,310.64,359.68Z" style="fill:#263238"></path><path d="M258.18,357.47a39.93,39.93,0,0,0-6.8-6c-.09-.06-.19.08-.11.15a72.17,72.17,0,0,1,6.1,6.51,60.89,60.89,0,0,1,5.65,7.08.05.05,0,0,0,.09-.06A43.42,43.42,0,0,0,258.18,357.47Z" style="fill:#263238"></path><path d="M371,366.53c-.06-2.44-.28-4.88-.46-7.33-.38-4.83-.85-9.66-1.5-14.47-1.3-9.69-3-19.31-5.15-28.84-.6-2.66-1.22-5.32-1.9-8a74,74,0,0,0-2.31-8c-.08-.2-.45-.18-.41.07.35,2.34,1,4.67,1.5,7s1.05,4.7,1.55,7.05q1.51,7.2,2.79,14.45c1.68,9.61,3.05,19.26,4.19,28.94.32,2.72.59,5.44.88,8.17.15,1.36.7,12.25.72,13.65,0,.12.2.12.19,0C371,378,371.07,370.17,371,366.53Z" style="fill:#263238"></path><path d="M310.64,352.16c-.12-1.34-.56-6.51-1.09-7.51,0-.06-.1,0-.12,0-.37,1.14.13,6.46.26,7.8a73.44,73.44,0,0,0,1.1,7.52.09.09,0,0,0,.17,0A75.66,75.66,0,0,0,310.64,352.16Z" style="fill:#263238"></path><path d="M356.23,374.26c-.18-8.71-.78-17.42-1.66-26.09-1.74-17.11-4.56-34.1-7.58-51q-.57-3.11-1.12-6.23c0-.11-.19-.06-.18.06,2.83,16.92,5.73,33.85,7.65,50.91,1,8.48,1.69,17,2.05,25.5.17,4.13.28,8.27.25,12.41a47.85,47.85,0,0,1-.95,10.34,19.13,19.13,0,0,1-4.55,9.05,22.07,22.07,0,0,1-8.79,5.26,79.37,79.37,0,0,1-11,2.75c-4.09.81-8.2,1.46-12.34,2-16.55,2.08-33.29,2.1-49.95,1.76-17.07-.34-34.14-1-51.22-1.16-2.14,0-4.28-.06-6.42-.11-.12,0-.11.18,0,.19,8.8.27,17.6.65,26.41.92s17.45.54,26.18.78c16.85.46,33.77.69,50.56-1.09a162.74,162.74,0,0,0,24.13-4.16,32.94,32.94,0,0,0,9.48-3.85,17.56,17.56,0,0,0,6.47-7.3C356.74,388.75,356.38,381.18,356.23,374.26Z" style="fill:#263238"></path><path d="M354.58,287.17c-12.09,1.87-24.15,3.89-36.11,6.53-3.4.75-6.77,1.64-10.19,2.32-.12,0-.07.2.05.18,3-.56,6.06-.92,9.09-1.41s6-1,9.06-1.51c6-1.06,12-2.38,17.95-3.66,3.41-.73,6.8-1.5,10.2-2.28C354.75,287.32,354.7,287.15,354.58,287.17Z" style="fill:#263238"></path><path d="M152.31,308.86c1.39.15,7.46-.64,11.59,4.83,3.91,5.17,5.48,21,6.35,24.49s5.42,3.91,6.55,7.91c1,3.45-1.53,4.75-1.76,7.29-.17,2,1.86,4.9.1,7.83-1.59,2.67-4.47,2.16-6.19,3s-2.75,4.88-5.94,6-6.08-1.75-7.78-1.71-3.65,5.29-9.21,4.92-7.24-5.06-9.55-6-8.05.79-10.72-2-3.18-6.65-4.38-8-3.68-1.13-5.2-4.37,1.48-5.36,1.87-8.19c.27-2-1.51-3.76-.32-6.79,1.63-4.17,6.71-3.35,8.58-7.63,1.47-3.36,4.39-17.9,13.1-21.59C145.42,306.28,152.31,308.86,152.31,308.86Z" style="fill:#263238"></path><path d="M170.07,337.35a5.07,5.07,0,0,0,1.51,1.84l1.83,1.54a15.07,15.07,0,0,1,3.25,3.33,4.82,4.82,0,0,1,.6,4.22,7.26,7.26,0,0,1-1.14,1.94,8.71,8.71,0,0,0-1.34,2.13A4.2,4.2,0,0,0,175,355c.27.77.57,1.5.8,2.24a5.69,5.69,0,0,1-.08,4.35,3.3,3.3,0,0,1-1.5,1.52,5.86,5.86,0,0,1-2.21.51c-.78.07-1.58.06-2.38.08a4,4,0,0,0-2.31.56,4.33,4.33,0,0,1,2.31-.32c.79.05,1.58.13,2.39.13a6.3,6.3,0,0,0,2.44-.44,3.9,3.9,0,0,0,1.88-1.71,6.16,6.16,0,0,0,.25-4.92c-.23-.79-.52-1.54-.76-2.28a3.25,3.25,0,0,1-.22-2c.45-1.28,1.87-2.43,2.39-4.09a5.35,5.35,0,0,0-.8-4.87,15,15,0,0,0-3.56-3.3l-2-1.38A5.23,5.23,0,0,1,170.07,337.35Z" style="fill:#263238"></path><path d="M131.42,317.12a70.78,70.78,0,0,0-3.54,7.79c-.58,1.29-1.11,2.61-1.78,3.84a9.68,9.68,0,0,1-1.11,1.69,1.11,1.11,0,0,1-.33.32,1.68,1.68,0,0,1-.38.26c-.29.16-.61.31-.93.45a41.67,41.67,0,0,0-3.88,1.87,7.31,7.31,0,0,0-3.09,3.18,4.64,4.64,0,0,0-.41,2.24,6,6,0,0,0,.68,2.11,9.22,9.22,0,0,1,1.39,4,8.64,8.64,0,0,0-1-4.16,5.6,5.6,0,0,1-.52-2,4,4,0,0,1,.47-1.9,7.16,7.16,0,0,1,2.88-2.76,39.68,39.68,0,0,1,3.84-1.76c.33-.16.66-.32,1-.5a3.05,3.05,0,0,0,.93-.78,10.7,10.7,0,0,0,1.2-1.89,35.29,35.29,0,0,0,1.69-4l1.42-4A35.46,35.46,0,0,1,131.42,317.12Z" style="fill:#263238"></path><path d="M120,356.45a7.52,7.52,0,0,1,1,2.85c.22,1,.45,2,.73,3a14.41,14.41,0,0,0,1.12,2.92,6.78,6.78,0,0,0,2.07,2.5c2,1.21,4.26,1,6.25.64,1-.2,2-.46,3-.63a6.3,6.3,0,0,1,3,0,6,6,0,0,0-3.05-.42c-1,.1-2,.27-3,.39-2,.24-4.07.3-5.64-.71a6.15,6.15,0,0,1-1.82-2.14,19.25,19.25,0,0,1-1.2-2.74c-.36-.94-.66-1.91-1-2.89-.17-.48-.34-1-.54-1.44A3,3,0,0,0,120,356.45Z" style="fill:#263238"></path><path d="M87.08,393.48S73,403.76,72.5,404.5s.52,1.51,1.3,2.14a9.2,9.2,0,0,0,1.7.64c2.73.9,7.5,2.58,5.78,5.77-2.27,4.19-13,.41-14.59-.44a5.66,5.66,0,0,1-1.58-1.78c-1.55-2.42-3.06-6.7-1.46-9.79,2.19-4.24,6.31-7.46,9.69-10.51Z" style="fill: rgb(255, 196, 192);"></path><path d="M87.08,393.48S73,403.76,72.5,404.5s.52,1.51,1.3,2.14a9.2,9.2,0,0,0,1.7.64c-3.69,1.28-7.78,2.67-10.39,3.55-1.55-2.42-3.06-6.7-1.46-9.79,2.19-4.24,6.31-7.46,9.69-10.51Z" style="fill:#263238"></path><path d="M106.84,407.22c-1,.3-8.89,4.12-14.85,7-4.6-2.23-14.3-5.6-16.86-6.51-2.68-1.49-9.26-3.16-9.35-2.87-.19.53-.85,2.41-1.82,4.63-1.3,2.93-3.14,6.46-5.19,8.25a3.48,3.48,0,0,1-3.45,1c-2.1-.73-.7-5.4.47-11.08,1.58-7.73,4-17.14,7.69-19.17,5.51-3,14.92-2,17.76-2s14.42-2.28,14.42-2.28C108.25,392.93,108.14,406.82,106.84,407.22Z" style="fill: rgb(255, 196, 192);"></path><path d="M75.58,383.48S77,377.79,73,377.16s-4.4,5.21-4.4,5.21Z" style="fill:#c6584f"></path><rect x="65.37" y="382.44" width="7.06" height="41.15" transform="translate(73.65 811.85) rotate(-170.96)" style="fill:#BA68C8"></rect><rect x="70.87" y="386.95" width="0.46" height="34.63" transform="translate(77.78 814.68) rotate(-170.96)" style="opacity:0.1"></rect><rect x="69.31" y="386.7" width="0.46" height="34.63" transform="translate(74.81 813.94) rotate(-170.97)" style="opacity:0.1"></rect><rect x="67.75" y="386.45" width="0.46" height="34.63" transform="translate(71.67 813.2) rotate(-170.96)" style="opacity:0.1"></rect><rect x="66.19" y="386.21" width="0.46" height="34.63" transform="translate(68.68 812.47) rotate(-170.97)" style="opacity:0.1"></rect><rect x="67.91" y="382.47" width="8.24" height="1.64" transform="translate(82.98 773.13) rotate(-170.96)" style="fill:#37474f"></rect><rect x="67.63" y="384.25" width="8.24" height="1.64" transform="translate(82.14 776.63) rotate(-170.96)" style="fill:#37474f"></rect><path d="M62.18,422.78,64,428.21l.6,1.79,1.14-1.52,3.42-4.59-.55-1.13s-.83.89-.85.9l-.54-1.12-.85.9-.53-1.12s-.85.89-.87.9l-.53-1.12-.87.9-.52-1.12Z" style="fill:#ebebeb"></path><polygon points="64 428.21 64.6 430 65.74 428.48 64 428.21" style="fill:#37474f"></polygon><path d="M92,414.22c-2,1-3.83,1.9-5,2.55a16.19,16.19,0,0,1-11.82,1.76c-3.59-.69-13.32,4.45-11.95-1.42s13.36-6.83,13.05-8.41c-.06-.3-.47-.64-1.1-1C77.69,408.62,87.39,412,92,414.22Z" style="fill: rgb(255, 196, 192);"></path><path d="M73.35,406.9c-.14,0-.14.06,0,.12.46.22,2.49,1.19,2.32,1.68-.28.85-5.53,2.42-7.62,3.46-.11.06,0,.22.06.16a33.55,33.55,0,0,1,3.4-1.2c1.07-.36,4.42-1.22,4.78-2.29C76.53,408.11,73.89,407,73.35,406.9Z" style="fill:#263238"></path><path d="M158,364.13c-6.3,12.88-18.45,28.1-21.87,32.36C130.05,404.05,105.56,409,96.65,412c-3.85,1.31-13.51-24.38-9.42-25.85,2.94-1.06,29.1-5.4,31.3-6.89s15.78-12.94,27.28-21C162,347,162.28,355.38,158,364.13Z" style="fill: rgb(255, 196, 192);"></path><path d="M125.94,371.06,151,378.84s6.81-11.3,9.69-18.08c3.82-9,1.38-12.5-9.39-7.3C144.11,356.94,125.94,371.06,125.94,371.06Z" style="fill:#BA68C8"></path><path d="M162.34,353.64s0,0,0,0a1.43,1.43,0,1,1-1.35-1.89,1.47,1.47,0,0,1,.56.11h0A3,3,0,0,1,162.34,353.64Zm-29.08,19.61a.65.65,0,0,0-.2,0l1.16.36A1.38,1.38,0,0,0,133.26,373.25Zm13.86,0a1.43,1.43,0,1,0,1.43,1.43A1.43,1.43,0,0,0,147.12,373.25Zm-6.93-10.42a1.43,1.43,0,1,0,1.43,1.43A1.43,1.43,0,0,0,140.19,362.83Zm13.86,0a1.43,1.43,0,1,0,1.44,1.43A1.43,1.43,0,0,0,154.05,362.83Z" style="fill:#fff"></path><path d="M129.23,369.47c3.72.88,7.43,1.81,11.09,2.91q2.75.83,5.47,1.72c1.81.61,3.56,1.4,5.38,2,.1,0,0,.19-.06.15-1.78-.66-3.67-1.1-5.49-1.67l-5.47-1.69c-3.65-1.1-7.31-2.21-11-3.23C129.07,369.6,129.13,369.45,129.23,369.47Z" style="fill:#263238"></path><path d="M160.7,360.76c-2.88,6.78-9.69,18.08-9.69,18.08l-14.37-4.46L156,351.57C162.72,349.59,163.88,353.28,160.7,360.76Z" style="opacity:0.1"></path><path d="M204.74,417.68s9.71-12.37,7.63-58.68c0,0-11.65,1.86-14.71,1.26-9.27-1.81-16.22-6.94-26.9-10.92s-18-.85-22.29,6.4c-1.06,1.81-5.25,26.66-1.44,36,3,7.38,16.53,9.24,16.53,9.24S191.49,417.86,204.74,417.68Z" style="fill:#BA68C8"></path><path d="M172.13,390.88a33.25,33.25,0,0,0-5.8,3.63c-.9.72-1.75,1.51-2.6,2.33-.42.4-.86.79-1.29,1.17a5.33,5.33,0,0,1-1.48,1c-.05,0,0,.12,0,.11a8.5,8.5,0,0,0,1.55-.58,9.13,9.13,0,0,0,1.35-.91c.92-.72,1.81-1.51,2.72-2.25,1.84-1.48,3.68-3,5.62-4.25C172.33,391.06,172.23,390.83,172.13,390.88Z" style="fill:#263238"></path><path d="M178.27,391.78a34.4,34.4,0,0,0-5.38,1.43,23,23,0,0,0-2.55,1.12c-.4.2-.79.41-1.18.63s-.83.56-1.26.8c0,0,0,.13,0,.1.42-.2.87-.3,1.3-.46l1.3-.5c.87-.33,1.73-.64,2.6-1q2.58-1,5.2-1.94C178.44,392,178.36,391.76,178.27,391.78Z" style="fill:#263238"></path><path d="M162.42,353.19a1.44,1.44,0,1,1-1.43-1.43A1.43,1.43,0,0,1,162.42,353.19Zm12.43-1.43a1.43,1.43,0,1,0,1.43,1.43A1.43,1.43,0,0,0,174.85,351.76Zm-27.73,21.49a1.43,1.43,0,1,0,1.43,1.43A1.43,1.43,0,0,0,147.12,373.25Zm13.87,0a1.43,1.43,0,1,0,1.43,1.43A1.44,1.44,0,0,0,161,373.25Zm13.86,0a1.43,1.43,0,1,0,1.43,1.43A1.43,1.43,0,0,0,174.85,373.25Zm13.87,0a1.43,1.43,0,1,0,1.43,1.43A1.44,1.44,0,0,0,188.72,373.25Zm13.86,0a1.43,1.43,0,1,0,1.43,1.43A1.43,1.43,0,0,0,202.58,373.25Zm-48.53-10.42a1.43,1.43,0,1,0,1.44,1.43A1.43,1.43,0,0,0,154.05,362.83Zm13.87,0a1.43,1.43,0,1,0,1.43,1.43A1.43,1.43,0,0,0,167.92,362.83Zm13.86,0a1.43,1.43,0,1,0,1.44,1.43A1.43,1.43,0,0,0,181.78,362.83Zm13.87,0a1.43,1.43,0,1,0,1.43,1.43A1.43,1.43,0,0,0,195.65,362.83Zm13.86,0a1.43,1.43,0,1,0,1.44,1.43A1.43,1.43,0,0,0,209.51,362.83ZM161,394.73a1.44,1.44,0,1,0,1.43,1.43A1.44,1.44,0,0,0,161,394.73Zm13.86,0a1.44,1.44,0,1,0,1.43,1.43A1.43,1.43,0,0,0,174.85,394.73Zm13.87,0a1.44,1.44,0,1,0,1.43,1.43A1.44,1.44,0,0,0,188.72,394.73Zm13.86,0a1.44,1.44,0,1,0,1.43,1.43A1.43,1.43,0,0,0,202.58,394.73Zm-48.53-10.42a1.44,1.44,0,1,0,1.44,1.44A1.44,1.44,0,0,0,154.05,384.31Zm13.87,0a1.44,1.44,0,1,0,1.43,1.44A1.44,1.44,0,0,0,167.92,384.31Zm13.86,0a1.44,1.44,0,1,0,1.44,1.44A1.44,1.44,0,0,0,181.78,384.31Zm13.87,0a1.44,1.44,0,1,0,1.43,1.44A1.44,1.44,0,0,0,195.65,384.31Zm13.86,0a1.44,1.44,0,1,0,1.44,1.44A1.44,1.44,0,0,0,209.51,384.31Zm-6.93,31.91a1.42,1.42,0,0,0-1.4,1.17,22.56,22.56,0,0,0,2.83.28v0A1.43,1.43,0,0,0,202.58,416.22Zm-20.8-10.42a1.44,1.44,0,1,0,1.44,1.43A1.43,1.43,0,0,0,181.78,405.8Zm13.87,0a1.44,1.44,0,1,0,1.43,1.43A1.43,1.43,0,0,0,195.65,405.8Zm12.43,1.43a1.41,1.41,0,0,0,.55,1.13c.23-.79.45-1.63.68-2.54A1.42,1.42,0,0,0,208.08,407.23Z" style="fill:#fff"></path><path d="M162.21,354.52c-.08,1.21-4.37,9.66-9.71,10.29-1.75.2-3.28-9.25-3.28-9.25l-.27-.67-3.81-9.42,10.26-9.27,1.5-1.25s.87,2.64,1.92,5.95c.05.15.1.3.15.47s.13.36.18.53c.17.49.33,1,.49,1.5s.23.76.34,1.16l.35,1.21A65.87,65.87,0,0,1,162.21,354.52Z" style="fill: rgb(255, 196, 192);"></path><path d="M158.82,340.9a20.39,20.39,0,0,1-9.87,14l-3.81-9.42,10.26-9.27,1.5-1.25S157.77,337.59,158.82,340.9Z" style="fill:#263238"></path><path d="M128.25,335c4,17.36,14.84,16.94,18.58,16.08,3.4-.79,14.87-3.89,12.71-21.57S148,308.2,140.17,309.58,124.27,317.65,128.25,335Z" style="fill: rgb(255, 196, 192);"></path><path d="M131,333.06a11.29,11.29,0,0,0,1.09-.57,2,2,0,0,0,1-.79.65.65,0,0,0-.21-.75,1.59,1.59,0,0,0-1.59.06,2.3,2.3,0,0,0-1.18,1.18A.68.68,0,0,0,131,333.06Z" style="fill:#263238"></path><path d="M142.64,327.5a10,10,0,0,1-1.22.08,1.91,1.91,0,0,1-1.27-.16.62.62,0,0,1-.21-.74,1.58,1.58,0,0,1,1.4-.77,2.25,2.25,0,0,1,1.61.4A.67.67,0,0,1,142.64,327.5Z" style="fill:#263238"></path><path d="M141.52,334.21s.11,0,.12.08c.26,1.18.76,2.5,1.92,2.62a0,0,0,0,1,0,.07C142.23,337.12,141.58,335.37,141.52,334.21Z" style="fill:#263238"></path><path d="M142.26,332.71c1.86-.62,3,3.14,1.25,3.71S140.71,333.24,142.26,332.71Z" style="fill:#263238"></path><path d="M143.06,332.69c.39.12.82.4,1.23.32s.7-.58.89-1.05c0,0,.06,0,.07,0a1.43,1.43,0,0,1-.57,1.88c-.68.3-1.37-.19-1.76-.86C142.84,332.88,142.9,332.65,143.06,332.69Z" style="fill:#263238"></path><path d="M134.45,335.84s-.07.08-.06.13c.39,1.15.65,2.53-.29,3.24,0,0,0,.08,0,.06C135.36,338.7,135,336.87,134.45,335.84Z" style="fill:#263238"></path><path d="M133.05,334.94c-1.91.43-.92,4.22.85,3.82S134.65,334.59,133.05,334.94Z" style="fill:#263238"></path><path d="M132.32,335.4c-.24.28-.45.72-.8.84s-.82-.19-1.19-.52c0,0-.06,0,0,.06.17.73.6,1.42,1.34,1.38s1-.79,1-1.55C132.58,335.46,132.42,335.29,132.32,335.4Z" style="fill:#263238"></path><path d="M143.59,343.3c-.18.37-.33.83-.73,1a3.36,3.36,0,0,1-1.34.14,0,0,0,0,0,0,.07,1.62,1.62,0,0,0,1.67.12,1.29,1.29,0,0,0,.55-1.32C143.71,343.24,143.62,343.25,143.59,343.3Z" style="fill:#263238"></path><path d="M137.51,340.46s.26,1.82.49,2.64c0,.08.23.06.51,0,0,0,0,0,0,0a4,4,0,0,0,3.38-2.53c0-.1-.09-.15-.15-.08a6.11,6.11,0,0,1-3.28,2c-.13-.21-.33-3.11-.47-3.09a7.52,7.52,0,0,0-1.74.95c-.64-3.75-.67-7.58-1.36-11.32a.12.12,0,0,0-.23,0,62.61,62.61,0,0,0,.94,12.26C135.71,341.79,137.22,340.7,137.51,340.46Z" style="fill:#263238"></path><path d="M159.71,331.11a7.31,7.31,0,0,1-5.8-4.33,19.06,19.06,0,0,1-9.4-3.44c.23.31,1.89,2.54,2.78,3.65-11.36,1.63-17.45-5.42-17.45-5.42a19.23,19.23,0,0,0-2.35,8.35s-2.31-6.52-.43-12.06a11.16,11.16,0,0,1,8.28-7.66,15.93,15.93,0,0,1,16.28-.47C161.13,314.93,159.71,331.11,159.71,331.11Z" style="fill:#263238"></path><path d="M138.57,328a20.87,20.87,0,0,0,6.16.15s0,0,0,0a17.71,17.71,0,0,1-9.46-2.08,17,17,0,0,1-3.4-2.44,11.75,11.75,0,0,1-2.8-3.59c0-.11-.2,0-.16.07a13.74,13.74,0,0,0,2.28,3.92,12.52,12.52,0,0,0,3.57,2.73,14.22,14.22,0,0,0,3.81,1.26" style="fill:#263238"></path><path d="M144.41,340a5.54,5.54,0,0,1-6-5h0a5.53,5.53,0,1,1,7.39,4.65A5.35,5.35,0,0,1,144.41,340Zm-5.31-5a4.79,4.79,0,1,0,4.29-5.24,5,5,0,0,0-1.16.26A4.8,4.8,0,0,0,139.1,335Z" style="fill:#BA68C8"></path><path d="M133,342.65c-2.21.52-4.58-1.47-5.28-4.44a6.6,6.6,0,0,1,.26-4,3.44,3.44,0,0,1,5.74-1.34,6.53,6.53,0,0,1,2,3.49c.66,2.81-.41,5.5-2.4,6.22A2.19,2.19,0,0,1,133,342.65Zm-4.34-8.18a5.9,5.9,0,0,0-.22,3.58c.61,2.57,2.57,4.31,4.39,3.88s2.79-2.86,2.19-5.43a5.79,5.79,0,0,0-1.79-3.1,2.93,2.93,0,0,0-2.59-.79l-.27.08A3,3,0,0,0,128.7,334.47Z" style="fill:#BA68C8"></path><path d="M138.69,335.64,139,335c-1-.49-3.08-1-4.06.74l.64.37C136.48,334.55,138.6,335.6,138.69,335.64Z" style="fill:#BA68C8"></path><path d="M163,331.39l.56-.48c-.23-.26-2.24-2.55-3.91-2.44s-11,3.28-11.39,3.42l.24.7c2.7-.91,10-3.3,11.2-3.38S162.45,330.76,163,331.39Z" style="fill:#BA68C8"></path><path d="M157.08,331.49s2-6.48,4.82-5.94,2.52,9.12,0,11.08a3,3,0,0,1-4.34-.31Z" style="fill: rgb(255, 196, 192);"></path><path d="M161.76,328s.07,0,0,.07c-1.71,1.43-2.16,3.6-2.28,5.74a1.67,1.67,0,0,1,2.23-1.2c.06,0,0,.12,0,.13A1.83,1.83,0,0,0,160,334a9.07,9.07,0,0,0-.43,1.87c0,.2-.38.21-.38,0v-.05C158.31,333.29,159.13,329.13,161.76,328Z" style="fill:#263238"></path><path d="M149.44,309.33c-1.55-.25-4.55-8,0-12.94s12.2-1.89,10.69,5.29C159.15,306.22,152.73,309.85,149.44,309.33Z" style="fill:#263238"></path><path d="M156.74,294.42a9.17,9.17,0,0,1,4.08,4.5,5.51,5.51,0,0,1-.56,5.51,11.16,11.16,0,0,1-4.75,3.64,16.47,16.47,0,0,1-2.95,1,8.4,8.4,0,0,1-3.12.28,7.4,7.4,0,0,0,3.21.29,14.06,14.06,0,0,0,3.2-.69,10.83,10.83,0,0,0,5.37-3.82,6.17,6.17,0,0,0,.43-6.58A8.11,8.11,0,0,0,156.74,294.42Z" style="fill:#263238"></path><path d="M178.54,355.09c17.62,15.11,42.78,41.66,35.91,50.22-11.28,14.07-49.77,28.94-58.68,32-3.85,1.3-17.2-22.82-15.27-26.71s43.57-15.15,43.32-17.8c-.14-1.5-6.22-13.36-13.65-28.15C161.61,347.58,173.5,350.77,178.54,355.09Z" style="fill: rgb(255, 196, 192);"></path><path d="M147,407s-12.11,2.46-19.95,4.45c-4.38,1.1-11.72,3.67-14.56,5.95-4.25,3.42-19.86,20.42-15.82,24.29,3.66,3.51,15.21-12.8,15.21-12.8s-13.11,15.42-7.93,18.84S119.68,431,119.68,431s-13.12,16.15-7.22,18.82c4.46,2,15.09-15.7,15.09-15.7s-11.18,14-6.68,16.24c5,2.51,15.81-13.23,15.81-13.23,12.39,3.86,19.88.63,24.93-2.31C162.83,434.08,147,407,147,407Z" style="fill: rgb(255, 196, 192);"></path><path d="M116,423.25c-1.61,1.76-3.25,3.53-4.69,5.42s-2.83,3.84-4.09,5.85a40.67,40.67,0,0,0-4.16,8.33c2.27-5.05,7.34-11.91,8.78-13.8s2.79-3.85,4.23-5.75C116.14,423.26,116.06,423.21,116,423.25Z" style="fill:#263238"></path><path d="M123,428.34c-2,2.34-4,4.58-5.83,7s-3.38,4.85-5.06,7.37c-.13.2,0,.2.16,0,1.77-2.45,3.6-4.59,5.4-7s3.5-4.94,5.38-7.3A0,0,0,0,0,123,428.34Z" style="fill:#263238"></path><path d="M129.69,431.64a68.08,68.08,0,0,0-8.1,11.38c-.12.2.07.18.21,0,2.62-3.83,4.65-6.86,8-11.26C129.86,431.69,129.76,431.57,129.69,431.64Z" style="fill:#263238"></path><path d="M201.29,374l-25.71,5.3s-5.67-11.91-7.88-19c-2.92-9.3-.15-12.57,10.06-6.34C184.59,358.17,201.29,374,201.29,374Z" style="fill:#BA68C8"></path><path d="M176.28,353.14v.05a1.43,1.43,0,0,1-2.86,0,1.45,1.45,0,0,1,.63-1.19q1,.47,2.22,1.14Zm-1.43,20.11a1.43,1.43,0,1,0,1.43,1.43A1.43,1.43,0,0,0,174.85,373.25Zm13.87,0a1.43,1.43,0,1,0,1.43,1.43A1.44,1.44,0,0,0,188.72,373.25ZM168.61,363c.21.56.42,1.14.65,1.73a1.28,1.28,0,0,0,.09-.48A1.42,1.42,0,0,0,168.61,363Zm13.17-.18a1.43,1.43,0,1,0,1.44,1.43A1.43,1.43,0,0,0,181.78,362.83Z" style="fill:#fff"></path><path d="M178.72,378.65c-.29,0-2.95.46-3.13.55-.63-1.42-3.67-8-4-8.69-.05-.1-.19-.05-.15.07.16.4.74,1.94,1.41,3.67l-.06-.06c-.23-.28-.49-.55-.75-.82s-.48-.58-.72-.88c-.07-.09-.21,0-.13.12.24.28.49.55.71.85s.4.56.61.83l.65.81,0,0c.76,1.94,1.55,3.91,1.9,4.62a30.37,30.37,0,0,0,3.66-1S178.76,378.65,178.72,378.65Z" style="fill:#263238"></path><path d="M198.18,372.09c-3.8.51-7.58,1.08-11.33,1.81-1.88.37-3.75.76-5.61,1.19s-3.68,1-5.54,1.43a.08.08,0,1,0,0,.15c1.83-.49,3.76-.73,5.62-1.12s3.74-.78,5.61-1.15c3.75-.74,7.49-1.49,11.25-2.15C198.32,372.23,198.28,372.08,198.18,372.09Z" style="fill:#263238"></path><path d="M189.26,362.9s-.08,0-.06.06c.77,1,9.19,8.94,11.77,10.91a17,17,0,0,0-1.95.6,17.28,17.28,0,0,0,2.64-.46C201.71,374,190.38,363.55,189.26,362.9Z" style="fill:#263238"></path></g></svg>