<svg xmlns="http://www.w3.org/2000/svg" fill="#fa314a" viewBox="0 0 100 100" width="200" height="200" xmlns:v="https://vecta.io/nano"><path d="M50.498 12.346c-14.209 0-25.77 11.561-25.77 25.77 0 9.469 5.125 18.065 13.422 22.6l-.457 3.73a.97.97 0 0 0-.008.121c0 2.499 1.364 4.753 3.486 5.957-.871.734-1.439 1.838-1.439 3.09 0 1.552.865 2.886 2.115 3.549a3.52 3.52 0 0 0-.619 1.998v.906c0 1.887 1.484 3.42 3.344 3.527.433 2.306 3.154 4.031 6.557 4.031 2.084 0 6.263-1.001 6.701-4.027 1.887-.08 3.398-1.626 3.398-3.531v-.906a3.55 3.55 0 0 0-3.547-3.547H44.775l-1.184.002c-1.025 0-1.859-.897-1.859-2s.834-2 1.859-2h14.326c1.025 0 1.859.897 1.859 2 0 .571-.001.57-.408 1.133a1 1 0 0 0 1.619 1.174c.699-.965.789-1.158.789-2.309 0-2.206-1.73-4-3.859-4H43.592c-.023 0-.044.007-.066.008-.117-.201-.294-.368-.531-.449-1.961-.667-3.285-2.49-3.309-4.547l.533-4.352a1 1 0 0 0-.535-1.012c-7.99-4.094-12.955-12.197-12.955-21.146 0-13.106 10.664-23.77 23.77-23.77 13.337 0 24.189 10.683 24.189 23.811 0 8.658-5.251 16.943-13.375 21.107-.373.191-.587.595-.535 1.012l.533 4.352a4.82 4.82 0 0 1-1.453 3.396 1 1 0 1 0 1.404 1.426 6.81 6.81 0 0 0 2.049-4.881 1.03 1.03 0 0 0-.008-.123l-.457-3.73c8.432-4.601 13.842-13.381 13.842-22.559 0-14.232-11.749-25.811-26.189-25.811zm1.23 7.018a.5.5 0 1 0 0 1c.986 0 1.977.082 2.943.242 5.596.928 10.467 4.517 13.029 9.602a.5.5 0 0 0 .447.275c.076 0 .154-.018.225-.055a.5.5 0 0 0 .223-.67c-2.705-5.369-7.85-9.16-13.76-10.139-1.02-.169-2.066-.256-3.107-.256zM69.451 32.66a.49.49 0 0 0-.197.016.5.5 0 0 0-.344.619 17.91 17.91 0 0 1 .693 4.943.5.5 0 1 0 1 0c0-1.775-.247-3.533-.732-5.221a.5.5 0 0 0-.42-.357zm-12.988 10.5c-.289-.016-.598.043-.91.176-.838.358-1.517 1.175-1.65 1.988-.227 1.391.23 2.884 1.236 4.139a4.53 4.53 0 0 1-2.437.975c-.994.087-2.11-.33-3-1.09.685-1.084 1.095-2.241 1.34-3.197.271-1.059.14-1.839-.389-2.318-.404-.368-.967-.481-1.576-.316-.812.216-1.544.879-1.781 1.611-.431 1.332-.087 2.841.943 4.137.053.066.106.132.162.195a6.38 6.38 0 0 1-1.348 1.287 5.02 5.02 0 0 1-.785.453c-.53-1.309-1.17-2.559-1.922-3.766-.733-1.177-1.745-1.787-2.699-1.625-.41.068-.807.278-1.18.623-.727.673-1.083 1.504-1.029 2.406.065 1.084.728 2.156 1.818 2.945 1.225.886 2.866 1.114 4.426.693 1.463 4.091 1.883 8.819 1.361 14.719a.5.5 0 0 0 .453.541c.015.002.031.002.047.002.256 0 .472-.196.5-.457.536-6.054.099-10.918-1.414-15.145a6.14 6.14 0 0 0 1.002-.572 7.35 7.35 0 0 0 1.49-1.404c1.08.894 2.431 1.375 3.668 1.271a5.52 5.52 0 0 0 3.033-1.234c.01.01.02.019.031.029a6.92 6.92 0 0 0 1.566 1.096c-.094.168-.172.324-.262.49a.4.4 0 0 0-.494.236 23 23 0 0 0-1.219 3.26l-.201.445a.49.49 0 0 0-.014.326c-.917 3.525-1.053 7.149-.98 10.908.012.643 1.012.645 1 0-.073-3.859.054-7.613 1.098-11.24a45.23 45.23 0 0 1 2.012-4.041c.964.307 1.97.359 2.914.123.302-.142 2.964-1.437 3.281-3.27.087-.507.024-1.276-.77-2.064-.453-.451-1.008-.627-1.607-.51-1.414.278-2.975 2.318-4.26 4.471-.484-.243-.951-.562-1.377-.955.04-.045.079-.093.117-.139 1.002-1.211 1.486-2.77 1.328-4.287-.058-.552-.129-1.238-.723-1.645a1.56 1.56 0 0 0-.801-.271zm-.1.998c.114 0 .229.027.33.098.198.136.245.453.295.93.13 1.245-.272 2.535-1.104 3.541-.009.011-.018.024-.027.035-.789-1.018-1.147-2.192-.971-3.275.078-.47.541-1.01 1.057-1.23a1.09 1.09 0 0 1 .42-.098zm-6.76.285c.132 0 .268.032.375.129.29.264.21.869.092 1.33-.207.809-.543 1.779-1.084 2.697-.792-1.019-1.063-2.17-.742-3.164.132-.407.609-.826 1.088-.953a1.05 1.05 0 0 1 .271-.039zm-7.65 2.34c.593 0 1.177.593 1.541 1.18a23.5 23.5 0 0 1 1.824 3.566c-1.241.303-2.541.125-3.479-.555-.845-.612-1.357-1.411-1.404-2.195-.036-.601.203-1.144.711-1.613.227-.211.45-.335.664-.371.048-.008.096-.012.143-.012zm20.609.17c.186.008.351.09.516.254.397.394.557.782.488 1.184-.193 1.122-2.03 2.21-2.627 2.502-.653.159-1.362.132-2.068-.064 1.216-2.012 2.517-3.667 3.498-3.859a.8.8 0 0 1 .193-.016zm-17.787 30.66h12.453.453a1.55 1.55 0 0 1 1.547 1.547v.906a1.55 1.55 0 0 1-1.547 1.547H44.775a1.55 1.55 0 0 1-1.547-1.547v-.906a1.55 1.55 0 0 1 1.547-1.547zm1.898 6h9.086c-.609 1.514-3.689 2.012-4.631 2.012-2.109 0-3.927-.871-4.455-2.012z"/></svg>