<svg width="1029" height="604" viewBox="0 0 1029 604" fill="none" xmlns="http://www.w3.org/2000/svg">
<rect width="1029" height="604" fill="#E5E5E5"/>
<rect width="1029" height="604" fill="#1A1A1A"/>
<path d="M607.59 403.604C613.116 398.697 615.888 396.232 616.607 395.933C618.361 395.196 624.045 392.823 629.01 396.808C632.571 399.665 635.851 405.861 634.483 410.007C633.5 412.956 630.501 413.877 627.782 414.73C623.764 415.973 620.326 415.282 618.396 414.683C617.642 415.651 616.431 416.941 614.73 417.793C611.905 419.221 608.643 418.968 608.485 418.116C608.414 417.678 609.116 416.826 612.519 415.075C612.116 414.499 611.52 413.808 610.677 413.324C608.186 411.827 605.695 413.278 605.222 413.578C607.66 415.444 608.186 416.411 608.064 416.941C607.748 418.277 602.783 418.715 601.45 415.651C601.31 415.352 600.924 414.315 601.24 412.357C601.871 408.763 604.152 406.667 607.59 403.604Z" fill="#161616"/>
<path d="M631.658 408.717C632.22 407.197 634.746 407.566 635.728 407.704C636.991 407.888 638.114 408.049 639.132 409.224C639.904 410.1 641.026 412.011 640.623 413.555C640.254 415.029 638.869 414.914 636.185 416.641C635.728 416.941 631.343 419.774 631.641 421.64C631.764 422.4 632.553 422.377 635.062 423.782C637.237 424.98 638.518 425.717 639.588 427.33C640.114 428.136 641.167 429.725 640.886 431.338C640.36 434.309 635.658 434.816 635.535 434.355C635.43 433.964 638.728 432.881 638.763 430.854C638.798 429.311 636.956 428.067 635.799 427.261C632.395 424.934 630.097 425.763 629.203 423.529C628.694 422.262 628.974 420.903 629.027 420.65C629.29 419.406 630.027 418.346 633.623 415.973C636.904 413.808 638.36 413.301 638.342 412.334C638.325 411.436 637.062 410.698 636.29 410.445C634.114 409.685 632.518 411.482 631.781 410.468C631.466 410.007 631.483 409.224 631.658 408.717Z" fill="#161616"/>
<path d="M601.696 397.568C602.801 398.651 603.906 399.734 605.011 400.816C606.59 400.609 608.151 400.425 609.73 400.218C610.713 398.974 611.695 397.707 612.677 396.463C612.748 397.246 612.888 399.02 612.94 399.872C613.554 407.543 613.607 408.211 613.239 409.086C612.028 411.919 607.941 413.071 605.59 411.09C604.45 410.123 604.011 408.671 603.187 405.884C602.187 402.521 601.836 399.573 601.696 397.568Z" fill="#161616"/>
<path d="M606.151 405.539C605.888 406.253 605.309 406.69 604.713 406.552C604.555 406.506 604.485 406.852 604.643 406.875C605.362 407.036 606.081 406.575 606.38 405.7C606.45 405.516 606.239 405.331 606.151 405.539Z" fill="white"/>
<path d="M608.59 405.308C609.169 406.045 609.941 406.368 610.73 406.207C610.906 406.184 610.818 405.838 610.66 405.884C609.958 406.022 609.274 405.723 608.765 405.078C608.643 404.917 608.467 405.147 608.59 405.308Z" fill="white"/>
<path d="M607.66 407.497C607.608 407.497 607.572 407.474 607.52 407.474C607.537 407.45 607.537 407.404 607.555 407.381C607.59 407.427 607.643 407.474 607.678 407.52C607.678 407.474 607.66 407.45 607.66 407.404C607.608 407.197 607.362 407.289 607.415 407.497C607.502 408.003 607.643 408.787 607.169 409.04C607.011 409.132 607.081 409.455 607.239 409.362C607.871 409.017 607.801 408.119 607.678 407.381C607.59 407.404 607.502 407.45 607.432 407.474C607.432 407.52 607.45 407.543 607.45 407.589C607.467 407.658 607.52 407.727 607.572 407.727C608.029 407.681 607.66 406.852 607.45 407.335C607.362 407.497 607.572 407.681 607.66 407.497Z" fill="white"/>
<path d="M607.485 407.658C607.572 408.049 607.59 408.487 607.783 408.833C607.941 409.109 608.186 409.247 608.45 409.178C608.607 409.132 608.537 408.81 608.379 408.856C607.888 408.994 607.818 407.98 607.73 407.566C607.695 407.358 607.45 407.45 607.485 407.658Z" fill="white"/>
<path d="M606.643 407.98C606.134 407.681 605.608 407.543 605.046 407.589C604.871 407.612 604.871 407.957 605.046 407.934C605.555 407.888 606.046 408.003 606.502 408.28C606.66 408.372 606.801 408.072 606.643 407.98Z" fill="white"/>
<path d="M606.187 408.441C605.748 408.487 605.362 408.717 605.064 409.109C604.941 409.27 605.134 409.501 605.257 409.362C605.52 409.04 605.836 408.833 606.204 408.787C606.344 408.763 606.344 408.418 606.187 408.441Z" fill="white"/>
<path d="M608.695 407.819C609.204 407.566 609.713 407.474 610.256 407.543C610.432 407.566 610.432 407.22 610.256 407.197C609.695 407.128 609.151 407.243 608.625 407.497C608.467 407.566 608.52 407.911 608.695 407.819Z" fill="white"/>
<path d="M609.046 408.441C609.432 408.372 609.8 408.418 610.169 408.602C610.327 408.671 610.397 408.349 610.239 408.28C609.853 408.095 609.449 408.049 609.046 408.119C608.871 408.119 608.871 408.487 609.046 408.441Z" fill="white"/>
<path d="M604.906 404.525C605.169 404.318 605.485 404.318 605.748 404.525C605.888 404.64 606.029 404.341 605.888 404.226C605.538 403.972 605.134 403.972 604.783 404.226C604.625 404.341 604.766 404.64 604.906 404.525Z" fill="white"/>
<path d="M608.59 404.064C608.853 403.88 609.151 403.834 609.467 403.88C609.625 403.903 609.713 403.581 609.537 403.558C609.169 403.488 608.8 403.558 608.467 403.788C608.292 403.857 608.432 404.156 608.59 404.064Z" fill="white"/>
<path d="M604.397 396.831C604.941 396.532 605.485 396.232 606.011 395.91C605.906 395.818 605.818 395.726 605.713 395.611C605.502 396.486 605.187 397.269 604.766 398.006C604.66 398.19 604.836 398.467 604.994 398.398C605.59 398.098 606.187 397.822 606.783 397.522C607.011 397.407 606.923 396.9 606.678 397.016C606.081 397.315 605.485 397.592 604.888 397.891C604.959 398.029 605.029 398.144 605.116 398.283C605.573 397.522 605.888 396.693 606.116 395.772C606.169 395.541 605.976 395.403 605.818 395.472C605.274 395.772 604.731 396.071 604.204 396.394C603.959 396.532 604.169 396.97 604.397 396.831Z" fill="#161616"/>
<path d="M605.274 392.639C605.643 392.363 606.011 392.178 606.415 392.063C606.344 391.925 606.274 391.81 606.187 391.672C606.029 392.132 605.836 392.593 605.608 393.008C605.52 393.192 605.643 393.376 605.783 393.399C606.257 393.445 606.695 393.284 607.064 392.915C607.257 392.708 607.064 392.27 606.871 392.478C606.555 392.8 606.204 392.938 605.801 392.892C605.853 393.031 605.906 393.146 605.976 393.284C606.204 392.846 606.397 392.409 606.555 391.948C606.625 391.741 606.502 391.51 606.327 391.556C605.888 391.672 605.467 391.879 605.081 392.178C604.853 392.363 605.046 392.8 605.274 392.639Z" fill="#161616"/>
<path d="M608.169 398.213C607.59 397.453 608.59 397.016 608.695 396.348C608.8 395.564 608.099 394.827 608.888 394.228C609.116 394.067 608.906 393.606 608.695 393.791C608.414 393.998 608.186 394.321 608.116 394.758C608.011 395.495 608.502 395.933 608.081 396.601C607.888 396.924 607.66 397.016 607.59 397.453C607.52 397.891 607.66 398.26 607.888 398.582C608.081 398.812 608.362 398.444 608.169 398.213Z" fill="#161616"/>
<path d="M678.076 419.383C678.076 421.986 678.076 424.566 678.076 427.168C664.042 434.471 661.183 437.074 661.393 438.018C661.446 438.248 661.814 438.939 669.182 437.811C676.48 436.682 682.392 435.046 686.497 433.71C685.778 428.389 685.041 423.068 684.322 417.747C682.234 418.3 680.146 418.853 678.076 419.383Z" fill="#AEAEAE"/>
<path d="M684.374 309.206C683.971 310.197 683.83 311.003 683.795 311.187C681.287 325.193 678.006 333.462 675.866 349.702C671.779 380.983 675.305 416.526 675.638 419.866C676.761 420.511 678.918 421.479 681.673 421.341C684.094 421.202 685.971 420.258 687.041 419.59C686.637 409.385 687.041 396.785 689.725 382.895C693.005 365.872 697.163 360.229 700.899 340.327C703.671 325.584 706.881 308.423 701.338 303.332C697.093 299.37 687.146 302.273 684.374 309.206Z" fill="#8D3565"/>
<path opacity="0.2" d="M694.075 316.554C691.268 333.37 688.655 351.291 686.444 370.249C684.357 388.078 682.795 405.147 681.638 421.364C683.409 420.88 685.164 420.396 686.935 419.912C686.707 412.749 686.953 406.644 687.304 401.968C687.725 396.163 688.795 382.642 693.093 369.143C693.654 367.416 694.374 365.319 695.549 361.381C697.531 354.862 698.97 349.287 699.619 346.661C702.671 334.13 704.197 319.595 704.671 314.804C701.127 315.357 697.601 315.955 694.075 316.554Z" fill="#6D6C6C"/>
<path opacity="0.19" d="M699.864 345.832C692.988 357.603 689.777 368.268 688.163 375.432C686.69 381.951 686.041 387.71 685.199 395.173C684.006 405.769 683.55 414.707 683.357 421.064C684.515 420.696 685.655 420.304 686.813 419.935C686.62 411.021 687.093 403.396 687.672 397.453C688.374 390.405 689.181 382.227 691.988 372.391C693.005 368.821 693.496 367.807 695.812 360.091C697.601 354.055 698.97 349.103 699.864 345.832Z" fill="#6D6C6C"/>
<path d="M715.968 416.734C716.951 419.935 717.951 423.137 718.933 426.362C710.688 433.25 706.794 437.258 707.232 438.433C707.776 439.884 714.898 437.004 728.599 429.84C727.143 423.621 725.687 417.425 724.231 411.205C721.477 413.048 718.723 414.891 715.968 416.734Z" fill="#AEAEAE"/>
<path d="M709.197 309.483C713.495 314.642 713.355 321.875 713.898 333.854C713.898 333.854 715.232 363.315 719.705 386.995C720.828 392.915 722.863 402.106 726.634 413.117C726.003 414.177 724.284 416.757 721.266 418.116C718.179 419.498 715.547 418.761 714.565 418.415C709.197 406.391 705.39 396.14 702.934 389.046C691.549 356.29 690.637 339.037 690.637 330.03C690.637 320.77 690.76 309.667 696.005 305.958C699.952 303.171 705.741 305.336 709.197 309.483Z" fill="#8D3565"/>
<path opacity="0.15" d="M685.61 312.852C688.326 322.693 691.262 332.694 694.393 342.834C702.565 369.152 711.446 394.018 720.768 417.34C721.673 416.902 722.774 416.303 723.9 415.496C725.05 414.667 725.955 413.837 726.64 413.1C725.368 410.311 723.606 406.278 721.747 401.323C718.933 393.742 714.358 379.799 711.985 361.224C709.709 343.387 708.559 334.469 708.657 328.846C708.731 324.214 709.171 314.788 702.81 309.718C701.489 308.681 700.192 308.059 699.287 307.69C694.711 309.418 690.161 311.147 685.61 312.852Z" fill="#6D6C6C"/>
<path opacity="0.22" d="M713.758 334.982C712.951 345.694 712.688 360.044 714.653 376.63C716.635 393.307 720.231 406.921 723.477 416.826C724.477 415.743 725.477 414.66 726.477 413.555C725.284 409.846 723.722 404.686 722.161 398.375C719.161 386.235 717.863 376.768 716.74 368.268C715.6 359.561 714.407 348.297 713.758 334.982Z" fill="#6D6C6C"/>
<path d="M678.761 255.489C677.761 258.46 677.708 260.925 677.62 265.348C677.55 268.688 677.726 272.281 679.094 281.725C680.76 293.151 681.55 294.994 681.813 301.052C682.023 305.797 681.743 309.69 681.48 312.27C683.69 313.859 687.392 316.025 692.233 316.508C700.794 317.361 707.127 312.408 709.302 310.519C709.565 303.286 709.829 296.03 710.109 288.797C709.144 282.624 708.004 277.786 707.18 274.608C704.583 264.587 702.162 259.842 703.706 254.821C704.566 252.033 706.267 250.329 707.443 249.384C706.618 248.555 697.97 240.147 688.532 244.501C687.549 244.939 681.339 247.818 678.761 255.489Z" fill="white" stroke="#161616" stroke-width="2" stroke-miterlimit="10"/>
<path opacity="0.19" d="M688.497 244.478C691.128 250.006 692.602 254.89 693.444 258.299C693.444 258.299 697.566 274.746 694.549 296.813C693.9 301.513 692.742 308.193 690.461 315.84C691.339 316.094 692.391 316.301 693.584 316.37C693.584 316.37 695.426 316.485 697.496 316.14C700.022 315.702 704.355 313.928 709.46 310.519C709.548 302.802 709.636 295.109 709.723 287.392C708.425 280.873 707.109 275.644 706.127 271.982C703.759 263.251 702.092 259.151 703.461 254.821C704.355 251.987 706.18 250.237 707.601 249.223C705.741 247.611 702.303 245.1 697.601 244.132C693.724 243.349 690.532 243.902 688.497 244.478Z" fill="#6D6C6C"/>
<path opacity="0.11" d="M690.9 243.948C693.724 248.509 697.022 255.166 699.057 263.942C704.829 289.005 695.338 310.98 693.146 315.794C694.987 315.771 697.145 315.564 699.496 314.965C703.689 313.905 707.039 312.016 709.443 310.335C709.53 303.148 709.618 295.961 709.706 288.797C708.215 282.14 706.811 275.829 704.899 267.259C703.601 261.386 702.583 256.571 704.496 252.724C705.425 250.859 706.724 249.822 707.706 249.223C702.11 247.449 696.496 245.699 690.9 243.948Z" fill="#6D6C6C"/>
<path d="M689.602 291.009C689.549 286.079 689.514 281.173 689.462 276.243C698.461 275.644 707.46 275.045 716.477 274.446C716.793 279.007 717.109 283.568 717.442 288.129C708.162 289.097 698.882 290.041 689.602 291.009Z" fill="white" stroke="#161616" stroke-width="2" stroke-miterlimit="10"/>
<path d="M686.865 289.396C686.865 287.599 686.865 285.803 686.865 284.006C698.426 282.877 709.986 281.725 721.547 280.597C721.635 282.808 721.722 285.043 721.828 287.254C710.179 287.945 698.514 288.682 686.865 289.396Z" fill="white" stroke="#161616" stroke-width="2" stroke-miterlimit="10"/>
<path d="M687.83 281.288C687.97 283.937 688.111 286.563 688.234 289.212C698.935 288.083 709.618 286.931 720.319 285.803C720.407 283.407 720.495 281.011 720.6 278.593C709.671 279.491 698.742 280.389 687.83 281.288Z" fill="white" stroke="#161616" stroke-width="2" stroke-miterlimit="10"/>
<path d="M685.216 287.231C685.532 297.735 685.848 308.239 686.181 318.743C698.11 316.992 710.039 315.264 721.968 313.514C722.337 303.194 722.705 292.874 723.073 282.555C710.443 284.121 697.829 285.664 685.216 287.231Z" fill="white" stroke="#161616" stroke-width="2" stroke-miterlimit="10"/>
<path d="M687.251 291.331C692.672 290.387 698.093 289.719 703.548 289.304C703.794 289.281 703.794 288.774 703.548 288.774C698.093 289.189 692.654 289.857 687.251 290.801C687.006 290.847 687.006 291.377 687.251 291.331Z" fill="#161616"/>
<path d="M693.303 292.736C697.461 292.045 701.619 291.331 705.794 290.64C706.039 290.594 706.039 290.087 705.794 290.11C701.636 290.801 697.479 291.515 693.303 292.206C693.058 292.276 693.058 292.782 693.303 292.736Z" fill="#161616"/>
<path d="M713.284 307.479C713.214 308.93 713.214 310.404 713.32 311.855C713.337 312.178 713.741 312.178 713.723 311.855C713.618 310.404 713.6 308.93 713.688 307.479C713.705 307.156 713.302 307.156 713.284 307.479Z" fill="#161616"/>
<path d="M713.46 307.525C715.635 307.594 717.793 307.433 719.951 307.064C719.881 306.972 719.81 306.88 719.758 306.811C719.723 308.147 719.758 309.46 719.828 310.773C719.845 311.095 720.249 311.095 720.231 310.773C720.144 309.46 720.126 308.124 720.161 306.811C720.161 306.672 720.073 306.534 719.968 306.557C717.81 306.926 715.653 307.064 713.477 307.018C713.197 306.995 713.197 307.502 713.46 307.525Z" fill="#161616"/>
<path d="M713.618 312.27C715.776 312.316 717.898 312.016 720.003 311.395C720.249 311.325 720.144 310.819 719.898 310.888C717.828 311.487 715.74 311.786 713.618 311.74C713.372 311.74 713.372 312.247 713.618 312.27Z" fill="#161616"/>
<path d="M714.442 309.137C715.776 309.252 717.091 309.16 718.424 308.884C718.67 308.838 718.565 308.331 718.319 308.377C717.039 308.653 715.74 308.722 714.442 308.607C714.197 308.584 714.197 309.114 714.442 309.137Z" fill="#161616"/>
<path d="M715.284 310.588C716.67 310.542 718.003 310.197 719.319 309.575C719.547 309.46 719.46 308.953 719.214 309.068C717.951 309.69 716.635 310.012 715.284 310.082C715.039 310.059 715.021 310.588 715.284 310.588Z" fill="#161616"/>
<path opacity="0.2" d="M690.883 317.545C691.198 307.824 691.514 298.103 691.812 288.36C702.057 287.277 712.32 286.217 722.565 285.135C722.336 294.349 722.091 303.563 721.863 312.777C711.53 314.366 701.215 315.955 690.883 317.545Z" fill="#6D6C6C"/>
<path opacity="0.2" d="M718.705 278.846C718.758 281.518 718.653 284.697 718.126 288.221C716.828 296.883 713.706 303.125 711.583 306.649C713.021 309.16 714.46 311.671 715.916 314.182C711.513 314.85 707.109 315.518 702.706 316.186C703.408 305.636 704.11 295.086 704.811 284.559C704.583 283.177 704.338 281.795 704.11 280.412C708.969 279.86 713.846 279.353 718.705 278.846Z" fill="#6D6C6C"/>
<path d="M706.495 248.762C710.162 248.117 714.53 259.174 716.267 267.121C718.267 276.266 717.389 284.167 716.67 288.337C715.267 296.514 712.355 302.273 710.53 305.382C710.811 306.603 711.46 309.92 710.39 313.56C708.811 318.881 704.531 321.438 704.197 320.954C704.092 320.793 704.303 320.125 705.969 317.614C705.618 318.098 703.092 321.392 700.25 320.609C699.759 320.47 699.145 320.309 698.794 319.664C697.97 318.098 699.338 314.55 702.25 310.611C699.075 311.648 698.233 311.372 698.075 310.911C697.672 309.805 700.917 306.672 702.092 305.521C703.829 303.839 705.39 302.687 706.46 301.973C709.46 293.796 709.302 287.415 709.039 284.421C708.653 279.998 707.39 275.184 707.145 274.262C706.443 271.613 706.11 271.014 704.706 266.246C702.443 258.598 702.443 257.285 702.531 256.272C702.847 253.231 704.408 249.131 706.495 248.762Z" fill="white" stroke="#161616" stroke-width="2" stroke-miterlimit="10"/>
<path d="M698.864 319.019C700.812 317.568 702.513 315.702 703.934 313.445C704.145 313.099 703.776 312.615 703.566 312.961C702.18 315.172 700.513 317.015 698.601 318.443C698.303 318.628 698.566 319.226 698.864 319.019Z" fill="#161616"/>
<path d="M700.584 320.562C702.513 319.249 704.162 317.43 705.496 315.172C705.706 314.827 705.25 314.481 705.039 314.827C703.776 316.992 702.162 318.72 700.321 319.964C700.022 320.171 700.285 320.77 700.584 320.562Z" fill="#161616"/>
<path opacity="0.17" d="M705.022 249.868C701.531 253.853 715.776 271.337 713.337 291.193C711.671 304.807 704.759 313.698 704.759 313.698C702.829 316.232 699.198 319.342 699.636 320.424C699.952 321.207 702.145 320.493 702.934 320.171C704.425 319.572 705.461 318.558 706.039 317.89C705.162 319.18 704.162 320.77 704.373 321.092C704.671 321.507 707.162 319.802 708.723 317.407C711.425 313.26 711.039 307.502 710.776 305.152C711.407 304.069 712.232 302.549 713.074 300.614C713.846 298.887 716.074 293.496 717.039 286.171C718.74 273.203 715.249 262.975 713.846 258.967C712.583 255.396 710.443 249.476 707.197 249.223C706.776 249.154 705.706 249.085 705.022 249.868Z" fill="#6D6C6C"/>
<path opacity="0.22" d="M716.846 285.803C715.898 289.419 714.776 293.22 713.442 297.205C712.495 300.038 711.53 302.687 710.548 305.198C710.057 307.271 709.127 310.381 707.285 313.583C705.355 316.946 703.233 318.996 701.812 320.171C702.215 320.194 702.706 320.148 703.25 319.964C704.618 319.549 705.531 318.558 705.987 317.96C705.46 318.835 704.917 319.687 704.39 320.562C704.811 320.47 705.478 320.309 706.215 319.871C710.074 317.591 710.881 311.395 710.934 310.98C711.074 309.851 711.162 307.916 710.636 305.521C711.899 303.563 713.495 300.637 714.776 296.698C716.197 292.368 716.67 288.475 716.846 285.803Z" fill="#6D6C6C"/>
<path d="M674.726 233.605C671.901 237.844 673.849 243.764 674.112 244.57C675.094 247.565 677.638 251.826 680.866 251.481C683.216 251.204 684.708 248.601 685.076 247.91C687.672 243.004 686.813 233.628 682.427 231.21C680.006 229.874 676.673 230.657 674.726 233.605Z" fill="#642A5D"/>
<path d="M681.848 237.383C681.971 239.203 683.427 239.594 684.409 242.589C685.111 244.754 685.111 246.874 684.988 248.394C686.128 248.532 688.234 248.601 690.619 247.403C692.496 246.459 693.812 245.1 694.602 244.155C694.233 243.073 693.689 241.483 693.04 239.594C690.233 231.555 689.777 230.864 689.093 230.519C686.357 229.16 681.62 233.997 681.848 237.383Z" fill="white" stroke="#161616" stroke-width="2" stroke-miterlimit="10"/>
<path d="M671.744 213.588C671.147 214.694 670.779 216.053 670.726 221.881C670.691 226.856 670.901 231.394 671.252 235.425C672.042 234.826 672.831 234.227 673.621 233.628C673.971 234.757 674.568 236.3 675.585 237.798C677.603 240.769 680.059 241.783 681.146 242.151C682.287 241.783 685.129 240.631 687.286 237.107C688.707 234.757 689.163 232.431 689.269 231.901C689.918 228.422 689.286 225.543 688.953 224.345C689.374 224.092 690.023 223.608 690.514 222.733C691.549 220.89 691.83 217.596 690.549 216.49C689.602 215.661 687.918 216.145 686.655 217.849C686.374 216.997 685.936 215.822 685.234 214.601C685.058 214.302 683.743 212.045 682.129 210.87C679.024 208.52 673.884 209.626 671.744 213.588Z" fill="white" stroke="#161616" stroke-width="2" stroke-miterlimit="10"/>
<path d="M670.463 220.821C669.761 220.66 668.463 220.176 667.849 218.771C666.796 216.398 668.34 212.782 668.726 211.883C669.042 211.123 669.884 209.303 673.463 206.009C676.182 203.499 677.55 202.255 679.024 201.656C684.251 199.606 689.041 203.153 689.935 203.821C691.812 205.226 693.005 206.747 693.953 207.944C695.409 209.787 697.04 211.906 698.864 214.348C703.548 222.318 705.197 229.597 705.864 233.951C706.618 238.88 707.39 243.902 705.145 246.85C702.899 249.799 698.794 249.2 696.286 247.795C692.795 245.837 691.304 241.691 690.146 238.489C688.181 233.006 688.058 227.754 688.251 224.345C690.005 223.677 690.9 221.512 690.497 219.876C690.181 218.587 689.005 217.297 687.795 217.757C686.865 218.103 686.199 219.37 686.251 220.844C685.409 220.821 683.164 220.568 681.024 218.448C679.462 216.905 678.673 215.062 678.304 214.049C677.34 214.21 675.41 214.671 673.463 216.513C671.831 217.988 670.919 219.761 670.463 220.821Z" fill="#31143A"/>
<path opacity="0.24" d="M682.076 225.221C684.181 228.561 684.848 232.085 684.848 232.085C685.532 236.047 684.55 239.41 684.111 240.769C685.216 239.664 686.339 238.558 687.444 237.452C688.216 240.815 688.97 244.155 689.742 247.518C690.321 247.449 691.514 247.173 692.707 246.067C693.619 245.215 694.163 244.224 694.461 243.603C693.04 241.875 690.321 238.051 689.076 232.039C688.479 229.137 688.392 226.557 688.462 224.622C690.058 223.769 690.883 221.719 690.549 220.015C690.304 218.771 689.339 217.274 688.093 217.504C687.058 217.711 686.199 219.047 686.216 220.683C685.427 220.683 683.567 220.568 681.62 219.024C679.603 217.435 678.638 215.223 678.269 214.279C678.357 218.702 679.392 221.259 680.322 222.779C680.936 223.815 681.217 223.862 682.076 225.221Z" fill="#6D6C6C"/>
<path d="M673.919 224.253C673.726 225.175 673.743 226.119 674.007 227.017C674.094 227.34 674.428 227.363 674.515 227.017C674.726 226.188 674.726 225.313 674.533 224.483C674.428 224.069 673.919 224.23 674.024 224.668C674.199 225.405 674.182 226.119 674.007 226.856C674.182 226.856 674.34 226.856 674.515 226.856C674.287 226.073 674.252 225.267 674.428 224.46C674.515 224 674.024 223.815 673.919 224.253Z" fill="#161616"/>
<path d="M673.287 222.825C673.743 222.456 674.305 222.526 674.691 223.009C674.936 223.309 675.305 222.825 675.059 222.526C674.515 221.834 673.673 221.696 673.024 222.226C672.743 222.456 673.007 223.055 673.287 222.825Z" fill="#161616"/>
<path d="M675.182 228.676C675.515 228.676 675.515 227.985 675.182 227.985C674.831 227.985 674.831 228.676 675.182 228.676Z" fill="#161616"/>
<path d="M676.34 226.672C676.34 226.695 676.34 226.718 676.34 226.741C676.34 226.925 676.463 227.086 676.603 227.086C676.743 227.086 676.866 226.925 676.866 226.741C676.866 226.718 676.866 226.695 676.866 226.672C676.866 226.488 676.743 226.326 676.603 226.326C676.463 226.326 676.34 226.464 676.34 226.672Z" fill="#161616"/>
<path d="M676.392 228.399C676.726 228.399 676.726 227.708 676.392 227.708C676.059 227.708 676.059 228.399 676.392 228.399Z" fill="#161616"/>
<path d="M669.165 225.313C668.954 226.234 668.972 227.179 669.217 228.077C669.305 228.399 669.638 228.399 669.726 228.077C669.937 227.248 669.954 226.372 669.779 225.543C669.691 225.105 669.182 225.29 669.27 225.727C669.428 226.464 669.41 227.179 669.217 227.893C669.393 227.893 669.551 227.893 669.726 227.893C669.516 227.109 669.481 226.303 669.673 225.497C669.761 225.059 669.252 224.875 669.165 225.313Z" fill="#161616"/>
<path d="M668.867 223.585C669.235 223.332 669.744 223.447 669.989 223.908C670.182 224.253 670.638 223.908 670.445 223.562C670.007 222.802 669.252 222.549 668.603 222.986C668.305 223.194 668.568 223.792 668.867 223.585Z" fill="#161616"/>
<path d="M674.778 236.116C676.129 235.794 677.305 234.849 678.182 233.444C678.34 233.191 678.059 232.822 677.901 233.076C677.076 234.412 675.971 235.287 674.673 235.609C674.428 235.678 674.533 236.185 674.778 236.116Z" fill="#161616"/>
<path d="M677.515 233.122C677.831 233.26 678.094 233.467 678.322 233.767C678.497 233.997 678.778 233.628 678.603 233.398C678.322 233.029 677.989 232.776 677.62 232.615C677.375 232.523 677.269 233.029 677.515 233.122Z" fill="#161616"/>
<path opacity="0.45" d="M688.444 202.992C690.672 207.046 693.532 212.782 696.251 220.107C699.128 227.847 701.233 233.674 699.601 235.978C697.444 239.042 689.988 234.181 688.795 233.375C689.041 235.471 689.655 238.811 691.461 242.151C692.374 243.833 693.97 246.804 696.917 248.187C698.689 249.016 700.268 248.97 700.882 248.901C701.706 248.831 702.654 248.739 703.689 248.002C703.689 248.002 705.039 247.058 705.952 245.123C707.338 242.174 706.601 238.189 705.618 233.191C704.443 227.202 702.864 223.217 701.32 219.278C700.934 218.31 700.478 217.181 699.742 215.868C699.005 214.532 698.461 213.818 696.18 210.939C692.795 206.631 692.268 206.009 691.251 205.111C690.128 204.098 689.128 203.429 688.444 202.992Z" fill="#4A2257"/>
<path opacity="0.43" d="M684.216 242.174C684.357 242.704 684.672 244.201 684.216 245.86C683.532 248.325 681.638 249.154 681.339 249.269C679.182 250.191 676.462 248.739 674.638 245.584C674.884 246.413 675.427 247.887 676.55 249.177C677.112 249.822 678.638 251.55 680.796 251.342C681.164 251.296 683.532 251.066 684.62 248.371C685.409 246.459 685.234 244.063 684.216 242.174Z" fill="#371B9B"/>
<path d="M206.491 512.302C229.431 513.424 252.37 513.985 275.31 513.934C276.196 513.934 276.196 512.404 275.31 512.404C252.37 512.455 229.431 511.894 206.491 510.772C205.606 510.721 205.606 512.251 206.491 512.302Z" fill="#E8E8E8"/>
<path d="M276.709 474.358C280.299 489.097 283.656 503.938 286.733 518.83C286.92 519.799 288.272 519.391 288.085 518.422C284.961 503.53 281.651 488.689 278.061 473.95C277.828 473.032 276.476 473.44 276.709 474.358Z" fill="#E8E8E8"/>
<path d="M339.186 475.48C337.881 489.505 336.575 503.581 335.316 517.606C335.223 518.575 336.622 518.575 336.715 517.606C338.021 503.581 339.326 489.505 340.585 475.48C340.632 474.511 339.233 474.511 339.186 475.48Z" fill="#E8E8E8"/>
<path d="M287.106 520.207C295.265 521.788 303.518 522.502 311.817 522.247C319.744 521.992 328.416 521.329 335.969 518.575C336.808 518.269 336.435 516.79 335.596 517.096C328.089 519.799 319.65 520.462 311.817 520.717C303.658 520.972 295.499 520.258 287.479 518.728C286.593 518.524 286.22 520.003 287.106 520.207Z" fill="#E8E8E8"/>
<path d="M277.268 474.868C286.92 477.826 297.41 477.877 307.388 477.928C318.112 478.03 328.835 477.367 339.466 476.041C340.352 475.939 340.352 474.409 339.466 474.511C329.115 475.837 318.718 476.449 308.32 476.398C298.203 476.347 287.479 476.347 277.641 473.389C276.755 473.134 276.382 474.613 277.268 474.868Z" fill="#E8E8E8"/>
<path d="M273.258 469.615C273.352 470.584 273.445 471.604 273.538 472.573C273.585 473.185 273.585 473.95 273.818 474.511C274.377 475.837 276.242 475.378 277.315 475.378C278.201 475.378 278.201 473.848 277.315 473.848C276.802 473.848 276.289 473.848 275.73 473.848C275.03 473.848 275.03 473.695 274.984 472.93C274.89 471.808 274.797 470.737 274.704 469.615C274.564 468.646 273.165 468.595 273.258 469.615Z" fill="#E8E8E8"/>
<path d="M274.191 470.431C285.847 471.91 297.55 472.624 309.3 472.726C315.081 472.777 320.863 472.675 326.691 472.471C329.581 472.369 332.472 472.216 335.363 472.063C336.715 472.012 338.58 471.502 339.932 471.808C341.564 472.114 341.471 473.644 341.657 475.225C341.797 474.919 341.984 474.613 342.124 474.307C341.517 474.307 340.911 474.307 340.305 474.307C339.419 474.103 339.046 475.582 339.932 475.786C340.865 475.99 341.564 475.99 342.45 475.786C342.87 475.684 343.009 475.225 342.916 474.868C342.683 473.083 342.87 470.839 340.911 470.38C339.746 470.074 338.3 470.431 337.088 470.482C335.549 470.584 334.057 470.635 332.519 470.737C325.991 471.043 319.417 471.247 312.843 471.247C299.881 471.247 286.966 470.584 274.098 468.901C273.305 468.799 273.305 470.329 274.191 470.431Z" fill="#E8E8E8"/>
<path d="M284.309 507.508C288.039 512.863 292.421 517.504 297.364 521.482C298.11 522.043 298.809 520.717 298.063 520.156C293.307 516.331 289.064 511.843 285.474 506.692C284.961 505.927 283.749 506.692 284.309 507.508Z" fill="#E8E8E8"/>
<path d="M281.185 491.953C288.458 503.428 297.41 513.475 307.761 521.686C308.507 522.247 309.206 520.921 308.46 520.36C298.343 512.302 289.531 502.408 282.397 491.188C281.884 490.372 280.672 491.137 281.185 491.953Z" fill="#E8E8E8"/>
<path d="M278.341 478.285C290.929 494.605 304.917 509.854 321.609 521.176C322.355 521.686 323.101 520.36 322.308 519.85C305.709 508.63 291.815 493.483 279.32 477.214C278.76 476.449 277.781 477.571 278.341 478.285Z" fill="#E8E8E8"/>
<path d="M291.722 477.418C303.705 492.667 316.993 507.151 331.819 519.085C332.565 519.646 333.265 518.32 332.519 517.759C317.785 505.927 304.59 491.443 292.701 476.347C292.095 475.582 291.116 476.653 291.722 477.418Z" fill="#E8E8E8"/>
<path d="M307.015 478.489C315.128 489.352 324.453 499.042 334.803 507.355C335.549 507.916 336.249 506.59 335.503 506.029C325.245 497.818 316.014 488.179 307.994 477.418C307.435 476.653 306.455 477.724 307.015 478.489Z" fill="#E8E8E8"/>
<path d="M319.51 477.928C324.732 484.354 330.7 489.862 337.321 494.503C338.067 495.013 338.767 493.687 338.021 493.177C331.493 488.638 325.618 483.13 320.49 476.857C319.883 476.092 318.904 477.163 319.51 477.928Z" fill="#E8E8E8"/>
<path d="M254.981 393.88C258.012 400.867 260.064 408.211 261.229 415.861C261.276 416.218 261.602 416.422 261.882 416.422C262.162 416.422 263.654 416.371 263.747 416.881C263.794 417.085 262.861 418.258 262.768 418.513C262.488 419.329 262.488 420.298 262.768 421.114C263.141 422.083 263.84 422.746 264.679 423.103C264.959 423.256 265.286 423.307 265.612 423.358C265.892 423.409 266.171 423.409 266.451 423.358C266.824 423.307 266.778 423.358 266.358 423.562C265.892 424.327 265.239 424.429 265.052 425.551C264.913 426.622 265.379 427.642 265.752 428.56C267.29 432.13 268.176 435.904 269.435 439.627C273.771 452.275 282.071 462.73 291.442 471.349C292.142 471.961 293.121 470.89 292.421 470.278C282.77 461.404 274.191 450.541 270.135 437.23C269.622 435.496 269.155 433.762 268.596 432.079C268.13 430.6 267.244 429.07 266.824 427.591C266.358 426.775 266.405 425.857 267.011 424.939C267.197 424.786 267.384 424.633 267.57 424.48C267.71 424.225 267.99 424.072 268.13 423.766C268.316 423.205 268.176 422.695 267.803 422.287C267.197 421.624 266.265 421.981 265.472 421.726C262.441 420.757 264.913 418.513 265.146 416.881C265.472 414.739 263.048 414.994 261.742 414.892C261.975 415.096 262.208 415.249 262.395 415.453C261.229 407.701 259.084 400.204 256.007 393.115C255.821 392.197 254.608 392.962 254.981 393.88Z" fill="#E8E8E8"/>
<path d="M255.494 393.523C270.647 397.96 283.936 409.231 293.587 422.593C303.844 436.771 310.232 453.805 313.682 471.4C313.869 472.369 315.221 471.961 315.034 470.992C311.538 453.142 305.01 435.904 294.613 421.522C284.821 408.007 271.3 396.583 255.914 392.095C254.981 391.789 254.608 393.268 255.494 393.523Z" fill="#E8E8E8"/>
<path d="M260.996 399.847C279.553 419.584 293.867 443.809 302.679 470.482C303.005 471.4 304.357 470.992 304.031 470.074C295.126 443.197 280.718 418.717 261.975 398.776C261.369 398.062 260.343 399.133 260.996 399.847Z" fill="#E8E8E8"/>
<path d="M269.249 431.926C273.165 432.385 276.989 433.354 280.625 434.935C284.169 436.465 288.039 438.403 290.277 441.922C290.79 442.738 292.002 441.973 291.489 441.157C289.251 437.638 285.754 435.649 282.211 434.017C278.061 432.079 273.725 430.906 269.202 430.396C268.363 430.294 268.363 431.824 269.249 431.926Z" fill="#E8E8E8"/>
<path d="M276.196 403.978C276.149 409.843 277.035 415.606 278.76 421.165C279.04 422.083 280.392 421.675 280.112 420.757C278.434 415.351 277.595 409.741 277.595 403.978C277.595 403.009 276.196 403.009 276.196 403.978Z" fill="#E8E8E8"/>
<path d="M301.793 431.722C304.078 422.389 311.677 416.83 318.158 411.118C325.059 405.049 331.726 398.572 338.067 391.84C337.694 391.585 337.275 391.33 336.902 391.075C334.803 397.246 334.384 403.723 334.477 410.251C334.57 416.779 335.922 424.276 334.011 430.6C334.244 430.396 334.477 430.243 334.664 430.039C333.172 430.141 331.68 430.294 330.188 430.396C329.721 430.447 329.255 431.059 329.581 431.569C330.654 433.15 331.913 433.66 331.866 436.006C331.866 437.638 331.493 439.525 330.98 441.055C330.467 442.636 329.115 443.707 328.649 445.186C328.276 446.512 329.208 447.634 329.208 448.96C329.255 451.153 327.81 452.989 326.784 454.723C325.805 456.355 324.919 458.038 324.126 459.772C322.541 463.189 321.282 466.708 320.35 470.38C320.117 471.349 321.469 471.757 321.702 470.788C322.867 466.249 324.546 461.863 326.737 457.783C328.229 455.029 331.027 451.816 330.7 448.348C330.561 446.971 329.908 446.563 330.467 444.982C330.514 444.931 331.353 443.707 331.4 443.605C332.286 442.024 332.705 440.239 332.985 438.454C333.172 437.128 333.545 435.496 333.358 434.17C333.078 432.283 331.773 432.13 330.794 430.702C330.607 431.11 330.374 431.467 330.188 431.875C331.68 431.773 333.172 431.62 334.664 431.518C334.99 431.467 335.223 431.314 335.316 430.957C337.088 425.041 336.016 418.156 335.829 412.036C335.643 405.049 335.876 398.011 338.16 391.381C338.44 390.616 337.461 390.157 336.995 390.616C330.234 397.807 323.147 404.692 315.734 411.118C309.393 416.626 302.539 422.236 300.348 431.212C300.208 432.283 301.56 432.691 301.793 431.722Z" fill="#E8E8E8"/>
<path d="M332.892 398.47C328.323 407.191 323.66 415.81 319.277 424.633C315.174 432.793 311.538 441.259 309.812 450.388C309.626 451.357 310.978 451.765 311.165 450.796C312.936 441.463 316.713 432.895 320.909 424.582C325.199 416.065 329.721 407.701 334.104 399.235C334.524 398.419 333.311 397.603 332.892 398.47Z" fill="#E8E8E8"/>
<path d="M319.137 412.648C319.744 415.555 320.023 418.462 319.93 421.42C319.883 422.389 321.282 422.389 321.329 421.42C321.422 418.309 321.142 415.3 320.49 412.24C320.256 411.271 318.951 411.679 319.137 412.648Z" fill="#E8E8E8"/>
<path d="M326.737 402.907C327.25 405.1 327.343 407.242 327.11 409.435C327.017 410.404 328.416 410.404 328.509 409.435C328.789 407.089 328.649 404.794 328.089 402.499C327.856 401.581 326.504 401.989 326.737 402.907Z" fill="#E8E8E8"/>
<path d="M327.064 413.056C329.815 411.271 332.659 409.69 335.596 408.364C336.435 408.007 336.062 406.528 335.223 406.885C332.146 408.262 329.208 409.894 326.318 411.73C325.572 412.24 326.271 413.566 327.064 413.056Z" fill="#E8E8E8"/>
<path d="M315.035 438.658C316.806 437.026 318.578 435.445 320.396 433.915C322.308 432.283 324.406 430.09 326.737 429.07C327.577 428.713 327.204 427.234 326.364 427.591C324.266 428.458 322.541 430.141 320.769 431.671C318.485 433.609 316.247 435.547 314.055 437.587C313.356 438.199 314.335 439.27 315.035 438.658Z" fill="#E8E8E8"/>
<path d="M261.043 410.047C264.306 410.404 267.57 410.761 270.834 411.067C271.72 411.169 271.72 409.639 270.834 409.537C267.57 409.18 264.306 408.823 261.043 408.517C260.157 408.415 260.157 409.945 261.043 410.047Z" fill="#E8E8E8"/>
<path d="M346.6 511.792C405.021 511.792 463.395 511.792 521.816 511.792C538.275 511.792 554.734 511.792 571.192 511.792C572.078 511.792 572.078 510.262 571.192 510.262C512.771 510.262 454.397 510.262 395.976 510.262C379.517 510.262 363.058 510.262 346.6 510.262C345.667 510.262 345.667 511.792 346.6 511.792Z" fill="#E8E8E8"/>
<path d="M544.196 386.842C544.196 394.288 544.196 401.734 544.196 409.18C544.196 410.149 545.595 410.149 545.595 409.18C545.595 401.734 545.595 394.288 545.595 386.842C545.595 385.873 544.196 385.873 544.196 386.842Z" fill="#E8E8E8"/>
<path d="M512.025 412.597C534.638 412.597 557.251 412.597 579.864 412.597C580.75 412.597 580.75 411.067 579.864 411.067C557.251 411.067 534.638 411.067 512.025 411.067C511.139 411.067 511.093 412.597 512.025 412.597Z" fill="#E8E8E8"/>
<path d="M527.225 413.005C527.225 419.431 527.225 425.857 527.225 432.334C527.225 433.303 528.624 433.303 528.624 432.334C528.624 425.908 528.624 419.482 528.624 413.005C528.624 411.985 527.225 411.985 527.225 413.005Z" fill="#E8E8E8"/>
<path d="M562.194 412.597C562.194 418.258 562.194 423.97 562.194 429.631C562.194 430.6 563.592 430.6 563.592 429.631C563.592 423.97 563.592 418.258 563.592 412.597C563.592 411.628 562.194 411.628 562.194 412.597Z" fill="#E8E8E8"/>
<path d="M540.047 433.813C557.345 433.813 574.643 433.813 591.94 433.813C592.826 433.813 592.826 432.283 591.94 432.283C574.643 432.283 557.345 432.283 540.047 432.283C539.161 432.283 539.161 433.813 540.047 433.813Z" fill="#E8E8E8"/>
<path d="M500.928 526.582C539.114 526.582 577.3 526.582 615.486 526.582C616.372 526.582 616.372 525.052 615.486 525.052C577.3 525.052 539.114 525.052 500.928 525.052C500.043 525.052 500.043 526.582 500.928 526.582Z" fill="#E8E8E8"/>
<path d="M658.847 513.373C696.334 513.373 733.867 513.373 771.353 513.373C781.891 513.373 792.428 513.373 802.965 513.373C803.851 513.373 803.851 511.843 802.965 511.843C765.479 511.843 727.945 511.843 690.459 511.843C679.922 511.843 669.384 511.843 658.847 511.843C657.961 511.843 657.961 513.373 658.847 513.373Z" fill="#E8E8E8"/>
<path d="M194.043 539.485C232.462 539.485 270.927 539.485 309.346 539.485C310.232 539.485 310.232 537.955 309.346 537.955C270.927 537.955 232.462 537.955 194.043 537.955C193.157 537.955 193.157 539.485 194.043 539.485Z" fill="#E8E8E8"/>
<path d="M271.533 554.785C302.912 554.785 334.291 554.785 365.669 554.785C366.555 554.785 366.555 553.255 365.669 553.255C334.291 553.255 302.912 553.255 271.533 553.255C270.601 553.255 270.601 554.785 271.533 554.785Z" fill="#E8E8E8"/>
<path d="M748.554 118.735C748.554 104.506 748.554 90.328 748.554 76.099C748.554 75.13 747.155 75.13 747.155 76.099C747.155 90.328 747.155 104.506 747.155 118.735C747.155 119.704 748.554 119.704 748.554 118.735Z" fill="#E8E8E8"/>
<path d="M748.321 75.793C765.152 75.793 781.984 75.793 798.815 75.793C799.701 75.793 799.701 74.263 798.815 74.263C781.984 74.263 765.152 74.263 748.321 74.263C747.435 74.263 747.435 75.793 748.321 75.793Z" fill="#E8E8E8"/>
<path d="M798.116 75.13C798.023 89.563 797.93 103.996 797.79 118.429C797.79 119.398 799.188 119.398 799.188 118.429C799.282 103.996 799.375 89.563 799.515 75.13C799.515 74.161 798.116 74.161 798.116 75.13Z" fill="#E8E8E8"/>
<path d="M748.554 119.5C765.152 119.5 781.751 119.5 798.349 119.5C799.235 119.5 799.235 117.97 798.349 117.97C781.751 117.97 765.152 117.97 748.554 117.97C747.668 117.97 747.668 119.5 748.554 119.5Z" fill="#E8E8E8"/>
<path d="M749.906 79.057C749.906 91.042 749.906 102.976 749.906 114.961C749.906 115.93 751.304 115.93 751.304 114.961C751.304 102.976 751.304 91.042 751.304 79.057C751.304 78.088 749.906 78.088 749.906 79.057Z" fill="#E8E8E8"/>
<path d="M750.932 79.822C765.665 79.822 780.352 79.822 795.085 79.822C795.971 79.822 795.971 78.292 795.085 78.292C780.352 78.292 765.665 78.292 750.932 78.292C749.999 78.292 749.999 79.822 750.932 79.822Z" fill="#E8E8E8"/>
<path d="M794.339 79.414C794.293 91.144 794.246 102.874 794.199 114.655C794.199 115.624 795.598 115.624 795.598 114.655C795.645 102.925 795.692 91.195 795.738 79.414C795.738 78.445 794.339 78.445 794.339 79.414Z" fill="#E8E8E8"/>
<path d="M751.211 115.93C765.712 115.93 780.212 115.93 794.712 115.93C795.598 115.93 795.598 114.4 794.712 114.4C780.212 114.4 765.712 114.4 751.211 114.4C750.325 114.4 750.325 115.93 751.211 115.93Z" fill="#E8E8E8"/>
<path d="M750.932 105.373C756.293 103.333 761.935 105.169 767.157 106.852C772.472 108.535 777.694 110.575 782.776 112.921C783.616 113.278 783.989 111.799 783.149 111.442C777.508 108.841 771.726 106.648 765.852 104.863C760.863 103.384 755.594 101.956 750.559 103.894C749.719 104.2 750.092 105.679 750.932 105.373Z" fill="#E8E8E8"/>
<path d="M768.649 107.107C777.461 106.546 785.714 102.67 794.433 101.599C795.319 101.497 795.319 99.967 794.433 100.069C785.714 101.14 777.461 104.965 768.649 105.577C767.717 105.679 767.717 107.209 768.649 107.107Z" fill="#E8E8E8"/>
<path d="M785.341 88.441C783.383 87.217 785.154 83.188 787.252 84.157C788.372 84.667 788.605 86.146 787.998 87.217C787.346 88.39 785.994 88.594 784.875 88.237C783.989 87.982 783.616 89.461 784.502 89.716C786.367 90.277 788.465 89.665 789.397 87.676C790.237 85.891 789.584 83.545 787.812 82.729C784.175 81.046 781.191 87.676 784.641 89.767C785.387 90.226 786.133 88.9 785.341 88.441Z" fill="#E8E8E8"/>
<path d="M771.074 74.773C771.12 73.906 771.167 73.039 771.4 72.223C771.586 71.56 772.053 69.979 772.752 69.673C774.011 69.163 774.477 74.008 774.57 74.926C774.664 75.895 776.062 75.895 775.969 74.926C775.829 73.141 775.456 67.531 772.845 67.939C771.726 68.092 770.934 69.469 770.514 70.489C769.955 71.815 769.768 73.294 769.721 74.722C769.675 75.742 771.074 75.742 771.074 74.773Z" fill="#E8E8E8"/>
<path d="M778.907 312.688C778.907 318.808 778.907 324.979 778.907 331.099C778.907 332.068 780.305 332.068 780.305 331.099C780.305 324.979 780.305 318.808 780.305 312.688C780.305 311.719 778.907 311.719 778.907 312.688Z" fill="#E8E8E8"/>
<path d="M761.982 333.343C774.664 333.343 787.392 333.343 800.074 333.343C800.96 333.343 800.96 331.813 800.074 331.813C787.392 331.813 774.664 331.813 761.982 331.813C761.096 331.813 761.096 333.343 761.982 333.343Z" fill="#E8E8E8"/>
<path d="M767.344 333.802C767.344 336.709 767.344 339.565 767.344 342.472C767.344 343.441 768.742 343.441 768.742 342.472C768.742 339.565 768.742 336.709 768.742 333.802C768.742 332.833 767.344 332.833 767.344 333.802Z" fill="#E8E8E8"/>
<path d="M787.719 334.261C787.719 337.678 787.719 341.146 787.719 344.563C787.719 345.532 789.117 345.532 789.117 344.563C789.117 341.146 789.117 337.678 789.117 334.261C789.117 333.241 787.719 333.241 787.719 334.261Z" fill="#E8E8E8"/>
<path d="M777.834 346.552C786.646 346.552 795.458 346.552 804.271 346.552C805.156 346.552 805.156 345.022 804.271 345.022C795.458 345.022 786.646 345.022 777.834 345.022C776.948 345.022 776.948 346.552 777.834 346.552Z" fill="#E8E8E8"/>
<path d="M455.236 495.676C469.923 484.813 477.289 479.356 479.201 478.693C483.864 477.061 498.97 471.808 512.165 480.631C521.63 486.955 530.349 500.674 526.712 509.854C524.101 516.382 516.128 518.422 508.901 520.309C498.224 523.063 489.086 521.533 483.957 520.207C481.952 522.349 478.735 525.205 474.212 527.092C466.706 530.254 458.033 529.693 457.614 527.806C457.427 526.837 459.292 524.95 468.337 521.074C467.265 519.799 465.68 518.269 463.442 517.198C456.821 513.883 450.2 517.096 448.941 517.759C455.422 521.89 456.821 524.032 456.495 525.205C455.655 528.163 442.461 529.132 438.917 522.349C438.544 521.686 437.518 519.391 438.358 515.056C440.036 507.1 446.097 502.459 455.236 495.676Z" fill="#403E3E"/>
<path d="M519.205 506.998C520.697 503.632 527.411 504.448 530.022 504.754C533.379 505.162 536.363 505.519 539.068 508.12C541.119 510.058 544.103 514.291 543.031 517.708C542.052 520.972 538.368 520.717 531.235 524.542C530.022 525.205 518.366 531.478 519.159 535.609C519.485 537.292 521.583 537.241 528.251 540.352C534.032 543.004 537.436 544.636 540.28 548.206C541.679 549.991 544.476 553.51 543.73 557.08C542.331 563.659 529.836 564.781 529.51 563.761C529.23 562.894 537.995 560.497 538.089 556.009C538.182 552.592 533.286 549.838 530.209 548.053C521.164 542.902 515.056 544.738 512.678 539.791C511.326 536.986 512.072 533.977 512.212 533.416C512.911 530.662 514.869 528.316 524.427 523.063C533.146 518.269 537.016 517.147 536.97 515.005C536.923 513.016 533.566 511.384 531.514 510.823C525.733 509.14 521.49 513.118 519.532 510.874C518.692 509.854 518.739 508.12 519.205 506.998Z" fill="#393939"/>
<path d="M439.57 482.314C442.507 484.711 445.445 487.108 448.382 489.505C452.578 489.046 456.728 488.638 460.924 488.179C463.535 485.425 466.146 482.62 468.757 479.866C468.944 481.6 469.317 485.527 469.457 487.414C471.088 504.397 471.228 505.876 470.249 507.814C467.032 514.087 456.168 516.637 449.921 512.251C446.89 510.109 445.724 506.896 443.533 500.725C440.875 493.279 439.943 486.751 439.57 482.314Z" fill="#414040"/>
<path d="M451.413 499.96C450.713 501.541 449.175 502.51 447.589 502.204C447.17 502.102 446.983 502.867 447.403 502.918C449.314 503.275 451.226 502.255 452.019 500.317C452.205 499.909 451.646 499.501 451.413 499.96Z" fill="white"/>
<path d="M457.893 499.45C459.432 501.082 461.484 501.796 463.582 501.439C464.048 501.388 463.815 500.623 463.395 500.725C461.53 501.031 459.712 500.368 458.36 498.94C458.033 498.583 457.567 499.093 457.893 499.45Z" fill="white"/>
<path d="M455.422 504.295C455.282 504.295 455.189 504.244 455.049 504.244C455.096 504.193 455.096 504.091 455.143 504.04C455.236 504.142 455.376 504.244 455.469 504.346C455.469 504.244 455.422 504.193 455.422 504.091C455.282 503.632 454.63 503.836 454.77 504.295C455.003 505.417 455.376 507.151 454.117 507.712C453.697 507.916 453.884 508.63 454.303 508.426C455.982 507.661 455.795 505.672 455.469 504.04C455.236 504.091 455.003 504.193 454.816 504.244C454.816 504.346 454.863 504.397 454.863 504.499C454.909 504.652 455.049 504.805 455.189 504.805C456.401 504.703 455.422 502.867 454.863 503.938C454.63 504.295 455.189 504.703 455.422 504.295Z" fill="white"/>
<path d="M454.956 504.652C455.189 505.519 455.236 506.488 455.749 507.253C456.168 507.865 456.821 508.171 457.521 508.018C457.94 507.916 457.754 507.202 457.334 507.304C456.029 507.61 455.842 505.366 455.609 504.448C455.516 503.989 454.863 504.193 454.956 504.652Z" fill="white"/>
<path d="M452.718 505.366C451.366 504.703 449.967 504.397 448.475 504.499C448.009 504.55 448.009 505.315 448.475 505.264C449.827 505.162 451.133 505.417 452.345 506.029C452.765 506.233 453.138 505.57 452.718 505.366Z" fill="white"/>
<path d="M451.506 506.386C450.34 506.488 449.314 506.998 448.522 507.865C448.195 508.222 448.708 508.732 449.035 508.426C449.734 507.712 450.573 507.253 451.553 507.151C451.926 507.1 451.926 506.335 451.506 506.386Z" fill="white"/>
<path d="M458.173 505.009C459.525 504.448 460.877 504.244 462.323 504.397C462.789 504.448 462.789 503.683 462.323 503.632C460.831 503.479 459.385 503.734 457.987 504.295C457.567 504.448 457.707 505.213 458.173 505.009Z" fill="white"/>
<path d="M459.106 506.386C460.132 506.233 461.111 506.335 462.09 506.743C462.509 506.896 462.696 506.182 462.276 506.029C461.25 505.621 460.178 505.519 459.106 505.672C458.64 505.672 458.64 506.488 459.106 506.386Z" fill="white"/>
<path d="M448.102 497.716C448.802 497.257 449.641 497.257 450.34 497.716C450.713 497.971 451.086 497.308 450.713 497.053C449.781 496.492 448.708 496.492 447.776 497.053C447.356 497.308 447.729 497.971 448.102 497.716Z" fill="white"/>
<path d="M457.893 496.696C458.593 496.288 459.385 496.186 460.225 496.288C460.644 496.339 460.878 495.625 460.411 495.574C459.432 495.421 458.453 495.574 457.567 496.084C457.101 496.237 457.474 496.9 457.893 496.696Z" fill="white"/>
<path d="M446.75 480.682C448.196 480.019 449.641 479.356 451.04 478.642C450.76 478.438 450.527 478.234 450.247 477.979C449.688 479.917 448.848 481.651 447.729 483.283C447.45 483.691 447.916 484.303 448.335 484.15C449.921 483.487 451.506 482.875 453.091 482.212C453.697 481.957 453.464 480.835 452.811 481.09C451.226 481.753 449.641 482.365 448.056 483.028C448.242 483.334 448.429 483.589 448.662 483.895C449.874 482.212 450.713 480.376 451.319 478.336C451.459 477.826 450.946 477.52 450.527 477.673C449.081 478.336 447.636 478.999 446.237 479.713C445.585 480.019 446.144 480.988 446.75 480.682Z" fill="#161616"/>
<path d="M449.081 471.4C450.061 470.788 451.04 470.38 452.112 470.125C451.926 469.819 451.739 469.564 451.506 469.258C451.086 470.278 450.573 471.298 449.967 472.216C449.734 472.624 450.06 473.032 450.433 473.083C451.692 473.185 452.858 472.828 453.837 472.012C454.35 471.553 453.837 470.584 453.324 471.043C452.485 471.757 451.553 472.063 450.48 471.961C450.62 472.267 450.76 472.522 450.946 472.828C451.553 471.859 452.065 470.89 452.485 469.87C452.671 469.411 452.345 468.901 451.879 469.003C450.713 469.258 449.594 469.717 448.569 470.38C447.962 470.788 448.475 471.757 449.081 471.4Z" fill="#161616"/>
<path d="M456.775 483.742C455.236 482.059 457.894 481.09 458.173 479.611C458.453 477.877 456.588 476.245 458.686 474.919C459.292 474.562 458.733 473.542 458.173 473.95C457.427 474.409 456.821 475.123 456.635 476.092C456.355 477.724 457.66 478.693 456.541 480.172C456.029 480.886 455.422 481.09 455.236 482.059C455.049 483.028 455.422 483.844 456.028 484.558C456.541 485.068 457.287 484.252 456.775 483.742Z" fill="#161616"/>
<path d="M585.506 338.137C468.617 347.368 351.728 356.548 234.886 365.779C231.716 273.061 228.545 180.343 225.421 87.625C342.823 85.891 460.225 84.157 577.627 82.423C580.238 167.644 582.849 252.865 585.506 338.137Z" fill="#F1F3F5" stroke="#161616" stroke-width="3.5" stroke-miterlimit="10"/>
<path d="M324.733 132.76C347.392 132.76 370.099 132.76 392.758 132.76C393.644 132.76 393.644 131.23 392.758 131.23C370.099 131.23 347.392 131.23 324.733 131.23C323.847 131.23 323.847 132.76 324.733 132.76Z" fill="#F1F3F5"/>
<path d="M350.19 139.033C373.549 139.033 396.908 139.033 420.267 139.033C421.153 139.033 421.153 137.503 420.267 137.503C396.908 137.503 373.549 137.503 350.19 137.503C349.257 137.503 349.257 139.033 350.19 139.033Z" fill="#F1F3F5"/>
<path d="M239.595 288.667C240.435 309.985 241.274 331.354 242.113 352.672C242.16 353.641 243.558 353.641 243.512 352.672C242.673 331.354 241.833 309.985 240.994 288.667C240.947 287.698 239.549 287.698 239.595 288.667Z" fill="#F1F3F5"/>
<path d="M342.31 276.223C344.315 276.223 346.32 276.223 348.371 276.223C349.257 276.223 349.257 274.693 348.371 274.693C346.367 274.693 344.362 274.693 342.31 274.693C341.424 274.693 341.424 276.223 342.31 276.223Z" fill="#F1F3F5"/>
<path d="M353.64 276.223C358.815 276.223 363.944 276.223 369.12 276.223C370.005 276.223 370.005 274.693 369.12 274.693C363.944 274.693 358.815 274.693 353.64 274.693C352.754 274.693 352.754 276.223 353.64 276.223Z" fill="#F1F3F5"/>
<path d="M380.822 275.407C386.977 275.407 393.131 275.407 399.333 275.407C400.218 275.407 400.218 273.877 399.333 273.877C393.178 273.877 387.024 273.877 380.822 273.877C379.937 273.877 379.937 275.407 380.822 275.407Z" fill="#F1F3F5"/>
<path d="M350.656 286.933C358.209 286.933 365.763 286.933 373.316 286.933C374.202 286.933 374.202 285.403 373.316 285.403C365.763 285.403 358.209 285.403 350.656 285.403C349.723 285.403 349.723 286.933 350.656 286.933Z" fill="#F1F3F5"/>
<path d="M361.566 281.17C370.378 281.17 379.191 281.17 388.003 281.17C388.889 281.17 388.889 279.64 388.003 279.64C379.191 279.64 370.378 279.64 361.566 279.64C360.68 279.64 360.68 281.17 361.566 281.17Z" fill="#F1F3F5"/>
<path d="M408.378 335.689C423.205 335.689 438.078 335.689 452.905 335.689C453.791 335.689 453.791 334.159 452.905 334.159C438.078 334.159 423.205 334.159 408.378 334.159C407.492 334.159 407.492 335.689 408.378 335.689Z" fill="#F1F3F5"/>
<path d="M444.978 339.82C452.765 339.82 460.598 339.82 468.384 339.82C469.27 339.82 469.27 338.29 468.384 338.29C460.598 338.29 452.765 338.29 444.978 338.29C444.093 338.29 444.093 339.82 444.978 339.82Z" fill="#F1F3F5"/>
<path d="M465.354 333.598C473.047 333.598 480.693 333.598 488.386 333.598C489.272 333.598 489.272 332.068 488.386 332.068C480.693 332.068 473.047 332.068 465.354 332.068C464.468 332.068 464.468 333.598 465.354 333.598Z" fill="#F1F3F5"/>
<path d="M504.612 195.337C518.832 195.337 533.053 195.337 547.274 195.337C548.159 195.337 548.159 193.807 547.274 193.807C533.053 193.807 518.832 193.807 504.612 193.807C503.726 193.807 503.726 195.337 504.612 195.337Z" fill="#F1F3F5"/>
<path d="M491.417 197.785C495.94 197.785 500.462 197.785 504.985 197.785C505.871 197.785 505.871 196.255 504.985 196.255C500.462 196.255 495.94 196.255 491.417 196.255C490.484 196.255 490.484 197.785 491.417 197.785Z" fill="#F1F3F5"/>
<path d="M494.028 201.916C509.228 201.916 524.474 201.916 539.674 201.916C540.56 201.916 540.56 200.386 539.674 200.386C524.474 200.386 509.228 200.386 494.028 200.386C493.142 200.386 493.142 201.916 494.028 201.916Z" fill="#F1F3F5"/>
<path d="M550.304 198.193C553.195 198.193 556.086 198.193 558.976 198.193C559.862 198.193 559.862 196.663 558.976 196.663C556.086 196.663 553.195 196.663 550.304 196.663C549.372 196.663 549.372 198.193 550.304 198.193Z" fill="#F1F3F5"/>
<path d="M538.974 260.515C543.264 260.515 547.507 260.515 551.796 260.515C552.682 260.515 552.682 258.985 551.796 258.985C547.507 258.985 543.264 258.985 538.974 258.985C538.042 258.985 538.042 260.515 538.974 260.515Z" fill="#F1F3F5"/>
<path d="M530.675 264.646C535.338 264.646 540 264.646 544.616 264.646C545.502 264.646 545.502 263.116 544.616 263.116C539.953 263.116 535.291 263.116 530.675 263.116C529.743 263.116 529.743 264.646 530.675 264.646Z" fill="#F1F3F5"/>
<path d="M537.436 268.777C546.621 268.777 555.806 268.777 564.991 268.777C565.877 268.777 565.877 267.247 564.991 267.247C555.806 267.247 546.621 267.247 537.436 267.247C536.55 267.247 536.55 268.777 537.436 268.777Z" fill="#F1F3F5"/>
<path d="M554.827 263.83C557.578 263.83 560.375 263.83 563.126 263.83C564.012 263.83 564.012 262.3 563.126 262.3C560.375 262.3 557.578 262.3 554.827 262.3C553.894 262.3 553.894 263.83 554.827 263.83Z" fill="#F1F3F5"/>
<path d="M362.778 200.233C369.306 200.233 375.787 200.233 382.314 200.233C383.2 200.233 383.2 198.703 382.314 198.703C375.787 198.703 369.306 198.703 362.778 198.703C361.893 198.703 361.893 200.233 362.778 200.233Z" fill="#F1F3F5"/>
<path d="M376.999 204.619C386.604 204.619 396.255 204.619 405.86 204.619C406.746 204.619 406.746 203.089 405.86 203.089C396.255 203.089 386.604 203.089 376.999 203.089C376.113 203.089 376.067 204.619 376.999 204.619Z" fill="#F1F3F5"/>
<path d="M402.317 198.754C407.772 198.754 413.273 198.754 418.729 198.754C419.614 198.754 419.614 197.224 418.729 197.224C413.273 197.224 407.772 197.224 402.317 197.224C401.431 197.224 401.431 198.754 402.317 198.754Z" fill="#F1F3F5"/>
<path d="M235.446 117.358C236.471 156.067 237.497 194.827 238.523 233.536C238.803 244.552 239.082 255.517 239.409 266.533C239.455 267.502 240.854 267.502 240.808 266.533C239.782 227.824 238.756 189.064 237.73 150.355C237.451 139.339 237.171 128.374 236.844 117.358C236.844 116.389 235.446 116.389 235.446 117.358Z" fill="#F1F3F5"/>
<path d="M574.363 243.889C575.062 269.491 575.762 295.042 576.461 320.644C576.508 321.613 577.906 321.613 577.86 320.644C577.16 295.042 576.461 269.491 575.762 243.889C575.762 242.92 574.363 242.92 574.363 243.889Z" fill="#F1F3F5"/>
<path d="M477.802 232.159C478.082 235.27 478.362 238.432 478.595 241.543C481.299 240.778 483.957 239.962 486.661 239.197C486.288 236.086 485.962 232.924 485.589 229.813C482.978 230.578 480.413 231.394 477.802 232.159Z" fill="#EC615B"/>
<path d="M476.17 255.976C478.968 255.568 481.719 255.211 484.516 254.803C484.889 258.526 485.216 262.249 485.589 265.972C483.071 266.074 480.553 266.176 478.082 266.278C477.429 262.81 476.823 259.393 476.17 255.976Z" fill="#EC615B"/>
<path d="M486.381 278.569C487.267 281.782 488.153 285.046 489.086 288.259C491.603 286.984 494.121 285.709 496.592 284.434C495.8 281.578 494.96 278.773 494.168 275.917C491.603 276.835 488.992 277.702 486.381 278.569Z" fill="#EC615B"/>
<path d="M302.073 308.965C302.679 318.859 303.285 328.753 303.891 338.596C319.744 337.474 335.596 336.403 351.449 335.281C351.728 326.407 352.055 317.482 352.334 308.608C335.596 308.761 318.811 308.863 302.073 308.965Z" fill="#8C3566"/>
<path d="M499.157 107.668C500.985 107.668 502.467 106.321 502.467 104.659C502.467 102.997 500.985 101.65 499.157 101.65C497.328 101.65 495.846 102.997 495.846 104.659C495.846 106.321 497.328 107.668 499.157 107.668Z" fill="#5222D0"/>
<path d="M274.191 130.21C275.71 130.21 276.942 129.32 276.942 128.221C276.942 127.123 275.71 126.232 274.191 126.232C272.672 126.232 271.44 127.123 271.44 128.221C271.44 129.32 272.672 130.21 274.191 130.21Z" fill="#EC615B"/>
<path d="M317.972 187.891C319.156 187.891 320.117 186.658 320.117 185.137C320.117 183.616 319.156 182.383 317.972 182.383C316.787 182.383 315.827 183.616 315.827 185.137C315.827 186.658 316.787 187.891 317.972 187.891Z" fill="#EC615B"/>
<path opacity="0.21" d="M298.296 119.194C299.135 119.041 300.767 127.558 304.777 143.011C310.046 163.36 315.268 179.782 319.044 191.002C313.309 194.878 300.488 202.273 283.003 202.528C270.648 202.681 260.903 199.213 255.121 196.561C266.451 197.938 275.59 197.581 281.977 196.918C292.095 195.898 290.323 194.725 297.97 194.317C301.14 194.164 305.29 194.164 309.533 191.359C311.071 190.339 312.19 189.217 312.936 188.401C309.952 181.669 306.129 171.775 303.052 159.382C298.156 139.237 297.084 119.449 298.296 119.194Z" fill="#6D6C6C"/>
<path opacity="0.25" d="M341.984 174.529C342.73 181.006 344.082 188.248 346.32 196C352.708 218.032 363.478 233.74 371.591 243.43C366.742 247.357 360.727 251.437 353.5 254.854C331.586 265.207 311.118 263.677 300.161 261.841C299.742 259.138 299.322 256.435 298.902 253.732C303.565 253.885 308.507 253.783 313.682 253.477C332.146 252.202 347.998 247.663 360.634 242.614C356.624 235.168 353.733 228.742 351.728 223.897C346.879 212.32 343.289 203.599 342.03 191.818C341.238 184.627 341.564 178.558 341.984 174.529Z" fill="#6D6C6C"/>
<path opacity="0.14" d="M490.205 208.291C490.671 219.919 491.79 229.558 492.769 236.494C495.054 252.406 496.732 263.422 502.7 275.815C506.43 283.516 510.626 289.177 513.657 292.849C508.388 297.796 501.301 303.406 492.21 307.894C469.363 319.267 447.916 316.972 437.891 315.136C437.379 312.637 436.866 310.138 436.353 307.588C437.612 307.69 439.57 307.792 441.948 307.843C449.874 308.047 466.379 308.353 485.309 301.417C490.624 299.479 498.084 296.215 506.477 290.809C503.166 285.964 499.903 280.201 497.059 273.52C485.822 247.153 488.06 221.551 490.205 208.291Z" fill="#6D6C6C"/>
<path opacity="0.18" d="M525.919 93.898C526.852 98.641 528.204 105.883 529.556 114.91C532.074 132.352 531.887 138.676 534.825 148.978C536.363 154.333 539.114 161.932 544.29 170.602C539.954 174.478 534.545 178.507 527.878 181.873C506.057 192.94 485.169 189.829 475.564 187.636C475.658 185.596 475.751 183.556 475.844 181.567C477.056 181.924 478.875 182.383 481.113 182.791C484.05 183.301 494.914 185.035 515.336 179.425C520.977 177.895 528.577 175.447 537.296 171.52C535.617 168.256 533.146 163.156 530.908 156.628C524.381 137.707 524.427 121.285 524.521 112.819C524.567 108.178 524.847 101.701 525.919 93.898Z" fill="#6D6C6C"/>
<path d="M247.195 116.287C242.579 143.011 247.242 170.041 251.904 196.357C252.091 197.326 253.443 196.918 253.256 195.949C248.641 169.939 244.025 143.164 248.547 116.695C248.687 115.777 247.335 115.318 247.195 116.287Z" fill="#161616"/>
<path d="M248.501 116.083C255.168 120.979 263.234 121.846 271.114 121.234C280.112 120.52 289.018 118.429 297.923 116.797C298.809 116.644 298.436 115.165 297.55 115.318C289.018 116.848 280.485 118.837 271.86 119.602C263.98 120.316 255.914 119.653 249.2 114.706C248.454 114.196 247.755 115.522 248.501 116.083Z" fill="#161616"/>
<path d="M296.991 117.868C298.296 142.246 301.653 167.134 312.936 188.554C313.403 189.421 314.615 188.656 314.149 187.789C303.005 166.573 299.695 141.94 298.389 117.868C298.343 116.899 296.944 116.899 296.991 117.868Z" fill="#161616"/>
<path d="M253.07 196.765C263.654 200.131 275.03 198.091 285.801 197.122C295.359 196.255 305.616 195.847 313.822 189.727C314.568 189.166 313.869 187.84 313.123 188.401C304.87 194.572 294.52 194.776 284.915 195.643C274.564 196.561 263.654 198.448 253.443 195.235C252.557 195.031 252.184 196.51 253.07 196.765Z" fill="#161616"/>
<path d="M270.974 128.527C270.041 128.068 271.067 127.099 271.627 126.946C272.326 126.742 273.678 126.64 274.004 127.507C274.238 128.17 273.865 129.037 273.305 129.292C272.419 129.751 271.44 129.19 270.834 128.527C270.181 127.813 269.202 128.884 269.855 129.598C271.02 130.873 272.932 131.536 274.377 130.363C275.543 129.445 275.963 127.405 274.984 126.181C273.865 124.804 271.487 124.957 270.228 125.977C269.109 126.895 268.876 129.088 270.321 129.802C271.114 130.261 271.813 128.935 270.974 128.527Z" fill="#161616"/>
<path d="M289.67 196.969C286.314 215.584 289.904 234.403 293.54 252.661C293.727 253.63 295.079 253.222 294.892 252.253C291.302 234.301 287.759 215.737 291.023 197.377C291.209 196.408 289.857 196 289.67 196.969Z" fill="#161616"/>
<path d="M308.927 177.436C319.697 175.192 330.607 174.376 341.518 174.835C341.284 174.58 341.051 174.325 340.818 174.07C338.627 198.652 348.232 222.061 359.888 242.41C360.354 243.226 361.566 242.461 361.1 241.645C349.584 221.5 340.026 198.397 342.217 174.07C342.264 173.662 341.844 173.305 341.518 173.305C330.467 172.846 319.417 173.713 308.554 175.957C307.668 176.161 308.041 177.64 308.927 177.436Z" fill="#161616"/>
<path d="M294.286 253.732C316.946 256.639 339.932 252.916 360.914 243.124C361.753 242.716 361.007 241.441 360.214 241.798C339.513 251.488 316.666 255.058 294.286 252.202C293.401 252.1 293.401 253.63 294.286 253.732Z" fill="#161616"/>
<path d="M317.692 183.709C317.692 183.658 317.832 183.403 317.832 183.301C317.879 183.097 318.018 182.893 318.158 182.74C318.438 182.485 318.764 182.281 319.137 182.23C319.837 182.128 320.49 182.536 320.676 183.301C320.816 183.913 320.583 184.729 319.93 184.831C319.324 184.933 318.764 184.474 318.671 183.811C318.531 182.842 317.179 183.25 317.319 184.219C317.552 186.004 319.65 186.871 321.002 186.004C322.494 185.035 322.401 182.536 321.142 181.363C319.744 180.088 317.412 180.751 316.62 182.485C316.247 183.352 316.247 184.525 317.133 185.035C317.832 185.443 318.858 185.086 319.044 184.117C319.184 183.148 317.832 182.74 317.692 183.709Z" fill="#161616"/>
<path d="M251.811 144.031C264.213 145.918 276.522 143.113 288.412 139.39C289.298 139.135 288.925 137.656 288.039 137.911C276.382 141.532 264.307 144.388 252.184 142.552C251.298 142.399 250.925 143.878 251.811 144.031Z" fill="#161616"/>
<path d="M254.142 154.027C260.576 154.792 267.011 154.078 273.212 151.936C274.051 151.63 273.725 150.151 272.839 150.457C266.778 152.548 260.483 153.211 254.142 152.497C253.256 152.395 253.256 153.925 254.142 154.027Z" fill="#161616"/>
<path d="M254.142 166.369C266.451 167.95 278.853 166.981 290.79 163.564C291.675 163.309 291.302 161.83 290.416 162.085C278.574 165.502 266.311 166.42 254.142 164.839C253.256 164.686 253.256 166.216 254.142 166.369Z" fill="#161616"/>
<path d="M300.208 244.654C312.563 245.266 324.919 243.634 336.762 239.758C337.601 239.503 337.275 238.024 336.389 238.279C324.639 242.104 312.47 243.736 300.208 243.124C299.275 243.073 299.275 244.603 300.208 244.654Z" fill="#161616"/>
<path d="M302.586 232.975C308.087 232.771 313.589 232.312 319.091 231.649C319.977 231.547 319.977 230.017 319.091 230.119C313.589 230.782 308.134 231.241 302.586 231.445C301.7 231.496 301.7 233.026 302.586 232.975Z" fill="#161616"/>
<path d="M307.062 211.963C310.698 212.473 314.475 211.453 318.065 210.892C322.028 210.229 325.945 209.617 329.908 208.954C330.794 208.801 330.421 207.322 329.535 207.475C325.898 208.087 322.215 208.699 318.578 209.26C314.801 209.872 310.885 210.994 307.062 210.433C306.176 210.28 306.176 211.81 307.062 211.963Z" fill="#161616"/>
<path d="M471.834 97.621C466.752 124.906 466.239 152.956 470.296 180.445C470.436 181.414 471.788 181.006 471.648 180.037C467.638 152.854 468.198 125.008 473.187 98.029C473.373 97.06 472.021 96.652 471.834 97.621Z" fill="#161616"/>
<path d="M473.42 97.978C490.345 93.745 507.829 92.878 525.08 95.428C525.966 95.581 526.339 94.102 525.453 93.949C507.969 91.348 490.251 92.215 473.047 96.499C472.207 96.754 472.58 98.233 473.42 97.978Z" fill="#161616"/>
<path d="M524.66 94.051C524.148 120.316 524.474 148.06 536.643 171.571C537.109 172.438 538.275 171.673 537.855 170.806C525.826 147.55 525.546 120.061 526.059 94.051C526.106 93.082 524.707 93.082 524.66 94.051Z" fill="#161616"/>
<path d="M471.368 181.261C476.59 182.995 482.185 183.097 487.594 183.148C493.422 183.199 499.25 182.791 505.078 181.924C516.221 180.292 527.085 176.977 537.482 172.183C538.322 171.826 537.576 170.5 536.783 170.857C526.386 175.651 515.429 178.915 504.239 180.496C499.017 181.21 493.748 181.618 488.479 181.567C482.931 181.567 477.103 181.516 471.788 179.731C470.855 179.527 470.529 181.006 471.368 181.261Z" fill="#161616"/>
<path d="M499.903 99.61C498.317 100.222 497.618 102.211 498.178 103.894C498.83 105.781 500.835 106.24 502.327 105.118C503.772 103.996 504.239 101.752 502.84 100.324C501.628 99.1 499.53 99.049 498.411 100.375C497.805 101.089 498.784 102.16 499.39 101.446C500.788 99.814 503.539 102.109 501.628 103.741C500.882 104.353 499.809 104.353 499.483 103.282C499.25 102.466 499.483 101.344 500.276 101.038C501.115 100.732 500.742 99.253 499.903 99.61Z" fill="#161616"/>
<path d="M472.534 121.336C485.262 121.693 497.944 121.438 510.626 120.52C511.512 120.469 511.512 118.939 510.626 118.99C497.944 119.908 485.216 120.214 472.534 119.806C471.601 119.806 471.601 121.336 472.534 121.336Z" fill="#161616"/>
<path d="M473.793 129.088C478.548 129.292 483.304 129.496 488.013 129.7C488.899 129.751 488.899 128.221 488.013 128.17C483.257 127.966 478.502 127.762 473.793 127.558C472.86 127.507 472.86 129.037 473.793 129.088Z" fill="#161616"/>
<path d="M472.487 139.9C484.47 140.614 496.592 141.226 508.388 138.37C509.274 138.166 508.901 136.687 508.015 136.891C496.313 139.696 484.33 139.084 472.487 138.37C471.601 138.319 471.601 139.849 472.487 139.9Z" fill="#161616"/>
<path d="M298.669 305.701C297.597 315.901 297.224 326.152 297.55 336.403C297.597 337.372 298.996 337.372 298.949 336.403C298.623 326.152 298.996 315.901 300.068 305.701C300.161 304.732 298.762 304.732 298.669 305.701Z" fill="#161616"/>
<path d="M299.135 306.313C315.734 306.313 332.379 306.058 348.978 305.497C349.863 305.446 349.863 303.916 348.978 303.967C332.379 304.528 315.734 304.783 299.135 304.783C298.249 304.783 298.249 306.313 299.135 306.313Z" fill="#161616"/>
<path d="M348.838 304.783C348.978 313.657 349.117 322.48 349.257 331.354C349.257 332.323 350.656 332.323 350.656 331.354C350.516 322.48 350.376 313.657 350.236 304.783C350.236 303.814 348.791 303.814 348.838 304.783Z" fill="#161616"/>
<path d="M297.41 335.281C297.503 338.596 302.772 337.117 304.497 337.015C309.439 336.658 314.382 336.301 319.277 335.893C329.302 335.128 339.326 334.414 349.35 333.649C350.236 333.598 350.236 332.068 349.35 332.119C340.818 332.731 332.332 333.394 323.8 334.006C319.744 334.312 315.687 334.618 311.631 334.924C310.419 335.026 298.809 336.25 298.762 335.281C298.809 334.312 297.41 334.312 297.41 335.281Z" fill="#161616"/>
<path d="M302.912 313.198C314.102 312.637 325.292 313.096 336.389 314.626C337.275 314.728 337.275 313.198 336.389 313.096C325.292 311.566 314.102 311.107 302.912 311.668C301.98 311.719 301.98 313.249 302.912 313.198Z" fill="#161616"/>
<path d="M303.332 320.95C309.579 320.44 315.874 319.879 322.121 319.369C323.007 319.318 323.007 317.788 322.121 317.839C315.874 318.349 309.579 318.91 303.332 319.42C302.446 319.471 302.446 321.001 303.332 320.95Z" fill="#161616"/>
<path d="M305.43 328.753C314.428 327.478 324.22 324.877 333.265 326.662C334.151 326.815 334.524 325.387 333.638 325.183C324.406 323.347 314.615 325.897 305.43 327.223C304.59 327.376 304.544 328.906 305.43 328.753Z" fill="#161616"/>
<path d="M426.701 218.899C419.288 247.765 420.22 278.671 429.312 306.976C429.592 307.894 430.944 307.486 430.665 306.568C421.666 278.518 420.733 247.918 428.053 219.307C428.287 218.338 426.934 217.93 426.701 218.899Z" fill="#161616"/>
<path d="M427.634 219.409C448.382 219.307 469.037 216.349 489.132 210.586C490.018 210.331 489.645 208.852 488.759 209.107C468.804 214.819 448.289 217.777 427.634 217.879C426.701 217.879 426.701 219.409 427.634 219.409Z" fill="#161616"/>
<path d="M488.759 209.668C487.92 223.846 488.479 238.126 490.811 252.151C491.976 259.24 493.375 266.329 495.939 272.959C498.504 279.538 502.047 285.505 506.197 290.962C506.756 291.727 507.782 290.656 507.176 289.891C502.933 284.332 499.343 278.161 496.825 271.429C494.447 265.003 493.142 258.118 492.07 251.335C489.832 237.616 489.319 223.591 490.111 209.668C490.205 208.699 488.806 208.699 488.759 209.668Z" fill="#161616"/>
<path d="M429.499 307.792C455.889 309.832 483.444 306.568 506.57 291.676C507.363 291.166 506.663 289.84 505.871 290.35C482.885 305.14 455.609 308.251 429.499 306.262C428.613 306.16 428.613 307.69 429.499 307.792Z" fill="#161616"/>
<path d="M457.567 223.999C456.775 222.52 458.36 220.684 459.712 221.857C461.157 223.132 459.619 225.172 458.08 224.509C457.241 224.152 456.868 225.631 457.707 225.988C458.966 226.549 460.504 225.937 461.25 224.713C462.09 223.336 461.717 221.602 460.551 220.633C458.033 218.44 454.863 221.857 456.355 224.764C456.821 225.631 458.033 224.866 457.567 223.999Z" fill="#161616"/>
<path d="M428.1 241.594C442.041 241.339 455.982 240.268 469.876 238.432C470.762 238.33 470.762 236.8 469.876 236.902C456.029 238.789 442.088 239.809 428.1 240.064C427.214 240.115 427.214 241.645 428.1 241.594Z" fill="#161616"/>
<path d="M474.865 231.343C475.285 233.689 475.704 236.086 476.124 238.432C476.31 239.401 477.662 238.993 477.476 238.024C477.056 235.678 476.637 233.281 476.217 230.935C476.077 229.966 474.725 230.374 474.865 231.343Z" fill="#161616"/>
<path d="M475.798 231.139C478.362 230.731 480.926 230.323 483.537 229.864C484.423 229.711 484.05 228.232 483.164 228.385C480.6 228.793 478.036 229.201 475.425 229.66C474.539 229.813 474.912 231.292 475.798 231.139Z" fill="#161616"/>
<path d="M483.118 229.405C483.491 231.598 483.817 233.791 484.19 235.933C484.33 236.902 485.682 236.494 485.542 235.525C485.169 233.332 484.843 231.139 484.47 228.997C484.33 228.079 482.978 228.487 483.118 229.405Z" fill="#161616"/>
<path d="M477.29 239.605C480.04 238.993 482.651 238.177 485.262 237.055C486.102 236.698 485.729 235.219 484.889 235.576C482.278 236.647 479.621 237.514 476.917 238.126C476.031 238.33 476.404 239.809 477.29 239.605Z" fill="#161616"/>
<path d="M477.523 232.873C478.036 234.148 478.735 235.168 479.761 236.035C480.134 236.341 480.833 236.341 480.926 235.678C481.299 232.924 482.185 230.476 483.677 228.181C484.19 227.365 482.978 226.6 482.465 227.416C480.926 229.762 479.947 232.414 479.574 235.27C479.947 235.168 480.367 235.066 480.74 234.913C479.854 234.148 479.201 233.23 478.735 232.057C478.362 231.19 477.15 231.955 477.523 232.873Z" fill="#161616"/>
<path d="M478.035 254.752C477.289 258.424 477.616 261.994 478.968 265.411C479.341 266.329 480.507 265.513 480.18 264.646C478.968 261.637 478.735 258.373 479.388 255.16C479.574 254.191 478.222 253.783 478.035 254.752Z" fill="#161616"/>
<path d="M478.968 255.262C481.766 254.752 484.563 254.293 487.36 253.783C487.081 253.477 486.801 253.171 486.521 252.865C486.055 256.129 486.381 259.24 487.547 262.3C487.873 263.218 489.225 262.81 488.899 261.892C487.827 259.138 487.454 256.231 487.873 253.273C487.967 252.661 487.594 252.253 487.034 252.355C484.237 252.814 481.439 253.324 478.642 253.834C477.709 253.936 478.082 255.415 478.968 255.262Z" fill="#161616"/>
<path d="M479.574 265.462C482.651 265.36 485.589 264.697 488.48 263.575C489.319 263.218 488.946 261.739 488.107 262.096C485.356 263.218 482.512 263.83 479.574 263.932C478.688 263.932 478.688 265.462 479.574 265.462Z" fill="#161616"/>
<path d="M479.994 258.373C480.413 259.699 481.113 260.617 482.232 261.331C482.745 261.637 483.211 261.229 483.304 260.668C483.584 257.965 484.237 255.364 485.262 252.865C485.635 251.998 484.423 251.182 484.05 252.1C482.931 254.854 482.232 257.71 481.905 260.668C482.278 260.464 482.605 260.209 482.978 260.005C482.185 259.495 481.719 258.883 481.392 257.914C481.066 257.047 479.714 257.455 479.994 258.373Z" fill="#161616"/>
<path d="M480.926 278.416C481.253 281.833 482.092 285.046 483.491 288.106C483.864 288.973 485.076 288.208 484.703 287.341C483.444 284.536 482.651 281.527 482.372 278.416C482.232 277.447 480.833 277.447 480.926 278.416Z" fill="#161616"/>
<path d="M481.579 278.263C485.169 278.62 488.526 277.906 491.743 276.172C491.417 276.019 491.044 275.866 490.718 275.713C491.324 278.824 492.583 281.527 494.541 283.924C495.147 284.638 496.126 283.567 495.52 282.853C493.748 280.66 492.629 278.212 492.07 275.356C491.976 274.846 491.417 274.693 491.044 274.897C488.06 276.478 484.889 277.09 481.579 276.784C480.693 276.682 480.693 278.212 481.579 278.263Z" fill="#161616"/>
<path d="M484.75 288.667C488.386 287.188 491.976 285.607 495.473 283.873C496.313 283.465 495.567 282.139 494.774 282.547C491.37 284.23 487.873 285.76 484.377 287.188C483.537 287.545 483.91 289.024 484.75 288.667Z" fill="#161616"/>
<path d="M484.004 280.966C485.123 282.037 487.687 285.709 488.992 283.006C489.599 281.782 489.459 280.099 489.832 278.722C490.391 276.784 491.324 274.999 492.536 273.469C493.095 272.704 492.116 271.633 491.557 272.398C490.251 274.081 489.226 275.917 488.619 278.059C488.34 279.028 488.107 280.048 487.967 281.068C487.78 282.343 487.454 282.037 486.568 281.425C486.008 281.017 485.496 280.405 484.983 279.895C484.33 279.232 483.351 280.303 484.004 280.966Z" fill="#161616"/>
<path d="M429.359 266.533C442.414 266.38 455.422 265.207 468.291 262.963C469.177 262.81 468.804 261.331 467.918 261.484C455.143 263.677 442.274 264.85 429.359 264.952C428.473 265.003 428.473 266.533 429.359 266.533Z" fill="#161616"/>
<path d="M427.867 245.827C436.306 246.082 444.699 245.776 453.091 245.011C453.977 244.909 453.977 243.379 453.091 243.481C444.699 244.246 436.26 244.501 427.867 244.297C426.981 244.246 426.981 245.776 427.867 245.827Z" fill="#161616"/>
<path d="M429.872 269.542C438.731 270.001 447.589 269.644 456.355 268.42C457.241 268.318 457.241 266.788 456.355 266.89C447.543 268.063 438.684 268.471 429.872 268.012C428.986 267.961 428.986 269.491 429.872 269.542Z" fill="#161616"/>
<path d="M459.339 267.706C461.857 267.757 464.328 267.4 466.752 266.533C467.592 266.227 467.219 264.748 466.379 265.054C464.095 265.87 461.763 266.227 459.339 266.176C458.453 266.176 458.453 267.706 459.339 267.706Z" fill="#161616"/>
<path d="M434.628 288.718C445.258 288.004 455.842 286.933 466.379 285.352C467.265 285.199 467.265 283.669 466.379 283.822C455.842 285.352 445.258 286.474 434.628 287.188C433.695 287.239 433.695 288.769 434.628 288.718Z" fill="#161616"/>
<path d="M435.84 292.288C439.337 292.288 442.834 292.288 446.33 292.288C447.216 292.288 447.216 290.758 446.33 290.758C442.834 290.758 439.337 290.758 435.84 290.758C434.954 290.758 434.954 292.288 435.84 292.288Z" fill="#161616"/>
<path d="M438.87 295.705C444.326 295.348 449.781 294.787 455.236 294.073C459.619 293.461 464.328 293.206 468.104 290.401C468.85 289.84 468.151 288.514 467.405 289.075C463.442 292.033 458.127 292.186 453.511 292.747C448.662 293.359 443.766 293.818 438.917 294.175C437.985 294.226 437.938 295.756 438.87 295.705Z" fill="#161616"/>
<path d="M492.116 254.497C500.602 254.038 509.041 252.814 517.387 250.876C517.107 250.723 516.828 250.519 516.548 250.366C520.464 263.116 526.246 274.999 533.659 285.76C534.172 286.525 535.431 285.76 534.871 284.995C527.551 274.387 521.816 262.606 517.9 250.009C517.76 249.601 517.434 249.397 517.061 249.499C508.855 251.437 500.555 252.61 492.163 253.069C491.184 253.018 491.184 254.548 492.116 254.497Z" fill="#161616"/>
<path d="M493.562 297.541C494.821 299.479 495.846 301.519 496.732 303.712C496.825 304.018 497.245 304.171 497.525 304.069C504.379 301.57 511.139 298.816 517.76 295.705C521.117 294.124 524.427 292.492 527.738 290.758C529.323 289.942 530.908 289.075 532.447 288.208C533.379 287.698 534.452 287.392 534.778 286.27C534.871 285.964 534.731 285.556 534.452 285.403C534.032 285.148 533.799 285.148 533.379 285.403C533.1 285.556 532.96 285.964 533.053 286.27C533.053 286.321 533.1 286.372 533.1 286.423C533.333 287.392 534.685 286.984 534.452 286.015C534.452 285.964 534.405 285.913 534.405 285.862C534.312 286.168 534.172 286.423 534.079 286.729C533.985 286.729 533.846 286.729 533.752 286.729C533.659 286.423 533.519 286.168 533.426 285.862C533.146 286.78 530.209 287.749 529.416 288.208C528.111 288.922 526.805 289.585 525.453 290.299C522.329 291.931 519.159 293.461 515.942 294.94C509.787 297.796 503.493 300.346 497.152 302.641C497.432 302.743 497.665 302.896 497.944 302.998C497.105 300.805 496.033 298.765 494.774 296.827C494.261 295.96 493.049 296.725 493.562 297.541Z" fill="#161616"/>
<path d="M501.674 258.475C501.581 257.812 502.7 257.2 503.12 257.659C503.679 258.271 502.747 259.393 502.094 259.138C501.255 258.781 500.882 260.26 501.721 260.617C503.726 261.433 505.684 258.271 504.146 256.588C503.446 255.823 502.374 255.874 501.535 256.333C500.649 256.843 500.182 257.812 500.369 258.883C500.462 259.852 501.814 259.393 501.674 258.475Z" fill="#161616"/>
<path d="M295.079 217.675C300.254 217.777 305.476 217.522 310.605 216.757C315.967 215.941 321.282 214.258 326.737 214.513C327.623 214.564 327.623 213.034 326.737 212.983C321.749 212.779 316.9 214.156 312.004 214.972C306.409 215.941 300.721 216.298 295.032 216.145C294.193 216.145 294.193 217.675 295.079 217.675Z" fill="#161616"/>
<path d="M295.825 200.794C303.751 201.457 311.678 200.692 319.371 198.499C320.257 198.244 319.884 196.765 318.998 197.02C311.398 199.162 303.658 199.927 295.825 199.264C294.939 199.213 294.939 200.743 295.825 200.794Z" fill="#161616"/>
<path d="M475.238 157.852C474.445 163.462 473.793 169.531 477.01 174.427C477.523 175.243 478.735 174.478 478.222 173.662C475.238 169.123 475.891 163.462 476.59 158.26C476.73 157.291 475.378 156.883 475.238 157.852Z" fill="#161616"/>
<path d="M475.658 157.801C486.754 158.26 497.851 157.087 508.668 154.282C508.388 154.129 508.109 153.925 507.829 153.772C508.808 159.025 510.673 163.921 513.284 168.409C513.75 169.225 514.962 168.46 514.496 167.644C511.932 163.258 510.16 158.464 509.181 153.364C509.088 152.956 508.668 152.752 508.342 152.854C497.665 155.608 486.708 156.781 475.704 156.322C474.772 156.22 474.772 157.75 475.658 157.801Z" fill="#161616"/>
<path d="M478.175 174.376C490.205 173.968 502.094 172.03 513.657 168.562C514.543 168.307 514.17 166.828 513.284 167.083C501.814 170.551 490.065 172.489 478.175 172.846C477.243 172.897 477.243 174.427 478.175 174.376Z" fill="#161616"/>
<path d="M642.575 530.611C642.575 536.374 642.575 542.086 642.575 547.849C605.275 564.016 597.675 569.779 598.235 571.87C598.375 572.38 599.354 573.91 618.936 571.411C638.332 568.912 654.045 565.291 664.955 562.333C663.044 550.552 661.085 538.771 659.174 526.99C653.625 528.214 648.077 529.438 642.575 530.611Z" fill="#C5C5C5"/>
<path d="M659.314 286.678C658.241 288.871 657.868 290.656 657.775 291.064C651.108 322.072 642.389 340.381 636.7 376.336C625.837 445.594 635.208 524.287 636.094 531.682C639.078 533.11 644.813 535.252 652.133 534.946C658.568 534.64 663.556 532.549 666.401 531.07C665.328 508.477 666.401 480.58 673.534 449.827C682.253 412.138 693.303 399.643 703.234 355.579C710.601 322.939 719.133 284.944 704.4 273.673C693.117 264.901 666.68 271.327 659.314 286.678Z" fill="#8A3566"/>
<path opacity="0.2" d="M685.097 302.947C677.637 340.177 670.69 379.855 664.815 421.828C659.267 461.302 655.117 499.093 652.04 534.997C656.749 533.926 661.412 532.855 666.121 531.784C665.515 515.923 666.167 502.408 667.1 492.055C668.219 479.203 671.063 449.266 682.486 419.38C683.978 415.555 685.89 410.914 689.014 402.193C694.282 387.76 698.106 375.418 699.831 369.604C707.943 341.86 712 309.679 713.259 299.071C703.84 300.295 694.469 301.621 685.097 302.947Z" fill="#6D6C6C"/>
<path opacity="0.19" d="M700.483 367.768C682.206 393.829 673.674 417.442 669.384 433.303C665.468 447.736 663.743 460.486 661.505 477.01C658.334 500.47 657.122 520.258 656.609 534.334C659.687 533.518 662.717 532.651 665.794 531.835C665.281 512.098 666.54 495.217 668.079 482.059C669.944 466.453 672.089 448.348 679.549 426.571C682.253 418.666 683.559 416.422 689.713 399.337C694.469 385.975 698.106 375.01 700.483 367.768Z" fill="#6D6C6C"/>
<path d="M743.285 524.746C745.896 531.835 748.554 538.924 751.165 546.064C729.251 561.313 718.9 570.187 720.066 572.788C721.511 576.001 740.441 569.626 776.855 553.765C772.985 539.995 769.115 526.276 765.245 512.506C757.925 516.586 750.605 520.666 743.285 524.746Z" fill="#C5C5C5"/>
<path d="M725.288 287.29C736.711 298.714 736.338 314.728 737.783 341.248C737.783 341.248 741.327 406.477 753.216 458.905C756.2 472.012 761.609 492.361 771.633 516.739C769.955 519.085 765.385 524.797 757.366 527.806C749.16 530.866 742.166 529.234 739.555 528.469C725.288 501.847 715.17 479.152 708.643 463.444C678.383 390.922 675.959 352.723 675.959 332.782C675.959 312.28 676.285 287.698 690.226 279.487C700.717 273.316 716.103 278.11 725.288 287.29Z" fill="#8C3566"/>
<path opacity="0.15" d="M692.93 295.093C698.105 316.87 703.7 339.004 709.668 361.444C725.241 419.686 742.166 474.715 759.93 526.327C761.655 525.358 763.753 524.032 765.898 522.247C768.09 520.411 769.815 518.575 771.12 516.943C768.696 510.772 765.339 501.847 761.795 490.882C756.433 474.103 747.714 443.248 743.192 402.142C738.856 362.668 736.664 342.931 736.851 330.487C736.991 320.236 737.83 299.377 725.707 288.157C723.19 285.862 720.719 284.485 718.993 283.669C710.275 287.494 701.602 291.319 692.93 295.093Z" fill="#6D6C6C"/>
<path opacity="0.22" d="M737.41 343.747C735.266 367.462 734.566 399.235 739.788 435.955C745.057 472.879 754.615 503.02 763.241 524.95C765.898 522.553 768.556 520.156 771.214 517.708C768.043 509.497 763.893 498.073 759.744 484.099C751.771 457.222 748.321 436.261 745.337 417.442C742.306 398.164 739.136 373.225 737.41 343.747Z" fill="#6D6C6C"/>
<path d="M519.112 100.987C517.247 102.007 514.683 103.792 512.678 106.852C511.606 108.433 510.3 110.524 510.114 113.482C510.067 114.655 509.927 117.205 511.419 118.888C511.839 119.398 512.958 120.367 518.459 120.163C523.355 119.959 525.826 119.857 527.085 118.429C529.509 115.675 528.624 110.473 527.085 107.362C524.661 102.415 519.905 101.191 519.112 100.987Z" fill="white" stroke="#161616" stroke-width="2" stroke-miterlimit="10"/>
<path d="M547.274 113.788C553.848 121.999 564.385 126.895 583.734 135.616C608.119 146.632 620.335 152.14 634.789 154.078C650.408 156.169 658.754 153.976 661.645 159.535C665.421 166.726 656.563 180.19 647.424 191.461C640.617 189.829 633.577 187.789 626.303 185.137C586.439 170.704 557.624 145.306 538.695 124.192C536.317 124.753 532.26 125.314 527.644 123.784C523.681 122.509 518.086 119.245 518.413 116.644C518.832 113.482 528.95 112.921 529.556 112.87C526.479 111.493 522.05 109.147 517.247 105.322C515.848 104.2 507.829 97.723 508.808 95.683C509.647 93.898 516.921 96.346 523.775 98.641C530.022 100.732 534.358 102.211 539.114 105.781C543.683 109.147 546.341 112.615 547.274 113.788Z" fill="white" stroke="#161616" stroke-width="2" stroke-miterlimit="10"/>
<path d="M515.009 101.548C516.128 102.925 516.361 104.761 517.34 106.189C518.18 107.464 519.392 108.382 520.651 109.147C524.427 111.442 528.437 113.329 532.307 115.42C532.96 115.777 533.799 114.808 533.146 114.196C531.141 112.309 528.997 110.626 526.759 109.096C526.013 108.586 525.267 109.912 526.059 110.422C528.204 111.901 530.256 113.482 532.167 115.267C532.447 114.859 532.727 114.451 533.006 114.043C529.323 112.105 525.64 110.218 522.003 108.127C520.278 107.158 518.739 106.036 517.853 104.098C517.247 102.772 516.921 101.497 515.988 100.375C515.382 99.763 514.403 100.834 515.009 101.548Z" fill="white"/>
<path d="M518.646 106.903C520.791 107.923 522.842 109.249 524.707 110.83C525.406 111.442 526.386 110.371 525.686 109.759C523.728 108.076 521.63 106.699 519.345 105.577C518.506 105.169 517.807 106.495 518.646 106.903Z" fill="white"/>
<path d="M513.144 100.63C514.916 103.741 517.247 106.291 519.998 108.331C520.744 108.892 521.443 107.566 520.697 107.005C518.133 105.118 515.988 102.721 514.356 99.814C513.89 99.049 512.678 99.814 513.144 100.63Z" fill="white"/>
<path d="M515.242 104.812C516.175 106.189 517.201 107.464 518.366 108.586C519.205 109.402 522.889 112.309 520.977 113.788C520.604 114.043 520.977 114.706 521.35 114.451C522.656 113.482 522.143 111.748 521.35 110.575C520.744 109.708 519.905 109.045 519.112 108.28C517.9 107.107 516.828 105.832 515.848 104.455C515.569 103.996 514.963 104.404 515.242 104.812Z" fill="#161616"/>
<path d="M514.263 110.116C515.662 112.207 518.319 115.165 520.93 114.298C521.35 114.145 521.164 113.431 520.744 113.584C518.506 114.349 516.035 111.544 514.869 109.759C514.589 109.351 513.983 109.708 514.263 110.116Z" fill="#161616"/>
<path d="M512.212 113.686C513.75 115.981 515.988 117.307 518.599 117.46C519.065 117.511 519.065 116.746 518.599 116.695C516.268 116.542 514.217 115.318 512.818 113.278C512.538 112.87 511.932 113.278 512.212 113.686Z" fill="#161616"/>
<path d="M510.72 118.276C512.911 120.775 516.548 120.826 518.739 118.276C519.065 117.919 518.553 117.358 518.226 117.715C516.315 119.959 513.144 119.908 511.232 117.715C510.906 117.358 510.393 117.919 510.72 118.276Z" fill="#161616"/>
<path d="M511.186 100.528C516.361 104.251 520.091 110.524 526.572 111.748C526.992 111.85 527.225 111.085 526.759 111.034C520.371 109.861 516.641 103.588 511.559 99.916C511.139 99.559 510.813 100.222 511.186 100.528Z" fill="#161616"/>
<path opacity="0.2" d="M510.626 117.205C508.948 114.706 510.347 109.351 514.403 104.302C518.972 107.209 523.495 110.167 528.064 113.074C527.225 113.074 519.858 113.176 519.345 115.675C519.252 116.083 519.345 116.695 520.045 117.562C522.376 118.786 526.292 120.418 531.328 120.571C533.939 120.622 536.223 120.265 537.995 119.806C547.507 130.312 564.245 146.173 588.863 157.699C610.497 167.797 629.893 170.704 642.715 171.52C642.295 177.538 641.876 183.505 641.456 189.523C620.335 183.403 591.707 171.775 563.266 148.417C553.568 140.461 545.269 132.25 538.182 124.345C531.654 125.518 527.598 124.294 525.033 122.866C522.842 121.642 521.443 120.112 518.553 119.857C516.641 119.704 515.009 120.214 512.911 119.092C512.678 118.99 511.326 118.225 510.626 117.205Z" fill="#6D6C6C"/>
<path opacity="0.14" d="M570.679 153.211C577.207 157.036 584.76 160.912 593.386 164.227C612.176 171.52 629.194 173.815 642.202 174.325C642.016 179.527 641.876 184.78 641.689 189.982C628.168 186.514 611.197 180.445 593.199 169.429C584.574 164.176 577.114 158.617 570.679 153.211Z" fill="#6D6C6C"/>
<path d="M644.393 167.746C641.736 174.325 641.596 179.782 641.363 189.574C641.176 196.969 641.643 204.925 645.279 225.835C649.709 251.131 651.807 255.211 652.506 268.624C653.066 279.13 652.32 287.749 651.62 293.461C657.495 296.98 667.333 301.774 680.202 302.845C702.955 304.732 719.786 293.767 725.568 289.585C726.267 273.571 726.966 257.506 727.712 241.492C725.148 227.824 722.117 217.114 719.926 210.076C713.025 187.891 706.591 177.385 710.694 166.267C712.979 160.096 717.501 156.322 720.625 154.231C718.434 152.395 695.448 133.78 670.364 143.419C667.753 144.388 651.247 150.763 644.393 167.746Z" fill="white" stroke="#161616" stroke-width="2" stroke-miterlimit="10"/>
<path opacity="0.19" d="M670.27 143.368C677.264 155.608 681.181 166.42 683.419 173.968C683.419 173.968 694.376 210.382 686.356 259.24C684.631 269.644 681.554 284.434 675.492 301.366C677.824 301.927 680.621 302.386 683.792 302.539C683.792 302.539 688.687 302.794 694.189 302.029C700.903 301.06 712.419 297.133 725.987 289.585C726.22 272.5 726.454 255.466 726.687 238.381C723.236 223.948 719.74 212.371 717.129 204.262C710.834 184.933 706.405 175.855 710.042 166.267C712.419 159.994 717.268 156.118 721.045 153.874C716.103 150.304 706.964 144.745 694.469 142.603C684.165 140.869 675.679 142.093 670.27 143.368Z" fill="#6D6C6C"/>
<path opacity="0.11" d="M676.658 142.195C684.165 152.293 692.93 167.032 698.339 186.463C713.678 241.951 688.454 290.605 682.626 301.264C687.522 301.213 693.257 300.754 699.504 299.428C710.648 297.082 719.553 292.9 725.941 289.177C726.174 273.265 726.407 257.353 726.64 241.492C722.677 226.753 718.947 212.779 713.865 193.807C710.414 180.802 707.71 170.143 712.792 161.626C715.263 157.495 718.714 155.2 721.325 153.874C706.451 149.947 691.531 146.071 676.658 142.195Z" fill="#6D6C6C"/>
<path d="M673.208 246.388C673.068 235.474 672.975 224.611 672.835 213.697C696.753 212.371 720.672 211.045 744.637 209.719C745.476 219.817 746.316 229.915 747.202 240.013C722.537 242.155 697.872 244.246 673.208 246.388Z" fill="white" stroke="#161616" stroke-width="2" stroke-miterlimit="10"/>
<path d="M665.934 242.818C665.934 238.84 665.934 234.862 665.934 230.884C696.66 228.385 727.386 225.835 758.112 223.336C758.345 228.232 758.578 233.179 758.858 238.075C727.899 239.605 696.893 241.237 665.934 242.818Z" fill="white" stroke="#161616" stroke-width="2" stroke-miterlimit="10"/>
<path d="M668.499 224.866C668.872 230.731 669.245 236.545 669.571 242.41C698.012 239.911 726.407 237.361 754.848 234.862C755.081 229.558 755.314 224.254 755.594 218.899C726.547 220.888 697.499 222.877 668.499 224.866Z" fill="white" stroke="#161616" stroke-width="2" stroke-miterlimit="10"/>
<path d="M661.552 238.024C662.391 261.28 663.23 284.536 664.116 307.792C695.821 303.916 727.526 300.091 759.231 296.215C760.21 273.367 761.189 250.519 762.168 227.671C728.598 231.139 695.075 234.556 661.552 238.024Z" fill="white" stroke="#161616" stroke-width="2" stroke-miterlimit="10"/>
<path d="M666.96 247.102C681.367 245.011 695.774 243.532 710.275 242.614C710.927 242.563 710.927 241.441 710.275 241.441C695.774 242.359 681.321 243.838 666.96 245.929C666.307 246.031 666.307 247.204 666.96 247.102Z" fill="#161616"/>
<path d="M683.046 250.213C694.096 248.683 705.146 247.102 716.243 245.572C716.895 245.47 716.895 244.348 716.243 244.399C705.192 245.929 694.142 247.51 683.046 249.04C682.393 249.193 682.393 250.315 683.046 250.213Z" fill="#161616"/>
<path d="M736.152 282.853C735.965 286.066 735.965 289.33 736.245 292.543C736.291 293.257 737.364 293.257 737.317 292.543C737.037 289.33 736.991 286.066 737.224 282.853C737.27 282.139 736.198 282.139 736.152 282.853Z" fill="#161616"/>
<path d="M736.618 282.955C742.399 283.108 748.134 282.751 753.869 281.935C753.682 281.731 753.496 281.527 753.356 281.374C753.263 284.332 753.356 287.239 753.543 290.146C753.589 290.86 754.662 290.86 754.615 290.146C754.382 287.239 754.335 284.281 754.428 281.374C754.428 281.068 754.195 280.762 753.916 280.813C748.181 281.629 742.446 281.935 736.664 281.833C735.918 281.782 735.918 282.904 736.618 282.955Z" fill="#161616"/>
<path d="M737.037 293.461C742.772 293.563 748.414 292.9 754.009 291.523C754.662 291.37 754.382 290.248 753.729 290.401C748.227 291.727 742.679 292.39 737.037 292.288C736.385 292.288 736.385 293.41 737.037 293.461Z" fill="#161616"/>
<path d="M739.229 286.525C742.772 286.78 746.269 286.576 749.813 285.964C750.465 285.862 750.186 284.74 749.533 284.842C746.129 285.454 742.679 285.607 739.229 285.352C738.576 285.301 738.576 286.474 739.229 286.525Z" fill="#161616"/>
<path d="M741.467 289.738C745.15 289.636 748.694 288.871 752.191 287.494C752.797 287.239 752.563 286.117 751.911 286.372C748.554 287.749 745.057 288.463 741.467 288.616C740.814 288.565 740.767 289.738 741.467 289.738Z" fill="#161616"/>
<path opacity="0.2" d="M676.611 305.14C677.451 283.618 678.29 262.096 679.082 240.523C706.311 238.126 733.587 235.78 760.816 233.383C760.21 253.783 759.557 274.183 758.951 294.583C731.489 298.102 704.073 301.621 676.611 305.14Z" fill="#6D6C6C"/>
<path opacity="0.2" d="M750.559 219.46C750.698 225.376 750.419 232.414 749.02 240.217C745.57 259.393 737.27 273.214 731.629 281.017C735.452 286.576 739.275 292.135 743.145 297.694C731.442 299.173 719.739 300.652 708.037 302.131C709.902 278.773 711.767 255.415 713.632 232.108C713.025 229.048 712.373 225.988 711.767 222.928C724.682 221.704 737.644 220.582 750.559 219.46Z" fill="#6D6C6C"/>
<path d="M718.108 152.854C727.852 151.426 739.462 175.906 744.078 193.501C749.393 213.748 747.062 231.241 745.15 240.472C741.42 258.577 733.68 271.327 728.831 278.212C729.577 280.915 731.303 288.259 728.458 296.317C724.262 308.098 712.886 313.759 712 312.688C711.72 312.331 712.279 310.852 716.709 305.293C715.776 306.364 709.062 313.657 701.509 311.923C700.204 311.617 698.572 311.26 697.639 309.832C695.448 306.364 699.085 298.51 706.824 289.789C698.385 292.084 696.147 291.472 695.728 290.452C694.655 288.004 703.281 281.068 706.405 278.518C711.021 274.795 715.17 272.245 718.014 270.664C725.987 252.559 725.568 238.432 724.868 231.802C723.842 222.01 720.486 211.351 719.833 209.311C717.968 203.446 717.082 202.12 713.352 191.563C707.337 174.631 707.337 171.724 707.57 169.48C708.41 162.748 712.559 153.67 718.108 152.854Z" fill="white" stroke="#161616" stroke-width="2" stroke-miterlimit="10"/>
<path d="M697.826 308.404C703.001 305.191 707.524 301.06 711.3 296.062C711.86 295.297 710.881 294.226 710.321 294.991C706.638 299.887 702.209 303.967 697.126 307.129C696.334 307.537 697.033 308.863 697.826 308.404Z" fill="#161616"/>
<path d="M702.395 311.821C707.524 308.914 711.907 304.885 715.45 299.887C716.009 299.122 714.797 298.357 714.238 299.122C710.881 303.916 706.591 307.741 701.696 310.495C700.903 310.954 701.602 312.28 702.395 311.821Z" fill="#161616"/>
<path opacity="0.17" d="M714.191 155.302C704.913 164.125 742.772 202.834 736.291 246.796C731.862 276.937 713.492 296.623 713.492 296.623C708.363 302.233 698.712 309.118 699.877 311.515C700.717 313.249 706.545 311.668 708.643 310.954C712.606 309.628 715.357 307.384 716.895 305.905C714.564 308.761 711.907 312.28 712.466 312.994C713.259 313.912 719.879 310.138 724.029 304.834C731.209 295.654 730.184 282.904 729.484 277.702C731.163 275.305 733.354 271.939 735.592 267.655C737.643 263.83 743.565 251.896 746.129 235.678C750.652 206.965 741.373 184.321 737.643 175.447C734.286 167.542 728.598 154.435 719.973 153.874C718.854 153.721 716.01 153.568 714.191 155.302Z" fill="#6D6C6C"/>
<path opacity="0.22" d="M745.616 234.862C743.099 242.869 740.115 251.284 736.571 260.107C734.053 266.38 731.489 272.245 728.878 277.804C727.573 282.394 725.101 289.279 720.206 296.368C715.077 303.814 709.435 308.353 705.659 310.954C706.731 311.005 708.037 310.903 709.482 310.495C713.119 309.577 715.543 307.384 716.756 306.058C715.357 307.996 713.911 309.883 712.513 311.821C713.632 311.617 715.403 311.26 717.362 310.291C727.619 305.242 729.764 291.523 729.904 290.605C730.277 288.106 730.51 283.822 729.111 278.518C732.468 274.183 736.711 267.706 740.115 258.985C743.891 249.397 745.15 240.778 745.616 234.862Z" fill="#6D6C6C"/>
<path d="M633.67 119.296C626.163 128.68 631.339 141.787 632.038 143.572C634.649 150.202 641.41 159.637 649.989 158.872C656.236 158.26 660.199 152.497 661.178 150.967C668.079 140.104 665.794 119.347 654.138 113.992C647.704 111.034 638.845 112.768 633.67 119.296Z" fill="#58265B"/>
<path d="M652.599 127.66C652.926 131.689 656.796 132.556 659.407 139.186C661.272 143.98 661.272 148.672 660.945 152.038C663.976 152.344 669.571 152.497 675.912 149.845C680.901 147.754 684.398 144.745 686.496 142.654C685.517 140.257 684.071 136.738 682.346 132.556C674.886 114.757 673.674 113.227 671.856 112.462C664.582 109.453 651.993 120.163 652.599 127.66Z" fill="white" stroke="#161616" stroke-width="2" stroke-miterlimit="10"/>
<path d="M625.744 74.977C624.158 77.425 623.179 80.434 623.039 93.337C622.946 104.353 623.506 114.4 624.438 123.325C626.536 121.999 628.634 120.673 630.732 119.347C631.665 121.846 633.25 125.263 635.954 128.578C641.316 135.157 647.844 137.401 650.735 138.217C653.765 137.401 661.318 134.851 667.053 127.048C670.83 121.846 672.042 116.695 672.322 115.522C674.047 107.821 672.369 101.446 671.483 98.794C672.602 98.233 674.327 97.162 675.632 95.224C678.383 91.144 679.129 83.851 675.726 81.403C673.208 79.567 668.732 80.638 665.375 84.412C664.629 82.525 663.463 79.924 661.598 77.221C661.132 76.558 657.635 71.56 653.346 68.959C645.093 63.757 631.432 66.205 625.744 74.977Z" fill="white" stroke="#161616" stroke-width="2" stroke-miterlimit="10"/>
<path d="M622.34 90.991C620.475 90.634 617.025 89.563 615.393 86.452C612.595 81.199 616.698 73.192 617.724 71.203C618.563 69.52 620.801 65.491 630.313 58.198C637.54 52.639 641.176 49.885 645.093 48.559C658.987 44.02 671.716 51.874 674.094 53.353C679.083 56.464 682.253 59.83 684.771 62.482C688.641 66.562 692.977 71.254 697.826 76.66C710.275 94.306 714.657 110.422 716.429 120.061C718.434 130.975 720.486 142.093 714.518 148.621C708.55 155.149 697.639 153.823 690.972 150.712C681.694 146.377 677.73 137.197 674.653 130.108C669.431 117.97 669.105 106.342 669.618 98.794C674.28 97.315 676.658 92.521 675.586 88.9C674.746 86.044 671.622 83.188 668.405 84.208C665.934 84.973 664.163 87.778 664.302 91.042C662.064 90.991 656.096 90.43 650.408 85.738C646.259 82.321 644.16 78.241 643.181 75.997C640.617 76.354 635.488 77.374 630.313 81.454C625.977 84.718 623.552 88.645 622.34 90.991Z" fill="#58265B"/>
<path opacity="0.24" d="M653.206 100.732C658.801 108.127 660.572 115.93 660.572 115.93C662.391 124.702 659.78 132.148 658.614 135.157C661.551 132.709 664.535 130.261 667.473 127.813C669.524 135.259 671.529 142.654 673.581 150.1C675.119 149.947 678.29 149.335 681.46 146.887C683.885 145 685.33 142.807 686.123 141.43C682.346 137.605 675.119 129.139 671.809 115.828C670.224 109.402 669.991 103.69 670.177 99.406C674.42 97.519 676.611 92.98 675.726 89.206C675.073 86.452 672.508 83.137 669.198 83.647C666.447 84.106 664.162 87.064 664.209 90.685C662.111 90.685 657.169 90.43 651.993 87.013C646.632 83.494 644.067 78.598 643.088 76.507C643.321 86.299 646.072 91.96 648.543 95.326C650.175 97.621 650.921 97.723 653.206 100.732Z" fill="#6D6C6C"/>
<path d="M631.525 98.59C631.012 100.63 631.059 102.721 631.758 104.71C631.991 105.424 632.877 105.475 633.11 104.71C633.67 102.874 633.67 100.936 633.157 99.1C632.877 98.182 631.525 98.539 631.805 99.508C632.271 101.14 632.224 102.721 631.758 104.353C632.224 104.353 632.644 104.353 633.11 104.353C632.504 102.619 632.411 100.834 632.877 99.049C633.11 98.029 631.805 97.621 631.525 98.59Z" fill="#161616"/>
<path d="M629.846 95.428C631.059 94.612 632.551 94.765 633.576 95.836C634.229 96.499 635.208 95.428 634.556 94.765C633.11 93.235 630.872 92.929 629.147 94.102C628.401 94.612 629.1 95.938 629.846 95.428Z" fill="#161616"/>
<path d="M634.882 108.382C635.768 108.382 635.768 106.852 634.882 106.852C633.949 106.852 633.949 108.382 634.882 108.382Z" fill="#161616"/>
<path d="M637.959 103.945C637.959 103.996 637.959 104.047 637.959 104.098C637.959 104.506 638.286 104.863 638.659 104.863C639.032 104.863 639.358 104.506 639.358 104.098C639.358 104.047 639.358 103.996 639.358 103.945C639.358 103.537 639.032 103.18 638.659 103.18C638.286 103.18 637.959 103.486 637.959 103.945Z" fill="#161616"/>
<path d="M638.099 107.77C638.985 107.77 638.985 106.24 638.099 106.24C637.213 106.24 637.213 107.77 638.099 107.77Z" fill="#161616"/>
<path d="M618.89 100.936C618.33 102.976 618.377 105.067 619.029 107.056C619.263 107.77 620.148 107.77 620.382 107.056C620.941 105.22 620.988 103.282 620.522 101.446C620.288 100.477 618.936 100.885 619.169 101.854C619.589 103.486 619.542 105.067 619.029 106.648C619.496 106.648 619.915 106.648 620.382 106.648C619.822 104.914 619.729 103.129 620.242 101.344C620.475 100.375 619.123 99.967 618.89 100.936Z" fill="#161616"/>
<path d="M618.097 97.111C619.076 96.55 620.428 96.805 621.081 97.825C621.594 98.59 622.806 97.825 622.293 97.06C621.128 95.377 619.123 94.816 617.398 95.785C616.605 96.244 617.304 97.57 618.097 97.111Z" fill="#161616"/>
<path d="M633.81 124.855C637.4 124.141 640.524 122.05 642.855 118.939C643.275 118.378 642.528 117.562 642.109 118.123C639.917 121.081 636.98 123.019 633.53 123.733C632.877 123.886 633.157 125.008 633.81 124.855Z" fill="#161616"/>
<path d="M641.083 118.225C641.922 118.531 642.622 118.99 643.228 119.653C643.694 120.163 644.44 119.347 643.974 118.837C643.228 118.021 642.342 117.46 641.363 117.103C640.71 116.899 640.43 118.021 641.083 118.225Z" fill="#161616"/>
<path opacity="0.45" d="M670.131 51.517C676.052 60.493 683.652 73.192 690.879 89.41C698.525 106.546 704.12 119.449 699.784 124.549C694.049 131.332 674.234 120.571 671.063 118.786C671.716 123.427 673.348 130.822 678.15 138.217C680.575 141.94 684.817 148.519 692.65 151.579C697.359 153.415 701.556 153.313 703.188 153.16C705.379 153.007 707.897 152.803 710.648 151.171C710.648 151.171 714.238 149.08 716.662 144.796C720.346 138.268 718.387 129.445 715.776 118.378C712.652 105.118 708.456 96.295 704.353 87.574C703.327 85.432 702.115 82.933 700.157 80.026C698.199 77.068 696.753 75.487 690.692 69.112C681.694 59.575 680.295 58.198 677.591 56.209C674.607 53.965 671.949 52.486 670.131 51.517Z" fill="#58265B"/>
<path opacity="0.43" d="M658.894 138.268C659.267 139.441 660.106 142.756 658.894 146.428C657.075 151.885 652.04 153.721 651.247 153.976C645.513 156.016 638.286 152.803 633.437 145.816C634.089 147.652 635.535 150.916 638.519 153.772C640.011 155.2 644.067 159.025 649.802 158.566C650.781 158.464 657.075 157.954 659.966 151.987C662.064 147.754 661.598 142.45 658.894 138.268Z" fill="#58265B"/>
</svg>
