<svg id="Layer_1" data-name="Layer 1" xmlns="http://www.w3.org/2000/svg" viewBox="0 0 445.41 371.12"><defs><style>.cls-1{fill:none;stroke:#231f20;stroke-miterlimit:10;stroke-width:2px;}</style></defs><path class="cls-1" d="M173,596.42H389.7S371,512,375.13,497.17l10.72-20.94s6.64-5.61-5.62-11.23-61.78-23-62.8-29.11c0,0-3.58-6.63-8.17,0s-22.47,33.71-19.41,37.28,71.49,41.51,71.49,41.51,6.64,1.89,4.6,7-22-4.59-22-4.59l-62.61-34.22s-5.14-3.06,2.35-8.34c0,0,2.22-5.79,6.3.85l70.47,34.39s4.59,4.59,11.57-7.83,16.68-34.73,16.68-34.73,4.75-7.83-10-8.34c0,0-57.19-20.93-57.19-31.15,0,0,21.7,7.92,23.49,2,0,0-6.38-12.26,2.81-13,0,0-5.11-11,4.08-9.44,0,0-2.29-14.3,6.9-12.51,0,0-.51-15.83,9.7-8.68,0,0,11.49,2.8-2.55,12L364.4,400l5.62,4.74s7.66,11.24-3.83,12.52l-10.47-6.13,9.45,7.4s8.43,11-4.34,9.45l-5.36-2.81-2.81-1.53s8.94,6.89,4.85,7.4-10,1.28-10,1.28-20.33-1-11.82,4.08,25.1,16.6,37.1,17.88c0,0,8.68,1.78,1.79-5.88,0,0-10.47-5.36,1-27.83,0,0,21.45-27.31,5.62-30.89,0,0-19.15-9.7-12-15.83,0,0,30.38-6.38,33.19,17.87s-5.62,26.81,4.08,54.13,16.34,87.81,22,96c17,24.77,21.45,54.57,21.45,54.57H618.45" transform="translate(-173.04 -226.3)"/><path class="cls-1" d="M489.51,325.09" transform="translate(-173.04 -226.3)"/><path class="cls-1" d="M489.36,317.35C480,332,467,345,454,357c-16,13-33,24-53,26-5-7-12-11-20-10-4,0-6-5-8-8-4-11-4-22-6-33a196.73,196.73,0,0,1-1-42c2-10,4-21,10.66-28.74-1.86,1.09-1.22,1.55,0,0C374,263,371,267,366,264c2-7,7-13,8-20,0-5-6-10-11-9-9,3-17,9-19,19-5,30,12,56,21,83,2,7,4,14,1,21-3,5-8,8-14,7-4-1-8-3-8-7,0-1,2-1,3-1,4,3,8,3,12,2,3-2,3-6,4-9,1-15-9-27-16-40-1-3-1-5-2-8,0-1-2-2-2-3-4-21-13-41-2-61,6-10,17-12,28-10,9,3,13,12,14,21l9.19-10s100.86,42.39,106,58.22v9.19" transform="translate(-173.04 -226.3)"/><path class="cls-1" d="M497.56,305.53c11.66-1.84,25.68-1.61,30,11.7s-6.07,27.15-15.79,35.16c-5.62,4.63-13.32,7-20,9.49-7.25,2.73-14.62,5.13-22.05,7.3-14.78,4.3-30.78,6.34-44.67,13.22-2.9,1.44-5.57,3-5.19,6.67a9.45,9.45,0,0,0,4,6.53c1.22.72,4.31.59,4.63,2.24.52,2.65-3.45,3-5,2.61-5.09-1.26-10.66-5.65-9.42-11.38,1.29-6,7.75-11.25,12.74-14.17,5.81-3.41,12-4.33,18.48-5.49,7-1.27,14.1-2.5,21.08-4.1,13.39-3.08,27.46-7.66,38.21-16.56,8.51-7,16.65-19.35,12.77-30.84-2.11-6.24-7.58-9.73-14.16-7.56-6.19,2-7.24,8.31-8.68,13.83A19.66,19.66,0,0,1,491,332c-4.31-3.22-2.82-9.79-1.75-14.2" transform="translate(-173.04 -226.3)"/></svg>