<svg id="Layer_2" data-name="Layer 2" xmlns="http://www.w3.org/2000/svg" viewBox="0 0 710.82 337.23"><defs><style>.cls-1{fill:none;stroke:#231f20;stroke-miterlimit:10;stroke-width:2px;}</style></defs><path class="cls-1" d="M236.57,459.21" transform="translate(-36.32 -249.02)"/><path class="cls-1" d="M260.06,444.57" transform="translate(-36.32 -249.02)"/><path class="cls-1" d="M246.79,414.28" transform="translate(-36.32 -249.02)"/><path class="cls-1" d="M260.06,408.44" transform="translate(-36.32 -249.02)"/><path class="cls-1" d="M223,431c-10.44-11.39-6.77,19-6.2,23.31a.52.52,0,0,1-.45.59l-11.41,1.55a1.13,1.13,0,0,1-1.12-1.71,16.4,16.4,0,0,0,2.09-6.38,3.68,3.68,0,0,0-.1-1.28c-1.43-6.18,4.2-18.63,4.57-19.45a.56.56,0,0,0,0-.08c8.46-11.25,12.47-3.79,13.59-.93a.52.52,0,0,0,.93.07c2.92-5.29-.3-15.57-.57-16.41a.25.25,0,0,1,0-.12c-.31-35.18,10.09-48.29,11.15-49.53a.53.53,0,0,0,.11-.24l2.67-14.7a.53.53,0,0,1,.13-.26c.82-.9,6.75-6.71,23.39-7s20.26-15.43,20.71-17.75a.54.54,0,0,0-.17-.49c-19.4-17.05.56-32.17,1.86-33.12a.42.42,0,0,1,.14-.06c1.48-.38,23.68-5.9,31.24,0,6.26,4.9,1.42,7.62-.77,8.51a.51.51,0,0,0-.16.84c3.37,3.09,3.05,15.78,3,17.65a.47.47,0,0,0,.19.38c3.11,2.61-1.7,6.1-3.18,7.08a.52.52,0,0,0-.16.7c1.46,2.84.68,8.06.47,9.3a.51.51,0,0,1-.3.38c-12.61,5.46-19.87-6.09-21-8.12a.54.54,0,0,0-.49-.26c-1.41.13-7.08.11-8.87-8.21-1.59-7.42,5.7-4.11,9-2.28a.52.52,0,0,0,.73-.65c-1.77-4.65,2.92-7.84,4-8.51a.52.52,0,0,0,.24-.4c.68-9.44,8.38-8.29,11.2-7.54a.53.53,0,0,0,.61-.73c-4.51-9.56-18.44-6.42-18.44-6.42a14.13,14.13,0,0,0-5.18,2.63s-5.87,5.11-7.41,10.05c-2.28,7.29-1.62,15-1.26,15.82,0,.06,1.74,21,1.74,21-.85,0-1.53-.89-2.08-2.12-1.41-3.22-1.88-9.13-2-10.63A.47.47,0,0,0,275,325c-5.26-1.09-3.79,17.74-3.73,18.46v0c0,.73-.9,19.06,5.44,3,5.91-14.91,13.51,7,14.8,11a.52.52,0,0,0,.74.28c.81-.45,1.57-.91,2.29-1.4,10.6-7.16,10.51-17.34,10-21.22a.51.51,0,0,1,.86-.43,31,31,0,0,0,26.24,8.42.48.48,0,0,1,.37.07l7.21,4.59a.58.58,0,0,0,.22.08c20,2.7,34.63,1,45.5-5.46,9.24-5.49,11.38,1,11.81,3.13a.52.52,0,0,1-.65.6c-2.39-.6-4.45-6.26-4.93-7.67a.53.53,0,0,1,.14-.55l6.18-5.71a.52.52,0,0,1,.74,0c9.44,10.39,13.12,4.94,13.82,3.61a.51.51,0,0,1,.45-.26c9.68-.07,12.76-3.12,13.22-3.66a.39.39,0,0,1,.2-.13c6.91-2.7-2.51-4.38-2.51-4.38-9-2.76,7.88-13.62,19.74-20.36a1,1,0,0,1,1.09,1.63l-1,.78a51.19,51.19,0,0,1-4.8,3.32c-15,9.35-8.76,14.59-7.44,15.51a.54.54,0,0,0,.48,0c8.68-3.23,7.44-9.62,7.26-10.39a.61.61,0,0,0-.07-.14c-4.3-6.69-23.56,1.91-25.35,2.73a.48.48,0,0,0-.21.19c-4.35,7.46-8.93,8-10.16,8a.49.49,0,0,0-.46.31c-1.92,4.8,5.76,11.48,7.59,13a.51.51,0,0,1,.07.71c-32.07,41-75.07,30.95-76.58,30.59l-.08,0c-.6-.29-9.53-4.29-10.52,8.87-1,13.49-7,35-2.18,42.34a.46.46,0,0,1,.05.44c-.76,1.91-6,15.39-5.18,17.79a.5.5,0,0,1-.32.64c-4,1.31-21.5,6.58-32.3,1.88a.52.52,0,0,1,.15-1c6.88-.77,31.91-3.85,36.47-7.91a.51.51,0,0,1,.84.24C322.1,443,329.64,478,318,520.77c0,0,0,.08,0,.12l-.32,11.35a.53.53,0,0,0,.49.54L336,534a.53.53,0,0,1,.3.93l-6.89,5.56a.52.52,0,0,0,.45.92c3.77-.95,11.05-3.1,11.56-5.61.67-3.39,15.21-8.48,24.74,8.33a.46.46,0,0,1,.05.38c-.41,1.42-3.35,9.81-14.85,4.26l-.12-.08c-.38-.37-3.32-2.92-7.44,2-3.1,3.67-8.71,2.19-11.79,1a.52.52,0,0,0-.58.83l6.42,7.32a.52.52,0,0,0,.41.18l56.9-2.33a.52.52,0,0,0,.38-.86l-11.4-13.61a.53.53,0,0,0-.44-.19l-22.58,2a.51.51,0,0,1-.47-.22l-5.47-8a.53.53,0,0,0-.41-.23l-10.24-.33h-.1L325,539.4a.52.52,0,0,1-.57-.72l2.93-7a.53.53,0,0,0-.44-.73l-17.23-1.4c-1.64-.13-4.34-.3-6-.38l-4-.19a.56.56,0,0,1-.28-.1c-1.47-1.06-15.95-11.13-17.24,1.79-1.35,13.55,5.72,6.2,5.45-2.6a.59.59,0,0,1,.05-.23c.46-.93,3.44-7.68-3.66-12.73a.53.53,0,0,1-.19-.25c-.61-1.77-6.56-18.92-10.76-23.58a.65.65,0,0,1-.11-.22c-.34-1.58-4-17.62-12.31-19.08a.53.53,0,0,0-.6.52v11.76a.52.52,0,0,1-.92.33c-3.63-4.5-16.81-20.78-18.82-22s-25.48-21.67-6.81-40.51c17.46-17.63,35.69-6.67,38-5.18a.52.52,0,0,1,.24.44l-.08,9.86a.52.52,0,0,1-.29.46c-1.88.93-12.53,6.64-11.29,16.88,0,0,.34,2.39-8.85,3.07-7.88.58-6.75,6.42-6.27,8.07a.52.52,0,0,1-.3.63c-2.74,1.07-17.25,5.8-24.37-11.67a.42.42,0,0,1,0-.19,39.84,39.84,0,0,1,3.09-13.21c3.5-8.43,11-18.51,26.89-22.75a.51.51,0,0,0,.37-.39c.44-2.62,3.42-20.94-.06-23.47-3.74-2.72-6.39,19.38-3.74,23.78s43.63-12.43,45.6,29.23a.51.51,0,0,0,.44.49c3.23.37,23.93,2.18,22-11.63-2-14.91-6.76-27.46,1.92-33.95a.48.48,0,0,0,.17-.23c1-2.72,15.9-44.77,14.25-44.12s-17.7-1.36-18-2.38a47.47,47.47,0,0,0,.82,5.43.52.52,0,0,1-.95.36c-3.36-5.36-11.77-14.55-18.93,12.25-9.2,34.39-1.39,55.4-1.39,55.4.58,1.55,1.64,4,2.37,5.51,0,0,2.73,5.54,1.74,9.56s-2.36,33.16,20.8,20.12a.51.51,0,0,1,.76.35c.7,4.62,4.15,30.11-3.76,41a.49.49,0,0,0-.09.31L315.2,520a.53.53,0,0,0,.52.51H476.05a.52.52,0,0,0,.52-.52V465a.52.52,0,0,0-.52-.52H349.35a.52.52,0,0,1-.52-.52l.76-213.43a.52.52,0,0,1,.53-.52h336a.52.52,0,0,1,.52.52V451.71a.52.52,0,0,1-.52.52H362.37a.52.52,0,0,1-.52-.52l.76-191.21a.53.53,0,0,1,.53-.52l310.71,1.53a.53.53,0,0,1,.52.52l1.52,203.47a.52.52,0,0,1-.52.52H553.88a.52.52,0,0,0-.52.54l1.5,54.1a.53.53,0,0,0,.52.51l191.75-1.53" transform="translate(-36.32 -249.02)"/><path class="cls-1" d="M36.32,585.26h81.51a4.59,4.59,0,0,0,4-2.83S145.85,515.81,223,560c.59.19.29-.74-.68-2.08,0,0-22.05-30.35-49.62-18.35l-2.14,3.51c-.86,1.4-.46,1.78.9.84l9.25-6.46a4.27,4.27,0,0,0,1.51-4.56s-21.79-65.18,17-70.18c0,0,48-14,49,26s-.31,36.82-.31,36.82c-.62-1.52-1.07-1.42-1,.22,0,0,1.06,23-7.88,20.67s-11.55,3.64-11.55,3.64a50.94,50.94,0,0,0-2,5.62l-2.17,7.51a3.69,3.69,0,0,0,1.87,4.19s17,8.14,17,17.85h17.17a4.9,4.9,0,0,0,4.16-2.77l6.87-16.42a3.58,3.58,0,0,1,4.06-2s27.74,7.16,52.5-1.77l.66-17.35a2.26,2.26,0,0,0-2.83-2.4s-40,8-49.4,4.43c0,0-15.58-24.51-19.41-25.53s7.66,21.19,15.07,15.83,4.08-48.26-6.9-51.07-9.95-29.53,4.09-25.87c0,0,9.7,1.87,8.68-5.28a27.71,27.71,0,0,1,1.85-13.6,4.4,4.4,0,0,0-1-4.74s-4.51-4.06-4.92-15.61" transform="translate(-36.32 -249.02)"/></svg>