<svg xmlns="http://www.w3.org/2000/svg" xmlns:xlink="http://www.w3.org/1999/xlink" viewBox="0 0 500 500"><defs><clipPath id="freepik--clip-path--inject-64"><rect x="95.41" y="84.58" width="301.49" height="208.01" transform="translate(6.43 -8.11) rotate(1.91)" style="fill:none"></rect></clipPath></defs><g id="freepik--background-complete--inject-64"><rect y="382.4" width="500" height="0.25" style="fill:#ebebeb"></rect><path d="M237,337.8H43.91a5.71,5.71,0,0,1-5.7-5.71V60.66A5.71,5.71,0,0,1,43.91,55H237a5.71,5.71,0,0,1,5.71,5.71V332.09A5.71,5.71,0,0,1,237,337.8ZM43.91,55.2a5.46,5.46,0,0,0-5.45,5.46V332.09a5.46,5.46,0,0,0,5.45,5.46H237a5.47,5.47,0,0,0,5.46-5.46V60.66A5.47,5.47,0,0,0,237,55.2Z" style="fill:#ebebeb"></path><path d="M453.31,337.8H260.21a5.72,5.72,0,0,1-5.71-5.71V60.66A5.72,5.72,0,0,1,260.21,55h193.1A5.71,5.71,0,0,1,459,60.66V332.09A5.71,5.71,0,0,1,453.31,337.8ZM260.21,55.2a5.47,5.47,0,0,0-5.46,5.46V332.09a5.47,5.47,0,0,0,5.46,5.46h193.1a5.47,5.47,0,0,0,5.46-5.46V60.66a5.47,5.47,0,0,0-5.46-5.46Z" style="fill:#ebebeb"></path><rect x="423.9" y="398.49" width="26" height="0.25" style="fill:#ebebeb"></rect><rect x="311" y="401.21" width="45.03" height="0.25" style="fill:#ebebeb"></rect><rect x="362.11" y="389.21" width="60.79" height="0.25" style="fill:#ebebeb"></rect><rect x="52.46" y="390.89" width="19.23" height="0.25" style="fill:#ebebeb"></rect><rect x="80.6" y="390.89" width="55.29" height="0.25" style="fill:#ebebeb"></rect><rect x="169.67" y="395.11" width="74.47" height="0.25" style="fill:#ebebeb"></rect><rect x="99.22" y="270.34" width="10.94" height="42.38" style="fill:#e6e6e6"></rect><polygon points="182.76 312.72 103.51 312.72 98.03 263.12 177.28 263.12 182.76 312.72" style="fill:#f0f0f0"></polygon><polygon points="186.69 312.72 106.24 312.72 100.76 263.12 181.21 263.12 186.69 312.72" style="fill:#f5f5f5"></polygon><polygon points="108.95 308.81 104.33 267.02 178.5 267.02 183.12 308.81 108.95 308.81" style="fill:#fff"></polygon><path d="M121.41,298.68l-.18-1.7c-1.16-10.48,5.38-19.83,13.89-19.83h0l.18,1.7c1.16,10.49-5.38,19.83-13.89,19.83Z" style="fill:#f5f5f5"></path><path d="M137.63,298.68l-.19-1.7c-1.16-10.48,5.39-19.83,13.89-19.83h0l.19,1.7c1.16,10.49-5.39,19.83-13.89,19.83Z" style="fill:#f5f5f5"></path><path d="M153.85,298.68l-.19-1.7c-1.16-10.48,5.39-19.83,13.89-19.83h0l.19,1.7c1.16,10.49-5.39,19.83-13.89,19.83Z" style="fill:#f5f5f5"></path><rect x="193.01" y="312.72" width="46.95" height="69.68" style="fill:#e6e6e6"></rect><polygon points="235.24 382.4 239.96 382.4 239.96 368.96 230.28 368.96 235.24 382.4" style="fill:#f0f0f0"></polygon><rect x="61.42" y="312.72" width="46.95" height="69.68" style="fill:#e6e6e6"></rect><rect x="104.25" y="312.72" width="135.71" height="61.44" style="fill:#f0f0f0"></rect><polygon points="108.97 382.4 104.25 382.4 104.25 368.96 113.92 368.96 108.97 382.4" style="fill:#f0f0f0"></polygon><rect x="107.91" y="316.56" width="128.38" height="24.79" style="fill:#e6e6e6"></rect><path d="M180.67,324.27H163.54a27.07,27.07,0,0,1-19.66-8.46h56.45A27.1,27.1,0,0,1,180.67,324.27Z" style="fill:#f0f0f0"></path><rect x="107.91" y="345.36" width="128.38" height="24.79" style="fill:#e6e6e6"></rect><path d="M180.67,353.06H163.54a27.07,27.07,0,0,1-19.66-8.46h56.45A27.1,27.1,0,0,1,180.67,353.06Z" style="fill:#f0f0f0"></path><polygon points="356.2 304.18 416.08 304.18 419.72 262.25 359.84 262.25 356.2 304.18" style="fill:#e6e6e6"></polygon><polygon points="353.1 304.18 412.98 304.18 416.62 262.25 356.74 262.25 353.1 304.18" style="fill:#f0f0f0"></polygon><polygon points="404.8 295.18 406.79 271.25 364.92 271.25 362.93 295.18 404.8 295.18" style="fill:#fff"></polygon><rect x="325.24" y="304.18" width="7.03" height="78.21" transform="translate(657.51 686.58) rotate(180)" style="fill:#e6e6e6"></rect><rect x="323.03" y="304.18" width="4.88" height="78.21" transform="translate(650.93 686.58) rotate(180)" style="fill:#f0f0f0"></rect><rect x="323.03" y="304.18" width="68.01" height="8.63" style="fill:#f0f0f0"></rect><rect x="388.63" y="312.81" width="7.03" height="69.58" transform="translate(784.28 695.21) rotate(180)" style="fill:#e6e6e6"></rect><rect x="386.41" y="312.81" width="4.88" height="69.58" transform="translate(777.7 695.21) rotate(180)" style="fill:#f0f0f0"></rect><rect x="438.64" y="312.81" width="7.03" height="69.58" transform="translate(884.31 695.21) rotate(180)" style="fill:#e6e6e6"></rect><rect x="436.42" y="312.81" width="4.88" height="69.58" transform="translate(877.73 695.21) rotate(180)" style="fill:#f0f0f0"></rect><rect x="369.71" y="312.81" width="7.03" height="69.58" transform="translate(746.44 695.21) rotate(180)" style="fill:#e6e6e6"></rect><rect x="367.49" y="312.81" width="4.88" height="69.58" transform="translate(739.86 695.21) rotate(180)" style="fill:#f0f0f0"></rect><rect x="391.03" y="304.18" width="54.63" height="8.63" transform="translate(836.7 617) rotate(180)" style="fill:#e6e6e6"></rect><polygon points="278.69 356.13 278.69 359.1 276.79 359.1 275.22 382.4 252.08 382.4 250.51 359.1 248.61 359.1 248.61 356.13 278.69 356.13" style="fill:#e6e6e6"></polygon><path d="M271.07,298.3c-1.9-13.88-20.63-17.84-44.4-18.35-22.61-.48-29.86-8.49-29.86-8.49s.07,32.41,32.66,44.14C260.42,326.74,273,312.2,271.07,298.3Z" style="fill:#e6e6e6"></path><path d="M259.52,329.77c.4-5.71,9.51-16.2,31.43-11.43,15.86,3.44,21.75-4.77,21.75-4.77s-1.47,23.19-25.31,30.16C264.75,350.36,258.82,339.81,259.52,329.77Z" style="fill:#e6e6e6"></path><path d="M264.52,364.88a.88.88,0,0,0,.65-.3c1.59-1.88.29-6.38-1.51-12.61-2.31-8-5.19-17.93-2.75-25.15a101.11,101.11,0,0,1,4.71-11.14c3.45-7.28,6.42-13.57,3.94-20.13a.85.85,0,1,0-1.58.6c2.22,5.89-.47,11.59-3.88,18.8a102.77,102.77,0,0,0-4.79,11.33c-2.61,7.72.35,18,2.72,26.16,1.4,4.85,2.85,9.86,1.85,11.05a.85.85,0,0,0,.64,1.39Z" style="fill:#e6e6e6"></path><rect x="335.68" y="61.05" width="97.08" height="174.59" style="fill:#e6e6e6"></rect><rect x="339.83" y="61.05" width="97.08" height="174.59" style="fill:#f5f5f5"></rect><rect x="307.94" y="107.24" width="160.84" height="82.2" transform="translate(536.71 -240.02) rotate(90)" style="fill:#fff"></rect><rect x="347.47" y="146.78" width="160.84" height="3.13" transform="translate(576.24 -279.55) rotate(90)" style="fill:#e6e6e6"></rect><rect x="342.9" y="161.43" width="90.92" height="25.18" style="fill:#f5f5f5"></rect><rect x="195.5" y="61.05" width="97.08" height="174.59" style="fill:#e6e6e6"></rect><rect x="199.64" y="61.05" width="97.08" height="174.59" style="fill:#f5f5f5"></rect><rect x="167.76" y="107.24" width="160.84" height="82.2" transform="translate(396.52 -99.84) rotate(90)" style="fill:#fff"></rect><rect x="207.29" y="146.78" width="160.84" height="3.13" transform="translate(436.05 -139.37) rotate(90)" style="fill:#e6e6e6"></rect><rect x="202.72" y="161.43" width="90.92" height="25.18" style="fill:#f5f5f5"></rect><rect x="55.32" y="61.05" width="97.08" height="174.59" style="fill:#e6e6e6"></rect><rect x="59.46" y="61.05" width="97.08" height="174.59" style="fill:#f5f5f5"></rect><rect x="27.58" y="107.24" width="160.84" height="82.2" transform="translate(256.34 40.34) rotate(90)" style="fill:#fff"></rect><rect x="67.11" y="146.78" width="160.84" height="3.13" transform="translate(295.87 0.81) rotate(90)" style="fill:#e6e6e6"></rect><rect x="62.54" y="161.43" width="90.92" height="25.18" style="fill:#f5f5f5"></rect></g><g id="freepik--Shadow--inject-64"><ellipse id="freepik--path--inject-64" cx="250" cy="416.24" rx="193.89" ry="11.32" style="fill:#f5f5f5"></ellipse></g><g id="freepik--Painting--inject-64"><rect x="93.19" y="79.5" width="315.11" height="224.89" transform="translate(6.05 -7.66) rotate(1.77)" style="fill:#E91E63"></rect><rect x="89.64" y="75.73" width="315.11" height="224.89" transform="translate(5.93 -7.55) rotate(1.77)" style="fill:#E91E63"></rect><rect x="89.64" y="75.73" width="315.11" height="224.89" transform="translate(5.93 -7.55) rotate(1.77)" style="fill:#fff;opacity:0.8"></rect><rect x="98.48" y="86.11" width="301.49" height="208.01" transform="translate(8.73 -10.93) rotate(2.56)" style="fill:#E91E63;opacity:0.2"></rect><path d="M354.84,109.48a8.73,8.73,0,0,1-5.9-15.15l30-27.48a8.72,8.72,0,1,1,11.79,12.86l-30,27.48A8.69,8.69,0,0,1,354.84,109.48Zm30-43.91a7.64,7.64,0,0,0-5.2,2l-30,27.48a7.75,7.75,0,0,0-.48,10.91h0a7.73,7.73,0,0,0,10.91.47L390,79a7.71,7.71,0,0,0-4.88-13.4Z" style="fill:#E91E63"></path><rect x="95.41" y="84.58" width="301.49" height="208.01" transform="translate(6.43 -8.11) rotate(1.91)" style="fill:#fff"></rect><path d="M380.67,138.51h-.12a11.06,11.06,0,0,0-20.21-4.76,8.32,8.32,0,0,0-2.51-.45,8.61,8.61,0,0,0-8.3,11.7l37.17,1.14a5.5,5.5,0,0,0,.13-1.08A6.36,6.36,0,0,0,380.67,138.51Z" style="fill:#E91E63;opacity:0.30000000000000004"></path><path d="M329.3,116.94a14.57,14.57,0,0,0-15.24-10.75,16.91,16.91,0,0,0-26.31,2.44,13.17,13.17,0,0,0-17.42,12.07,12.8,12.8,0,0,0,.36,3.46l64.42,2A9.7,9.7,0,0,0,329.3,116.94Z" style="fill:#E91E63;opacity:0.30000000000000004"></path><g style="clip-path:url(#freepik--clip-path--inject-64)"><path d="M409.24,277.3c-45.26-1.06-11.16-41.35-57.7-64.48-25.9-12.87-5.83-49.91-28.48-71.13s-94.79-26.16-85.27-78.79C247,11.86,70,29.37,45.63,97.31c-25,69.91,43.3,133.34,88.9,130.59C219.38,222.8,186,278.27,248.12,277c110.18-2.26,89.62,47.79,124.92,45.88,21.23,14.33,26,4.17,38.54-13.45S409.24,277.3,409.24,277.3Z" style="fill:#E91E63"></path><path d="M141.74,272.49c-25.7-.8-48.22-27.5-47.34-56.07,6-15,28.5-12.4,65.06-23.46,24.49-7.41,52.75-12.23,65.84-12.43H226c8.25.26,15.62,6.65,20.76,18,2.35,5.2,7.15,18.11.87,25.71-6.59,8-31,30.61-67.43,52.11-8.57,5.05-31-3.65-38.47-3.88Z" style="fill:#fff"></path><path d="M233,187.19c-21.32-.64-75.58,10.71-73.19,33,1.43,13.43,11.4,37.9,31.15,27.79,35-17.94,48.56-26.41,54.4-33.48C249,210.15,240.16,187.4,233,187.19Z" style="fill:#E91E63"></path><path d="M234,232.33c8.2-4.14,11.19-9.88,9.15-10.53C240.64,221,229.67,234.51,234,232.33Z" style="fill:#E91E63"></path><path d="M246.36,233.16c-19,16.46-43.9,25.38-48.48,32.66s7.51,7.89,20.3-1c8.55-5.93,25.43-21.54,30.82-29C250.41,233.88,247.66,232,246.36,233.16Z" style="fill:#fff"></path></g><path d="M354.84,105.48a4.72,4.72,0,0,1-3.19-8.2l30-27.48a4.73,4.73,0,1,1,6.39,7l-30,27.47A4.72,4.72,0,0,1,354.84,105.48Zm30-35.92a3.71,3.71,0,0,0-2.51,1L352.32,98a3.72,3.72,0,1,0,5,5.49l30-27.48a3.72,3.72,0,0,0-2.52-6.47Z" style="fill:#E91E63"></path><path d="M268.16,131.86c-6,.79-6.85,1.55-8,7.53-.79-6-1.55-6.85-7.53-8,6-.79,6.85-1.56,8-7.53C261.42,129.88,262.19,130.7,268.16,131.86Z" style="fill:#fff"></path><path d="M147.18,99.93c-3.86.51-4.38,1-5.13,4.82-.5-3.86-1-4.38-4.82-5.13,3.87-.5,4.39-1,5.13-4.82C142.87,98.67,143.36,99.19,147.18,99.93Z" style="fill:#fff"></path><path d="M279.32,202.74c-3.86.51-4.38,1-5.12,4.82-.51-3.86-1-4.38-4.82-5.12,3.86-.51,4.38-1,5.12-4.82C275,201.48,275.5,202,279.32,202.74Z" style="fill:#fff"></path><path d="M320.1,204.5c-1.88.25-2.14.49-2.5,2.36-.25-1.89-.49-2.14-2.36-2.51,1.89-.24,2.15-.48,2.51-2.35C318,203.89,318.23,204.14,320.1,204.5Z" style="fill:#fff"></path><path d="M261.52,252.62c-1.89.24-2.14.48-2.51,2.35-.24-1.89-.48-2.14-2.35-2.5,1.89-.25,2.14-.49,2.5-2.36C259.41,252,259.65,252.25,261.52,252.62Z" style="fill:#fff"></path><path d="M130.69,150.11c-1.88.25-2.14.49-2.5,2.36-.25-1.89-.49-2.15-2.36-2.51,1.89-.25,2.15-.49,2.51-2.36C128.59,149.49,128.82,149.75,130.69,150.11Z" style="fill:#fff"></path><path d="M259.26,168.37c-1.89.24-2.15.48-2.51,2.35-.25-1.88-.49-2.14-2.36-2.5,1.89-.25,2.15-.49,2.51-2.36C257.15,167.75,257.39,168,259.26,168.37Z" style="fill:#fff"></path><path d="M166.36,131c-3.27.42-3.71.84-4.34,4.08-.43-3.27-.84-3.72-4.08-4.34,3.27-.43,3.71-.85,4.34-4.09C162.71,129.9,163.12,130.35,166.36,131Z" style="fill:#fff"></path><path d="M300.09,168.65c-3.27.43-3.71.84-4.34,4.08-.43-3.27-.85-3.71-4.09-4.34,3.28-.43,3.72-.84,4.35-4.08C296.43,167.58,296.85,168,300.09,168.65Z" style="fill:#fff"></path><path d="M236,104.9s1.11,19.65-3.05,53.59c-17.08-2.17-52-4.74-52-4.74l2.85-13.59Z" style="opacity:0.2"></path><path d="M230.87,156.78,180,151.45c3.06-20,5.33-38.73,5.66-54l50.89,5.33A316.11,316.11,0,0,1,230.87,156.78Z" style="fill:#fff"></path><g style="opacity:0.5"><path d="M207.55,144.29a22.78,22.78,0,0,1-3.78-.32,13.54,13.54,0,0,1-9.34-5.87c-2.55-4.1-2.1-9.66-.83-13.51a16.37,16.37,0,0,1,7.84-9.49,20.41,20.41,0,0,1,14.18-2.6.83.83,0,0,1,.64,1,.82.82,0,0,1-1,.63,18.8,18.8,0,0,0-13,2.42,14.84,14.84,0,0,0-7.09,8.57c-1.15,3.5-1.58,8.52.66,12.13a12.07,12.07,0,0,0,8.23,5.12,19.82,19.82,0,0,0,13.53-2.4,14.66,14.66,0,0,0,6.38-10.9,12.34,12.34,0,0,0-3.43-10.32,10.23,10.23,0,0,0-11.72-1.66.82.82,0,0,1-1.12-.3.83.83,0,0,1,.3-1.13,11.92,11.92,0,0,1,13.67,1.9,13.94,13.94,0,0,1,3.94,11.67,16.33,16.33,0,0,1-7.15,12.13A20.78,20.78,0,0,1,207.55,144.29Z" style="fill:#E91E63"></path><path d="M207.34,143a.82.82,0,0,1-.37-1.56l.81-.4c-2,.56-4.1,1.06-6.17,1.47a.82.82,0,0,1-.31-1.62,130.57,130.57,0,0,0,15.46-4.35.82.82,0,0,1,1,.47.81.81,0,0,1-.08.77l1.67-.63a.82.82,0,0,1,.59,1.53c-4.06,1.56-8.23,3-12.37,4.28A.77.77,0,0,1,207.34,143Z" style="fill:#E91E63"></path><path d="M198.69,140.42a.82.82,0,0,1-.28-1.6L222,130.45a.84.84,0,0,1,1,.46.83.83,0,0,1-.4,1.06c-2.37,1.14-4.8,2.31-7.31,3.24-.88.33-1.76.62-2.65.92h0a67.27,67.27,0,0,0,9.43-3.14.82.82,0,1,1,.63,1.51,67.64,67.64,0,0,1-17.21,4.68.79.79,0,0,1-.88-.53.67.67,0,0,1-.06-.28l-5.65,2A.65.65,0,0,1,198.69,140.42Z" style="fill:#E91E63"></path><path d="M196.05,138a.82.82,0,0,1-.82-.74.83.83,0,0,1,.74-.9,31.69,31.69,0,0,0,7.62-2c2.62-.95,5.27-1.9,7.93-2.89l-16.86,4.27a.82.82,0,1,1-.4-1.59l29.15-7.39a.82.82,0,0,1,.53,1.55c-6.5,2.8-13.26,5.24-19.8,7.59a32.21,32.21,0,0,1-8,2.14Z" style="fill:#E91E63"></path><path d="M194.17,133.65a.82.82,0,0,1-.11-1.64,28.34,28.34,0,0,0,7.42-2.54l.93-.42a111,111,0,0,1,19.2-6.5.81.81,0,0,1,1,.55.82.82,0,0,1-.48,1l-5,2q3-1,6-2.07a.82.82,0,0,1,1.06.48.83.83,0,0,1-.48,1.06,112.12,112.12,0,0,1-16.58,4.86.83.83,0,0,1-1-.55.8.8,0,0,1,.09-.69c-1.07.43-2.13.88-3.17,1.35l-.92.41a29.49,29.49,0,0,1-7.87,2.67Z" style="fill:#E91E63"></path><path d="M194.28,130.06a.82.82,0,0,1-.8-.64.81.81,0,0,1,.59-1,25,25,0,0,0,4.41-1.78l.49-.23a117.23,117.23,0,0,1,19.72-7.29.81.81,0,0,1,1,.58.82.82,0,0,1-.57,1,114.38,114.38,0,0,0-12.46,4.14l2.44-.8c4-1.3,8.06-2.64,12.19-3.69a.82.82,0,1,1,.4,1.59c-4.07,1-8.14,2.38-12.08,3.67a157.45,157.45,0,0,1-15.16,4.4Z" style="fill:#E91E63"></path><path d="M198.28,124.62a.83.83,0,0,1-.79-.58.82.82,0,0,1,.43-1q4.28-2.06,8.66-4l-.37.08a72.9,72.9,0,0,1-8.36,2.74.83.83,0,0,1-1-.51.84.84,0,0,1,.42-1,38.76,38.76,0,0,1,7.9-2.66.82.82,0,0,1,.5-1.38l4.21-.52a.83.83,0,0,1,.89.59.84.84,0,0,1,0,.35l1.7-.18a.84.84,0,0,1,.88.62.83.83,0,0,1-.48,1c-2.2.92-4.4,1.88-6.59,2.86l2.26-.73a69,69,0,0,1,10-2.71.83.83,0,0,1,.27,1.63,66.8,66.8,0,0,0-9.72,2.64,65,65,0,0,1-10.7,2.82Z" style="fill:#E91E63"></path></g><path d="M192.67,142.36a2.9,2.9,0,0,1-2.24-.78c-1-1-.56-2.73.34-3.87a.74.74,0,0,1,1-.12.73.73,0,0,1,.11,1c-.49.62-.78,1.59-.41,2,.16.17.73.53,2.61.16a40.16,40.16,0,0,0,9.18-3.14c9.1-4.25,17.17-10.85,21.08-17.23a8.15,8.15,0,0,0,1.48-4.22.69.69,0,0,0-.05-.26.69.69,0,0,1-.55-.83.72.72,0,0,1,.87-.56,1.53,1.53,0,0,1,1.18,1.63,9.45,9.45,0,0,1-1.69,5c-4,6.61-12.37,13.42-21.71,17.78a41.73,41.73,0,0,1-9.51,3.25A8.66,8.66,0,0,1,192.67,142.36Z" style="fill:#E91E63"></path></g><g id="freepik--character-2--inject-64"><polygon points="328.05 393.29 341.77 396.34 336.53 411.16 325.06 408.62 328.05 393.29" style="fill:#ffc3bd"></polygon><polygon points="328.06 393.29 341.78 396.35 338.84 404.64 326.38 401.88 328.06 393.29" style="opacity:0.2"></polygon><path d="M360.44,335.84c5.77-19.8,20.15-40.46,12.21-59.32L333,276.4s-3.2,43.09-4.18,61.4c-1,19-3.11,61.17-3.11,61.17l15.65,3.39S356.51,370.87,360.44,335.84Z" style="fill:#E91E63"></path><path d="M360.44,335.84c5.77-19.8,20.15-40.46,12.21-59.32L333,276.4s-3.2,43.09-4.18,61.4c-1,19-3.11,61.17-3.11,61.17l15.65,3.39S356.51,370.87,360.44,335.84Z" style="opacity:0.2"></path><path d="M374.24,296.19C372.3,306.72,367,317.5,363,328.14,358.25,308,358.84,284.37,374.24,296.19Z" style="opacity:0.2"></path><path d="M315.55,407.3a9.35,9.35,0,0,0,8.12-.95,2,2,0,0,1,1.72,0c2.29,1,8.43,3.29,12.41,2.8a.53.53,0,0,1,.6.65,38.21,38.21,0,0,0-1.15,6.4l-3.63-.77-.47-1.29-1.92.79a88,88,0,0,1-17.6-4.6C313.1,408.05,315.55,407.3,315.55,407.3Z" style="fill:#263238"></path><polygon points="386.15 395.9 399.23 396.03 399.81 411.45 388.88 411.37 386.15 395.9" style="fill:#ffc3bd"></polygon><polygon points="386.16 395.91 399.24 396.03 399.56 404.67 387.68 404.57 386.16 395.91" style="opacity:0.2"></polygon><path d="M398.74,336.49c1.05-19.8,4.13-50.07-2.5-59.17l-40.74-.92s9.68,44,13.91,62.27c4.4,19,16.82,63.24,16.82,63.24l14.14,0S404.05,359.08,398.74,336.49Z" style="fill:#E91E63"></path><path d="M398.74,336.49c1.05-19.8,4.13-50.07-2.5-59.17l-40.74-.92s9.68,44,13.91,62.27c4.4,19,16.82,63.24,16.82,63.24l14.14,0S404.05,359.08,398.74,336.49Z" style="opacity:0.2"></path><path d="M356.85,217.75l-.46,1.35-.43,1.18c-.29.77-.6,1.52-.92,2.26-.62,1.5-1.34,3-2.08,4.39a60.56,60.56,0,0,1-5.23,8.4c-1,1.35-2.08,2.69-3.26,4a47.28,47.28,0,0,1-3.86,3.74,35.69,35.69,0,0,1-4.56,3.34,32.41,32.41,0,0,1-5.39,2.62l-.78.29a5.77,5.77,0,0,1-2.19.37,34.75,34.75,0,0,1-7.43-1,38.16,38.16,0,0,1-6.75-2.35,40.12,40.12,0,0,1-6-3.42c-.94-.64-1.84-1.34-2.72-2.06-.44-.37-.87-.75-1.3-1.14l-1.33-1.31a4.64,4.64,0,0,1,3.64-8l1.71.16c.27,0,.78.18,1.19.27l1.3.32c.86.22,1.74.4,2.6.58,1.74.35,3.44.64,5.11.82a40.77,40.77,0,0,0,4.85.27,31.41,31.41,0,0,0,4.45-.37l-3,.65a18.8,18.8,0,0,0,4.24-3.44,38.54,38.54,0,0,0,4-5.22,69.59,69.59,0,0,0,3.55-6.27c.55-1.1,1.06-2.23,1.58-3.34l.73-1.68.62-1.48L339,211a9.53,9.53,0,0,1,17.81,6.74Z" style="fill:#ffc3bd"></path><path d="M308.54,239.6l1.9-5.18C310.38,228.64,303,230,303,230l-5.54-1.23a2.92,2.92,0,0,0-3.19,2l-1.35,3.6a3.05,3.05,0,0,0,1.46,4l4.89,1.67a6.17,6.17,0,0,0,2.92.35Z" style="fill:#ffc3bd"></path><path d="M350.17,196.59c-8.17,3.41-15.36,18.22-15.36,18.22.38,3.58,8.6,13.56,15.87,16.13,0,0,5.65-2.35,9.21-10.08C364.48,210.87,358.83,193,350.17,196.59Z" style="fill:#263238"></path><path d="M354.77,195.55a164.57,164.57,0,0,1,36.34.57,12.26,12.26,0,0,1,10.21,14.61c-5.65,28.46.28,60.38-3.38,66.74,0,0-42,.55-65.51-1.07-6.44-30.89,6.22-49.8,12.58-73.92C346.1,198.36,350.53,196,354.77,195.55Z" style="fill:#263238"></path><polygon points="408.92 275.68 400.1 290.57 392.25 291.51 405.95 268.34 408.92 275.68" style="fill:#E91E63"></polygon><polygon points="408.92 275.68 400.1 290.57 392.25 291.51 405.95 268.34 408.92 275.68" style="fill:#fff;opacity:0.5"></polygon><path d="M354.5,209.65a37.82,37.82,0,0,1,17.78,25.27,24.83,24.83,0,0,0,11.54,16.85l2.48,1.46-16.82,28.42L367,280.19a24.83,24.83,0,0,0-20.3-2,37.84,37.84,0,1,1,7.79-68.53Z" style="fill:#E91E63"></path><path d="M354.5,209.65a37.82,37.82,0,0,1,17.78,25.27,24.83,24.83,0,0,0,11.54,16.85l2.48,1.46-16.82,28.42L367,280.19a24.83,24.83,0,0,0-20.3-2,37.84,37.84,0,1,1,7.79-68.53Z" style="fill:#fff;opacity:0.5"></path><circle cx="348.38" cy="250.09" r="24.03" transform="translate(-68.02 352.66) rotate(-49.51)" style="fill:#fff;opacity:0.4"></circle><path d="M375.31,272l-29.74-10.28a.93.93,0,0,1-.57-1.18h0a.92.92,0,0,1,1.18-.58l29.74,10.28Z" style="fill:#E91E63"></path><path d="M380.79,262.82l-1.25,1.38-23.32-21.11a.93.93,0,0,1-.07-1.32h0a.92.92,0,0,1,1.31-.06Z" style="fill:#E91E63"></path><polygon points="364.36 254.97 356.64 254.74 360.55 261.41 350.03 263.34 349.69 261.5 357.6 260.06 353.33 252.79 361.75 253.03 359.22 245.41 360.98 244.82 364.36 254.97" style="fill:#E91E63"></polygon><path d="M391.8,253.31a4.19,4.19,0,0,1,1.48,5.74l-2.17,3.68a3.55,3.55,0,0,1-.38.88l-12.51,21.23a4.19,4.19,0,0,1-7.27-4.18l0-.08,2.17-3.67a3.5,3.5,0,0,1,.34-.8l0-.09,12.52-21.23A4.18,4.18,0,0,1,391.8,253.31Z" style="fill:#E91E63"></path><path d="M398,258.68a4,4,0,0,1,1.62,5.48l-2,3.41a2.94,2.94,0,0,1-.35.82l-11.67,19.73a4.21,4.21,0,0,1-7.27-4.17l0-.08,2-3.41a4.09,4.09,0,0,1,.31-.75l0-.08,11.67-19.72A4.07,4.07,0,0,1,398,258.68Z" style="fill:#E91E63"></path><path d="M404.2,264.05a3.9,3.9,0,0,1,1.77,5.21l-1.88,3.16a2.77,2.77,0,0,1-.31.76L393,291.4a4,4,0,0,1-5.47,1,3.93,3.93,0,0,1-1.81-5.15l0-.07,1.88-3.15a2.57,2.57,0,0,1,.28-.69l0-.07L398.73,265A4,4,0,0,1,404.2,264.05Z" style="fill:#E91E63"></path><polygon points="394.28 293.58 392.31 292.43 406.68 268.04 408.64 269.19 394.28 293.58" style="fill:#E91E63"></polygon><rect x="361.3" y="266.26" width="33.04" height="2.28" transform="translate(-43.57 458.92) rotate(-59.73)" style="fill:#E91E63"></rect><g style="opacity:0.4"><path d="M312.41,267.65a13.48,13.48,0,0,0,4.82,3.33l.06,0a2.47,2.47,0,0,0,2.56-4A26.07,26.07,0,0,1,314.56,245c1.36-5.84,4.75-12.1-.51-17.2a6.6,6.6,0,0,0-3.51-1.57l-.08,0C299.57,225.28,298.06,254,312.41,267.65Z" style="fill:#fff"></path></g><path d="M314.51,223.57a5.74,5.74,0,0,0,5.68,1.52,7.4,7.4,0,0,0,3.57-3.25c.91-1.44,1.64-3.19,1.12-4.81-.63-2-2.87-2.94-4.92-3.09C313.61,213.47,309.18,218.42,314.51,223.57Z" style="fill:#fff;opacity:0.4"></path><path d="M403.73,209c1.63,2.46,3,4.84,4.43,7.33s2.73,5,4,7.6,2.46,5.26,3.56,8.15c.54,1.46,1.1,2.94,1.56,4.64.23.86.46,1.75.66,2.81l.14.8c.05.28.09.63.12.94a16.81,16.81,0,0,1,.11,2.26v.34a4.9,4.9,0,0,1,0,.54,28.3,28.3,0,0,1-3.46,9.48,50.75,50.75,0,0,1-4.8,7,69,69,0,0,1-5.41,5.87,60.69,60.69,0,0,1-6,5.16,4.82,4.82,0,0,1-7.13-6.12l.12-.22,3.31-6.24c1.09-2.08,2.13-4.14,3.06-6.19.46-1,.92-2,1.32-3s.73-2,1-2.9a13.75,13.75,0,0,0,.84-4.56l0,.88c-.06.11,0,.33-.07.22a.38.38,0,0,1-.05-.08l-.08-.2c-.1-.27-.28-.69-.47-1.13-.41-.9-.88-2-1.41-3s-1.13-2.16-1.74-3.27-1.22-2.23-1.86-3.36l-3.93-6.8c-1.32-2.26-2.7-4.61-3.94-6.81l-.06-.11a9.54,9.54,0,0,1,16.27-10Z" style="fill:#ffc3bd"></path><path d="M395.49,197.76c8.07,3.63,14.82,18.31,14.82,18.31-.79,5.1-12.23,16.05-18.21,18.1,0,0-5-4.38-7.32-14.62C382.12,207.78,391.11,198.71,395.49,197.76Z" style="fill:#263238"></path><path d="M360.49,197.64a7.77,7.77,0,0,1,3.67-3.47,7.1,7.1,0,0,0,.12-4.78l17.91-5.7c-1.45,5.92-2.58,10.6-.38,13.47-3.52,2.15-10,6-17,5.81S359.34,200.13,360.49,197.64Z" style="fill:#ffc3bd"></path><path d="M364.42,190l13.44-.79c-4.2,4.49-10.57,6.18-13.47,4.35A7.12,7.12,0,0,0,364.42,190Z" style="opacity:0.2"></path><path d="M364.39,203l2.9-2.42,3.91,2S368.71,204.83,364.39,203Z" style="fill:#263238"></path><path d="M364.39,203l2.9-2.42,3.91,2S368.71,204.83,364.39,203Z" style="opacity:0.30000000000000004"></path><path d="M364,161.82c-4.9,2.65-3.24,10.93,2.48,10S368.89,159.16,364,161.82Z" style="fill:#263238"></path><path d="M385.15,174c-1.52,7.85-2.73,13.16-8.09,16.07-10.63,5.78-16,1-17-7.12-.93-7.27,1.72-18.89,10.44-21.24S386.67,166.17,385.15,174Z" style="fill:#ffc3bd"></path><path d="M383.7,180.56a6.6,6.6,0,0,1-.85.11,3.11,3.11,0,0,1-2.58-5.1c.93-1.1,1.66-2.4,1.21-3.51-2.42-.48-4.5-2.74-3.33-7.17-5.39.39-14.8-.12-16.07-6.64-1.1-5.64,7.19-8.33,13.11-5.53,4,1.92,6.88,4.67,7,6.22,2.68-.66,7.24,2.49,5.79,7.72C393,169.06,391.65,178,383.7,180.56Z" style="fill:#263238"></path><path d="M372.57,174.08a4,4,0,0,1,3,.17A7.76,7.76,0,0,1,372.57,174.08Z" style="opacity:0.2"></path><path d="M372.58,174.8a3.27,3.27,0,0,1,2.61.84A6.45,6.45,0,0,1,372.58,174.8Z" style="opacity:0.2"></path><path d="M365.21,166.49a36.3,36.3,0,0,1,7.57.16C368.56,166.71,365.21,166.49,365.21,166.49Z" style="opacity:0.2"></path><path d="M364.11,167.27s5.79.17,8.54,1.2A69.76,69.76,0,0,1,364.11,167.27Z" style="opacity:0.2"></path><path d="M387.45,182.9a8.13,8.13,0,0,1-5.44,3c-2.85.3-3.48-2-2.54-4.55.85-2.28,3.7-5.25,6.37-4.42S389.06,180.81,387.45,182.9Z" style="fill:#ffc3bd"></path><path d="M370.1,174.19c-.08.7-.51,1.22-1,1.16s-.76-.65-.69-1.35.5-1.21,1-1.16S370.17,173.5,370.1,174.19Z" style="fill:#263238"></path><path d="M362.9,173.61c-.07.7-.5,1.22-1,1.16s-.76-.65-.68-1.35.5-1.21.95-1.16S363,172.92,362.9,173.61Z" style="fill:#263238"></path><path d="M365.21,174.33l-.82,5.81a6.46,6.46,0,0,1-2.05-.22.76.76,0,0,1-.23-1.33A13.53,13.53,0,0,0,365.21,174.33Z" style="fill:#ed847e"></path><path d="M373.81,172.37a.36.36,0,0,0,.2-.06.41.41,0,0,0,.11-.57,4.13,4.13,0,0,0-3.23-1.93.41.41,0,0,0-.41.41.44.44,0,0,0,.42.42h0a3.27,3.27,0,0,1,2.54,1.55A.4.4,0,0,0,373.81,172.37Z" style="fill:#263238"></path><path d="M360.26,171.57a.38.38,0,0,0,.36-.15,3.22,3.22,0,0,1,2.66-1.28.4.4,0,0,0,.44-.37.42.42,0,0,0-.37-.45,4.07,4.07,0,0,0-3.38,1.59.42.42,0,0,0,.07.58A.37.37,0,0,0,360.26,171.57Z" style="fill:#263238"></path><path d="M380.94,193.33s-6.13,6.84-13.65,7.2a22.76,22.76,0,0,1,7.54,6.53s8-2,9.75-11.94A6.79,6.79,0,0,0,380.94,193.33Z" style="fill:#fff"></path><path d="M364.39,203l-3.3-2.95-4.19,1.25S360.07,204.83,364.39,203Z" style="fill:#263238"></path><path d="M364.39,203l-3.3-2.95-4.19,1.25S360.07,204.83,364.39,203Z" style="opacity:0.30000000000000004"></path><path d="M364.16,194.17s-2.93,3.39-3.07,5.83c-3.47,1.35-6.69,5.76-6.69,5.76s.84-7,6.36-10.95A5.94,5.94,0,0,1,364.16,194.17Z" style="fill:#fff"></path><path d="M401.66,416.23h-2.84l-.77-1.15-1.5,1.16H379.39a7.73,7.73,0,0,1,.74-3.93s5.13-.46,7.1-3a.63.63,0,0,1,.63-.26c1.71.36,8.5,1.64,12.24.3a.62.62,0,0,1,.84.56A40.85,40.85,0,0,0,401.66,416.23Z" style="fill:#263238"></path><path d="M363,182.76a51.3,51.3,0,0,1,9.07-.63c-.66,1.42-2.38,2.49-5.81,2.59C363.53,184.81,363,182.76,363,182.76Z" style="fill:#fff"></path><path d="M392.83,264.48l5,2.38c4,4.19-2.29,8.39-2.29,8.39l-2.2,3.24a2.92,2.92,0,0,1-3.7.77l-3.48-1.64a3,3,0,0,1-1.73-3.87l1.43-3.11a6,6,0,0,1,1.85-2.28Z" style="fill:#ffc3bd"></path></g><g id="freepik--character-1--inject-64"><path d="M149.64,193c.91,4.67,1.83,13.22-1.44,16.34a34.63,34.63,0,0,1,16,8.85c3.28-6.09-1.51-8.85-1.51-8.85-5.21-1.24-5.07-5.11-4.16-8.73Z" style="fill:#7f3e3b"></path><path d="M163.58,213.94c-1.1-4.73,2.26-5.47-3.29-7.71-4.35-1.76-12.63-1.82-14.61-.27-1.1.86.34,3.76.34,3.76Z" style="fill:#E91E63"></path><path d="M145.6,219.14c-.62.48-1.39,1.14-2.09,1.72s-1.43,1.24-2.12,1.87c-1.38,1.29-2.74,2.59-4,4a39.07,39.07,0,0,0-6.38,8.55,16.69,16.69,0,0,0-1,2.22l-.1.27,0,.14s-.05.14,0,0,0-.09,0-.14v-.06h0s0,0,0,0a8,8,0,0,0,0,.95,54,54,0,0,0,.56,5.53c.55,3.87,1.19,7.86,1.71,11.84v0a2.42,2.42,0,0,1-4.59,1.35A92.87,92.87,0,0,1,123,245.91a46.31,46.31,0,0,1-1.59-6.37,14.78,14.78,0,0,1-.17-2.07,7.63,7.63,0,0,1,.17-1.66c0-.21.06-.23.08-.32l.06-.22.12-.45a26.42,26.42,0,0,1,1.21-3.41,43.38,43.38,0,0,1,7.41-11.23c1.46-1.62,3-3.17,4.55-4.62.79-.73,1.6-1.44,2.42-2.13s1.63-1.33,2.63-2.06a4.83,4.83,0,0,1,5.85,7.68Z" style="fill:#7f3e3b"></path><path d="M127.18,255.29l1.93,7.09,5.92-3.62a43.12,43.12,0,0,0-4.41-5.63Z" style="fill:#7f3e3b"></path><path d="M132.94,264.6l2.36-2a1.58,1.58,0,0,0,.48-1.72l-.75-2.14-5.92,3.62,1.59,2A1.57,1.57,0,0,0,132.94,264.6Z" style="fill:#7f3e3b"></path><path d="M110.59,273.22a.66.66,0,0,1-.33-1.23l115.42-64.56a.65.65,0,0,1,.72,0l11.07,8.42,2.45-1.38-12.51-22.36a.66.66,0,0,1,.25-.9.67.67,0,0,1,.9.26l12.83,22.94a.7.7,0,0,1,.06.49.67.67,0,0,1-.32.4l-3.4,1.9a.65.65,0,0,1-.72-.05L226,208.79l-115,64.35A.79.79,0,0,1,110.59,273.22Z" style="fill:#263238"></path><rect x="222.68" y="200.59" width="23.44" height="5.44" rx="1.94" transform="translate(297.4 -100.51) rotate(60.78)" style="fill:#fff"></rect><path d="M144.19,208.73c-6.5,1-9.16,4.51-13.53,9.77-.28,3.59,6.73,13.83,6.73,13.83S158.52,209.33,144.19,208.73Z" style="fill:#263238"></path><path d="M176.86,220.32c-.13,3.14,4.83,10.4-1.29,14.61-.72,6.35-1.63,12.6-3.32,23h-32c3.41-11.5,1-19.26-3.2-39.52a8.08,8.08,0,0,1,7.1-9.69c1.28-.12,2.63-.23,4-.3a101.73,101.73,0,0,1,14.51,0c1.57.15,3.19.34,4.73.56A11,11,0,0,1,176.86,220.32Z" style="fill:#263238"></path><path d="M196.46,229.35l.28-6.78,6.23,3.06a42.6,42.6,0,0,1-3.88,6Z" style="fill:#7f3e3b"></path><path d="M200.35,220l2.54,1.75a1.6,1.6,0,0,1,.63,1.67l-.55,2.2-6.23-3.06,1.4-2.14A1.57,1.57,0,0,1,200.35,220Z" style="fill:#7f3e3b"></path><path d="M174.21,216.06c.7,2.16,1.47,4.53,2.31,6.77s1.69,4.52,2.6,6.74,1.91,4.37,2.94,6.49a67,67,0,0,0,3.42,6l-3.25-1.79a1.7,1.7,0,0,0,1-.1,7.18,7.18,0,0,0,1.78-.89,24.82,24.82,0,0,0,3.94-3.33c1.29-1.3,2.55-2.74,3.77-4.22s2.43-3.06,3.56-4.57l.06-.08a2.41,2.41,0,0,1,4.18,2.3,55.65,55.65,0,0,1-2.62,5.76,48.23,48.23,0,0,1-3.37,5.47,28.42,28.42,0,0,1-4.62,5.12,16.42,16.42,0,0,1-3.36,2.2,10.55,10.55,0,0,1-4.87,1.05,4.11,4.11,0,0,1-3.11-1.61l-.14-.19a62.75,62.75,0,0,1-4.48-6.76c-1.31-2.3-2.51-4.65-3.6-7s-2.07-4.78-3-7.21-1.73-4.84-2.45-7.48a4.83,4.83,0,0,1,9.25-2.77Z" style="fill:#7f3e3b"></path><path d="M170.14,209.73c4,1.85,7.89,5.5,9.49,14.14-1,3.44-11.82,9.18-11.82,9.18S156.58,205.06,170.14,209.73Z" style="fill:#263238"></path><path d="M166.94,186.18c0,.63.41,1.12.83,1.1s.71-.57.67-1.2-.41-1.12-.82-1.1S166.9,185.54,166.94,186.18Z" style="fill:#263238"></path><path d="M167.44,185l1.49-.54S168.23,185.73,167.44,185Z" style="fill:#263238"></path><path d="M167.25,186.81a17.11,17.11,0,0,0,2.51,3.9,2.71,2.71,0,0,1-2.23.57Z" style="fill:#630f0f"></path><path d="M168.18,182.63a.38.38,0,0,0,.11-.68,3.73,3.73,0,0,0-3.39-.36.37.37,0,0,0,.31.68,3,3,0,0,1,2.68.31A.37.37,0,0,0,168.18,182.63Z" style="fill:#263238"></path><path d="M145.88,185.46c1,7.74,1.22,11,5.33,14.79,6.18,5.63,15.3,2.74,16.62-5.14,1.19-7.09-.6-18.57-8.27-21.19S144.91,177.71,145.88,185.46Z" style="fill:#7f3e3b"></path><path d="M140.36,176.45c-1.75,1.59-1.76,4.89-1.51,6.34.31,1.8-2.09,1.91-2.72,4.93-.56,2.67,1.8,4.69-.19,5.71a3.77,3.77,0,0,0-1.21,5.32c1.23,1.73.63,4.37,2.83,5.67,3.46,2,9.08-1.08,13.58-1.71s11.18,4.29,14.92-2.17c3.09-5.33-4.37-11-3-14.12s1.34-6.23.5-7.57c2.17.29,3.16-.44,3.65-3.07.44-2.44-3.81-8.5-11.48-6.7-3.67.86-5.08,2.13-8,1.73S139.48,172.12,140.36,176.45Z" style="fill:#263238"></path><path d="M172.25,257.94s.06,41.86-3.12,68.45c-.5,25-3.34,83.24-3.34,83.24h-6.3s-9.78-49.67-6.7-79.23c-12.82-42.22-4.39-72.46-4.39-72.46Z" style="fill:#7f3e3b"></path><path d="M166,404.48c1.83,1.87,3.69,7.47,9.82,9.32,4,1.2,2.39,2.44-3.62,2.44-6.93,0-8.85-1.48-11.19-1.48s-3.7-3.06-2.09-8C164.19,406.12,166,404.48,166,404.48Z" style="fill:#263238"></path><path d="M158.44,409a32.37,32.37,0,0,0,.11,7.28h3l2.2-4.82Z" style="fill:#263238"></path><path d="M163.9,257.94s-13.07,48.83-20.48,71.55c-7.79,23.87-42.56,67.47-43.24,69.15l-5.07-2s20.33-47.65,32-67.18c2.66-58.41,13.17-71.53,13.17-71.53Z" style="fill:#7f3e3b"></path><path d="M102.88,396c.23,2.7.42,7.67,3,10.59s.58,3.26-4.18.24c-3.21-2.05-5.07-4.22-7-5.18s-2.3-4.54,1.26-8.34A16.89,16.89,0,0,0,102.88,396Z" style="fill:#263238"></path><path d="M94.37,395.28a41.19,41.19,0,0,0-3,6.38L94.14,403,98,399.56Z" style="fill:#263238"></path><g style="opacity:0.2"><path d="M168.89,335.55c-.08,2.82-.17,5.82-.29,8.95a97.66,97.66,0,0,1-16.37-4.81c.05-2.69.19-5.3.41-7.77A83.63,83.63,0,0,0,168.89,335.55Z"></path><path d="M127.65,319.93q-.24,3.68-.44,7.64c3.25,2,8.11,4.73,14,7.59.86-2,1.6-3.88,2.18-5.67.19-.58.38-1.17.57-1.78A158.43,158.43,0,0,1,127.65,319.93Z"></path></g><path d="M172.25,257.94s.72,32.84-1.74,82.25c-23.14-1.76-45.62-16.41-45.62-16.41s.67-52.14,15.4-65.84C148.62,255.72,172.09,257.19,172.25,257.94Z" style="fill:#E91E63"></path><path d="M172.25,257.94s.72,32.84-1.74,82.25c-23.14-1.76-45.62-16.41-45.62-16.41s.67-52.14,15.4-65.84C148.62,255.72,172.09,257.19,172.25,257.94Z" style="fill:#fff;opacity:0.2"></path><path d="M141.78,275c9.22,8,16.27,9.12,16.27,9.12S147.62,285.65,141.78,275Z" style="fill:#E91E63;opacity:0.9"></path></g></svg>