<svg xmlns="http://www.w3.org/2000/svg" width="100" height="100" fill="none" xmlns:v="https://vecta.io/nano"><path fill="#e5e5e5" d="M0 0h100v100H0z"/><path fill="#fff" d="M0 0h100v100H0z"/><mask id="A" fill="#fff"><path fill-rule="evenodd" d="M66.87 8.281l-6.281 6.161c-1.875-.597-3.374-.217-4.698 1.19s-1.682 2.999-1.12 4.99c.091.322-.894 1.466-5.125 5.952l-5.237 5.554-.611-.226c-1.55-.574-3.103-.12-4.446 1.298-.541.572-.985 1.18-.985 1.351 0 .271-.42.312-3.188.312h-3.188v1.593 1.593h3.188c2.768 0 3.188.041 3.188.312 0 .542 1.902 2.369 2.741 2.633 1.758.552 3.16.163 4.485-1.245 1.299-1.379 1.722-3.049 1.187-4.679l-.213-.649 5.229-5.562 5.604-5.443c1.876.597 3.376.217 4.694-1.19 1.299-1.385 1.722-3.054 1.187-4.683l-.213-.649 5.932-6.303 5.933-6.508c0-.259-1.731-2.083-1.977-2.083-.1 0-2.84 2.826-6.088 6.281zm13.588 1.577c-.46.489-.46.489-.46 4.78v4.291h-4.04c-5.397 0-4.961-.463-4.961 5.269v4.291h-4.04c-4.04 0-4.041 0-4.501.489s-.46.489-.46 4.78v4.291h-4.04c-4.04 0-4.04 0-4.501.489-.444.471-.46.588-.46 3.187v2.698h-4.04c-4.04 0-4.04 0-4.501.489l-.46.489v5.088 5.088h-1.5-1.5v1.593 1.593h7.501 7.501v2.39 2.39h1.5 1.5v-2.39-2.39h18.002H95v-1.593-1.593h-1.5H92V32.961 10.347l-.46-.489-.46-.489h-5.08-5.08l-.46.489zm8.541 24.207v21.509h-3-3V34.065 12.556h3 3v21.509zM60.035 17.824c.93.988.271 2.698-1.04 2.698-.771 0-1.5-.774-1.5-1.593s.729-1.593 1.5-1.593c.365 0 .75.181 1.04.489zm19.963 21.021v16.729h-3-3V38.845v-16.73h3 3v16.73zm-9.001 4.78v11.95h-3-3v-11.95-11.95h3 3v11.95zm-45.006-7.17v1.593h1.5 1.5v-1.593-1.593h-1.5-1.5v1.593zm17.542-1.104c.93.988.271 2.698-1.04 2.698-.365 0-.75-.181-1.04-.489s-.46-.716-.46-1.104.17-.796.46-1.104.674-.489 1.04-.489.75.181 1.04.489zm18.463 13.054v7.17h-3-3.001v-7.17-7.17h3.001 3v7.17zm-9.001 3.187v3.983h-3-3v-3.983-3.983h3 3v3.983zM22.677 49.57c-1.778.653-3.171 2.22-3.649 4.106-.305 1.202-.119 3.027.448 4.388.419 1.007.506 1.532.552 3.336l.055 2.141-1.875.003c-2.512.004-4.147.4-6.28 1.518-5.044 2.644-7.836 8.796-6.662 14.681a16.16 16.16 0 0 0 2.101 5.075l.621.927v5.627V97h1.496 1.496l.051-3.533.051-3.533 1.53 2.089c2.368 3.234 3.382 4.109 5.412 4.671.967.267 4.032.306 24.239.306l23.499-.209c.461-.262 9.735-19.898 9.735-20.612 0-.279-.208-.729-.463-.999l-.463-.492-11.947.009-11.947.009-4.615-4.876c-4.109-4.342-4.757-4.948-5.92-5.532l-1.306-.657-3.469-.068-3.469-.067.063-3.392.063-3.393.682-1.318c.627-1.211.688-1.475.755-3.248.07-1.856.054-1.95-.409-2.442l-.482-.511-4.462.006c-3.786.005-4.609.06-5.431.362zm7.742 3.449c-.165.875-.902 1.837-1.725 2.252-1.001.505-1.974.312-2.897-.574-1.078-1.035-1.633-.976-2.912.309l-1.02 1.025.001-.776c.001-.953.545-1.944 1.357-2.47.55-.356.949-.396 3.963-.397l3.352-.001-.119.631zm-2.867 5.636l1.468.007-.061 2.227c-.052 1.875-.123 2.314-.448 2.776-.732 1.039-1.336 1.37-2.501 1.37-.9 0-1.197-.095-1.788-.574-.939-.761-1.231-1.577-1.231-3.445 0-1.541.001-1.543.779-2.385l.779-.843.768.43c.593.332 1.103.432 2.237.437zm-5.5 8.225c0 .084-1.013 1.225-2.25 2.536s-2.25 2.445-2.25 2.521c0 .24 1.724 2.16 1.941 2.16.114 0 .855-.683 1.646-1.519 1.288-1.36 1.458-1.48 1.625-1.145.13.26.022 2.096-.354 6.041l-.592 5.834c-.029.091-1.517-1.652-3.307-3.875l-3.373-4.086c-.065-.025-.603.424-1.196.996l-1.078 1.04 4.507 5.577 4.817 5.825c.232.186 1.7.249 5.807.249h5.496v2.398 2.398l-7.454-.058-7.454-.058-.823-.498c-.634-.383-1.631-1.599-4.329-5.278-4.134-5.637-4.374-6.008-4.884-7.568-1.229-3.761-.357-7.692 2.343-10.56 1.376-1.462 2.658-2.261 4.45-2.773 1.061-.303 6.712-.436 6.712-.158zm16.784.327c.705.357 2.102 1.717 5.623 5.474l4.685 4.998-1.276 2.72-1.277 2.72-4.73-5.009c-4.239-4.489-4.794-5.01-5.34-5.01-.397 0-.77.17-1.07.489l-.46.489v5.884 5.884h-2.344c-2.304 0-2.344-.008-2.351-.448-.004-.246-.29-3.406-.636-7.02-.439-4.588-.572-6.685-.442-6.946.167-.335.336-.215 1.625 1.145.791.835 1.504 1.519 1.584 1.519.194 0 2.003-1.928 2.003-2.135 0-.089-1.013-1.235-2.25-2.546s-2.25-2.452-2.25-2.536 1.793-.152 3.985-.15c3.811.002 4.026.023 4.922.477zm17.159 1.911v2.39h1.5 1.5v-2.39-2.39h-1.5-1.5v2.39zm-28.976-.603c.062.106-.02.465-.181.797-.226.465-.421.603-.847.603s-.62-.139-.847-.603c-.162-.332-.243-.691-.181-.797s.524-.193 1.028-.193.966.087 1.028.193zm-.839 4.935c.001.192.254 2.992.562 6.224l.561 6.025c0 .082-.591.149-1.312.149-.927 0-1.312-.073-1.31-.249.002-.137.254-2.848.561-6.025l.559-6.124c.001-.192.086-.349.189-.349s.188.157.189.349zm41.629 12.398l-3.752 7.966h-9.564-9.564l3.751-7.966 3.752-7.966h9.564 9.564l-3.751 7.966zm-27.383-4.685c2.224 2.367 2.3 2.475 1.609 2.272-.941-.276-2.244-.066-3.245.522l-.797.468v-2.874c0-1.581.022-2.874.05-2.874s1.1 1.118 2.384 2.485zm16.975 3.271c-.835.389-1.313 1.199-1.313 2.222 0 .837.087 1.069.613 1.627s.743.651 1.544.651 1.016-.091 1.544-.651.613-.789.613-1.639c0-.839-.088-1.081-.58-1.604-.619-.658-1.719-.933-2.42-.606zm-14.754 2.925c.74.503 1.346.999 1.346 1.102s-.212.633-.472 1.177l-.472.989h-1.314-1.314l-1.504 1.494c-.827.822-1.578 1.494-1.668 1.494s-.298.054-.461.121c-.26.106-.297-.173-.297-2.29 0-1.794.06-2.412.234-2.414.129-.002 1.067-.584 2.085-1.295s1.994-1.291 2.17-1.291.925.412 1.666.915z"/></mask><path fill-rule="evenodd" d="M66.87 8.281l-6.281 6.161c-1.875-.597-3.374-.217-4.698 1.19s-1.682 2.999-1.12 4.99c.091.322-.894 1.466-5.125 5.952l-5.237 5.554-.611-.226c-1.55-.574-3.103-.12-4.446 1.298-.541.572-.985 1.18-.985 1.351 0 .271-.42.312-3.188.312h-3.188v1.593 1.593h3.188c2.768 0 3.188.041 3.188.312 0 .542 1.902 2.369 2.741 2.633 1.758.552 3.16.163 4.485-1.245 1.299-1.379 1.722-3.049 1.187-4.679l-.213-.649 5.229-5.562 5.604-5.443c1.876.597 3.376.217 4.694-1.19 1.299-1.385 1.722-3.054 1.187-4.683l-.213-.649 5.932-6.303 5.933-6.508c0-.259-1.731-2.083-1.977-2.083-.1 0-2.84 2.826-6.088 6.281zm13.588 1.577c-.46.489-.46.489-.46 4.78v4.291h-4.04c-5.397 0-4.961-.463-4.961 5.269v4.291h-4.04c-4.04 0-4.041 0-4.501.489s-.46.489-.46 4.78v4.291h-4.04c-4.04 0-4.04 0-4.501.489-.444.471-.46.588-.46 3.187v2.698h-4.04c-4.04 0-4.04 0-4.501.489l-.46.489v5.088 5.088h-1.5-1.5v1.593 1.593h7.501 7.501v2.39 2.39h1.5 1.5v-2.39-2.39h18.002H95v-1.593-1.593h-1.5H92V32.961 10.347l-.46-.489-.46-.489h-5.08-5.08l-.46.489zm8.541 24.207v21.509h-3-3V34.065 12.556h3 3v21.509zM60.035 17.824c.93.988.271 2.698-1.04 2.698-.771 0-1.5-.774-1.5-1.593s.729-1.593 1.5-1.593c.365 0 .75.181 1.04.489zm19.963 21.021v16.729h-3-3V38.845v-16.73h3 3v16.73zm-9.001 4.78v11.95h-3-3v-11.95-11.95h3 3v11.95zm-45.006-7.17v1.593h1.5 1.5v-1.593-1.593h-1.5-1.5v1.593zm17.542-1.104c.93.988.271 2.698-1.04 2.698-.365 0-.75-.181-1.04-.489s-.46-.716-.46-1.104.17-.796.46-1.104.674-.489 1.04-.489.75.181 1.04.489zm18.463 13.054v7.17h-3-3.001v-7.17-7.17h3.001 3v7.17zm-9.001 3.187v3.983h-3-3v-3.983-3.983h3 3v3.983zM22.677 49.57c-1.778.653-3.171 2.22-3.649 4.106-.305 1.202-.119 3.027.448 4.388.419 1.007.506 1.532.552 3.336l.055 2.141-1.875.003c-2.512.004-4.147.4-6.28 1.518-5.044 2.644-7.836 8.796-6.662 14.681a16.16 16.16 0 0 0 2.101 5.075l.621.927v5.627V97h1.496 1.496l.051-3.533.051-3.533 1.53 2.089c2.368 3.234 3.382 4.109 5.412 4.671.967.267 4.032.306 24.239.306l23.499-.209c.461-.262 9.735-19.898 9.735-20.612 0-.279-.208-.729-.463-.999l-.463-.492-11.947.009-11.947.009-4.615-4.876c-4.109-4.342-4.757-4.948-5.92-5.532l-1.306-.657-3.469-.068-3.469-.067.063-3.392.063-3.393.682-1.318c.627-1.211.688-1.475.755-3.248.07-1.856.054-1.95-.409-2.442l-.482-.511-4.462.006c-3.786.005-4.609.06-5.431.362zm7.742 3.449c-.165.875-.902 1.837-1.725 2.252-1.001.505-1.974.312-2.897-.574-1.078-1.035-1.633-.976-2.912.309l-1.02 1.025.001-.776c.001-.953.545-1.944 1.357-2.47.55-.356.949-.396 3.963-.397l3.352-.001-.119.631zm-2.867 5.636l1.468.007-.061 2.227c-.052 1.875-.123 2.314-.448 2.776-.732 1.039-1.336 1.37-2.501 1.37-.9 0-1.197-.095-1.788-.574-.939-.761-1.231-1.577-1.231-3.445 0-1.541.001-1.543.779-2.385l.779-.843.768.43c.593.332 1.103.432 2.237.437zm-5.5 8.225c0 .084-1.013 1.225-2.25 2.536s-2.25 2.445-2.25 2.521c0 .24 1.724 2.16 1.941 2.16.114 0 .855-.683 1.646-1.519 1.288-1.36 1.458-1.48 1.625-1.145.13.26.022 2.096-.354 6.041l-.592 5.834c-.029.091-1.517-1.652-3.307-3.875l-3.373-4.086c-.065-.025-.603.424-1.196.996l-1.078 1.04 4.507 5.577 4.817 5.825c.232.186 1.7.249 5.807.249h5.496v2.398 2.398l-7.454-.058-7.454-.058-.823-.498c-.634-.383-1.631-1.599-4.329-5.278-4.134-5.637-4.374-6.008-4.884-7.568-1.229-3.761-.357-7.692 2.343-10.56 1.376-1.462 2.658-2.261 4.45-2.773 1.061-.303 6.712-.436 6.712-.158zm16.784.327c.705.357 2.102 1.717 5.623 5.474l4.685 4.998-1.276 2.72-1.277 2.72-4.73-5.009c-4.239-4.489-4.794-5.01-5.34-5.01-.397 0-.77.17-1.07.489l-.46.489v5.884 5.884h-2.344c-2.304 0-2.344-.008-2.351-.448-.004-.246-.29-3.406-.636-7.02-.439-4.588-.572-6.685-.442-6.946.167-.335.336-.215 1.625 1.145.791.835 1.504 1.519 1.584 1.519.194 0 2.003-1.928 2.003-2.135 0-.089-1.013-1.235-2.25-2.546s-2.25-2.452-2.25-2.536 1.793-.152 3.985-.15c3.811.002 4.026.023 4.922.477zm17.159 1.911v2.39h1.5 1.5v-2.39-2.39h-1.5-1.5v2.39zm-28.976-.603c.062.106-.02.465-.181.797-.226.465-.421.603-.847.603s-.62-.139-.847-.603c-.162-.332-.243-.691-.181-.797s.524-.193 1.028-.193.966.087 1.028.193zm-.839 4.935c.001.192.254 2.992.562 6.224l.561 6.025c0 .082-.591.149-1.312.149-.927 0-1.312-.073-1.31-.249.002-.137.254-2.848.561-6.025l.559-6.124c.001-.192.086-.349.189-.349s.188.157.189.349zm41.629 12.398l-3.752 7.966h-9.564-9.564l3.751-7.966 3.752-7.966h9.564 9.564l-3.751 7.966zm-27.383-4.685c2.224 2.367 2.3 2.475 1.609 2.272-.941-.276-2.244-.066-3.245.522l-.797.468v-2.874c0-1.581.022-2.874.05-2.874s1.1 1.118 2.384 2.485zm16.975 3.271c-.835.389-1.313 1.199-1.313 2.222 0 .837.087 1.069.613 1.627s.743.651 1.544.651 1.016-.091 1.544-.651.613-.789.613-1.639c0-.839-.088-1.081-.58-1.604-.619-.658-1.719-.933-2.42-.606zm-14.754 2.925c.74.503 1.346.999 1.346 1.102s-.212.633-.472 1.177l-.472.989h-1.314-1.314l-1.504 1.494c-.827.822-1.578 1.494-1.668 1.494s-.298.054-.461.121c-.26.106-.297-.173-.297-2.29 0-1.794.06-2.412.234-2.414.129-.002 1.067-.584 2.085-1.295s1.994-1.291 2.17-1.291.925.412 1.666.915z" fill="#282626" stroke="#fff" stroke-width="2" mask="url(#A)"/></svg>