<svg xmlns="http://www.w3.org/2000/svg" width="100" height="100" fill="none" xmlns:v="https://vecta.io/nano"><path fill="#e5e5e5" d="M0 0h100v100H0z"/><path fill="#fff" d="M0 0h100v100H0z"/><mask id="A" fill="#fff"><path fill-rule="evenodd" d="M44.111 5.602c-.294 1.431-.625 2.713-.737 2.849s-.788.437-1.502.67-1.933.742-2.709 1.13l-1.41.706-2.394-1.559-2.394-1.559-4.064 4.059-4.064 4.059.77 1.827.77 1.967c0 .076-.4.139-.889.139-1.956 0-4.618 1.033-6.379 2.476-1.349 1.104-2.814 3.294-3.353 5.009-.371 1.182-.419 1.719-.419 4.765 0 2.694.066 3.639.308 4.386.626 1.935 1.344 3.114 2.807 4.605.797.813 1.42 1.603 1.39 1.763-.038.201-.686.452-2.121.821l-2.066.531-3.847-2.248-3.847-2.248H5.482 3l.004 15.916.004 15.916 7.502 2.467c7.462 2.454 7.51 2.467 9.033 2.413 1.461-.052 1.536-.075 1.64-.518.06-.255.191-.464.291-.464s1.143.572 2.318 1.271l2.136 1.271.226.956c.424 1.791 2.054 3.369 3.709 3.591.7.094.745.138.838.839.223 1.663 1.8 3.286 3.608 3.715.862.204.974.285.974.707 0 .262.22.918.488 1.457a4.86 4.86 0 0 0 3.084 2.443c.727.176.901.3.989.705.343 1.58 1.177 2.73 2.503 3.453 1.288.701 2.992.76 4.18.145l.762-.395.6.619c1.464 1.511 3.699 2.119 5.54 1.508 1.553-.516 2.866-2.073 3.132-3.716.092-.569.17-.632.896-.742 1.692-.254 3.254-1.849 3.656-3.734.154-.722.236-.823.671-.826 1.702-.014 3.91-2.229 3.924-3.937.003-.401.11-.529.514-.616 2.466-.528 4.114-2.248 4.124-4.306l.004-.789 13.823-6.913L98 65.272V54.089 42.906h-1.778-1.778l-2.504 1.322c-2.337 1.234-2.537 1.306-2.999 1.08-.272-.133-2.123-.666-4.112-1.183-2.542-.661-3.632-1.024-3.667-1.219-.028-.153.597-.948 1.39-1.767 2.37-2.449 3.014-4.118 3.146-8.163.11-3.371-.153-4.885-1.228-7.053-.915-1.846-2.065-3.169-3.682-4.233-1.648-1.086-3.162-1.627-4.888-1.749l-1.414-.1.842-1.938.842-1.938-4.067-4.062-4.067-4.062-2.394 1.559-2.394 1.559-1.41-.706c-.775-.388-1.994-.897-2.709-1.13s-1.39-.535-1.502-.67-.443-1.417-.737-2.849L56.355 3H50.5h-5.855l-.534 2.602zm9.895 1.249l.492 2.296.43 1.771c.065.094.954.414 1.974.71s2.89 1.062 4.155 1.701c2.62 1.323 2.176 1.355 4.698-.337.889-.597 1.723-1.085 1.853-1.085.341 0 4.789 4.487 4.781 4.823-.004.155-.365 1.116-.804 2.137-.732 1.704-.865 1.893-1.617 2.3-.451.244-1.226.78-1.723 1.19-.786.649-.926.706-1.075.439-.495-.884-2.492-3.165-3.582-4.09-4.096-3.476-8.86-5.151-13.908-4.89-4.777.247-8.57 1.754-12.226 4.856-1.07.908-3.144 3.271-3.623 4.126-.16.285-.244.262-.864-.23-.378-.301-1.155-.844-1.727-1.207-.982-.623-1.084-.762-1.837-2.488-.438-1.005-.797-1.96-.797-2.121 0-.352 4.435-4.846 4.782-4.846.133 0 .969.488 1.858 1.085 2.522 1.692 2.078 1.66 4.698.337 1.265-.639 3.134-1.405 4.155-1.701s1.909-.616 1.974-.71.258-.891.43-1.771a52.82 52.82 0 0 1 .492-2.296l.181-.696H50.5h3.326l.181.696zm-.352 10.288c4.504.846 8.558 3.646 11.199 7.735l.522.808-.526 1.604c-.495 1.511-.526 1.789-.521 4.76.008 4.728.662 6.602 3.195 9.15.74.745 1.346 1.499 1.346 1.675 0 .26-.579.464-3.062 1.08l-3.061.76-3.061-.76c-2.549-.633-3.062-.816-3.062-1.096 0-.185.522-.824 1.16-1.421a11.2 11.2 0 0 0 2.947-4.656c.54-1.688.689-6.014.275-7.981-.895-4.256-4.158-7.694-8.206-8.646-1.664-.391-4.177-.264-5.772.293-3.134 1.094-5.711 3.728-6.75 6.901-.403 1.232-.445 1.676-.445 4.701 0 2.936.05 3.498.412 4.64.575 1.815 1.615 3.476 2.975 4.748.638.597 1.16 1.237 1.16 1.421 0 .28-.512.463-3.062 1.096l-3.061.76-3.062-.76c-2.397-.595-3.062-.826-3.062-1.063 0-.167.605-.92 1.345-1.675 2.488-2.538 3.181-4.468 3.193-8.889.008-2.915-.164-4.094-.826-5.659-.313-.739-.312-.743.251-1.67 3.657-6.027 10.648-9.154 17.561-7.857zm-25.089 6.319c1.889.695 3.732 2.551 4.505 4.535.351.902.436 1.544.504 3.816.071 2.392.033 2.89-.308 4.014-.524 1.724-1.704 3.304-3.159 4.229l-1.13.718.046 2.402.046 2.402 2.502.627c1.376.345 2.532.657 2.57.695s-.139.346-.393.684c-1.005 1.341-1.563 3.004-1.666 4.972l-.044.83-2.227.507-2.319.516c-.051.005-.066-.723-.034-1.618l.058-1.627-3.984-2.317c-2.192-1.275-3.888-2.37-3.769-2.434s.862-.267 1.653-.452l1.438-.335v-2.452-2.453l-.918-.589c-1.259-.808-2.17-1.867-2.86-3.324-.569-1.202-.583-1.298-.644-4.336-.051-2.534-.005-3.28.25-4.045.487-1.467 1.147-2.506 2.191-3.45 2.151-1.945 4.998-2.505 7.694-1.513zm24.141-.121c2.548.814 4.611 3.123 5.212 5.833.142.639.202 2.027.16 3.712-.061 2.478-.107 2.778-.58 3.792-.691 1.479-1.607 2.557-2.943 3.465l-1.11.754.11 2.342c.061 1.288.128 2.355.151 2.371s2.003.513 4.401 1.105c4.644 1.146 5.782 1.582 6.57 2.519 1.005 1.195 1.101 1.654 1.116 5.369l.014 3.434-.698.058c-.453.038-2.337-.41-5.361-1.273-2.564-.732-5.298-1.442-6.074-1.579s-2.831-.705-4.566-1.263c-6.375-2.049-7.917-2.224-13.134-1.492l-.888.125.129-.815c.274-1.726 1.072-2.889 2.459-3.581.472-.236 2.84-.919 5.264-1.518l4.407-1.09v-2.444-2.444l-.918-.589c-1.259-.808-2.17-1.867-2.86-3.324l-.582-1.229v-3.443-3.443l.699-1.414c1.704-3.45 5.441-5.08 9.022-3.936zm24.605.031c1.74.542 3.404 1.979 4.314 3.726.885 1.698 1.015 2.475.945 5.625-.061 2.753-.084 2.9-.646 4.085-.69 1.457-1.602 2.516-2.86 3.324l-.918.589v2.447 2.447l3.711.915c2.8.691 3.654.966 3.479 1.123-.242.217-16.2 8.621-16.37 8.621-.053 0-.098-1.107-.099-2.459-.003-3.175-.36-4.553-1.615-6.23-.254-.338-.43-.646-.392-.684s1.194-.351 2.57-.695l2.502-.627.044-2.402.044-2.402-1.156-.751c-1.326-.862-2.374-2.141-2.958-3.611-.333-.839-.419-1.501-.481-3.712-.113-4.014.389-5.68 2.266-7.509 2.105-2.051 4.808-2.697 7.622-1.821zM12.696 46.073l5.457 3.205c.055.055-5.451 22.033-5.542 22.125-.042.043-1.513-.399-3.267-.982l-3.19-1.06V56.134 42.906h.561c.391 0 2.204.96 5.981 3.167zm82.149 8.758v8.585l-12.85 6.426-12.85 6.426-6.772-6.106c-7.77-7.006-8.202-7.305-10.572-7.305-1.729 0-2.164.174-5.556 2.219-3.682 2.22-4.012 2.375-4.714 2.228-1.362-.287-2.099-1.778-1.54-3.117.26-.623.592-.823 5.128-3.093 2.667-1.335 5.353-2.556 5.969-2.714 1.473-.377 2.164-.251 8.229 1.507 3.444.999 5.094 1.391 5.832 1.389.994-.004 1.506-.256 15.223-7.503l14.334-7.513c.077-.008.139 3.849.139 8.571zm-70.453-1.905c.109.096-5.497 20.306-5.701 20.553-.085.102-3.075-.972-3.075-1.104 0-.158 5.15-20.866 5.285-21.251.052-.149.64.1 1.711.723.897.522 1.698 1.008 1.779 1.08zm18.221 2.412c1.267.206 4.362 1.118 4.357 1.285-.002.06-1.771.987-3.931 2.059s-4.259 2.241-4.665 2.599c-1.048.924-1.602 2.211-1.604 3.726-.003 1.676.42 2.793 1.459 3.861 1.008 1.035 2.179 1.51 3.721 1.507 1.255-.002 1.961-.316 5.487-2.435 1.429-.859 2.831-1.664 3.117-1.79.723-.318 1.895-.285 2.589.074.864.447 13.536 11.89 13.921 12.571.627 1.108-.175 2.347-1.519 2.347-.643 0-1.084-.316-5.046-3.615l-4.434-3.609c-.051.004-.501.509-1.001 1.124-.888 1.093-.901 1.125-.557 1.457.193.187 2.021 1.737 4.062 3.444s3.812 3.281 3.936 3.497c.369.644.271 1.224-.304 1.799-.633.633-1.526.723-2.246.225-.252-.175-2.24-1.803-4.418-3.619s-4.014-3.297-4.082-3.291-.532.513-1.031 1.127c-.764.94-.867 1.154-.649 1.355.142.131 2.021 1.704 4.175 3.497s3.97 3.398 4.036 3.569c.686 1.79-1.341 2.897-3.006 1.642-1.739-1.311-3.602-2.972-3.932-3.506-.5-.809-1.592-1.525-2.742-1.799-.851-.202-.963-.284-.963-.705 0-.262-.221-.921-.492-1.465-.572-1.148-1.639-1.997-3.07-2.443-.897-.28-.963-.343-1.161-1.123-.415-1.634-1.78-3.099-3.18-3.413l-.843-.202c-.179-.048-.392-.429-.516-.924-.631-2.506-3.122-4.11-5.568-3.585-1.234.265-2.228.96-4.07 2.847l-1.548 1.587-2.213-1.324c-1.217-.728-2.254-1.39-2.304-1.472-.085-.137 3.861-14.198 4.033-14.369.072-.072 10.403-2.376 11.471-2.559.909-.156 3.636-.125 4.731.053zm-8.086 18.672c.46.387.571.623.571 1.213 0 .668-.141.879-1.596 2.388-1.675 1.738-2.452 2.189-3.248 1.885-.979-.374-1.425-1.479-.951-2.355.108-.2.944-1.094 1.859-1.987 1.881-1.838 2.351-1.998 3.366-1.144zm4.616 4.536c.469.437.679 1.118.528 1.712-.058.23-.891 1.198-1.851 2.153-1.573 1.565-1.813 1.736-2.433 1.736-.778 0-1.486-.538-1.669-1.268s.377-1.614 2.043-3.214c1.394-1.339 1.63-1.494 2.268-1.494.458 0 .855.134 1.115.376zm4.62 4.684a1.6 1.6 0 0 1 .363 1.933c-.15.288-.98 1.213-1.845 2.055-1.442 1.405-1.633 1.531-2.32 1.531-.614 0-.838-.107-1.247-.593-.812-.966-.587-1.59 1.249-3.454 2.067-2.099 2.795-2.381 3.8-1.472zm4.633 4.623c.93.868.72 1.725-.82 3.351-2.14 2.261-3.131 2.654-4.142 1.643-.398-.399-.542-.72-.542-1.211 0-.583.19-.866 1.49-2.221 2.102-2.19 2.977-2.53 4.014-1.562zm4.285 4.073c.636.617.787.891.787 1.427 0 1.538-1.687 2.057-3.082.949l-.792-.643c-.039-.039.358-.539.881-1.112s.952-1.119.952-1.213c0-.373.506-.133 1.254.593z"/></mask><path fill-rule="evenodd" d="M44.111 5.602c-.294 1.431-.625 2.713-.737 2.849s-.788.437-1.502.67-1.933.742-2.709 1.13l-1.41.706-2.394-1.559-2.394-1.559-4.064 4.059-4.064 4.059.77 1.827.77 1.967c0 .076-.4.139-.889.139-1.956 0-4.618 1.033-6.379 2.476-1.349 1.104-2.814 3.294-3.353 5.009-.371 1.182-.419 1.719-.419 4.765 0 2.694.066 3.639.308 4.386.626 1.935 1.344 3.114 2.807 4.605.797.813 1.42 1.603 1.39 1.763-.038.201-.686.452-2.121.821l-2.066.531-3.847-2.248-3.847-2.248H5.482 3l.004 15.916.004 15.916 7.502 2.467c7.462 2.454 7.51 2.467 9.033 2.413 1.461-.052 1.536-.075 1.64-.518.06-.255.191-.464.291-.464s1.143.572 2.318 1.271l2.136 1.271.226.956c.424 1.791 2.054 3.369 3.709 3.591.7.094.745.138.838.839.223 1.663 1.8 3.286 3.608 3.715.862.204.974.285.974.707 0 .262.22.918.488 1.457a4.86 4.86 0 0 0 3.084 2.443c.727.176.901.3.989.705.343 1.58 1.177 2.73 2.503 3.453 1.288.701 2.992.76 4.18.145l.762-.395.6.619c1.464 1.511 3.699 2.119 5.54 1.508 1.553-.516 2.866-2.073 3.132-3.716.092-.569.17-.632.896-.742 1.692-.254 3.254-1.849 3.656-3.734.154-.722.236-.823.671-.826 1.702-.014 3.91-2.229 3.924-3.937.003-.401.11-.529.514-.616 2.466-.528 4.114-2.248 4.124-4.306l.004-.789 13.823-6.913L98 65.272V54.089 42.906h-1.778-1.778l-2.504 1.322c-2.337 1.234-2.537 1.306-2.999 1.08-.272-.133-2.123-.666-4.112-1.183-2.542-.661-3.632-1.024-3.667-1.219-.028-.153.597-.948 1.39-1.767 2.37-2.449 3.014-4.118 3.146-8.163.11-3.371-.153-4.885-1.228-7.053-.915-1.846-2.065-3.169-3.682-4.233-1.648-1.086-3.162-1.627-4.888-1.749l-1.414-.1.842-1.938.842-1.938-4.067-4.062-4.067-4.062-2.394 1.559-2.394 1.559-1.41-.706c-.775-.388-1.994-.897-2.709-1.13s-1.39-.535-1.502-.67-.443-1.417-.737-2.849L56.355 3H50.5h-5.855l-.534 2.602zm9.895 1.249l.492 2.296.43 1.771c.065.094.954.414 1.974.71s2.89 1.062 4.155 1.701c2.62 1.323 2.176 1.355 4.698-.337.889-.597 1.723-1.085 1.853-1.085.341 0 4.789 4.487 4.781 4.823-.004.155-.365 1.116-.804 2.137-.732 1.704-.865 1.893-1.617 2.3-.451.244-1.226.78-1.723 1.19-.786.649-.926.706-1.075.439-.495-.884-2.492-3.165-3.582-4.09-4.096-3.476-8.86-5.151-13.908-4.89-4.777.247-8.57 1.754-12.226 4.856-1.07.908-3.144 3.271-3.623 4.126-.16.285-.244.262-.864-.23-.378-.301-1.155-.844-1.727-1.207-.982-.623-1.084-.762-1.837-2.488-.438-1.005-.797-1.96-.797-2.121 0-.352 4.435-4.846 4.782-4.846.133 0 .969.488 1.858 1.085 2.522 1.692 2.078 1.66 4.698.337 1.265-.639 3.134-1.405 4.155-1.701s1.909-.616 1.974-.71.258-.891.43-1.771a52.82 52.82 0 0 1 .492-2.296l.181-.696H50.5h3.326l.181.696zm-.352 10.288c4.504.846 8.558 3.646 11.199 7.735l.522.808-.526 1.604c-.495 1.511-.526 1.789-.521 4.76.008 4.728.662 6.602 3.195 9.15.74.745 1.346 1.499 1.346 1.675 0 .26-.579.464-3.062 1.08l-3.061.76-3.061-.76c-2.549-.633-3.062-.816-3.062-1.096 0-.185.522-.824 1.16-1.421a11.2 11.2 0 0 0 2.947-4.656c.54-1.688.689-6.014.275-7.981-.895-4.256-4.158-7.694-8.206-8.646-1.664-.391-4.177-.264-5.772.293-3.134 1.094-5.711 3.728-6.75 6.901-.403 1.232-.445 1.676-.445 4.701 0 2.936.05 3.498.412 4.64.575 1.815 1.615 3.476 2.975 4.748.638.597 1.16 1.237 1.16 1.421 0 .28-.512.463-3.062 1.096l-3.061.76-3.062-.76c-2.397-.595-3.062-.826-3.062-1.063 0-.167.605-.92 1.345-1.675 2.488-2.538 3.181-4.468 3.193-8.889.008-2.915-.164-4.094-.826-5.659-.313-.739-.312-.743.251-1.67 3.657-6.027 10.648-9.154 17.561-7.857zm-25.089 6.319c1.889.695 3.732 2.551 4.505 4.535.351.902.436 1.544.504 3.816.071 2.392.033 2.89-.308 4.014-.524 1.724-1.704 3.304-3.159 4.229l-1.13.718.046 2.402.046 2.402 2.502.627c1.376.345 2.532.657 2.57.695s-.139.346-.393.684c-1.005 1.341-1.563 3.004-1.666 4.972l-.044.83-2.227.507-2.319.516c-.051.005-.066-.723-.034-1.618l.058-1.627-3.984-2.317c-2.192-1.275-3.888-2.37-3.769-2.434s.862-.267 1.653-.452l1.438-.335v-2.452-2.453l-.918-.589c-1.259-.808-2.17-1.867-2.86-3.324-.569-1.202-.583-1.298-.644-4.336-.051-2.534-.005-3.28.25-4.045.487-1.467 1.147-2.506 2.191-3.45 2.151-1.945 4.998-2.505 7.694-1.513zm24.141-.121c2.548.814 4.611 3.123 5.212 5.833.142.639.202 2.027.16 3.712-.061 2.478-.107 2.778-.58 3.792-.691 1.479-1.607 2.557-2.943 3.465l-1.11.754.11 2.342c.061 1.288.128 2.355.151 2.371s2.003.513 4.401 1.105c4.644 1.146 5.782 1.582 6.57 2.519 1.005 1.195 1.101 1.654 1.116 5.369l.014 3.434-.698.058c-.453.038-2.337-.41-5.361-1.273-2.564-.732-5.298-1.442-6.074-1.579s-2.831-.705-4.566-1.263c-6.375-2.049-7.917-2.224-13.134-1.492l-.888.125.129-.815c.274-1.726 1.072-2.889 2.459-3.581.472-.236 2.84-.919 5.264-1.518l4.407-1.09v-2.444-2.444l-.918-.589c-1.259-.808-2.17-1.867-2.86-3.324l-.582-1.229v-3.443-3.443l.699-1.414c1.704-3.45 5.441-5.08 9.022-3.936zm24.605.031c1.74.542 3.404 1.979 4.314 3.726.885 1.698 1.015 2.475.945 5.625-.061 2.753-.084 2.9-.646 4.085-.69 1.457-1.602 2.516-2.86 3.324l-.918.589v2.447 2.447l3.711.915c2.8.691 3.654.966 3.479 1.123-.242.217-16.2 8.621-16.37 8.621-.053 0-.098-1.107-.099-2.459-.003-3.175-.36-4.553-1.615-6.23-.254-.338-.43-.646-.392-.684s1.194-.351 2.57-.695l2.502-.627.044-2.402.044-2.402-1.156-.751c-1.326-.862-2.374-2.141-2.958-3.611-.333-.839-.419-1.501-.481-3.712-.113-4.014.389-5.68 2.266-7.509 2.105-2.051 4.808-2.697 7.622-1.821zM12.696 46.073l5.457 3.205c.055.055-5.451 22.033-5.542 22.125-.042.043-1.513-.399-3.267-.982l-3.19-1.06V56.134 42.906h.561c.391 0 2.204.96 5.981 3.167zm82.149 8.758v8.585l-12.85 6.426-12.85 6.426-6.772-6.106c-7.77-7.006-8.202-7.305-10.572-7.305-1.729 0-2.164.174-5.556 2.219-3.682 2.22-4.012 2.375-4.714 2.228-1.362-.287-2.099-1.778-1.54-3.117.26-.623.592-.823 5.128-3.093 2.667-1.335 5.353-2.556 5.969-2.714 1.473-.377 2.164-.251 8.229 1.507 3.444.999 5.094 1.391 5.832 1.389.994-.004 1.506-.256 15.223-7.503l14.334-7.513c.077-.008.139 3.849.139 8.571zm-70.453-1.905c.109.096-5.497 20.306-5.701 20.553-.085.102-3.075-.972-3.075-1.104 0-.158 5.15-20.866 5.285-21.251.052-.149.64.1 1.711.723.897.522 1.698 1.008 1.779 1.08zm18.221 2.412c1.267.206 4.362 1.118 4.357 1.285-.002.06-1.771.987-3.931 2.059s-4.259 2.241-4.665 2.599c-1.048.924-1.602 2.211-1.604 3.726-.003 1.676.42 2.793 1.459 3.861 1.008 1.035 2.179 1.51 3.721 1.507 1.255-.002 1.961-.316 5.487-2.435 1.429-.859 2.831-1.664 3.117-1.79.723-.318 1.895-.285 2.589.074.864.447 13.536 11.89 13.921 12.571.627 1.108-.175 2.347-1.519 2.347-.643 0-1.084-.316-5.046-3.615l-4.434-3.609c-.051.004-.501.509-1.001 1.124-.888 1.093-.901 1.125-.557 1.457.193.187 2.021 1.737 4.062 3.444s3.812 3.281 3.936 3.497c.369.644.271 1.224-.304 1.799-.633.633-1.526.723-2.246.225-.252-.175-2.24-1.803-4.418-3.619s-4.014-3.297-4.082-3.291-.532.513-1.031 1.127c-.764.94-.867 1.154-.649 1.355.142.131 2.021 1.704 4.175 3.497s3.97 3.398 4.036 3.569c.686 1.79-1.341 2.897-3.006 1.642-1.739-1.311-3.602-2.972-3.932-3.506-.5-.809-1.592-1.525-2.742-1.799-.851-.202-.963-.284-.963-.705 0-.262-.221-.921-.492-1.465-.572-1.148-1.639-1.997-3.07-2.443-.897-.28-.963-.343-1.161-1.123-.415-1.634-1.78-3.099-3.18-3.413l-.843-.202c-.179-.048-.392-.429-.516-.924-.631-2.506-3.122-4.11-5.568-3.585-1.234.265-2.228.96-4.07 2.847l-1.548 1.587-2.213-1.324c-1.217-.728-2.254-1.39-2.304-1.472-.085-.137 3.861-14.198 4.033-14.369.072-.072 10.403-2.376 11.471-2.559.909-.156 3.636-.125 4.731.053zm-8.086 18.672c.46.387.571.623.571 1.213 0 .668-.141.879-1.596 2.388-1.675 1.738-2.452 2.189-3.248 1.885-.979-.374-1.425-1.479-.951-2.355.108-.2.944-1.094 1.859-1.987 1.881-1.838 2.351-1.998 3.366-1.144zm4.616 4.536c.469.437.679 1.118.528 1.712-.058.23-.891 1.198-1.851 2.153-1.573 1.565-1.813 1.736-2.433 1.736-.778 0-1.486-.538-1.669-1.268s.377-1.614 2.043-3.214c1.394-1.339 1.63-1.494 2.268-1.494.458 0 .855.134 1.115.376zm4.62 4.684a1.6 1.6 0 0 1 .363 1.933c-.15.288-.98 1.213-1.845 2.055-1.442 1.405-1.633 1.531-2.32 1.531-.614 0-.838-.107-1.247-.593-.812-.966-.587-1.59 1.249-3.454 2.067-2.099 2.795-2.381 3.8-1.472zm4.633 4.623c.93.868.72 1.725-.82 3.351-2.14 2.261-3.131 2.654-4.142 1.643-.398-.399-.542-.72-.542-1.211 0-.583.19-.866 1.49-2.221 2.102-2.19 2.977-2.53 4.014-1.562zm4.285 4.073c.636.617.787.891.787 1.427 0 1.538-1.687 2.057-3.082.949l-.792-.643c-.039-.039.358-.539.881-1.112s.952-1.119.952-1.213c0-.373.506-.133 1.254.593z" fill="#282626" stroke="#fff" stroke-width="2" mask="url(#A)"/></svg>