<svg xmlns="http://www.w3.org/2000/svg" width="100" height="100" fill="none" xmlns:v="https://vecta.io/nano"><path fill="#e5e5e5" d="M0 0h100v100H0z"/><path fill="#fff" d="M.5.5h99v99H.5z"/><mask id="A" fill="#fff"><path fill-rule="evenodd" d="M71.173 3.349c-5.418 1.469-8.893 7.033-7.938 12.71l.215 1.276-6.937 7.056-6.937 7.056-1.636.008c-2.419.012-3.084.39-6.169 3.514l-2.478 2.51-.302-1.338c-.922-4.089-3.967-7.357-7.812-8.384-1.333-.356-3.91-.396-5.162-.079-1.29.326-2.894 1.125-4.008 1.996-3.568 2.789-5.158 7.908-3.785 12.179.369 1.148.308 1.387-.36 1.393-.159.002-.852.294-1.539.65-2.373 1.229-4.15 3.756-4.513 6.417-.214 1.569-.102 2.114.55 2.682.727.634 1.59.615 2.293-.048.449-.424.569-.723.708-1.771.349-2.632 1.876-4.152 4.5-4.478.954-.119 1.029-.095 2.015.636 3.784 2.805 8.31 3.116 12.08.828.492-.298 3.252-3.036 6.654-6.6 4.228-4.429 5.983-6.148 6.436-6.303 1.593-.544 3.289.729 3.289 2.47 0 .678-.753 2.061-1.455 2.671-.235.205-3.191 3.25-6.568 6.767l-6.141 6.396v5.423 5.422h-6.086-6.086l-.054-4.192-.054-4.192-.586-.541c-.8-.74-1.671-.739-2.386.001l-.524.542v5.723c0 3.183-.078 6.004-.176 6.357-.384 1.386-1.788 2.232-3.087 1.86-.741-.212-1.757-1.295-1.757-1.873 0-.559-1.118-1.645-1.694-1.645-1.053 0-1.892.864-1.892 1.951 0 .246.17.917.377 1.491.445 1.232 1.841 2.78 2.989 3.315l.758.353v2.549 2.549l-1.227 1.039c-4.632 3.923-7.979 9.047-9.273 14.196-.589 2.343-.57 2.709.173 3.478l.61.631h28.782l29.233-.177c.619-.244 1.043-.978 1.043-1.807 0-.543-.122-.807-.559-1.211l-.559-.517H46.373 28.607l.125-.51c.372-1.523.45-3.199.451-9.741l.001-7.189.523-.606c.446-.517.644-.606 1.341-.606.654 0 .917.103 1.314.514l.497.514.096 5.147c.084 4.48.14 5.255.434 5.982.865 2.135 2.235 3.449 4.285 4.107 3.057.982 6.249-.477 7.769-3.55l.505-1.021.035-9.187.035-9.187 1.31-.318c4.197-1.019 10.451-2.131 13.878-2.466l1.273-.124.114 1.269c.156 1.728.927 3.317 2.144 4.42 1.294 1.173 2.544 1.652 4.34 1.665 1.665.011 2.736-.344 3.966-1.316l.806-.637.683.56c1.26 1.033 2.261 1.376 4.047 1.387 1.381.009 1.76-.061 2.631-.481 2.141-1.033 3.661-3.204 3.864-5.52.092-1.051.129-1.129.478-1.019 1.718.536 3.654 2.431 4.673 4.576 1.127 2.371 1.167 2.83 1.17 13.642l.003 9.697h-6.183-6.183l-.577.533c-.441.408-.577.686-.577 1.182 0 .788.469 1.579 1.079 1.819.259.102 3.501.177 7.629.177h7.178l.618-.64.618-.64-.061-11.748c-.06-11.54-.068-11.773-.462-13.109-1.384-4.697-4.408-8.044-8.325-9.215l-1.031-.308v-6.462-6.462l.664-.129c1.44-.28 2.849-1.262 3.719-2.594 1.153-1.764 1.175-1.983 1.175-11.693 0-9.77-.039-10.145-1.274-12.272-1.064-1.832-3.299-3.548-5.068-3.892-.532-.103-.645-.193-.543-.433.409-.96.77-2.909.779-4.207.021-3.021-1.062-5.69-3.201-7.887-1.564-1.607-2.947-2.434-4.964-2.968-1.726-.457-3.529-.454-5.236.009zm4.324 3.614c1.459.393 2.374.922 3.359 1.942 4.488 4.646 1.284 12.628-5.068 12.628-4.253 0-7.715-4.166-7.008-8.436.511-3.087 2.444-5.336 5.253-6.115 1.284-.356 2.199-.361 3.464-.02zm-7.462 16.551c1.664 1.102 3.145 1.585 5.164 1.682 2.798.135 5.054-.555 7.082-2.166.966-.768 1.009-.782 2.151-.704 1.898.13 3.394 1.172 4.191 2.919.372.815.381 1.047.381 9.752 0 9.912.049 9.5-1.22 10.301-1.086.685-2.717.285-3.372-.828-.311-.527-.337-1.026-.338-6.418-.001-5.193-.036-5.919-.314-6.496-.54-1.118-2.185-1.324-2.946-.369-.166.208-.355.821-.42 1.362-.182 1.511.009 11.63.233 12.324l.195.603h-6.352-6.352v-7.253-7.253l-.524-.543c-.411-.425-.685-.543-1.269-.543-.727 0-.842.098-4.899 4.147-5.368 5.357-5.403 5.378-5.537 3.22-.066-1.065-.208-1.597-.663-2.481l-.579-1.125 6.243-6.413 6.243-6.413.967 1.025c.532.564 1.404 1.314 1.937 1.667zm-36.501 8.364c1.468.748 2.714 2.041 3.441 3.57.529 1.112.573 1.348.573 3.064 0 1.702-.047 1.962-.56 3.066-1.078 2.319-2.72 3.677-5.059 4.182-3.921.846-7.667-1.802-8.459-5.98-.53-2.796.799-5.866 3.241-7.489 1.339-.889 2.187-1.11 4.042-1.051 1.41.045 1.788.131 2.781.637zm30.997 17.403v13.085h-.71c-2.19 0-10.432 1.429-15.545 2.695l-2.62.649-1.073-.555c-.59-.305-1.467-.609-1.948-.675l-.874-.12v-4.663-4.663l6.162-6.377 6.162-6.377 1.772-.026c2.432-.035 2.868-.286 6.027-3.466l2.603-2.583c.025-.005.045 5.88.045 13.076zm9.502 8.943c0 8.76-.011 9.06-.371 9.83-.6 1.282-2 1.939-3.34 1.565-.77-.215-1.723-1.127-2.015-1.929-.21-.578-.278-18.163-.071-18.377.066-.068 1.397-.124 2.958-.124h2.839v9.036zm9.502-.028c0 9.792.003 9.758-1.011 10.736a2.73 2.73 0 0 1-3.788.047c-1.135-1.032-1.118-.861-1.118-10.783v-9.007h2.958 2.958v9.007zm-68.792.08c-.577.253-1.024 1.071-1.003 1.834.024.883.862 1.699 1.744 1.699.753 0 1.633-.716 1.766-1.436.106-.574-.21-1.501-.636-1.867-.373-.321-1.382-.445-1.871-.23zm28.383 10.319a5.22 5.22 0 0 1 .864.895c.361.5.37.719.37 8.804v8.292l-.432.627c-.932 1.354-2.966 1.667-4.146.639-1.123-.978-1.151-1.133-1.249-6.834l-.09-5.197-.538-1.006c-1.837-3.438-6.526-3.965-9.034-1.015-1.333 1.567-1.335 1.584-1.446 10.66-.089 7.296-.129 8.13-.414 8.58-.468.738-1.331 1.136-2.464 1.136-1.186 0-2.031-.418-2.517-1.243-.335-.569-.35-.998-.351-9.976l-.001-9.382.8-.403a7.87 7.87 0 0 0 1.517-1.073c.755-.706 1.806-2.644 1.806-3.33 0-.222.056-.461.125-.532s3.855-.106 8.414-.077c8.052.05 8.303.063 8.784.434zM16.331 93.499l.286.789H12.84 9.064l.117-.51c.245-1.067 2.084-4.654 3.116-6.078.592-.817 1.628-2.069 2.303-2.784l1.227-1.299.109 4.547c.084 3.493.176 4.73.395 5.336zm54.091 1.299c-.713.673-.841 1.446-.368 2.232 1.005 1.67 3.234.989 3.234-.987 0-1.569-1.727-2.319-2.866-1.244z"/></mask><g stroke="#fff"><path fill-rule="evenodd" d="M71.173 3.349c-5.418 1.469-8.893 7.033-7.938 12.71l.215 1.276-6.937 7.056-6.937 7.056-1.636.008c-2.419.012-3.084.39-6.169 3.514l-2.478 2.51-.302-1.338c-.922-4.089-3.967-7.357-7.812-8.384-1.333-.356-3.91-.396-5.162-.079-1.29.326-2.894 1.125-4.008 1.996-3.568 2.789-5.158 7.908-3.785 12.179.369 1.148.308 1.387-.36 1.393-.159.002-.852.294-1.539.65-2.373 1.229-4.15 3.756-4.513 6.417-.214 1.569-.102 2.114.55 2.682.727.634 1.59.615 2.293-.048.449-.424.569-.723.708-1.771.349-2.632 1.876-4.152 4.5-4.478.954-.119 1.029-.095 2.015.636 3.784 2.805 8.31 3.116 12.08.828.492-.298 3.252-3.036 6.654-6.6 4.228-4.429 5.983-6.148 6.436-6.303 1.593-.544 3.289.729 3.289 2.47 0 .678-.753 2.061-1.455 2.671-.235.205-3.191 3.25-6.568 6.767l-6.141 6.396v5.423 5.422h-6.086-6.086l-.054-4.192-.054-4.192-.586-.541c-.8-.74-1.671-.739-2.386.001l-.524.542v5.723c0 3.183-.078 6.004-.176 6.357-.384 1.386-1.788 2.232-3.087 1.86-.741-.212-1.757-1.295-1.757-1.873 0-.559-1.118-1.645-1.694-1.645-1.053 0-1.892.864-1.892 1.951 0 .246.17.917.377 1.491.445 1.232 1.841 2.78 2.989 3.315l.758.353v2.549 2.549l-1.227 1.039c-4.632 3.923-7.979 9.047-9.273 14.196-.589 2.343-.57 2.709.173 3.478l.61.631h28.782l29.233-.177c.619-.244 1.043-.978 1.043-1.807 0-.543-.122-.807-.559-1.211l-.559-.517H46.373 28.607l.125-.51c.372-1.523.45-3.199.451-9.741l.001-7.189.523-.606c.446-.517.644-.606 1.341-.606.654 0 .917.103 1.314.514l.497.514.096 5.147c.084 4.48.14 5.255.434 5.982.865 2.135 2.235 3.449 4.285 4.107 3.057.982 6.249-.477 7.769-3.55l.505-1.021.035-9.187.035-9.187 1.31-.318c4.197-1.019 10.451-2.131 13.878-2.466l1.273-.124.114 1.269c.156 1.728.927 3.317 2.144 4.42 1.294 1.173 2.544 1.652 4.34 1.665 1.665.011 2.736-.344 3.966-1.316l.806-.637.683.56c1.26 1.033 2.261 1.376 4.047 1.387 1.381.009 1.76-.061 2.631-.481 2.141-1.033 3.661-3.204 3.864-5.52.092-1.051.129-1.129.478-1.019 1.718.536 3.654 2.431 4.673 4.576 1.127 2.371 1.167 2.83 1.17 13.642l.003 9.697h-6.183-6.183l-.577.533c-.441.408-.577.686-.577 1.182 0 .788.469 1.579 1.079 1.819.259.102 3.501.177 7.629.177h7.178l.618-.64.618-.64-.061-11.748c-.06-11.54-.068-11.773-.462-13.109-1.384-4.697-4.408-8.044-8.325-9.215l-1.031-.308v-6.462-6.462l.664-.129c1.44-.28 2.849-1.262 3.719-2.594 1.153-1.764 1.175-1.983 1.175-11.693 0-9.77-.039-10.145-1.274-12.272-1.064-1.832-3.299-3.548-5.068-3.892-.532-.103-.645-.193-.543-.433.409-.96.77-2.909.779-4.207.021-3.021-1.062-5.69-3.201-7.887-1.564-1.607-2.947-2.434-4.964-2.968-1.726-.457-3.529-.454-5.236.009zm4.324 3.614c1.459.393 2.374.922 3.359 1.942 4.488 4.646 1.284 12.628-5.068 12.628-4.253 0-7.715-4.166-7.008-8.436.511-3.087 2.444-5.336 5.253-6.115 1.284-.356 2.199-.361 3.464-.02zm-7.462 16.551c1.664 1.102 3.145 1.585 5.164 1.682 2.798.135 5.054-.555 7.082-2.166.966-.768 1.009-.782 2.151-.704 1.898.13 3.394 1.172 4.191 2.919.372.815.381 1.047.381 9.752 0 9.912.049 9.5-1.22 10.301-1.086.685-2.717.285-3.372-.828-.311-.527-.337-1.026-.338-6.418-.001-5.193-.036-5.919-.314-6.496-.54-1.118-2.185-1.324-2.946-.369-.166.208-.355.821-.42 1.362-.182 1.511.009 11.63.233 12.324l.195.603h-6.352-6.352v-7.253-7.253l-.524-.543c-.411-.425-.685-.543-1.269-.543-.727 0-.842.098-4.899 4.147-5.368 5.357-5.403 5.378-5.537 3.22-.066-1.065-.208-1.597-.663-2.481l-.579-1.125 6.243-6.413 6.243-6.413.967 1.025c.532.564 1.404 1.314 1.937 1.667zm-36.501 8.364c1.468.748 2.714 2.041 3.441 3.57.529 1.112.573 1.348.573 3.064 0 1.702-.047 1.962-.56 3.066-1.078 2.319-2.72 3.677-5.059 4.182-3.921.846-7.667-1.802-8.459-5.98-.53-2.796.799-5.866 3.241-7.489 1.339-.889 2.187-1.11 4.042-1.051 1.41.045 1.788.131 2.781.637zm30.997 17.403v13.085h-.71c-2.19 0-10.432 1.429-15.545 2.695l-2.62.649-1.073-.555c-.59-.305-1.467-.609-1.948-.675l-.874-.12v-4.663-4.663l6.162-6.377 6.162-6.377 1.772-.026c2.432-.035 2.868-.286 6.027-3.466l2.603-2.583c.025-.005.045 5.88.045 13.076zm9.502 8.943c0 8.76-.011 9.06-.371 9.83-.6 1.282-2 1.939-3.34 1.565-.77-.215-1.723-1.127-2.015-1.929-.21-.578-.278-18.163-.071-18.377.066-.068 1.397-.124 2.958-.124h2.839v9.036zm9.502-.028c0 9.792.003 9.758-1.011 10.736a2.73 2.73 0 0 1-3.788.047c-1.135-1.032-1.118-.861-1.118-10.783v-9.007h2.958 2.958v9.007zm-68.792.08c-.577.253-1.024 1.071-1.003 1.834.024.883.862 1.699 1.744 1.699.753 0 1.633-.716 1.766-1.436.106-.574-.21-1.501-.636-1.867-.373-.321-1.382-.445-1.871-.23zm28.383 10.319a5.22 5.22 0 0 1 .864.895c.361.5.37.719.37 8.804v8.292l-.432.627c-.932 1.354-2.966 1.667-4.146.639-1.123-.978-1.151-1.133-1.249-6.834l-.09-5.197-.538-1.006c-1.837-3.438-6.526-3.965-9.034-1.015-1.333 1.567-1.335 1.584-1.446 10.66-.089 7.296-.129 8.13-.414 8.58-.468.738-1.331 1.136-2.464 1.136-1.186 0-2.031-.418-2.517-1.243-.335-.569-.35-.998-.351-9.976l-.001-9.382.8-.403a7.87 7.87 0 0 0 1.517-1.073c.755-.706 1.806-2.644 1.806-3.33 0-.222.056-.461.125-.532s3.855-.106 8.414-.077c8.052.05 8.303.063 8.784.434zM16.331 93.499l.286.789H12.84 9.064l.117-.51c.245-1.067 2.084-4.654 3.116-6.078.592-.817 1.628-2.069 2.303-2.784l1.227-1.299.109 4.547c.084 3.493.176 4.73.395 5.336zm54.091 1.299c-.713.673-.841 1.446-.368 2.232 1.005 1.67 3.234.989 3.234-.987 0-1.569-1.727-2.319-2.866-1.244z" fill="#282626" stroke-width="2" mask="url(#A)"/><path d="M.5.5h99v99H.5z"/></g></svg>