<svg width="100" height="100" viewBox="0 0 100 100" fill="none" xmlns="http://www.w3.org/2000/svg">
<rect width="100" height="100" fill="#E5E5E5"/>
<rect width="100" height="100" fill="white"/>
<mask id="path-1-inside-1" fill="white">
<path fill-rule="evenodd" clip-rule="evenodd" d="M44.1111 5.60222C43.8175 7.03344 43.486 8.31524 43.3741 8.45073C43.2624 8.58623 42.5864 8.88784 41.8721 9.12096C41.1577 9.35409 39.9389 9.86246 39.1635 10.2508L37.7537 10.9568L35.3597 9.39807L32.9658 7.83916L28.9022 11.8978L24.8387 15.9567L25.6091 17.7842C26.0329 18.7894 26.3795 19.6746 26.3793 19.7511C26.3791 19.8275 25.9791 19.8903 25.4901 19.8903C23.5343 19.8903 20.8722 20.9234 19.1107 22.3661C17.7621 23.4705 16.2967 25.6597 15.7575 27.3749C15.3862 28.5565 15.3389 29.094 15.3389 32.1404C15.3389 34.8341 15.4053 35.7794 15.6471 36.5263C16.2729 38.461 16.9915 39.6398 18.4536 41.131C19.2508 41.944 19.874 42.7343 19.8439 42.8943C19.8059 43.0955 19.1583 43.3462 17.7231 43.715L15.6571 44.2459L11.8105 41.9982L7.96394 39.7503H5.48206H3L3.00445 55.6661L3.00891 71.582L10.5111 74.0489C17.9734 76.5028 18.0215 76.5156 19.5441 76.4618C21.0051 76.4102 21.0801 76.3866 21.1842 75.9437C21.2441 75.6885 21.3751 75.4797 21.4755 75.4797C21.5757 75.4797 22.6186 76.0518 23.7931 76.7509L25.9288 78.022L26.1551 78.9782C26.5793 80.7693 28.2091 82.3474 29.864 82.5695C30.5641 82.6635 30.6086 82.708 30.7025 83.4083C30.9255 85.071 32.5023 86.6941 34.311 87.1229C35.1733 87.327 35.2852 87.4083 35.2852 87.83C35.2852 88.0921 35.505 88.7479 35.7737 89.287C36.3563 90.4567 37.5707 91.4186 38.858 91.73C39.5848 91.9058 39.7594 92.0303 39.8474 92.4351C40.1901 94.0148 41.0243 95.1654 42.3502 95.8878C43.6379 96.589 45.3425 96.6482 46.5304 96.0328L47.2921 95.638L47.8921 96.2572C49.3563 97.7682 51.5912 98.3764 53.4324 97.7647C54.9858 97.2485 56.2983 95.6914 56.5648 94.0488C56.657 93.4803 56.7346 93.4163 57.4604 93.3073C59.1528 93.0536 60.7145 91.4583 61.1164 89.5729C61.2703 88.8512 61.3523 88.7501 61.787 88.7466C63.4894 88.7326 65.697 86.5176 65.7108 84.81C65.7139 84.4087 65.8212 84.2805 66.2251 84.194C68.6914 83.6661 70.3389 81.9459 70.3494 79.8877L70.3535 79.0987L84.1768 72.1856L98 65.2724V54.089V42.9056H96.2217H94.4434L91.9391 44.2279C89.6021 45.4616 89.4016 45.5338 88.9396 45.3077C88.6672 45.1745 86.8169 44.6421 84.8278 44.1249C82.2855 43.4635 81.1961 43.1012 81.1605 42.9056C81.1325 42.7525 81.758 41.9573 82.5504 41.1386C84.9206 38.6899 85.5641 37.0202 85.6964 32.9756C85.8068 29.6046 85.5431 28.0904 84.4679 25.9225C83.5524 24.0761 82.4024 22.7538 80.7859 21.6892C79.1379 20.6036 77.6244 20.0621 75.8978 19.9402L74.484 19.8405L75.3262 17.9021L76.1684 15.9638L72.1014 11.9014L68.0342 7.83916L65.6403 9.39807L63.2463 10.9568L61.8365 10.2508C61.0611 9.86246 59.8423 9.35409 59.1279 9.12096C58.4136 8.88784 57.7376 8.58623 57.6259 8.45073C57.514 8.31524 57.1825 7.03344 56.8889 5.60222L56.3553 3H50.5H44.6447L44.1111 5.60222ZM54.0061 6.85135C54.1054 7.23426 54.3267 8.26735 54.4978 9.1475C54.6689 10.0275 54.8622 10.8247 54.9273 10.9189C54.9926 11.013 55.8809 11.3328 56.9014 11.6294C57.9219 11.926 59.7916 12.6915 61.0563 13.3305C63.6759 14.6539 63.2324 14.6858 65.7542 12.9938C66.6431 12.3973 67.477 11.9092 67.6069 11.9092C67.9475 11.9092 72.3958 16.3966 72.3878 16.7322C72.3841 16.8868 72.0223 17.8486 71.5837 18.8694C70.8517 20.5731 70.7189 20.7621 69.9668 21.1699C69.5161 21.4143 68.7407 21.9498 68.2438 22.3598C67.4573 23.0087 67.318 23.0656 67.1688 22.7989C66.6739 21.9147 64.6769 19.6343 63.587 18.7094C59.4909 15.2334 54.7268 13.5585 49.6786 13.8196C44.9017 14.0667 41.1084 15.5734 37.4525 18.6758C36.3829 19.5837 34.3081 21.9464 33.8295 22.8021C33.67 23.0872 33.5854 23.0645 32.9656 22.5716C32.5879 22.2709 31.8108 21.7278 31.2389 21.3647C30.257 20.7417 30.1546 20.6028 29.4022 18.8767C28.9639 17.8712 28.6055 16.9167 28.6055 16.7554C28.6055 16.4038 33.041 11.9092 33.3876 11.9092C33.5206 11.9092 34.3569 12.3973 35.2458 12.9938C37.7676 14.6858 37.3241 14.6539 39.9437 13.3305C41.2084 12.6915 43.0781 11.926 44.0986 11.6294C45.1191 11.3328 46.0074 11.013 46.0727 10.9189C46.1378 10.8247 46.3311 10.0275 46.5022 9.1475C46.6733 8.26735 46.8946 7.23426 46.9939 6.85135L47.1744 6.15533H50.5H53.8256L54.0061 6.85135ZM53.6543 17.1396C58.1586 17.9852 62.2126 20.7853 64.853 24.8748L65.3749 25.6833L64.8491 27.2877C64.3539 28.7985 64.3236 29.0765 64.3284 32.0476C64.3362 36.7757 64.9903 38.6493 67.523 41.1976C68.2633 41.9427 68.8691 42.6964 68.8691 42.8726C68.8691 43.1322 68.2897 43.3368 65.8076 43.953L62.7461 44.7132L59.6846 43.953C57.1352 43.3201 56.623 43.1369 56.623 42.8573C56.623 42.6727 57.145 42.0331 57.7827 41.4361C59.1157 40.1883 60.175 38.5147 60.7298 36.7806C61.2697 35.0925 61.4189 30.7667 61.0049 28.7994C60.1095 24.5429 56.8466 21.1053 52.7984 20.1529C51.1342 19.7615 48.621 19.889 47.026 20.4458C43.8916 21.5401 41.3154 24.1741 40.2764 27.3465C39.8732 28.5782 39.8311 29.0223 39.8311 32.0476C39.8311 34.9837 39.881 35.5459 40.2426 36.6878C40.8174 38.5028 41.8578 40.1634 43.2173 41.4361C43.8552 42.0331 44.377 42.6727 44.377 42.8573C44.377 43.1369 43.8648 43.3201 41.3154 43.953L38.2539 44.7132L35.1924 43.953C32.7957 43.3579 32.1309 43.1272 32.1309 42.8902C32.1309 42.7235 32.7361 41.97 33.4761 41.2153C35.9639 38.6777 36.6571 36.7477 36.669 32.326C36.6769 29.4114 36.5048 28.2322 35.8425 26.6666C35.5297 25.9272 35.5303 25.924 36.0934 24.9962C39.7507 18.9697 46.7419 15.8418 53.6543 17.1396ZM28.565 23.4586C30.4541 24.1537 32.2975 26.0092 33.0703 27.9932C33.4217 28.8956 33.5063 29.537 33.574 31.8091C33.6453 34.2008 33.6069 34.6995 33.2657 35.8236C32.7422 37.5477 31.5622 39.1274 30.1067 40.0526L28.9764 40.7711L29.0229 43.1727L29.0693 45.5743L31.5709 46.2009C32.9467 46.5455 34.1032 46.8583 34.1409 46.896C34.1786 46.9337 34.0017 47.2416 33.7479 47.5799C32.7426 48.921 32.1852 50.584 32.0817 52.5522L32.0381 53.3824L29.8115 53.8893C28.5869 54.1679 27.5432 54.4001 27.4922 54.4051C27.4412 54.4101 27.4258 53.6818 27.4579 52.787L27.5163 51.1596L23.5319 48.8423C21.3404 47.5677 19.6441 46.4724 19.7625 46.408C19.8807 46.3438 20.6245 46.1406 21.4155 45.9564L22.8535 45.6218V43.1694V40.7169L21.9356 40.1278C20.6771 39.3199 19.7656 38.2606 19.0754 36.8034C18.5062 35.6014 18.4919 35.5051 18.4312 32.4672C18.3805 29.9333 18.4266 29.1874 18.6808 28.4221C19.1678 26.9552 19.8278 25.9157 20.8715 24.972C23.0227 23.0267 25.8698 22.4667 28.565 23.4586ZM52.7062 23.3374C55.2545 24.1515 57.317 26.4599 57.9185 29.1707C58.0603 29.8097 58.1202 31.198 58.0787 32.8828C58.0176 35.3607 57.9716 35.6613 57.4983 36.6748C56.8075 38.1533 55.8912 39.2321 54.5553 40.1397L53.4457 40.8934L53.5554 43.2352C53.6159 44.5232 53.6836 45.5899 53.7062 45.6058C53.7287 45.6218 55.7092 46.119 58.1074 46.7107C62.7518 47.8569 63.8893 48.293 64.6771 49.2296C65.682 50.4242 65.7776 50.8838 65.7931 54.5989L65.8076 58.0326L65.1092 58.0903C64.6563 58.1278 62.7717 57.6805 59.7482 56.8178C57.1838 56.0861 54.4505 55.3756 53.6741 55.2388C52.8978 55.1022 50.8433 54.5339 49.1084 53.9762C42.7339 51.9269 41.1913 51.7517 35.9746 52.4846L35.0868 52.6093L35.2161 51.7945C35.4898 50.0682 36.2879 48.9057 37.675 48.2132C38.1465 47.9777 40.5154 47.2947 42.939 46.695L47.3457 45.6049V43.161V40.7169L46.4278 40.1278C45.1692 39.3199 44.2578 38.2606 43.5676 36.8034L42.9854 35.5741V32.1307V28.6873L43.6841 27.2732C45.3886 23.8233 49.1249 22.1933 52.7062 23.3374ZM77.3115 23.368C79.0518 23.9098 80.7154 25.3466 81.6253 27.0935C82.51 28.7918 82.6404 29.5686 82.5703 32.7185C82.5091 35.4715 82.4859 35.6183 81.9246 36.8034C81.2344 38.2606 80.3229 39.3199 79.0644 40.1278L78.1465 40.7169V43.1634V45.6099L81.8574 46.5249C84.6575 47.2154 85.5112 47.4908 85.3364 47.6479C85.0947 47.8647 69.136 56.2693 68.966 56.2693C68.9127 56.2693 68.8682 55.1627 68.8669 53.81C68.8641 50.6354 68.5066 49.2567 67.2514 47.5799C66.9979 47.2416 66.8214 46.9337 66.8591 46.896C66.8968 46.8583 68.0533 46.5455 69.4291 46.2009L71.9307 45.5743L71.9745 43.1727L72.0182 40.7711L70.8625 40.02C69.536 39.158 68.488 37.8788 67.9045 36.4093C67.5714 35.5708 67.4855 34.908 67.4232 32.6972C67.31 28.6831 67.8126 27.0172 69.6894 25.1886C71.7943 23.1377 74.4975 22.4919 77.3115 23.368ZM12.6963 46.073C15.6767 47.8151 18.1325 49.2576 18.1532 49.2784C18.2083 49.3334 12.7026 71.3113 12.6108 71.403C12.5683 71.4457 11.0982 71.0036 9.34385 70.421L6.1543 69.3613V56.1335V42.9056H6.71576C7.10689 42.9056 8.92006 43.8659 12.6963 46.073ZM94.8457 54.8314V63.4165L81.9958 69.8426L69.146 76.2689L62.3743 70.1632C54.6043 63.1572 54.1718 62.8584 51.8027 62.8584C50.0738 62.8584 49.6385 63.0323 46.2465 65.0772C42.5645 67.297 42.2348 67.4527 41.5323 67.3048C40.1702 67.018 39.4331 65.5263 39.9919 64.1881C40.2522 63.5648 40.5836 63.3649 45.1197 61.0948C47.7869 59.7601 50.4731 58.5388 51.0889 58.381C52.5622 58.0035 53.2531 58.13 59.3183 59.8883C62.7626 60.8869 64.4125 61.2796 65.15 61.277C66.1442 61.2735 66.6558 61.0214 80.373 53.7737C88.1799 49.6489 94.6299 46.2679 94.7065 46.2603C94.7832 46.2527 94.8457 50.1098 94.8457 54.8314ZM24.393 52.9265C24.5019 53.0227 18.896 73.2327 18.6919 73.4796C18.6073 73.5817 15.6172 72.5079 15.6172 72.3752C15.6172 72.2173 20.7676 51.5091 20.9027 51.1243C20.9548 50.9756 21.5426 51.224 22.6136 51.8469C23.5109 52.3688 24.3117 52.8545 24.393 52.9265ZM42.6143 55.3389C43.881 55.5449 46.9763 56.4574 46.9715 56.6235C46.9698 56.6838 45.2006 57.6104 43.0403 58.6822C40.8798 59.7541 38.7809 60.9234 38.3756 61.2807C37.3275 62.2052 36.7736 63.4913 36.7714 65.0062C36.7688 66.6819 37.1913 67.7993 38.2307 68.8669C39.2388 69.902 40.41 70.3764 41.9515 70.3736C43.206 70.3714 43.9129 70.0577 47.4385 67.939C48.8672 67.0804 50.2697 66.2751 50.5551 66.1494C51.2784 65.8311 52.4503 65.8645 53.1439 66.2233C54.0078 66.67 66.6799 78.1129 67.0654 78.7941C67.6924 79.9022 66.8905 81.1407 65.5462 81.1407C64.9033 81.1407 64.4624 80.8248 60.5004 77.5258C58.1128 75.5376 56.1174 73.9136 56.0664 73.9169C56.0154 73.9204 55.5651 74.426 55.0656 75.0407C54.1772 76.1338 54.1651 76.1657 54.5089 76.4981C54.7023 76.6852 56.5303 78.2349 58.5713 79.9419C60.6123 81.6489 62.3837 83.2225 62.5077 83.4389C62.8769 84.0832 62.7789 84.663 62.2037 85.2384C61.5705 85.8719 60.6772 85.9613 59.9579 85.4633C59.7055 85.2887 57.7176 83.66 55.5404 81.844C53.3632 80.028 51.5263 78.5471 51.4584 78.5528C51.3904 78.5586 50.9266 79.0658 50.4274 79.68C49.6639 80.6197 49.5609 80.8345 49.778 81.0346C49.92 81.1652 51.7986 82.7388 53.953 84.5312C56.1072 86.3236 57.9232 87.9297 57.9887 88.1001C58.6752 89.8901 56.6481 90.9974 54.9826 89.742C53.2439 88.4312 51.381 86.7698 51.0509 86.2357C50.5512 85.4268 49.4589 84.7103 48.3089 84.4371C47.458 84.2348 47.3457 84.1528 47.3457 83.7318C47.3457 83.4697 47.1242 82.8105 46.8533 82.2668C46.2812 81.1185 45.2145 80.2697 43.7828 79.8237C42.8859 79.5441 42.8198 79.4803 42.6221 78.7007C42.2072 77.0665 40.8421 75.6013 39.4421 75.2876C39.1458 75.2212 38.7664 75.13 38.5992 75.0853C38.4203 75.0374 38.2075 74.6564 38.0828 74.1613C37.4522 71.6556 34.9604 70.0511 32.5148 70.5758C31.2805 70.8405 30.2871 71.5356 28.4453 73.423L26.897 75.0099L24.6836 73.686C23.4664 72.9579 22.4292 72.2956 22.3791 72.2143C22.2941 72.0768 26.2401 58.0166 26.4119 57.8448C26.4836 57.7733 36.8148 55.4683 37.8828 55.2856C38.7918 55.1301 41.5192 55.1607 42.6143 55.3389ZM34.5287 74.0114C34.9887 74.3984 35.0996 74.6343 35.0996 75.2243C35.0996 75.8919 34.9586 76.103 33.5041 77.6123C31.8288 79.3507 31.0517 79.8016 30.2557 79.4972C29.2771 79.1228 28.8307 78.0183 29.3042 77.1424C29.4122 76.9425 30.2487 76.0482 31.1629 75.1549C33.0439 73.3172 33.5143 73.1574 34.5287 74.0114ZM39.1443 78.5474C39.6138 78.9847 39.8234 79.665 39.6722 80.2591C39.6138 80.4889 38.7807 81.4576 37.8208 82.4121C36.2476 83.9768 36.008 84.1476 35.3876 84.1476C34.6096 84.1476 33.9017 83.6097 33.7184 82.8793C33.5347 82.1473 34.0952 81.2656 35.7613 79.6655C37.1551 78.3269 37.3917 78.171 38.029 78.171C38.4873 78.171 38.8842 78.305 39.1443 78.5474ZM43.7643 83.2314C44.3167 83.7309 44.4643 84.5175 44.1276 85.1641C43.9775 85.4524 43.1473 86.3771 42.2831 87.2194C40.841 88.6244 40.6497 88.7506 39.963 88.7506C39.3492 88.7506 39.125 88.6441 38.7159 88.1576C37.9034 87.1917 38.1288 86.5681 39.9645 84.7038C42.0315 82.6048 42.7595 82.3227 43.7643 83.2314ZM48.3968 87.854C49.3266 88.7219 49.1167 89.5786 47.5765 91.2053C45.4361 93.4658 44.4452 93.8589 43.4349 92.8483C43.0364 92.4496 42.8926 92.1287 42.8926 91.6374C42.8926 91.0546 43.083 90.771 44.3831 89.416C46.4851 87.2259 47.3596 86.8857 48.3968 87.854ZM52.682 91.9273C53.3179 92.5446 53.4688 92.8182 53.4688 93.3539C53.4688 94.892 51.7821 95.4113 50.3864 94.3027C49.9896 93.9877 49.6331 93.6982 49.5942 93.6596C49.5552 93.621 49.9517 93.1202 50.4755 92.5471C50.9993 91.9739 51.4277 91.428 51.4277 91.3341C51.4277 90.9616 51.9341 91.201 52.682 91.9273Z"/>
</mask>
<path fill-rule="evenodd" clip-rule="evenodd" d="M44.1111 5.60222C43.8175 7.03344 43.486 8.31524 43.3741 8.45073C43.2624 8.58623 42.5864 8.88784 41.8721 9.12096C41.1577 9.35409 39.9389 9.86246 39.1635 10.2508L37.7537 10.9568L35.3597 9.39807L32.9658 7.83916L28.9022 11.8978L24.8387 15.9567L25.6091 17.7842C26.0329 18.7894 26.3795 19.6746 26.3793 19.7511C26.3791 19.8275 25.9791 19.8903 25.4901 19.8903C23.5343 19.8903 20.8722 20.9234 19.1107 22.3661C17.7621 23.4705 16.2967 25.6597 15.7575 27.3749C15.3862 28.5565 15.3389 29.094 15.3389 32.1404C15.3389 34.8341 15.4053 35.7794 15.6471 36.5263C16.2729 38.461 16.9915 39.6398 18.4536 41.131C19.2508 41.944 19.874 42.7343 19.8439 42.8943C19.8059 43.0955 19.1583 43.3462 17.7231 43.715L15.6571 44.2459L11.8105 41.9982L7.96394 39.7503H5.48206H3L3.00445 55.6661L3.00891 71.582L10.5111 74.0489C17.9734 76.5028 18.0215 76.5156 19.5441 76.4618C21.0051 76.4102 21.0801 76.3866 21.1842 75.9437C21.2441 75.6885 21.3751 75.4797 21.4755 75.4797C21.5757 75.4797 22.6186 76.0518 23.7931 76.7509L25.9288 78.022L26.1551 78.9782C26.5793 80.7693 28.2091 82.3474 29.864 82.5695C30.5641 82.6635 30.6086 82.708 30.7025 83.4083C30.9255 85.071 32.5023 86.6941 34.311 87.1229C35.1733 87.327 35.2852 87.4083 35.2852 87.83C35.2852 88.0921 35.505 88.7479 35.7737 89.287C36.3563 90.4567 37.5707 91.4186 38.858 91.73C39.5848 91.9058 39.7594 92.0303 39.8474 92.4351C40.1901 94.0148 41.0243 95.1654 42.3502 95.8878C43.6379 96.589 45.3425 96.6482 46.5304 96.0328L47.2921 95.638L47.8921 96.2572C49.3563 97.7682 51.5912 98.3764 53.4324 97.7647C54.9858 97.2485 56.2983 95.6914 56.5648 94.0488C56.657 93.4803 56.7346 93.4163 57.4604 93.3073C59.1528 93.0536 60.7145 91.4583 61.1164 89.5729C61.2703 88.8512 61.3523 88.7501 61.787 88.7466C63.4894 88.7326 65.697 86.5176 65.7108 84.81C65.7139 84.4087 65.8212 84.2805 66.2251 84.194C68.6914 83.6661 70.3389 81.9459 70.3494 79.8877L70.3535 79.0987L84.1768 72.1856L98 65.2724V54.089V42.9056H96.2217H94.4434L91.9391 44.2279C89.6021 45.4616 89.4016 45.5338 88.9396 45.3077C88.6672 45.1745 86.8169 44.6421 84.8278 44.1249C82.2855 43.4635 81.1961 43.1012 81.1605 42.9056C81.1325 42.7525 81.758 41.9573 82.5504 41.1386C84.9206 38.6899 85.5641 37.0202 85.6964 32.9756C85.8068 29.6046 85.5431 28.0904 84.4679 25.9225C83.5524 24.0761 82.4024 22.7538 80.7859 21.6892C79.1379 20.6036 77.6244 20.0621 75.8978 19.9402L74.484 19.8405L75.3262 17.9021L76.1684 15.9638L72.1014 11.9014L68.0342 7.83916L65.6403 9.39807L63.2463 10.9568L61.8365 10.2508C61.0611 9.86246 59.8423 9.35409 59.1279 9.12096C58.4136 8.88784 57.7376 8.58623 57.6259 8.45073C57.514 8.31524 57.1825 7.03344 56.8889 5.60222L56.3553 3H50.5H44.6447L44.1111 5.60222ZM54.0061 6.85135C54.1054 7.23426 54.3267 8.26735 54.4978 9.1475C54.6689 10.0275 54.8622 10.8247 54.9273 10.9189C54.9926 11.013 55.8809 11.3328 56.9014 11.6294C57.9219 11.926 59.7916 12.6915 61.0563 13.3305C63.6759 14.6539 63.2324 14.6858 65.7542 12.9938C66.6431 12.3973 67.477 11.9092 67.6069 11.9092C67.9475 11.9092 72.3958 16.3966 72.3878 16.7322C72.3841 16.8868 72.0223 17.8486 71.5837 18.8694C70.8517 20.5731 70.7189 20.7621 69.9668 21.1699C69.5161 21.4143 68.7407 21.9498 68.2438 22.3598C67.4573 23.0087 67.318 23.0656 67.1688 22.7989C66.6739 21.9147 64.6769 19.6343 63.587 18.7094C59.4909 15.2334 54.7268 13.5585 49.6786 13.8196C44.9017 14.0667 41.1084 15.5734 37.4525 18.6758C36.3829 19.5837 34.3081 21.9464 33.8295 22.8021C33.67 23.0872 33.5854 23.0645 32.9656 22.5716C32.5879 22.2709 31.8108 21.7278 31.2389 21.3647C30.257 20.7417 30.1546 20.6028 29.4022 18.8767C28.9639 17.8712 28.6055 16.9167 28.6055 16.7554C28.6055 16.4038 33.041 11.9092 33.3876 11.9092C33.5206 11.9092 34.3569 12.3973 35.2458 12.9938C37.7676 14.6858 37.3241 14.6539 39.9437 13.3305C41.2084 12.6915 43.0781 11.926 44.0986 11.6294C45.1191 11.3328 46.0074 11.013 46.0727 10.9189C46.1378 10.8247 46.3311 10.0275 46.5022 9.1475C46.6733 8.26735 46.8946 7.23426 46.9939 6.85135L47.1744 6.15533H50.5H53.8256L54.0061 6.85135ZM53.6543 17.1396C58.1586 17.9852 62.2126 20.7853 64.853 24.8748L65.3749 25.6833L64.8491 27.2877C64.3539 28.7985 64.3236 29.0765 64.3284 32.0476C64.3362 36.7757 64.9903 38.6493 67.523 41.1976C68.2633 41.9427 68.8691 42.6964 68.8691 42.8726C68.8691 43.1322 68.2897 43.3368 65.8076 43.953L62.7461 44.7132L59.6846 43.953C57.1352 43.3201 56.623 43.1369 56.623 42.8573C56.623 42.6727 57.145 42.0331 57.7827 41.4361C59.1157 40.1883 60.175 38.5147 60.7298 36.7806C61.2697 35.0925 61.4189 30.7667 61.0049 28.7994C60.1095 24.5429 56.8466 21.1053 52.7984 20.1529C51.1342 19.7615 48.621 19.889 47.026 20.4458C43.8916 21.5401 41.3154 24.1741 40.2764 27.3465C39.8732 28.5782 39.8311 29.0223 39.8311 32.0476C39.8311 34.9837 39.881 35.5459 40.2426 36.6878C40.8174 38.5028 41.8578 40.1634 43.2173 41.4361C43.8552 42.0331 44.377 42.6727 44.377 42.8573C44.377 43.1369 43.8648 43.3201 41.3154 43.953L38.2539 44.7132L35.1924 43.953C32.7957 43.3579 32.1309 43.1272 32.1309 42.8902C32.1309 42.7235 32.7361 41.97 33.4761 41.2153C35.9639 38.6777 36.6571 36.7477 36.669 32.326C36.6769 29.4114 36.5048 28.2322 35.8425 26.6666C35.5297 25.9272 35.5303 25.924 36.0934 24.9962C39.7507 18.9697 46.7419 15.8418 53.6543 17.1396ZM28.565 23.4586C30.4541 24.1537 32.2975 26.0092 33.0703 27.9932C33.4217 28.8956 33.5063 29.537 33.574 31.8091C33.6453 34.2008 33.6069 34.6995 33.2657 35.8236C32.7422 37.5477 31.5622 39.1274 30.1067 40.0526L28.9764 40.7711L29.0229 43.1727L29.0693 45.5743L31.5709 46.2009C32.9467 46.5455 34.1032 46.8583 34.1409 46.896C34.1786 46.9337 34.0017 47.2416 33.7479 47.5799C32.7426 48.921 32.1852 50.584 32.0817 52.5522L32.0381 53.3824L29.8115 53.8893C28.5869 54.1679 27.5432 54.4001 27.4922 54.4051C27.4412 54.4101 27.4258 53.6818 27.4579 52.787L27.5163 51.1596L23.5319 48.8423C21.3404 47.5677 19.6441 46.4724 19.7625 46.408C19.8807 46.3438 20.6245 46.1406 21.4155 45.9564L22.8535 45.6218V43.1694V40.7169L21.9356 40.1278C20.6771 39.3199 19.7656 38.2606 19.0754 36.8034C18.5062 35.6014 18.4919 35.5051 18.4312 32.4672C18.3805 29.9333 18.4266 29.1874 18.6808 28.4221C19.1678 26.9552 19.8278 25.9157 20.8715 24.972C23.0227 23.0267 25.8698 22.4667 28.565 23.4586ZM52.7062 23.3374C55.2545 24.1515 57.317 26.4599 57.9185 29.1707C58.0603 29.8097 58.1202 31.198 58.0787 32.8828C58.0176 35.3607 57.9716 35.6613 57.4983 36.6748C56.8075 38.1533 55.8912 39.2321 54.5553 40.1397L53.4457 40.8934L53.5554 43.2352C53.6159 44.5232 53.6836 45.5899 53.7062 45.6058C53.7287 45.6218 55.7092 46.119 58.1074 46.7107C62.7518 47.8569 63.8893 48.293 64.6771 49.2296C65.682 50.4242 65.7776 50.8838 65.7931 54.5989L65.8076 58.0326L65.1092 58.0903C64.6563 58.1278 62.7717 57.6805 59.7482 56.8178C57.1838 56.0861 54.4505 55.3756 53.6741 55.2388C52.8978 55.1022 50.8433 54.5339 49.1084 53.9762C42.7339 51.9269 41.1913 51.7517 35.9746 52.4846L35.0868 52.6093L35.2161 51.7945C35.4898 50.0682 36.2879 48.9057 37.675 48.2132C38.1465 47.9777 40.5154 47.2947 42.939 46.695L47.3457 45.6049V43.161V40.7169L46.4278 40.1278C45.1692 39.3199 44.2578 38.2606 43.5676 36.8034L42.9854 35.5741V32.1307V28.6873L43.6841 27.2732C45.3886 23.8233 49.1249 22.1933 52.7062 23.3374ZM77.3115 23.368C79.0518 23.9098 80.7154 25.3466 81.6253 27.0935C82.51 28.7918 82.6404 29.5686 82.5703 32.7185C82.5091 35.4715 82.4859 35.6183 81.9246 36.8034C81.2344 38.2606 80.3229 39.3199 79.0644 40.1278L78.1465 40.7169V43.1634V45.6099L81.8574 46.5249C84.6575 47.2154 85.5112 47.4908 85.3364 47.6479C85.0947 47.8647 69.136 56.2693 68.966 56.2693C68.9127 56.2693 68.8682 55.1627 68.8669 53.81C68.8641 50.6354 68.5066 49.2567 67.2514 47.5799C66.9979 47.2416 66.8214 46.9337 66.8591 46.896C66.8968 46.8583 68.0533 46.5455 69.4291 46.2009L71.9307 45.5743L71.9745 43.1727L72.0182 40.7711L70.8625 40.02C69.536 39.158 68.488 37.8788 67.9045 36.4093C67.5714 35.5708 67.4855 34.908 67.4232 32.6972C67.31 28.6831 67.8126 27.0172 69.6894 25.1886C71.7943 23.1377 74.4975 22.4919 77.3115 23.368ZM12.6963 46.073C15.6767 47.8151 18.1325 49.2576 18.1532 49.2784C18.2083 49.3334 12.7026 71.3113 12.6108 71.403C12.5683 71.4457 11.0982 71.0036 9.34385 70.421L6.1543 69.3613V56.1335V42.9056H6.71576C7.10689 42.9056 8.92006 43.8659 12.6963 46.073ZM94.8457 54.8314V63.4165L81.9958 69.8426L69.146 76.2689L62.3743 70.1632C54.6043 63.1572 54.1718 62.8584 51.8027 62.8584C50.0738 62.8584 49.6385 63.0323 46.2465 65.0772C42.5645 67.297 42.2348 67.4527 41.5323 67.3048C40.1702 67.018 39.4331 65.5263 39.9919 64.1881C40.2522 63.5648 40.5836 63.3649 45.1197 61.0948C47.7869 59.7601 50.4731 58.5388 51.0889 58.381C52.5622 58.0035 53.2531 58.13 59.3183 59.8883C62.7626 60.8869 64.4125 61.2796 65.15 61.277C66.1442 61.2735 66.6558 61.0214 80.373 53.7737C88.1799 49.6489 94.6299 46.2679 94.7065 46.2603C94.7832 46.2527 94.8457 50.1098 94.8457 54.8314ZM24.393 52.9265C24.5019 53.0227 18.896 73.2327 18.6919 73.4796C18.6073 73.5817 15.6172 72.5079 15.6172 72.3752C15.6172 72.2173 20.7676 51.5091 20.9027 51.1243C20.9548 50.9756 21.5426 51.224 22.6136 51.8469C23.5109 52.3688 24.3117 52.8545 24.393 52.9265ZM42.6143 55.3389C43.881 55.5449 46.9763 56.4574 46.9715 56.6235C46.9698 56.6838 45.2006 57.6104 43.0403 58.6822C40.8798 59.7541 38.7809 60.9234 38.3756 61.2807C37.3275 62.2052 36.7736 63.4913 36.7714 65.0062C36.7688 66.6819 37.1913 67.7993 38.2307 68.8669C39.2388 69.902 40.41 70.3764 41.9515 70.3736C43.206 70.3714 43.9129 70.0577 47.4385 67.939C48.8672 67.0804 50.2697 66.2751 50.5551 66.1494C51.2784 65.8311 52.4503 65.8645 53.1439 66.2233C54.0078 66.67 66.6799 78.1129 67.0654 78.7941C67.6924 79.9022 66.8905 81.1407 65.5462 81.1407C64.9033 81.1407 64.4624 80.8248 60.5004 77.5258C58.1128 75.5376 56.1174 73.9136 56.0664 73.9169C56.0154 73.9204 55.5651 74.426 55.0656 75.0407C54.1772 76.1338 54.1651 76.1657 54.5089 76.4981C54.7023 76.6852 56.5303 78.2349 58.5713 79.9419C60.6123 81.6489 62.3837 83.2225 62.5077 83.4389C62.8769 84.0832 62.7789 84.663 62.2037 85.2384C61.5705 85.8719 60.6772 85.9613 59.9579 85.4633C59.7055 85.2887 57.7176 83.66 55.5404 81.844C53.3632 80.028 51.5263 78.5471 51.4584 78.5528C51.3904 78.5586 50.9266 79.0658 50.4274 79.68C49.6639 80.6197 49.5609 80.8345 49.778 81.0346C49.92 81.1652 51.7986 82.7388 53.953 84.5312C56.1072 86.3236 57.9232 87.9297 57.9887 88.1001C58.6752 89.8901 56.6481 90.9974 54.9826 89.742C53.2439 88.4312 51.381 86.7698 51.0509 86.2357C50.5512 85.4268 49.4589 84.7103 48.3089 84.4371C47.458 84.2348 47.3457 84.1528 47.3457 83.7318C47.3457 83.4697 47.1242 82.8105 46.8533 82.2668C46.2812 81.1185 45.2145 80.2697 43.7828 79.8237C42.8859 79.5441 42.8198 79.4803 42.6221 78.7007C42.2072 77.0665 40.8421 75.6013 39.4421 75.2876C39.1458 75.2212 38.7664 75.13 38.5992 75.0853C38.4203 75.0374 38.2075 74.6564 38.0828 74.1613C37.4522 71.6556 34.9604 70.0511 32.5148 70.5758C31.2805 70.8405 30.2871 71.5356 28.4453 73.423L26.897 75.0099L24.6836 73.686C23.4664 72.9579 22.4292 72.2956 22.3791 72.2143C22.2941 72.0768 26.2401 58.0166 26.4119 57.8448C26.4836 57.7733 36.8148 55.4683 37.8828 55.2856C38.7918 55.1301 41.5192 55.1607 42.6143 55.3389ZM34.5287 74.0114C34.9887 74.3984 35.0996 74.6343 35.0996 75.2243C35.0996 75.8919 34.9586 76.103 33.5041 77.6123C31.8288 79.3507 31.0517 79.8016 30.2557 79.4972C29.2771 79.1228 28.8307 78.0183 29.3042 77.1424C29.4122 76.9425 30.2487 76.0482 31.1629 75.1549C33.0439 73.3172 33.5143 73.1574 34.5287 74.0114ZM39.1443 78.5474C39.6138 78.9847 39.8234 79.665 39.6722 80.2591C39.6138 80.4889 38.7807 81.4576 37.8208 82.4121C36.2476 83.9768 36.008 84.1476 35.3876 84.1476C34.6096 84.1476 33.9017 83.6097 33.7184 82.8793C33.5347 82.1473 34.0952 81.2656 35.7613 79.6655C37.1551 78.3269 37.3917 78.171 38.029 78.171C38.4873 78.171 38.8842 78.305 39.1443 78.5474ZM43.7643 83.2314C44.3167 83.7309 44.4643 84.5175 44.1276 85.1641C43.9775 85.4524 43.1473 86.3771 42.2831 87.2194C40.841 88.6244 40.6497 88.7506 39.963 88.7506C39.3492 88.7506 39.125 88.6441 38.7159 88.1576C37.9034 87.1917 38.1288 86.5681 39.9645 84.7038C42.0315 82.6048 42.7595 82.3227 43.7643 83.2314ZM48.3968 87.854C49.3266 88.7219 49.1167 89.5786 47.5765 91.2053C45.4361 93.4658 44.4452 93.8589 43.4349 92.8483C43.0364 92.4496 42.8926 92.1287 42.8926 91.6374C42.8926 91.0546 43.083 90.771 44.3831 89.416C46.4851 87.2259 47.3596 86.8857 48.3968 87.854ZM52.682 91.9273C53.3179 92.5446 53.4688 92.8182 53.4688 93.3539C53.4688 94.892 51.7821 95.4113 50.3864 94.3027C49.9896 93.9877 49.6331 93.6982 49.5942 93.6596C49.5552 93.621 49.9517 93.1202 50.4755 92.5471C50.9993 91.9739 51.4277 91.428 51.4277 91.3341C51.4277 90.9616 51.9341 91.201 52.682 91.9273Z" fill="#282626" stroke="white" stroke-width="2" mask="url(#path-1-inside-1)"/>
</svg>
