<svg width="100" height="100" viewBox="0 0 100 100" fill="none" xmlns="http://www.w3.org/2000/svg">
<rect width="100" height="100" fill="#E5E5E5"/>
<rect x="0.5" y="0.5" width="99" height="99" fill="white"/>
<mask id="path-2-inside-1" fill="white">
<path fill-rule="evenodd" clip-rule="evenodd" d="M71.1733 3.34924C65.755 4.81862 62.2803 10.3823 63.2352 16.0592L63.45 17.3355L56.5135 24.3916L49.5769 31.4474L47.9413 31.4552C45.5223 31.4669 44.8576 31.8455 41.7728 34.9693L39.2947 37.479L38.9931 36.1414C38.0715 32.0525 35.0261 28.7839 31.1814 27.757C29.8484 27.4008 27.2711 27.3613 26.0195 27.6778C24.7297 28.004 23.1256 28.8027 22.0117 29.6735C18.4441 32.4623 16.8533 37.5816 18.227 41.8526C18.5962 43.0003 18.5345 43.2392 17.8672 43.2459C17.708 43.2474 17.0152 43.5399 16.328 43.8958C13.9554 45.1245 12.1778 47.6522 11.8154 50.3125C11.6017 51.8816 11.7134 52.427 12.365 52.9946C13.0925 53.6284 13.9547 53.61 14.6575 52.9461C15.1067 52.5219 15.2261 52.2229 15.3652 51.1748C15.7143 48.5432 17.2416 47.0232 19.8648 46.6965C20.819 46.5777 20.8934 46.6011 21.8801 47.3326C25.6645 50.1379 30.1901 50.4482 33.9604 48.1611C34.4524 47.8626 37.2124 45.1251 40.6142 41.5612C44.8422 37.1317 46.5971 35.4133 47.0504 35.2585C48.6437 34.7141 50.3394 35.9873 50.3394 37.7281C50.3394 38.4064 49.5864 39.7888 48.8847 40.3986C48.6495 40.6032 45.6937 43.6486 42.3162 47.1661L36.1755 53.5618V58.9844V64.4068H30.0892H24.0028L23.9485 60.2153L23.8942 56.0237L23.3086 55.4825C22.5085 54.7429 21.6375 54.7433 20.9221 55.4838L20.398 56.0263V61.7491C20.398 64.9322 20.32 67.7531 20.2223 68.106C19.8383 69.4922 18.4348 70.338 17.1351 69.9664C16.3945 69.7548 15.3779 68.6715 15.3779 68.0937C15.3779 67.5345 14.2595 66.4484 13.6836 66.4484C12.6305 66.4484 11.7921 67.3129 11.7921 68.399C11.7921 68.6455 11.9617 69.3164 12.169 69.8899C12.6142 71.1217 14.0101 72.6696 15.1581 73.2045L15.9158 73.5575V76.1065V78.6557L14.6889 79.6947C10.0566 83.618 6.70962 88.7416 5.41569 93.8907C4.8269 96.2333 4.84519 96.5993 5.5887 97.369L6.19829 98H34.9806C52.8384 98 63.9339 97.9326 64.2134 97.8228C64.8323 97.5791 65.2564 96.8445 65.2564 96.0154C65.2564 95.4729 65.1344 95.2086 64.6977 94.8047L64.139 94.288H46.3728H28.6065L28.7313 93.7776C29.1036 92.2544 29.1813 90.5785 29.1822 84.0367L29.1832 76.8478L29.7064 76.2416C30.1523 75.7249 30.3502 75.6355 31.047 75.6355C31.701 75.6355 31.9639 75.7383 32.3615 76.1496L32.8587 76.6637L32.9544 81.8103C33.038 86.2906 33.0941 87.0651 33.3887 87.7921C34.2536 89.9274 35.6235 91.2407 37.6732 91.8994C40.7299 92.8816 43.9227 91.4224 45.4421 88.3489L45.9468 87.3281L45.9814 78.141L46.0162 68.954L47.3261 68.6358C51.5231 67.6165 57.7775 66.5052 61.2039 66.1698L62.4765 66.0453L62.5909 67.314C62.7467 69.0416 63.5176 70.6305 64.7352 71.734C66.0289 72.9066 67.2791 73.3862 69.0752 73.3985C70.7405 73.41 71.8108 73.0547 73.0415 72.0822L73.8474 71.4454L74.5301 72.0052C75.79 73.0382 76.7915 73.3816 78.5776 73.3925C79.9587 73.4011 80.3378 73.3317 81.2087 72.9116C83.3501 71.8786 84.8698 69.7077 85.0725 67.3918C85.1647 66.3411 85.2011 66.2633 85.5503 66.3725C87.2687 66.9087 89.2043 68.8038 90.2235 70.9484C91.3509 73.3198 91.3902 73.7789 91.3938 84.5906L91.3968 94.288H85.2142H79.0316L78.455 94.8213C78.0139 95.2292 77.8784 95.507 77.8784 96.0037C77.8784 96.7914 78.3477 97.5828 78.9571 97.8228C79.2162 97.9246 82.4578 98 86.5856 98H93.7634L94.3816 97.3601L95 96.7199L94.9392 84.9714C94.8795 73.4319 94.8713 73.1986 94.4777 71.8625C93.0941 67.1657 90.0701 63.8183 86.1526 62.6472L85.1217 62.3389V55.8767V49.4148L85.7856 49.2858C87.2256 49.0061 88.6345 48.0234 89.5049 46.6915C90.6576 44.928 90.6797 44.7086 90.6797 34.9983C90.6797 25.2281 90.6407 24.8533 89.4058 22.7266C88.3421 20.8951 86.1065 19.1783 84.3378 18.8348C83.8055 18.7314 83.6925 18.6416 83.7946 18.4021C84.2035 17.4426 84.5644 15.4935 84.5734 14.1952C84.5944 11.174 83.5116 8.5057 81.3729 6.30841C79.8088 4.7015 78.4255 3.87448 76.4089 3.34052C74.6825 2.88357 72.8794 2.88654 71.1733 3.34924ZM75.4974 6.96338C76.9563 7.35685 77.8712 7.8858 78.8566 8.90566C83.3445 13.5517 80.141 21.5337 73.7882 21.5337C69.5351 21.5337 66.0737 17.3672 66.7801 13.0981C67.2908 10.0115 69.2239 7.76164 72.0335 6.98343C73.3179 6.62782 74.2329 6.62244 75.4974 6.96338ZM68.0352 23.5141C69.6995 24.6161 71.1804 25.0987 73.1989 25.1963C75.9972 25.3316 78.2527 24.6418 80.2808 23.0304C81.2472 22.2626 81.2902 22.2485 82.4323 22.3264C84.3305 22.4562 85.8266 23.4983 86.6234 25.2457C86.9951 26.061 87.0042 26.293 87.0042 34.9977C87.0042 44.9098 87.053 44.4976 85.7843 45.2984C84.6984 45.9838 83.0675 45.5831 82.4119 44.4699C82.1012 43.9426 82.075 43.4443 82.0741 38.0519C82.0732 32.8587 82.0382 32.133 81.7596 31.556C81.2201 30.438 79.5746 30.2318 78.8141 31.187C78.6482 31.3953 78.4593 32.0079 78.394 32.5486C78.2117 34.0595 78.4028 44.1789 78.6267 44.8727L78.8214 45.4758H72.4692H66.1169V38.2232V30.9706L65.5929 30.4281C65.1819 30.0027 64.9082 29.8856 64.3244 29.8856C63.5974 29.8856 63.4819 29.9834 59.4249 34.0326C54.057 39.3901 54.0221 39.4105 53.8883 37.2529C53.8223 36.1883 53.68 35.6557 53.2249 34.7719L52.6455 33.6466L58.8882 27.234L65.1309 20.8214L66.0981 21.8467C66.6301 22.4105 67.5018 23.1609 68.0352 23.5141ZM31.5341 31.878C33.0016 32.6258 34.2484 33.9192 34.9752 35.4476C35.5039 36.5594 35.548 36.7954 35.548 38.512C35.548 40.2141 35.5005 40.4742 34.9876 41.5783C33.91 43.8977 32.2674 45.2557 29.9284 45.7607C26.0071 46.6071 22.2616 43.9588 21.4698 39.7802C20.94 36.9844 22.2691 33.9138 24.711 32.2917C26.05 31.4023 26.8984 31.1817 28.7533 31.2405C30.1636 31.2854 30.541 31.3719 31.5341 31.878ZM62.5311 49.2806V62.3652H61.8208C59.6304 62.3652 51.3892 63.7942 46.2758 65.0607L43.6562 65.7093L42.5832 65.1542C41.9928 64.8489 41.1164 64.5451 40.6356 64.479L39.7613 64.3589V59.6956V55.0321L45.9232 48.6555L52.085 42.2789L53.8567 42.2533C56.2885 42.2184 56.7245 41.9677 59.8834 38.7878C61.2903 37.3715 62.4618 36.2089 62.4863 36.2043C62.5109 36.1997 62.5311 42.084 62.5311 49.2806ZM72.0335 58.2234C72.0335 66.9831 72.0222 67.2834 71.6622 68.0532C71.0625 69.3355 69.6619 69.992 68.322 69.6184C67.5522 69.4038 66.5994 68.4914 66.3072 67.6891C66.0967 67.1112 66.0291 49.5263 66.2365 49.3116C66.3021 49.2435 67.6334 49.1878 69.1948 49.1878H72.0335V58.2234ZM81.5359 58.1952C81.5359 67.9874 81.5391 67.9534 80.5249 68.9313C79.4558 69.9623 77.8416 69.9824 76.737 68.9785C75.6016 67.9465 75.6193 68.1176 75.6193 58.1952V49.1878H78.5776H81.5359V58.1952ZM12.7438 58.2752C12.1672 58.5284 11.7197 59.3463 11.7407 60.1091C11.7647 60.9916 12.6031 61.8084 13.4844 61.8084C14.2371 61.8084 15.1178 61.0922 15.2506 60.3721C15.3568 59.7982 15.0409 58.8708 14.6149 58.5052C14.2414 58.1845 13.2329 58.0605 12.7438 58.2752ZM41.1268 68.5943C41.399 68.8047 41.788 69.2075 41.9913 69.4894C42.3519 69.9892 42.361 70.2086 42.361 78.2938V86.5857L41.9293 87.2123C40.9968 88.5659 38.9635 88.8793 37.7836 87.8515C36.6609 86.8736 36.6324 86.7183 36.5341 81.0178L36.4445 75.8211L35.9066 74.8148C34.0691 71.3766 29.3808 70.8502 26.8724 73.8003C25.5395 75.3677 25.5372 75.384 25.4268 84.4601C25.338 91.7561 25.2979 92.5906 25.0131 93.0401C24.5456 93.7778 23.6817 94.1763 22.5495 94.1763C21.3639 94.1763 20.5183 93.7587 20.0323 92.9334C19.6974 92.3649 19.6821 91.935 19.6816 82.9571L19.6809 73.5751L20.4811 73.1726C20.921 72.9514 21.6039 72.4684 21.9984 72.0995C22.753 71.3936 23.8045 69.4551 23.8045 68.7697C23.8045 68.5477 23.8607 68.3083 23.9292 68.2372C23.9976 68.1663 27.7839 68.1314 32.3429 68.16C40.3948 68.2101 40.646 68.2225 41.1268 68.5943ZM16.3309 93.4993L16.617 94.288H12.8404H9.06388L9.18095 93.7776C9.42586 92.7108 11.2648 89.1236 12.297 87.6993C12.8888 86.8827 13.9251 85.6299 14.5996 84.9154L15.8262 83.6162L15.9355 88.1633C16.0194 91.6561 16.111 92.8933 16.3309 93.4993ZM70.4222 94.7984C69.709 95.4712 69.5815 96.2441 70.0545 97.0302C71.0591 98.7003 73.2885 98.0195 73.2885 96.0427C73.2885 94.4736 71.5616 93.7238 70.4222 94.7984Z"/>
</mask>
<path fill-rule="evenodd" clip-rule="evenodd" d="M71.1733 3.34924C65.755 4.81862 62.2803 10.3823 63.2352 16.0592L63.45 17.3355L56.5135 24.3916L49.5769 31.4474L47.9413 31.4552C45.5223 31.4669 44.8576 31.8455 41.7728 34.9693L39.2947 37.479L38.9931 36.1414C38.0715 32.0525 35.0261 28.7839 31.1814 27.757C29.8484 27.4008 27.2711 27.3613 26.0195 27.6778C24.7297 28.004 23.1256 28.8027 22.0117 29.6735C18.4441 32.4623 16.8533 37.5816 18.227 41.8526C18.5962 43.0003 18.5345 43.2392 17.8672 43.2459C17.708 43.2474 17.0152 43.5399 16.328 43.8958C13.9554 45.1245 12.1778 47.6522 11.8154 50.3125C11.6017 51.8816 11.7134 52.427 12.365 52.9946C13.0925 53.6284 13.9547 53.61 14.6575 52.9461C15.1067 52.5219 15.2261 52.2229 15.3652 51.1748C15.7143 48.5432 17.2416 47.0232 19.8648 46.6965C20.819 46.5777 20.8934 46.6011 21.8801 47.3326C25.6645 50.1379 30.1901 50.4482 33.9604 48.1611C34.4524 47.8626 37.2124 45.1251 40.6142 41.5612C44.8422 37.1317 46.5971 35.4133 47.0504 35.2585C48.6437 34.7141 50.3394 35.9873 50.3394 37.7281C50.3394 38.4064 49.5864 39.7888 48.8847 40.3986C48.6495 40.6032 45.6937 43.6486 42.3162 47.1661L36.1755 53.5618V58.9844V64.4068H30.0892H24.0028L23.9485 60.2153L23.8942 56.0237L23.3086 55.4825C22.5085 54.7429 21.6375 54.7433 20.9221 55.4838L20.398 56.0263V61.7491C20.398 64.9322 20.32 67.7531 20.2223 68.106C19.8383 69.4922 18.4348 70.338 17.1351 69.9664C16.3945 69.7548 15.3779 68.6715 15.3779 68.0937C15.3779 67.5345 14.2595 66.4484 13.6836 66.4484C12.6305 66.4484 11.7921 67.3129 11.7921 68.399C11.7921 68.6455 11.9617 69.3164 12.169 69.8899C12.6142 71.1217 14.0101 72.6696 15.1581 73.2045L15.9158 73.5575V76.1065V78.6557L14.6889 79.6947C10.0566 83.618 6.70962 88.7416 5.41569 93.8907C4.8269 96.2333 4.84519 96.5993 5.5887 97.369L6.19829 98H34.9806C52.8384 98 63.9339 97.9326 64.2134 97.8228C64.8323 97.5791 65.2564 96.8445 65.2564 96.0154C65.2564 95.4729 65.1344 95.2086 64.6977 94.8047L64.139 94.288H46.3728H28.6065L28.7313 93.7776C29.1036 92.2544 29.1813 90.5785 29.1822 84.0367L29.1832 76.8478L29.7064 76.2416C30.1523 75.7249 30.3502 75.6355 31.047 75.6355C31.701 75.6355 31.9639 75.7383 32.3615 76.1496L32.8587 76.6637L32.9544 81.8103C33.038 86.2906 33.0941 87.0651 33.3887 87.7921C34.2536 89.9274 35.6235 91.2407 37.6732 91.8994C40.7299 92.8816 43.9227 91.4224 45.4421 88.3489L45.9468 87.3281L45.9814 78.141L46.0162 68.954L47.3261 68.6358C51.5231 67.6165 57.7775 66.5052 61.2039 66.1698L62.4765 66.0453L62.5909 67.314C62.7467 69.0416 63.5176 70.6305 64.7352 71.734C66.0289 72.9066 67.2791 73.3862 69.0752 73.3985C70.7405 73.41 71.8108 73.0547 73.0415 72.0822L73.8474 71.4454L74.5301 72.0052C75.79 73.0382 76.7915 73.3816 78.5776 73.3925C79.9587 73.4011 80.3378 73.3317 81.2087 72.9116C83.3501 71.8786 84.8698 69.7077 85.0725 67.3918C85.1647 66.3411 85.2011 66.2633 85.5503 66.3725C87.2687 66.9087 89.2043 68.8038 90.2235 70.9484C91.3509 73.3198 91.3902 73.7789 91.3938 84.5906L91.3968 94.288H85.2142H79.0316L78.455 94.8213C78.0139 95.2292 77.8784 95.507 77.8784 96.0037C77.8784 96.7914 78.3477 97.5828 78.9571 97.8228C79.2162 97.9246 82.4578 98 86.5856 98H93.7634L94.3816 97.3601L95 96.7199L94.9392 84.9714C94.8795 73.4319 94.8713 73.1986 94.4777 71.8625C93.0941 67.1657 90.0701 63.8183 86.1526 62.6472L85.1217 62.3389V55.8767V49.4148L85.7856 49.2858C87.2256 49.0061 88.6345 48.0234 89.5049 46.6915C90.6576 44.928 90.6797 44.7086 90.6797 34.9983C90.6797 25.2281 90.6407 24.8533 89.4058 22.7266C88.3421 20.8951 86.1065 19.1783 84.3378 18.8348C83.8055 18.7314 83.6925 18.6416 83.7946 18.4021C84.2035 17.4426 84.5644 15.4935 84.5734 14.1952C84.5944 11.174 83.5116 8.5057 81.3729 6.30841C79.8088 4.7015 78.4255 3.87448 76.4089 3.34052C74.6825 2.88357 72.8794 2.88654 71.1733 3.34924ZM75.4974 6.96338C76.9563 7.35685 77.8712 7.8858 78.8566 8.90566C83.3445 13.5517 80.141 21.5337 73.7882 21.5337C69.5351 21.5337 66.0737 17.3672 66.7801 13.0981C67.2908 10.0115 69.2239 7.76164 72.0335 6.98343C73.3179 6.62782 74.2329 6.62244 75.4974 6.96338ZM68.0352 23.5141C69.6995 24.6161 71.1804 25.0987 73.1989 25.1963C75.9972 25.3316 78.2527 24.6418 80.2808 23.0304C81.2472 22.2626 81.2902 22.2485 82.4323 22.3264C84.3305 22.4562 85.8266 23.4983 86.6234 25.2457C86.9951 26.061 87.0042 26.293 87.0042 34.9977C87.0042 44.9098 87.053 44.4976 85.7843 45.2984C84.6984 45.9838 83.0675 45.5831 82.4119 44.4699C82.1012 43.9426 82.075 43.4443 82.0741 38.0519C82.0732 32.8587 82.0382 32.133 81.7596 31.556C81.2201 30.438 79.5746 30.2318 78.8141 31.187C78.6482 31.3953 78.4593 32.0079 78.394 32.5486C78.2117 34.0595 78.4028 44.1789 78.6267 44.8727L78.8214 45.4758H72.4692H66.1169V38.2232V30.9706L65.5929 30.4281C65.1819 30.0027 64.9082 29.8856 64.3244 29.8856C63.5974 29.8856 63.4819 29.9834 59.4249 34.0326C54.057 39.3901 54.0221 39.4105 53.8883 37.2529C53.8223 36.1883 53.68 35.6557 53.2249 34.7719L52.6455 33.6466L58.8882 27.234L65.1309 20.8214L66.0981 21.8467C66.6301 22.4105 67.5018 23.1609 68.0352 23.5141ZM31.5341 31.878C33.0016 32.6258 34.2484 33.9192 34.9752 35.4476C35.5039 36.5594 35.548 36.7954 35.548 38.512C35.548 40.2141 35.5005 40.4742 34.9876 41.5783C33.91 43.8977 32.2674 45.2557 29.9284 45.7607C26.0071 46.6071 22.2616 43.9588 21.4698 39.7802C20.94 36.9844 22.2691 33.9138 24.711 32.2917C26.05 31.4023 26.8984 31.1817 28.7533 31.2405C30.1636 31.2854 30.541 31.3719 31.5341 31.878ZM62.5311 49.2806V62.3652H61.8208C59.6304 62.3652 51.3892 63.7942 46.2758 65.0607L43.6562 65.7093L42.5832 65.1542C41.9928 64.8489 41.1164 64.5451 40.6356 64.479L39.7613 64.3589V59.6956V55.0321L45.9232 48.6555L52.085 42.2789L53.8567 42.2533C56.2885 42.2184 56.7245 41.9677 59.8834 38.7878C61.2903 37.3715 62.4618 36.2089 62.4863 36.2043C62.5109 36.1997 62.5311 42.084 62.5311 49.2806ZM72.0335 58.2234C72.0335 66.9831 72.0222 67.2834 71.6622 68.0532C71.0625 69.3355 69.6619 69.992 68.322 69.6184C67.5522 69.4038 66.5994 68.4914 66.3072 67.6891C66.0967 67.1112 66.0291 49.5263 66.2365 49.3116C66.3021 49.2435 67.6334 49.1878 69.1948 49.1878H72.0335V58.2234ZM81.5359 58.1952C81.5359 67.9874 81.5391 67.9534 80.5249 68.9313C79.4558 69.9623 77.8416 69.9824 76.737 68.9785C75.6016 67.9465 75.6193 68.1176 75.6193 58.1952V49.1878H78.5776H81.5359V58.1952ZM12.7438 58.2752C12.1672 58.5284 11.7197 59.3463 11.7407 60.1091C11.7647 60.9916 12.6031 61.8084 13.4844 61.8084C14.2371 61.8084 15.1178 61.0922 15.2506 60.3721C15.3568 59.7982 15.0409 58.8708 14.6149 58.5052C14.2414 58.1845 13.2329 58.0605 12.7438 58.2752ZM41.1268 68.5943C41.399 68.8047 41.788 69.2075 41.9913 69.4894C42.3519 69.9892 42.361 70.2086 42.361 78.2938V86.5857L41.9293 87.2123C40.9968 88.5659 38.9635 88.8793 37.7836 87.8515C36.6609 86.8736 36.6324 86.7183 36.5341 81.0178L36.4445 75.8211L35.9066 74.8148C34.0691 71.3766 29.3808 70.8502 26.8724 73.8003C25.5395 75.3677 25.5372 75.384 25.4268 84.4601C25.338 91.7561 25.2979 92.5906 25.0131 93.0401C24.5456 93.7778 23.6817 94.1763 22.5495 94.1763C21.3639 94.1763 20.5183 93.7587 20.0323 92.9334C19.6974 92.3649 19.6821 91.935 19.6816 82.9571L19.6809 73.5751L20.4811 73.1726C20.921 72.9514 21.6039 72.4684 21.9984 72.0995C22.753 71.3936 23.8045 69.4551 23.8045 68.7697C23.8045 68.5477 23.8607 68.3083 23.9292 68.2372C23.9976 68.1663 27.7839 68.1314 32.3429 68.16C40.3948 68.2101 40.646 68.2225 41.1268 68.5943ZM16.3309 93.4993L16.617 94.288H12.8404H9.06388L9.18095 93.7776C9.42586 92.7108 11.2648 89.1236 12.297 87.6993C12.8888 86.8827 13.9251 85.6299 14.5996 84.9154L15.8262 83.6162L15.9355 88.1633C16.0194 91.6561 16.111 92.8933 16.3309 93.4993ZM70.4222 94.7984C69.709 95.4712 69.5815 96.2441 70.0545 97.0302C71.0591 98.7003 73.2885 98.0195 73.2885 96.0427C73.2885 94.4736 71.5616 93.7238 70.4222 94.7984Z" fill="#282626" stroke="white" stroke-width="2" mask="url(#path-2-inside-1)"/>
<rect x="0.5" y="0.5" width="99" height="99" stroke="white"/>
</svg>
