<svg xmlns="http://www.w3.org/2000/svg" width="100" height="100" fill="none" xmlns:v="https://vecta.io/nano"><path fill="#e5e5e5" d="M0 0h100v100H0z"/><path fill="#fff" d="M0 0h100v100H0z"/><mask id="A" fill="#fff"><path fill-rule="evenodd" d="M49.265 3.203c-.924.465-.937.554-.944 6.376-.006 5.295.014 5.599.409 5.971.229.216.616.448.861.516.624.174 1.582-.219 1.865-.766.16-.308.239-2.239.239-5.848V4.064l-.617-.542c-.658-.578-1.131-.661-1.812-.318zm-27.05 7.098c-.595.523-.651 1.008-.204 1.768.75 1.274 6.101 8.487 6.578 8.866 1.198.953 2.763.087 2.638-1.461-.027-.339-5.947-8.564-6.629-9.211-.609-.577-1.703-.559-2.383.038zm54.551.046c-.478.109-7.538 9.394-7.538 9.914 0 .472 1.101 1.463 1.627 1.463.215 0 .611-.135.88-.3.726-.447 7.211-9.1 7.211-9.622 0-.691-.215-1.02-.86-1.313-.618-.281-.677-.287-1.319-.141zM47.892 23.579c-2.515.193-4.2.495-6.425 1.149-11.421 3.361-19.118 12.641-19.132 23.071-.009 6.392 2.78 12.475 7.828 17.074 1.008.919 2.22 2.158 2.693 2.755 1.59 2.004 2.779 6.192 2.782 9.794.001 1.335.073 1.679.439 2.088l.438.489h13.468 13.468l.48-.449c.422-.395.491-.689.576-2.459.168-3.524.902-6.517 2.121-8.657.28-.491 1.611-1.952 2.957-3.247 2.862-2.752 4.178-4.399 5.576-6.978 2.226-4.106 3.115-8.746 2.511-13.106-1.266-9.143-8.173-16.859-17.996-20.105-3.433-1.135-8.126-1.7-11.784-1.419zM6.084 25.824c-1.129.393-1.455 1.66-.6 2.332.942.741 10.694 5.259 11.351 5.259 1.29 0 1.985-1.486 1.113-2.379-.368-.376-10.127-5.098-10.932-5.289-.232-.055-.652-.021-.931.077zm86.805-.069c-.861.286-10.512 4.956-10.869 5.26-.982.836-.23 2.4 1.155 2.4.623 0 10.498-4.569 11.351-5.252a1.33 1.33 0 0 0 .053-1.986c-.232-.204-.51-.371-.616-.371a2.22 2.22 0 0 1-.475-.078c-.155-.043-.424-.031-.598.027zm-39.151.886c7.996 1.139 14.76 5.547 18.226 11.878.932 1.701 1.796 4.093 2.113 5.846.316 1.747.27 5.458-.089 7.268-.825 4.155-3.227 8.271-6.53 11.189-.711.628-1.635 1.513-2.054 1.967-2.271 2.461-3.749 6.193-4.151 10.476l-.157 1.67-11.011.048-11.011.048-.132-.582c-.073-.32-.133-.894-.133-1.276 0-1.179-.618-3.882-1.3-5.69-.92-2.438-2.161-4.18-4.561-6.406-2.987-2.77-4.207-4.35-5.521-7.151-4.862-10.36.298-22.359 11.753-27.325 4.464-1.935 9.745-2.647 14.558-1.961zm-4.473 3.287c-1.067.537-1.251 1.503-.426 2.228.452.397.783.477 2.388.577 8.286.517 15.023 5.815 16.642 13.087.167.749.303 1.735.303 2.19 0 .916.433 1.816.96 1.993.687.231 1.395.105 1.901-.34.447-.392.519-.627.519-1.687 0-.678-.196-2.076-.435-3.108-1.803-7.773-8.75-13.596-17.75-14.879-2.35-.335-3.523-.352-4.102-.061zm-11.091 51.91c-2.026.371-3.38 1.763-3.38 3.474 0 1.666.771 2.754 2.429 3.428.79.321 1.609.344 12.591.348 8.231.003 11.961-.059 12.464-.207 3.455-1.016 4.004-4.89.93-6.563l-1.023-.557-11.636-.029c-6.4-.016-11.968.032-12.375.106zm23.407 3.023c.381.334.305.853-.155 1.07-.267.125-4.234.192-11.421.192s-11.155-.067-11.422-.192c-.393-.185-.56-.912-.268-1.169.077-.068 5.287-.124 11.576-.124 8.613 0 11.498.055 11.689.223zm-20.343 5.884c-.949.209-1.457.492-2.18 1.215-1.789 1.79-1.173 4.49 1.268 5.559l1.101.482h8.521c9.284 0 9.417-.013 10.692-1.077.906-.756 1.264-1.503 1.264-2.635s-.363-1.89-1.264-2.622c-1.251-1.017-1.025-.995-10.212-1.029-4.706-.018-8.841.031-9.189.107zm17.23 3.195c.543.89.287.919-8.436.927-8.152.008-8.688-.032-8.688-.656 0-.632.42-.664 8.696-.664 8.123 0 8.191.003 8.428.393z"/></mask><path fill-rule="evenodd" d="M49.265 3.203c-.924.465-.937.554-.944 6.376-.006 5.295.014 5.599.409 5.971.229.216.616.448.861.516.624.174 1.582-.219 1.865-.766.16-.308.239-2.239.239-5.848V4.064l-.617-.542c-.658-.578-1.131-.661-1.812-.318zm-27.05 7.098c-.595.523-.651 1.008-.204 1.768.75 1.274 6.101 8.487 6.578 8.866 1.198.953 2.763.087 2.638-1.461-.027-.339-5.947-8.564-6.629-9.211-.609-.577-1.703-.559-2.383.038zm54.551.046c-.478.109-7.538 9.394-7.538 9.914 0 .472 1.101 1.463 1.627 1.463.215 0 .611-.135.88-.3.726-.447 7.211-9.1 7.211-9.622 0-.691-.215-1.02-.86-1.313-.618-.281-.677-.287-1.319-.141zM47.892 23.579c-2.515.193-4.2.495-6.425 1.149-11.421 3.361-19.118 12.641-19.132 23.071-.009 6.392 2.78 12.475 7.828 17.074 1.008.919 2.22 2.158 2.693 2.755 1.59 2.004 2.779 6.192 2.782 9.794.001 1.335.073 1.679.439 2.088l.438.489h13.468 13.468l.48-.449c.422-.395.491-.689.576-2.459.168-3.524.902-6.517 2.121-8.657.28-.491 1.611-1.952 2.957-3.247 2.862-2.752 4.178-4.399 5.576-6.978 2.226-4.106 3.115-8.746 2.511-13.106-1.266-9.143-8.173-16.859-17.996-20.105-3.433-1.135-8.126-1.7-11.784-1.419zM6.084 25.824c-1.129.393-1.455 1.66-.6 2.332.942.741 10.694 5.259 11.351 5.259 1.29 0 1.985-1.486 1.113-2.379-.368-.376-10.127-5.098-10.932-5.289-.232-.055-.652-.021-.931.077zm86.805-.069c-.861.286-10.512 4.956-10.869 5.26-.982.836-.23 2.4 1.155 2.4.623 0 10.498-4.569 11.351-5.252a1.33 1.33 0 0 0 .053-1.986c-.232-.204-.51-.371-.616-.371a2.22 2.22 0 0 1-.475-.078c-.155-.043-.424-.031-.598.027zm-39.151.886c7.996 1.139 14.76 5.547 18.226 11.878.932 1.701 1.796 4.093 2.113 5.846.316 1.747.27 5.458-.089 7.268-.825 4.155-3.227 8.271-6.53 11.189-.711.628-1.635 1.513-2.054 1.967-2.271 2.461-3.749 6.193-4.151 10.476l-.157 1.67-11.011.048-11.011.048-.132-.582c-.073-.32-.133-.894-.133-1.276 0-1.179-.618-3.882-1.3-5.69-.92-2.438-2.161-4.18-4.561-6.406-2.987-2.77-4.207-4.35-5.521-7.151-4.862-10.36.298-22.359 11.753-27.325 4.464-1.935 9.745-2.647 14.558-1.961zm-4.473 3.287c-1.067.537-1.251 1.503-.426 2.228.452.397.783.477 2.388.577 8.286.517 15.023 5.815 16.642 13.087.167.749.303 1.735.303 2.19 0 .916.433 1.816.96 1.993.687.231 1.395.105 1.901-.34.447-.392.519-.627.519-1.687 0-.678-.196-2.076-.435-3.108-1.803-7.773-8.75-13.596-17.75-14.879-2.35-.335-3.523-.352-4.102-.061zm-11.091 51.91c-2.026.371-3.38 1.763-3.38 3.474 0 1.666.771 2.754 2.429 3.428.79.321 1.609.344 12.591.348 8.231.003 11.961-.059 12.464-.207 3.455-1.016 4.004-4.89.93-6.563l-1.023-.557-11.636-.029c-6.4-.016-11.968.032-12.375.106zm23.407 3.023c.381.334.305.853-.155 1.07-.267.125-4.234.192-11.421.192s-11.155-.067-11.422-.192c-.393-.185-.56-.912-.268-1.169.077-.068 5.287-.124 11.576-.124 8.613 0 11.498.055 11.689.223zm-20.343 5.884c-.949.209-1.457.492-2.18 1.215-1.789 1.79-1.173 4.49 1.268 5.559l1.101.482h8.521c9.284 0 9.417-.013 10.692-1.077.906-.756 1.264-1.503 1.264-2.635s-.363-1.89-1.264-2.622c-1.251-1.017-1.025-.995-10.212-1.029-4.706-.018-8.841.031-9.189.107zm17.23 3.195c.543.89.287.919-8.436.927-8.152.008-8.688-.032-8.688-.656 0-.632.42-.664 8.696-.664 8.123 0 8.191.003 8.428.393z" fill="#282626" stroke="#fff" stroke-width="2" mask="url(#A)"/></svg>