<svg xmlns="http://www.w3.org/2000/svg" width="100" height="100" fill="none" xmlns:v="https://vecta.io/nano"><path fill="#e5e5e5" d="M0 0h100v100H0z"/><path fill="#fff" d="M0 0h100v100H0z"/><mask id="A" fill="#fff"><path fill-rule="evenodd" d="M18.516 4.002C11.489 5.333 5.957 10.522 4.237 17.396c-.326 1.302-.408 2.156-.41 4.283-.004 3.166.353 4.786 1.653 7.501 1.049 2.191 2.064 3.607 3.767 5.252 3.43 3.314 7.629 5.052 12.295 5.091 1.184.01 2.153.05 2.153.088s-.249.794-.552 1.679c-2.004 5.837-1.996 12.676.022 18.707l.53 1.652c0 .037-.927.074-2.061.081s-2.571.111-3.193.231c-8.166 1.576-14.173 8.387-14.658 16.618C3.161 89.099 11.983 98 22.502 97.467c8.293-.419 15.056-6.338 16.785-14.689.125-.605.232-2.027.237-3.16s.07-2.061.144-2.061.548.163 1.053.362c1.175.463 4.119 1.2 5.817 1.455s6.476.255 8.174 0 4.641-.992 5.817-1.455c1.318-.519 1.326-.515 1.183.713-.166 1.432.198 4.351.77 6.162 2.017 6.396 7.291 11.115 13.842 12.385 11.279 2.186 21.824-7.089 21.146-18.6-.429-7.282-5.211-13.561-12.098-15.883-2.308-.778-5.055-1.179-6.74-.983-.591.069-1.075.061-1.075-.017s.214-.762.476-1.521c1.02-2.955 1.379-5.026 1.486-8.568.065-2.149.023-3.865-.119-4.855-.264-1.841-.983-4.765-1.481-6.03-.199-.505-.362-.98-.362-1.053s.927-.139 2.061-.144c4.93-.023 9.34-1.895 12.792-5.43 5.341-5.47 6.605-13.691 3.158-20.545-.785-1.562-1.333-2.131-2.05-2.131-.588 0-1.304.705-1.304 1.283 0 .175.361 1.024.802 1.888 2.229 4.369 2.313 9.305.231 13.559-.453.925-1.086 2.035-1.407 2.467l-.584.785-.79-1.61c-1.049-2.136-2.282-3.495-4.634-5.11-.034-.023.131-.564.367-1.202.374-1.015.427-1.481.421-3.725-.009-3.279-.327-4.217-1.992-5.872-2.387-2.372-5.266-2.843-8.297-1.358-1.322.647-2.466 1.84-3.12 3.25-.926 1.998-1.001 5.679-.158 7.766l.436 1.078-.805.554c-1.757 1.209-3.518 3.368-4.319 5.297l-.379.911-.624-.817c-2.139-2.802-3.257-7.037-2.809-10.643.441-3.55 1.901-6.538 4.409-9.023 4.9-4.855 12.357-5.794 18.323-2.308.809.473 1.62.813 1.941.813.7 0 1.218-.561 1.218-1.318 0-.723-.679-1.326-2.618-2.323-6.971-3.585-15.326-2.299-20.843 3.208-2.149 2.145-3.79 4.938-4.643 7.902-.458 1.592-.78 4.505-.638 5.767.075.667.051 1.053-.067 1.053-.102 0-.599-.163-1.105-.362-1.262-.497-4.188-1.217-6.018-1.479-.97-.139-2.725-.183-4.855-.121-3.633.105-5.466.415-8.368 1.411-.884.303-1.667.552-1.74.552s-.078-.484-.009-1.075c.166-1.432-.198-4.35-.769-6.162-1.929-6.12-6.613-10.571-12.845-12.208-1.879-.494-5.474-.614-7.408-.247zm6.197 2.818c3.896.804 7.4 3.199 9.623 6.576 1.654 2.514 2.434 5.182 2.421 8.283-.014 3.369-.996 6.381-2.909 8.928l-.582.775-.379-.911c-.801-1.929-2.563-4.089-4.319-5.297l-.805-.554.436-1.078c.843-2.086.768-5.768-.158-7.766-1.312-2.831-4.505-4.526-7.502-3.982a6.98 6.98 0 0 0-4.08 2.221c-1.406 1.518-1.777 2.598-1.882 5.466-.077 2.117-.046 2.4.405 3.743.434 1.292.456 1.471.199 1.615-.738.413-2.545 2.074-3.195 2.937-.397.526-1.008 1.556-1.358 2.288l-.637 1.331-.581-.782c-.32-.43-.951-1.539-1.404-2.464-3.438-7.024-.824-15.508 6.048-19.637 1.184-.711 3.619-1.591 5.07-1.832 1.667-.276 3.84-.222 5.591.139zm24.093.685c-.478.608-.483 1.169-.014 1.673.722.775 3.268.805 3.882.046.439-.542.421-1.304-.041-1.801-.327-.351-.565-.401-1.91-.401-1.442 0-1.56.03-1.917.483zm-6.03.133c-1.416.302-2.012 1.166-1.484 2.153.318.594.989.74 2.33.506 1.912-.333 2.632-1.434 1.606-2.459-.495-.496-.908-.529-2.452-.2zm13.778-.035c-.395.191-.8.87-.8 1.341 0 .141.185.465.412.721.321.362.71.513 1.75.68 1.241.199 1.374.188 1.832-.152.614-.457.736-1.296.271-1.871-.224-.277-.723-.495-1.521-.667-1.394-.299-1.435-.3-1.945-.053zm-33.852 6.986c1.225.318 2.101 1.018 2.739 2.188.491.901.524 1.097.524 3.069s-.033 2.167-.529 3.078c-1.01 1.853-2.985 2.724-4.903 2.163-1.168-.342-2.207-1.168-2.754-2.19-.358-.67-.407-1.036-.407-3.051s.049-2.381.407-3.051c.52-.973 1.566-1.838 2.616-2.164s1.199-.33 2.307-.043zm58.61.212c.83.342 1.709 1.156 2.161 2 .355.663.404 1.035.404 3.046 0 2.619-.249 3.344-1.506 4.386-2.328 1.929-5.683 1.036-6.835-1.819-.165-.409-.258-1.333-.258-2.567 0-2.047.179-2.755.959-3.799 1.111-1.485 3.232-2.007 5.076-1.247zm-25.695 9.992l.87.213-.619.764c-2.415 2.979-1.89 5.567 1.575 7.763l3.128 1.969c3.209 2.013 4.718 3.631 5.594 5.999.824 2.226.722 4.167-.429 8.208-.838 2.943-.979 4.299-.558 5.399.38.995 1.451 1.964 2.529 2.288 1.628.489 4.345.209 7.25-.748.636-.21 1.194-.344 1.239-.299.226.226-1.646 5.595-2.117 6.069-.087.088-.619.347-1.182.575-2.857 1.161-6.308 3.873-7.822 6.147l-.618.929-1.39-.106c-1.956-.148-4.446.151-7.505.901-1.446.355-3.05.645-3.564.645-1.409 0-2.548-.66-3.664-2.124-1.099-1.441-1.901-2.111-3.328-2.779-.991-.464-1.236-.5-3.359-.491-1.94.008-2.649.099-4.643.595l-2.353.585-1.273-1.162c-1.306-1.192-3.261-2.42-4.967-3.119-.53-.217-1.057-.455-1.172-.528-.462-.295-2.457-5.999-2.098-5.999.079 0 .602.158 1.164.351 2.543.875 6.392 1.273 7.351.76.828-.443.878-1.801.081-2.228-.217-.116-1.309-.28-2.425-.364-2.024-.152-4.292-.691-6.015-1.431l-.87-.374v-2.639c0-1.509.118-3.336.276-4.266.324-1.91 1.363-5.245 2.068-6.637.47-.928.574-1.013 1.962-1.603 2.917-1.24 6.092-3.884 7.842-6.532.671-1.015.726-1.053 1.495-1.053 2.187 0 5.284 1.005 5.874 1.905.384.586.32.856-.734 3.096-.991 2.107-1.271 3.286-1.146 4.835.129 1.605.809 2.898 2.318 4.402.685.683 1.307 1.437 1.382 1.674.534 1.694-2.14 4.798-5.805 6.736-1.982 1.048-2.424 1.588-1.968 2.406.155.277.509.613.786.747.457.219.622.188 1.725-.328 3.198-1.496 6.244-4.185 7.398-6.528.527-1.071.618-1.447.614-2.543-.006-1.618-.276-2.149-2.005-3.943-2.126-2.206-2.234-3.237-.678-6.529.519-1.097.994-2.365 1.056-2.819.404-2.949-2.405-5.146-7.398-5.784-.58-.074-.945-.206-.908-.328.169-.573 4.726-2.239 7.557-2.762 1.728-.319 8.067-.264 9.481.083zm5.725 1.832c.867.389 1.256.67 1.33.962.207.815 1.807 3.74 2.635 4.815 1.076 1.398 3.065 3.275 4.43 4.179a25.29 25.29 0 0 0 4.027 2.015c.651.229 2.26 4.663 2.765 7.618.174 1.018.295 2.769.295 4.266v2.539l-.87.373c-1.665.714-4.68 1.462-6 1.489-1.463.03-2.049-.209-2.224-.904-.123-.488-.028-.945 1.011-4.876.754-2.855.893-4.724.5-6.73-.701-3.574-2.757-6.314-6.593-8.786-5.771-3.719-5.795-3.74-5.444-4.803.241-.731 2.14-2.709 2.601-2.709.173 0 .865.247 1.539.55zm-42.805.645c1.972.991 4.018.985 6.252-.018l1.088-.488.786.461c1.061.622 2.747 2.421 3.309 3.532.252.498.587 1.338.744 1.866l.285.96-.768.527c-2.628 1.803-5.383 2.642-8.646 2.634-3.222-.008-6.146-.906-8.49-2.607-.669-.486-.777-.649-.682-1.029a10.77 10.77 0 0 1 1.671-3.548c.785-1.067 2.801-2.753 3.292-2.753.132 0 .654.208 1.16.462zm57.9-.014c1.98 1.003 4.276.996 6.35-.019l1.021-.5.666.356c.893.478 2.448 2.014 3.136 3.099.308.485.739 1.422.959 2.083l.399 1.201-.615.514c-.925.772-3.376 1.923-5.026 2.36-1.95.516-5.115.557-7.053.091-1.529-.368-4.406-1.645-5.383-2.391l-.636-.485.282-.95c.44-1.483 1.112-2.664 2.138-3.757.87-.927 2.362-2.048 2.726-2.048.084 0 .552.202 1.038.448zM8.22 41.273c-.447.494-.904 2.725-.665 3.251.271.599.996 1.009 1.54.872.747-.188 1.021-.658 1.253-2.155.213-1.372.208-1.42-.212-1.867-.533-.568-1.451-.616-1.917-.101zm82.961.291c-.423.423-.454.553-.337 1.42.199 1.462.499 2.198 1.015 2.487.612.343 1.36.153 1.75-.443.269-.41.276-.613.067-1.837-.185-1.084-.332-1.452-.691-1.735-.619-.487-1.247-.45-1.804.108zM7.388 48.61c-.309.308-.366.611-.366 1.91 0 1.45.03 1.567.483 1.924.553.436.784.463 1.427.17.612-.279.899-1.208.8-2.585-.063-.873-.168-1.179-.499-1.446-.549-.444-1.385-.432-1.844.027zm84.652.173c-.686.686-.75 3.141-.1 3.859.437.482 1.439.482 1.922-.002.308-.308.366-.611.366-1.892 0-1.357-.047-1.569-.424-1.924-.526-.494-1.294-.513-1.764-.042zM7.838 56.022c-.515.515-.528.64-.232 2.245.298 1.616 1.127 2.257 2.185 1.691.594-.318.74-.989.506-2.33-.333-1.913-1.434-2.632-2.459-1.606zm84.192-.094c-.596.145-1.044 1.076-1.196 2.484-.103.964-.07 1.15.271 1.511.539.571 1.516.558 1.975-.025.19-.241.448-.998.574-1.682.209-1.135.2-1.285-.108-1.696-.408-.547-.904-.74-1.517-.592zm-66.625 9.011c6.685 1.677 11.334 7.672 11.348 14.634.004 2.214-.236 3.545-.997 5.534-.497 1.298-2.275 4.313-2.444 4.145-.04-.04-.402-.731-.805-1.536-.992-1.983-2.526-3.642-4.749-5.137-.032-.022.117-.382.331-.802.946-1.855.9-6.155-.088-8.174-1.26-2.576-3.816-4.043-6.774-3.888-2.676.14-4.692 1.489-5.909 3.952l-.691 1.398v2.758c0 2.514.039 2.843.437 3.725.241.532.406.998.366 1.036s-.565.45-1.17.915c-1.491 1.148-2.72 2.657-3.566 4.384l-.706 1.44-.661-.89C6.956 85.242 5.968 80.619 6.8 76.617c1.776-8.548 10.144-13.802 18.605-11.679zm57.94-.017c5.613 1.433 9.915 5.969 11.108 11.71.828 3.988-.15 8.543-2.536 11.802l-.652.89-.707-1.44c-.969-1.974-2.618-3.864-4.387-5.028l-.441-.29.448-.992c.411-.911.448-1.218.448-3.75v-2.758l-.691-1.398c-1.222-2.472-3.232-3.811-5.934-3.953-1.269-.067-1.733-.009-2.677.332-2.162.782-3.843 2.478-4.449 4.491-.642 2.133-.493 5.709.301 7.268.206.404.349.753.317.775-2.223 1.495-3.757 3.154-4.749 5.137-.403.805-.765 1.496-.805 1.536-.169.169-1.947-2.847-2.444-4.145-.78-2.037-1.013-3.346-1-5.626.022-3.917 1.316-7.212 3.973-10.119a15.11 15.11 0 0 1 14.878-4.441zm-39.396 4.188c.43.195 1.164.825 1.741 1.494 2.468 2.863 3.437 3.454 5.916 3.609 1.295.081 1.862.004 4.229-.576 2.847-.697 5.847-1.109 6.635-.911.388.097.44.189.338.594-.188.751-.37.878-2.351 1.645-3.682 1.426-5.974 1.859-9.823 1.859-3.147 0-5.348-.329-7.978-1.191-2.765-.907-3.953-1.48-4.077-1.967-.058-.228-.503-1.195-.989-2.148s-.823-1.793-.748-1.867.919-.298 1.876-.498c2.269-.475 4.248-.492 5.232-.044zm-20.53 3.666c.904.42 1.813 1.356 2.188 2.253.384.921.42 4.601.053 5.476-.851 2.031-3.102 3.127-5.216 2.537-.62-.173-1.141-.511-1.802-1.17-1.102-1.1-1.361-1.898-1.361-4.19 0-2.531.705-3.927 2.413-4.778 1.172-.584 2.635-.635 3.725-.129zm58.149.135c1.83.912 2.493 2.405 2.366 5.326-.092 2.094-.439 2.945-1.615 3.951-2.191 1.875-5.593 1.026-6.727-1.679-.379-.904-.355-4.507.037-5.445.968-2.32 3.651-3.293 5.939-2.153zM18.617 85.261c2.118.991 4.537.903 6.585-.241l.684-.382 1.024.705c1.845 1.271 3.328 3.347 3.899 5.459.184.682.174.706-.578 1.261-1.067.789-3.454 1.879-4.98 2.275-1.947.506-5.587.468-7.499-.078-1.413-.404-4.139-1.699-5.037-2.394l-.445-.344.399-1.215c.487-1.485 1.092-2.487 2.206-3.658.656-.69 2.279-1.947 2.514-1.947.019 0 .572.251 1.229.559zm57.509-.206c1.904 1.107 4.414 1.186 6.511.204l1.199-.561.753.441c1.764 1.034 3.83 3.918 4.228 5.9.102.507.039.615-.596 1.035-1.281.848-3.296 1.778-4.749 2.192-1.907.543-5.561.58-7.473.075-1.545-.408-3.598-1.326-4.771-2.133-.812-.559-.854-.629-.767-1.277.138-1.031 1.108-2.902 2.073-3.997.762-.865 2.512-2.233 2.857-2.233.071 0 .402.158.735.352zm-34.799 6.1c-.558.597-.546 1.477.025 1.926.241.189.992.446 1.669.571 1.073.198 1.288.189 1.677-.066.995-.652.903-1.926-.172-2.376-.332-.139-1.096-.308-1.696-.375-.998-.112-1.126-.085-1.504.319zm16.076-.191c-1.734.319-2.375 1.456-1.382 2.449.501.501.92.545 2.319.245 1.263-.271 1.896-.884 1.736-1.683-.215-1.076-.904-1.336-2.673-1.011zm-8.37.692c-.819.35-1.055 1.576-.424 2.207.309.308.611.366 1.91.366 1.45 0 1.567-.029 1.924-.483.493-.627.479-1.03-.056-1.653-.387-.449-.579-.513-1.695-.558-.692-.028-1.439.026-1.659.12z"/></mask><path fill-rule="evenodd" d="M18.516 4.002C11.489 5.333 5.957 10.522 4.237 17.396c-.326 1.302-.408 2.156-.41 4.283-.004 3.166.353 4.786 1.653 7.501 1.049 2.191 2.064 3.607 3.767 5.252 3.43 3.314 7.629 5.052 12.295 5.091 1.184.01 2.153.05 2.153.088s-.249.794-.552 1.679c-2.004 5.837-1.996 12.676.022 18.707l.53 1.652c0 .037-.927.074-2.061.081s-2.571.111-3.193.231c-8.166 1.576-14.173 8.387-14.658 16.618C3.161 89.099 11.983 98 22.502 97.467c8.293-.419 15.056-6.338 16.785-14.689.125-.605.232-2.027.237-3.16s.07-2.061.144-2.061.548.163 1.053.362c1.175.463 4.119 1.2 5.817 1.455s6.476.255 8.174 0 4.641-.992 5.817-1.455c1.318-.519 1.326-.515 1.183.713-.166 1.432.198 4.351.77 6.162 2.017 6.396 7.291 11.115 13.842 12.385 11.279 2.186 21.824-7.089 21.146-18.6-.429-7.282-5.211-13.561-12.098-15.883-2.308-.778-5.055-1.179-6.74-.983-.591.069-1.075.061-1.075-.017s.214-.762.476-1.521c1.02-2.955 1.379-5.026 1.486-8.568.065-2.149.023-3.865-.119-4.855-.264-1.841-.983-4.765-1.481-6.03-.199-.505-.362-.98-.362-1.053s.927-.139 2.061-.144c4.93-.023 9.34-1.895 12.792-5.43 5.341-5.47 6.605-13.691 3.158-20.545-.785-1.562-1.333-2.131-2.05-2.131-.588 0-1.304.705-1.304 1.283 0 .175.361 1.024.802 1.888 2.229 4.369 2.313 9.305.231 13.559-.453.925-1.086 2.035-1.407 2.467l-.584.785-.79-1.61c-1.049-2.136-2.282-3.495-4.634-5.11-.034-.023.131-.564.367-1.202.374-1.015.427-1.481.421-3.725-.009-3.279-.327-4.217-1.992-5.872-2.387-2.372-5.266-2.843-8.297-1.358-1.322.647-2.466 1.84-3.12 3.25-.926 1.998-1.001 5.679-.158 7.766l.436 1.078-.805.554c-1.757 1.209-3.518 3.368-4.319 5.297l-.379.911-.624-.817c-2.139-2.802-3.257-7.037-2.809-10.643.441-3.55 1.901-6.538 4.409-9.023 4.9-4.855 12.357-5.794 18.323-2.308.809.473 1.62.813 1.941.813.7 0 1.218-.561 1.218-1.318 0-.723-.679-1.326-2.618-2.323-6.971-3.585-15.326-2.299-20.843 3.208-2.149 2.145-3.79 4.938-4.643 7.902-.458 1.592-.78 4.505-.638 5.767.075.667.051 1.053-.067 1.053-.102 0-.599-.163-1.105-.362-1.262-.497-4.188-1.217-6.018-1.479-.97-.139-2.725-.183-4.855-.121-3.633.105-5.466.415-8.368 1.411-.884.303-1.667.552-1.74.552s-.078-.484-.009-1.075c.166-1.432-.198-4.35-.769-6.162-1.929-6.12-6.613-10.571-12.845-12.208-1.879-.494-5.474-.614-7.408-.247zm6.197 2.818c3.896.804 7.4 3.199 9.623 6.576 1.654 2.514 2.434 5.182 2.421 8.283-.014 3.369-.996 6.381-2.909 8.928l-.582.775-.379-.911c-.801-1.929-2.563-4.089-4.319-5.297l-.805-.554.436-1.078c.843-2.086.768-5.768-.158-7.766-1.312-2.831-4.505-4.526-7.502-3.982a6.98 6.98 0 0 0-4.08 2.221c-1.406 1.518-1.777 2.598-1.882 5.466-.077 2.117-.046 2.4.405 3.743.434 1.292.456 1.471.199 1.615-.738.413-2.545 2.074-3.195 2.937-.397.526-1.008 1.556-1.358 2.288l-.637 1.331-.581-.782c-.32-.43-.951-1.539-1.404-2.464-3.438-7.024-.824-15.508 6.048-19.637 1.184-.711 3.619-1.591 5.07-1.832 1.667-.276 3.84-.222 5.591.139zm24.093.685c-.478.608-.483 1.169-.014 1.673.722.775 3.268.805 3.882.046.439-.542.421-1.304-.041-1.801-.327-.351-.565-.401-1.91-.401-1.442 0-1.56.03-1.917.483zm-6.03.133c-1.416.302-2.012 1.166-1.484 2.153.318.594.989.74 2.33.506 1.912-.333 2.632-1.434 1.606-2.459-.495-.496-.908-.529-2.452-.2zm13.778-.035c-.395.191-.8.87-.8 1.341 0 .141.185.465.412.721.321.362.71.513 1.75.68 1.241.199 1.374.188 1.832-.152.614-.457.736-1.296.271-1.871-.224-.277-.723-.495-1.521-.667-1.394-.299-1.435-.3-1.945-.053zm-33.852 6.986c1.225.318 2.101 1.018 2.739 2.188.491.901.524 1.097.524 3.069s-.033 2.167-.529 3.078c-1.01 1.853-2.985 2.724-4.903 2.163-1.168-.342-2.207-1.168-2.754-2.19-.358-.67-.407-1.036-.407-3.051s.049-2.381.407-3.051c.52-.973 1.566-1.838 2.616-2.164s1.199-.33 2.307-.043zm58.61.212c.83.342 1.709 1.156 2.161 2 .355.663.404 1.035.404 3.046 0 2.619-.249 3.344-1.506 4.386-2.328 1.929-5.683 1.036-6.835-1.819-.165-.409-.258-1.333-.258-2.567 0-2.047.179-2.755.959-3.799 1.111-1.485 3.232-2.007 5.076-1.247zm-25.695 9.992l.87.213-.619.764c-2.415 2.979-1.89 5.567 1.575 7.763l3.128 1.969c3.209 2.013 4.718 3.631 5.594 5.999.824 2.226.722 4.167-.429 8.208-.838 2.943-.979 4.299-.558 5.399.38.995 1.451 1.964 2.529 2.288 1.628.489 4.345.209 7.25-.748.636-.21 1.194-.344 1.239-.299.226.226-1.646 5.595-2.117 6.069-.087.088-.619.347-1.182.575-2.857 1.161-6.308 3.873-7.822 6.147l-.618.929-1.39-.106c-1.956-.148-4.446.151-7.505.901-1.446.355-3.05.645-3.564.645-1.409 0-2.548-.66-3.664-2.124-1.099-1.441-1.901-2.111-3.328-2.779-.991-.464-1.236-.5-3.359-.491-1.94.008-2.649.099-4.643.595l-2.353.585-1.273-1.162c-1.306-1.192-3.261-2.42-4.967-3.119-.53-.217-1.057-.455-1.172-.528-.462-.295-2.457-5.999-2.098-5.999.079 0 .602.158 1.164.351 2.543.875 6.392 1.273 7.351.76.828-.443.878-1.801.081-2.228-.217-.116-1.309-.28-2.425-.364-2.024-.152-4.292-.691-6.015-1.431l-.87-.374v-2.639c0-1.509.118-3.336.276-4.266.324-1.91 1.363-5.245 2.068-6.637.47-.928.574-1.013 1.962-1.603 2.917-1.24 6.092-3.884 7.842-6.532.671-1.015.726-1.053 1.495-1.053 2.187 0 5.284 1.005 5.874 1.905.384.586.32.856-.734 3.096-.991 2.107-1.271 3.286-1.146 4.835.129 1.605.809 2.898 2.318 4.402.685.683 1.307 1.437 1.382 1.674.534 1.694-2.14 4.798-5.805 6.736-1.982 1.048-2.424 1.588-1.968 2.406.155.277.509.613.786.747.457.219.622.188 1.725-.328 3.198-1.496 6.244-4.185 7.398-6.528.527-1.071.618-1.447.614-2.543-.006-1.618-.276-2.149-2.005-3.943-2.126-2.206-2.234-3.237-.678-6.529.519-1.097.994-2.365 1.056-2.819.404-2.949-2.405-5.146-7.398-5.784-.58-.074-.945-.206-.908-.328.169-.573 4.726-2.239 7.557-2.762 1.728-.319 8.067-.264 9.481.083zm5.725 1.832c.867.389 1.256.67 1.33.962.207.815 1.807 3.74 2.635 4.815 1.076 1.398 3.065 3.275 4.43 4.179a25.29 25.29 0 0 0 4.027 2.015c.651.229 2.26 4.663 2.765 7.618.174 1.018.295 2.769.295 4.266v2.539l-.87.373c-1.665.714-4.68 1.462-6 1.489-1.463.03-2.049-.209-2.224-.904-.123-.488-.028-.945 1.011-4.876.754-2.855.893-4.724.5-6.73-.701-3.574-2.757-6.314-6.593-8.786-5.771-3.719-5.795-3.74-5.444-4.803.241-.731 2.14-2.709 2.601-2.709.173 0 .865.247 1.539.55zm-42.805.645c1.972.991 4.018.985 6.252-.018l1.088-.488.786.461c1.061.622 2.747 2.421 3.309 3.532.252.498.587 1.338.744 1.866l.285.96-.768.527c-2.628 1.803-5.383 2.642-8.646 2.634-3.222-.008-6.146-.906-8.49-2.607-.669-.486-.777-.649-.682-1.029a10.77 10.77 0 0 1 1.671-3.548c.785-1.067 2.801-2.753 3.292-2.753.132 0 .654.208 1.16.462zm57.9-.014c1.98 1.003 4.276.996 6.35-.019l1.021-.5.666.356c.893.478 2.448 2.014 3.136 3.099.308.485.739 1.422.959 2.083l.399 1.201-.615.514c-.925.772-3.376 1.923-5.026 2.36-1.95.516-5.115.557-7.053.091-1.529-.368-4.406-1.645-5.383-2.391l-.636-.485.282-.95c.44-1.483 1.112-2.664 2.138-3.757.87-.927 2.362-2.048 2.726-2.048.084 0 .552.202 1.038.448zM8.22 41.273c-.447.494-.904 2.725-.665 3.251.271.599.996 1.009 1.54.872.747-.188 1.021-.658 1.253-2.155.213-1.372.208-1.42-.212-1.867-.533-.568-1.451-.616-1.917-.101zm82.961.291c-.423.423-.454.553-.337 1.42.199 1.462.499 2.198 1.015 2.487.612.343 1.36.153 1.75-.443.269-.41.276-.613.067-1.837-.185-1.084-.332-1.452-.691-1.735-.619-.487-1.247-.45-1.804.108zM7.388 48.61c-.309.308-.366.611-.366 1.91 0 1.45.03 1.567.483 1.924.553.436.784.463 1.427.17.612-.279.899-1.208.8-2.585-.063-.873-.168-1.179-.499-1.446-.549-.444-1.385-.432-1.844.027zm84.652.173c-.686.686-.75 3.141-.1 3.859.437.482 1.439.482 1.922-.002.308-.308.366-.611.366-1.892 0-1.357-.047-1.569-.424-1.924-.526-.494-1.294-.513-1.764-.042zM7.838 56.022c-.515.515-.528.64-.232 2.245.298 1.616 1.127 2.257 2.185 1.691.594-.318.74-.989.506-2.33-.333-1.913-1.434-2.632-2.459-1.606zm84.192-.094c-.596.145-1.044 1.076-1.196 2.484-.103.964-.07 1.15.271 1.511.539.571 1.516.558 1.975-.025.19-.241.448-.998.574-1.682.209-1.135.2-1.285-.108-1.696-.408-.547-.904-.74-1.517-.592zm-66.625 9.011c6.685 1.677 11.334 7.672 11.348 14.634.004 2.214-.236 3.545-.997 5.534-.497 1.298-2.275 4.313-2.444 4.145-.04-.04-.402-.731-.805-1.536-.992-1.983-2.526-3.642-4.749-5.137-.032-.022.117-.382.331-.802.946-1.855.9-6.155-.088-8.174-1.26-2.576-3.816-4.043-6.774-3.888-2.676.14-4.692 1.489-5.909 3.952l-.691 1.398v2.758c0 2.514.039 2.843.437 3.725.241.532.406.998.366 1.036s-.565.45-1.17.915c-1.491 1.148-2.72 2.657-3.566 4.384l-.706 1.44-.661-.89C6.956 85.242 5.968 80.619 6.8 76.617c1.776-8.548 10.144-13.802 18.605-11.679zm57.94-.017c5.613 1.433 9.915 5.969 11.108 11.71.828 3.988-.15 8.543-2.536 11.802l-.652.89-.707-1.44c-.969-1.974-2.618-3.864-4.387-5.028l-.441-.29.448-.992c.411-.911.448-1.218.448-3.75v-2.758l-.691-1.398c-1.222-2.472-3.232-3.811-5.934-3.953-1.269-.067-1.733-.009-2.677.332-2.162.782-3.843 2.478-4.449 4.491-.642 2.133-.493 5.709.301 7.268.206.404.349.753.317.775-2.223 1.495-3.757 3.154-4.749 5.137-.403.805-.765 1.496-.805 1.536-.169.169-1.947-2.847-2.444-4.145-.78-2.037-1.013-3.346-1-5.626.022-3.917 1.316-7.212 3.973-10.119a15.11 15.11 0 0 1 14.878-4.441zm-39.396 4.188c.43.195 1.164.825 1.741 1.494 2.468 2.863 3.437 3.454 5.916 3.609 1.295.081 1.862.004 4.229-.576 2.847-.697 5.847-1.109 6.635-.911.388.097.44.189.338.594-.188.751-.37.878-2.351 1.645-3.682 1.426-5.974 1.859-9.823 1.859-3.147 0-5.348-.329-7.978-1.191-2.765-.907-3.953-1.48-4.077-1.967-.058-.228-.503-1.195-.989-2.148s-.823-1.793-.748-1.867.919-.298 1.876-.498c2.269-.475 4.248-.492 5.232-.044zm-20.53 3.666c.904.42 1.813 1.356 2.188 2.253.384.921.42 4.601.053 5.476-.851 2.031-3.102 3.127-5.216 2.537-.62-.173-1.141-.511-1.802-1.17-1.102-1.1-1.361-1.898-1.361-4.19 0-2.531.705-3.927 2.413-4.778 1.172-.584 2.635-.635 3.725-.129zm58.149.135c1.83.912 2.493 2.405 2.366 5.326-.092 2.094-.439 2.945-1.615 3.951-2.191 1.875-5.593 1.026-6.727-1.679-.379-.904-.355-4.507.037-5.445.968-2.32 3.651-3.293 5.939-2.153zM18.617 85.261c2.118.991 4.537.903 6.585-.241l.684-.382 1.024.705c1.845 1.271 3.328 3.347 3.899 5.459.184.682.174.706-.578 1.261-1.067.789-3.454 1.879-4.98 2.275-1.947.506-5.587.468-7.499-.078-1.413-.404-4.139-1.699-5.037-2.394l-.445-.344.399-1.215c.487-1.485 1.092-2.487 2.206-3.658.656-.69 2.279-1.947 2.514-1.947.019 0 .572.251 1.229.559zm57.509-.206c1.904 1.107 4.414 1.186 6.511.204l1.199-.561.753.441c1.764 1.034 3.83 3.918 4.228 5.9.102.507.039.615-.596 1.035-1.281.848-3.296 1.778-4.749 2.192-1.907.543-5.561.58-7.473.075-1.545-.408-3.598-1.326-4.771-2.133-.812-.559-.854-.629-.767-1.277.138-1.031 1.108-2.902 2.073-3.997.762-.865 2.512-2.233 2.857-2.233.071 0 .402.158.735.352zm-34.799 6.1c-.558.597-.546 1.477.025 1.926.241.189.992.446 1.669.571 1.073.198 1.288.189 1.677-.066.995-.652.903-1.926-.172-2.376-.332-.139-1.096-.308-1.696-.375-.998-.112-1.126-.085-1.504.319zm16.076-.191c-1.734.319-2.375 1.456-1.382 2.449.501.501.92.545 2.319.245 1.263-.271 1.896-.884 1.736-1.683-.215-1.076-.904-1.336-2.673-1.011zm-8.37.692c-.819.35-1.055 1.576-.424 2.207.309.308.611.366 1.91.366 1.45 0 1.567-.029 1.924-.483.493-.627.479-1.03-.056-1.653-.387-.449-.579-.513-1.695-.558-.692-.028-1.439.026-1.659.12z" fill="#282626" stroke="#fff" stroke-width="2" mask="url(#A)"/></svg>