<svg width="100" height="100" viewBox="0 0 100 100" fill="none" xmlns="http://www.w3.org/2000/svg">
<rect width="100" height="100" fill="#E5E5E5"/>
<rect width="100" height="100" fill="white"/>
<mask id="path-1-inside-1" fill="white">
<path fill-rule="evenodd" clip-rule="evenodd" d="M18.5158 4.00155C11.4893 5.33311 5.95711 10.5223 4.23678 17.3956C3.91085 18.6978 3.82896 19.5512 3.8264 21.6784C3.82273 24.8439 4.17962 26.4642 5.47912 29.1797C6.5278 31.3711 7.54295 32.7867 9.24569 34.4314C12.6761 37.7449 16.8747 39.4834 21.5406 39.5222C22.7247 39.5321 23.6933 39.5719 23.6933 39.6105C23.6933 39.6494 23.4447 40.4049 23.1409 41.2896C21.1366 47.127 21.1447 53.9655 23.1631 59.9961C23.4548 60.8675 23.6933 61.6109 23.6933 61.6485C23.6933 61.6859 22.7659 61.7223 21.6322 61.7293C20.4987 61.7363 19.0616 61.8403 18.4389 61.9605C10.2733 63.5361 4.26554 70.3472 3.78078 78.5783C3.16117 89.099 11.983 97.9998 22.5024 97.4674C30.795 97.0479 37.5583 91.129 39.2869 82.7785C39.412 82.1739 39.5188 80.7518 39.5241 79.6182C39.5294 78.4846 39.5941 77.5571 39.6679 77.5571C39.7416 77.5571 40.2157 77.7201 40.7212 77.9193C41.8967 78.3826 44.8401 79.1189 46.5379 79.3741C48.2357 79.6295 53.0141 79.6295 54.7119 79.3741C56.4097 79.1189 59.3531 78.3826 60.5286 77.9193C61.8462 77.4 61.8543 77.4048 61.7117 78.6321C61.5455 80.0639 61.9101 82.9826 62.4812 84.7938C64.4981 91.1902 69.7718 95.9087 76.3231 97.1787C87.6023 99.3651 98.147 90.0896 97.469 78.5783C97.0401 71.2959 92.2576 65.0173 85.3712 62.6957C83.063 61.9175 80.3163 61.5168 78.6315 61.7123C78.0403 61.781 77.5565 61.7735 77.5565 61.6954C77.5565 61.6175 77.7706 60.9333 78.0324 60.1748C79.0524 57.22 79.4116 55.149 79.5188 51.6063C79.5838 49.4571 79.5419 47.7408 79.3997 46.7513C79.1355 44.9106 78.4172 41.9864 77.9187 40.7217C77.7195 40.2162 77.5565 39.7421 77.5565 39.6684C77.5565 39.5946 78.484 39.5299 79.6176 39.5246C84.5473 39.5013 88.9579 37.6291 92.4093 34.0948C97.7508 28.625 99.0145 20.4042 95.5676 13.55C94.7824 11.9885 94.2343 11.4188 93.5172 11.4188C92.9293 11.4188 92.2131 12.1234 92.2131 12.7018C92.2131 12.8764 92.5738 13.7261 93.0146 14.5899C95.2437 18.9585 95.328 23.8951 93.246 28.1492C92.7933 29.0742 92.1603 30.1844 91.8394 30.6163L91.2558 31.4015L90.4655 29.7918C89.4164 27.656 88.1834 26.2964 85.8312 24.6821C85.7975 24.6591 85.9624 24.118 86.1977 23.4799C86.5718 22.4648 86.6243 21.999 86.6183 19.7547C86.6095 16.4759 86.2913 15.5378 84.6261 13.8831C82.2389 11.5111 79.3603 11.0397 76.3295 12.5248C75.0079 13.1722 73.8634 14.3647 73.2097 15.7749C72.2837 17.7728 72.2088 21.4542 73.0514 23.5406L73.487 24.6189L72.6818 25.173C70.9251 26.3816 69.1639 28.5414 68.3624 30.4702L67.9838 31.3812L67.36 30.5642C65.2207 27.7624 64.1028 23.527 64.5507 19.9215C64.9919 16.372 66.4522 13.3831 68.9598 10.899C73.8602 6.04396 81.3172 5.10465 87.2826 8.59093C88.0917 9.06379 88.9031 9.40346 89.2237 9.40346C89.9234 9.40346 90.442 8.84247 90.442 8.08582C90.442 7.36233 89.7634 6.76012 87.8236 5.76255C80.8524 2.17753 72.4972 3.46347 66.981 8.9709C64.8321 11.1163 63.1913 13.9091 62.3381 16.8731C61.8799 18.4648 61.5576 21.3783 61.7 22.6403C61.7751 23.3075 61.7507 23.6937 61.6333 23.6937C61.5313 23.6937 61.034 23.5307 60.5286 23.3315C59.2666 22.8341 56.341 22.1148 54.5104 21.8521C53.5403 21.7129 51.7851 21.6691 49.6553 21.731C46.0223 21.8365 44.1893 22.1456 41.2871 23.1421C40.4035 23.4455 39.6203 23.6937 39.5468 23.6937C39.4734 23.6937 39.4693 23.2099 39.538 22.6187C39.7042 21.1871 39.3396 18.2684 38.7688 16.457C36.8394 10.3371 32.156 5.88585 25.9239 4.2487C24.0445 3.75495 20.4501 3.63495 18.5158 4.00155ZM24.7127 6.81966C28.6088 7.62377 32.1126 10.0183 34.3355 13.3958C35.9899 15.9096 36.7698 18.5776 36.7568 21.6784C36.7425 25.0473 35.761 28.0598 33.8482 30.6062L33.2659 31.3812L32.8874 30.4702C32.0859 28.5414 30.3247 26.3816 28.5679 25.173L27.7627 24.6189L28.1984 23.5406C29.041 21.4542 28.966 17.7728 28.0401 15.7749C26.7281 12.9443 23.5346 11.2491 20.5377 11.7927C18.8757 12.0941 17.5846 12.797 16.4579 14.0141C15.0523 15.5322 14.6804 16.6125 14.5761 19.4799C14.499 21.5965 14.5296 21.8801 14.9807 23.2229C15.4145 24.5149 15.4365 24.6937 15.1796 24.8375C14.4418 25.2504 12.635 26.9112 11.9843 27.7749C11.5875 28.3012 10.9761 29.3311 10.6258 30.0632L9.98878 31.3945L9.40783 30.6128C9.08831 30.183 8.45643 29.0742 8.00372 28.1492C4.56619 21.1253 7.17947 12.6411 14.0522 8.51215C15.2359 7.80093 17.6714 6.92098 19.1217 6.68061C20.7885 6.40415 22.9617 6.45838 24.7127 6.81966ZM48.8062 7.5045C48.3278 8.11238 48.3231 8.67392 48.7921 9.17719C49.5139 9.95198 52.0599 9.98239 52.6742 9.22354C53.113 8.68161 53.0956 7.91928 52.633 7.42279C52.3062 7.07176 52.0676 7.02174 50.7227 7.02174C49.2807 7.02174 49.1623 7.05161 48.8062 7.5045ZM42.7761 7.63769C41.3606 7.93925 40.7644 8.80418 41.2924 9.79076C41.6105 10.3849 42.281 10.5307 43.6221 10.2971C45.5346 9.96426 46.2539 8.86317 45.2285 7.83794C44.7331 7.34236 44.3205 7.30865 42.7761 7.63769ZM56.5542 7.60252C56.159 7.79379 55.7547 8.47221 55.7547 8.94379C55.7547 9.08467 55.9401 9.40914 56.1669 9.66489C56.4874 10.0264 56.8772 10.1779 57.9171 10.3448C59.1583 10.5441 59.291 10.5331 59.7492 10.1925C60.3635 9.73598 60.485 8.89633 60.0198 8.32198C59.7954 8.04478 59.2972 7.82658 58.499 7.65546C57.1055 7.35683 57.0639 7.35555 56.5542 7.60252ZM22.7025 14.589C23.9276 14.9069 24.8035 15.6065 25.4411 16.7769C25.9321 17.6779 25.9656 17.8741 25.9656 19.8463C25.9656 21.8228 25.9328 22.0133 25.4365 22.9244C24.4269 24.7776 22.4519 25.6487 20.533 25.087C19.365 24.7452 18.3257 23.9187 17.7795 22.8973C17.4213 22.2277 17.3726 21.8618 17.3726 19.8463C17.3726 17.8309 17.4213 17.465 17.7795 16.7954C18.2996 15.8225 19.3454 14.9576 20.3955 14.6317C21.4501 14.3041 21.5941 14.3015 22.7025 14.589ZM81.3122 14.8008C82.1422 15.1428 83.0216 15.957 83.473 16.8007C83.8279 17.4641 83.8771 17.8354 83.8771 19.8463C83.8771 22.4649 83.628 23.1905 82.371 24.232C80.0431 26.1606 76.6882 25.2682 75.5355 22.4135C75.3702 22.0045 75.2774 21.0801 75.2774 19.8463C75.2774 17.7992 75.456 17.0916 76.2366 16.0477C77.3471 14.5622 79.469 14.041 81.3122 14.8008ZM55.6175 24.7926L56.4877 25.0059L55.8685 25.7697C53.4534 28.7486 53.9785 31.337 57.4437 33.5329C58.0765 33.934 59.4841 34.8202 60.5716 35.5023C63.7801 37.5148 65.2892 39.1333 66.1655 41.5014C66.9892 43.7272 66.8877 45.6687 65.7366 49.7093C64.8981 52.6522 64.7579 54.0083 65.1782 55.1087C65.5582 56.1039 66.6292 57.0723 67.7076 57.3964C69.3354 57.8854 72.0525 57.6049 74.9575 56.6482C75.5938 56.4386 76.1513 56.3041 76.1963 56.3494C76.4224 56.5755 74.5498 61.9442 74.0795 62.4187C73.9925 62.5065 73.4607 62.7653 72.8978 62.9942C70.0404 64.1555 66.59 66.867 65.0754 69.1414L64.4571 70.0701L63.0675 69.9643C61.1113 69.8158 58.6212 70.1148 55.5629 70.8657C54.1172 71.2208 52.5132 71.5112 51.9988 71.5112C50.5897 71.5112 49.4512 70.8513 48.3348 69.3869C47.2363 67.9461 46.4336 67.2758 45.007 66.6074C44.0156 66.143 43.7709 66.1072 41.6477 66.1164C39.7073 66.1248 38.9983 66.2157 37.0046 66.7111L34.6519 67.2961L33.379 66.1342C32.0732 64.9426 30.1175 63.7144 28.4122 63.0152C27.8825 62.7981 27.3549 62.5603 27.2398 62.487C26.7776 62.1923 24.7828 56.4881 25.1419 56.4881C25.2205 56.4881 25.7441 56.6462 26.3055 56.8393C28.8488 57.7143 32.6976 58.112 33.6563 57.599C34.4848 57.1557 34.5339 55.7977 33.7369 55.3712C33.5198 55.2551 32.4283 55.0915 31.3116 55.0077C29.2872 54.8559 27.0194 54.3165 25.2964 53.5769L24.4261 53.2033V50.5644C24.4261 49.0555 24.5443 47.2285 24.7022 46.2982C25.0261 44.3879 26.0653 41.0527 26.7699 39.6609C27.2397 38.7331 27.3435 38.6481 28.7315 38.0582C31.6482 36.8184 34.823 34.1738 36.5737 31.5259C37.2446 30.5111 37.2996 30.4724 38.0687 30.4724C40.2553 30.4724 43.3524 31.477 43.9425 32.3776C44.3264 32.9634 44.2622 33.2336 43.2086 35.4733C42.2173 37.5806 41.9379 38.759 42.0623 40.3087C42.1911 41.914 42.8717 43.2064 44.3804 44.7112C45.0656 45.3944 45.6874 46.1478 45.7624 46.385C46.2966 48.0792 43.6221 51.1827 39.9576 53.1207C37.9755 54.1688 37.5337 54.7091 37.9901 55.5262C38.1449 55.8032 38.4989 56.1392 38.7764 56.2728C39.233 56.4921 39.3983 56.4608 40.5014 55.9445C43.6992 54.448 46.7456 51.7598 47.8993 49.4166C48.4267 48.3452 48.5173 47.97 48.5132 46.8735C48.507 45.2554 48.2371 44.7248 46.5078 42.9306C44.3813 40.7242 44.2743 39.6932 45.8298 36.402C46.3483 35.3051 46.8233 34.0366 46.8854 33.5831C47.2896 30.6344 44.4799 28.4375 39.4878 27.7991C38.9082 27.7251 38.5432 27.5931 38.5793 27.4708C38.7482 26.8973 43.3057 25.2321 46.1363 24.7093C47.8647 24.3901 54.2028 24.4458 55.6175 24.7926ZM61.3426 26.6251C62.2099 27.0142 62.5983 27.2952 62.6723 27.5869C62.8791 28.4015 64.4798 31.3269 65.307 32.4018C66.383 33.8001 68.3721 35.6767 69.7368 36.581C70.6603 37.1929 72.7548 38.241 73.7641 38.5963C74.4148 38.8253 76.0236 43.2588 76.5287 46.2148C76.7025 47.2331 76.8236 48.9838 76.8236 50.481V53.0201L75.9534 53.3933C74.2884 54.1073 71.2732 54.8557 69.9533 54.8824C68.4902 54.9121 67.9038 54.6738 67.7294 53.9783C67.6068 53.4902 67.7015 53.0328 68.7399 49.1022C69.4942 46.2469 69.6331 44.3778 69.2399 42.3726C68.539 38.7985 66.4832 36.059 62.6474 33.587C56.8761 29.8679 56.8525 29.847 57.2031 28.7844C57.4444 28.0532 59.3434 26.0754 59.804 26.0754C59.9766 26.0754 60.6689 26.3228 61.3426 26.6251ZM18.5376 27.2705C20.5099 28.2611 22.5558 28.2554 24.7892 27.2529L25.8771 26.7649L26.6631 27.2256C27.7239 27.8474 29.4099 29.6469 29.9722 30.7572C30.2247 31.2555 30.5594 32.0953 30.716 32.6235L31.0009 33.5837L30.2325 34.1108C27.605 35.9137 24.8499 36.753 21.5864 36.745C18.3643 36.7369 15.4407 35.839 13.0965 34.1377C12.4271 33.652 12.3192 33.4892 12.4148 33.1085C12.7173 31.9031 13.3492 30.5617 14.086 29.5608C14.8715 28.4938 16.8873 26.8083 17.3777 26.8083C17.5095 26.8083 18.0314 27.0162 18.5376 27.2705ZM76.438 27.2566C78.4175 28.2597 80.7141 28.2529 82.7876 27.2375L83.8088 26.7374L84.4748 27.0935C85.3679 27.571 86.9226 29.1072 87.6107 30.1921C87.9183 30.6771 88.3498 31.6142 88.5695 32.2747L88.969 33.4756L88.3538 33.9891C87.4286 34.7615 84.978 35.9121 83.3275 36.3489C81.3773 36.8651 78.212 36.9058 76.274 36.4399C74.7446 36.072 71.8684 34.7945 70.8906 34.0489L70.2547 33.5637L70.5367 32.6136C70.9767 31.1302 71.6487 29.9492 72.6743 28.8565C73.544 27.9299 75.0364 26.8083 75.3999 26.8083C75.4844 26.8083 75.9514 27.01 76.438 27.2566ZM8.22009 41.2731C7.77288 41.7673 7.31651 43.998 7.55505 44.524C7.82638 45.1225 8.55078 45.5326 9.09546 45.3959C9.84221 45.2083 10.1163 44.7374 10.3488 43.241C10.5622 41.8691 10.5567 41.8213 10.1366 41.3743C9.6035 40.8067 8.68599 40.7583 8.22009 41.2731ZM91.1811 41.5644C90.7579 41.9875 90.7271 42.1177 90.8445 42.9843C91.043 44.4467 91.3431 45.1821 91.8593 45.4714C92.4711 45.814 93.2193 45.6247 93.6097 45.0287C93.8785 44.6185 93.8858 44.4161 93.6764 43.1913C93.491 42.1078 93.3441 41.7389 92.9855 41.4567C92.3661 40.9694 91.7384 41.0069 91.1811 41.5644ZM7.38778 48.6101C7.07925 48.9186 7.02136 49.2207 7.02136 50.5204C7.02136 51.9703 7.05086 52.0876 7.50411 52.4441C8.05759 52.8796 8.28769 52.9069 8.93112 52.6138C9.54267 52.3351 9.83012 51.4055 9.73064 50.029C9.66743 49.1555 9.56227 48.8505 9.23177 48.5828C8.68324 48.1389 7.84671 48.1512 7.38778 48.6101ZM92.0402 48.783C91.3537 49.4695 91.2901 51.9243 91.9399 52.6425C92.3765 53.1249 93.3787 53.124 93.862 52.6407C94.1698 52.3329 94.2284 52.0301 94.2284 50.7489C94.2284 49.3915 94.1817 49.1797 93.8045 48.8252C93.2785 48.3311 92.5105 48.3127 92.0402 48.783ZM7.83755 56.0218C7.32237 56.5368 7.30936 56.6616 7.60524 58.2668C7.90296 59.8827 8.73197 60.5243 9.79037 59.9579C10.3845 59.6398 10.5303 58.9693 10.2968 57.6282C9.96387 55.7157 8.86278 54.9964 7.83755 56.0218ZM92.0299 55.9274C91.4337 56.0724 90.9856 57.0032 90.8343 58.4118C90.7308 59.3753 90.7641 59.5619 91.1053 59.9232C91.6446 60.4943 92.6211 60.4816 93.0804 59.8978C93.2699 59.657 93.528 58.8998 93.654 58.2154C93.8633 57.08 93.8537 56.9309 93.5465 56.5192C93.1381 55.9723 92.642 55.7787 92.0299 55.9274ZM25.4048 64.938C32.0903 66.6151 36.7392 72.6104 36.7529 79.5724C36.7573 81.7861 36.5173 83.1176 35.7555 85.1069C35.2585 86.4046 33.4801 89.4202 33.3112 89.2514C33.2714 89.2115 32.909 88.5203 32.5062 87.7151C31.5137 85.7324 29.9797 84.0732 27.7568 82.5786C27.7246 82.557 27.8734 82.1961 28.0874 81.7767C29.0334 79.9221 28.9871 75.6218 27.9991 73.6023C26.7386 71.026 24.1828 69.5595 21.2246 69.7146C18.549 69.8551 16.5328 71.2034 15.3156 73.6663L14.6245 75.0647V77.8223C14.6245 80.3363 14.6632 80.6656 15.0616 81.5473C15.3022 82.0796 15.4671 82.5458 15.428 82.5838C15.3892 82.6219 14.8627 83.0335 14.2581 83.4987C12.7668 84.6463 11.5384 86.1561 10.6918 87.8827L9.98548 89.3225L9.32465 88.4323C6.95632 85.2416 5.96846 80.6192 6.79986 76.6172C8.57551 68.0687 16.9439 62.8155 25.4048 64.938ZM83.3446 64.9206C88.9575 66.3539 93.26 70.8892 94.4526 76.6304C95.2811 80.6188 94.3022 85.1736 91.9163 88.4323L91.2643 89.3225L90.5575 87.8827C89.5883 85.9086 87.9398 84.0192 86.1707 82.8545L85.7297 82.5641L86.1775 81.5721C86.5886 80.6612 86.6253 80.3543 86.6253 77.8223V75.0647L85.9342 73.6663C84.7122 71.1939 82.7026 69.8552 80.0001 69.7133C78.731 69.6467 78.2671 69.7042 77.3236 70.0453C75.1612 70.8269 73.4806 72.5234 72.8749 74.5361C72.233 76.669 72.3814 80.2455 73.1763 81.8038C73.3826 82.2082 73.5252 82.557 73.4929 82.5786C71.27 84.0732 69.736 85.7324 68.7436 87.7151C68.3407 88.5203 67.9783 89.2115 67.9386 89.2514C67.7697 89.4202 65.9913 86.4046 65.4942 85.1069C64.7139 83.0694 64.4813 81.7606 64.4941 79.4807C64.5161 75.5641 65.8097 72.2689 68.4668 69.3618C72.2222 65.2528 77.9498 63.5431 83.3446 64.9206ZM43.9486 69.1089C44.3788 69.3042 45.1127 69.9343 45.6891 70.603C48.1573 73.4664 49.1261 74.0574 51.6054 74.212C52.9005 74.2928 53.4674 74.2157 55.8344 73.6364C58.6815 72.9397 61.6817 72.5276 62.4695 72.7253C62.8571 72.8226 62.9092 72.9144 62.8075 73.3198C62.619 74.0708 62.4372 74.1979 60.4562 74.965C56.7739 76.3906 54.4827 76.8242 50.6331 76.8242C47.4865 76.8242 45.2847 76.4955 42.6553 75.6336C39.89 74.7269 38.7019 74.1538 38.5782 73.6666C38.5201 73.4383 38.0749 72.4717 37.5887 71.5185C37.1025 70.5655 36.7656 69.7253 36.8403 69.6516C36.9149 69.578 37.7591 69.3537 38.7164 69.1533C40.9858 68.6784 42.9639 68.6615 43.9486 69.1089ZM23.4185 72.7753C24.323 73.195 25.2319 74.1312 25.6062 75.0286C25.9904 75.9496 26.0261 79.6299 25.6595 80.5049C24.8083 82.5363 22.5572 83.6315 20.4439 83.0421C19.8236 82.8692 19.3025 82.5306 18.6424 81.8718C17.5404 80.772 17.281 79.9736 17.281 77.6822C17.281 75.1515 17.9862 73.7551 19.6935 72.9041C20.8658 72.32 22.3282 72.2695 23.4185 72.7753ZM81.5678 72.91C83.3981 73.822 84.0613 75.3148 83.9338 78.2362C83.8423 80.3301 83.4946 81.1809 82.3186 82.1875C80.1276 84.0628 76.7253 83.2136 75.5919 80.5087C75.2129 79.6042 75.2374 76.002 75.6289 75.0634C76.597 72.7429 79.2801 71.7699 81.5678 72.91ZM18.6173 85.261C20.7354 86.2521 23.1543 86.1636 25.2022 85.0199L25.8865 84.6377L26.9102 85.3427C28.7555 86.6136 30.2379 88.6892 30.8087 90.8018C30.993 91.484 30.9824 91.5073 30.2303 92.063C29.1632 92.8517 26.7765 93.9421 25.2506 94.3384C23.3038 94.8441 19.6631 94.8061 17.7515 94.2604C16.3388 93.8569 13.613 92.5613 12.7142 91.866L12.2694 91.5219L12.6682 90.3071C13.1555 88.8224 13.7598 87.8206 14.8744 86.6493C15.5308 85.9592 17.1537 84.7022 17.388 84.7022C17.4072 84.7022 17.9605 84.9537 18.6173 85.261ZM76.1262 85.0545C78.0304 86.1614 80.54 86.2402 82.6376 85.2586L83.8368 84.6974L84.5898 85.1388C86.3534 86.1726 88.42 89.0565 88.8179 91.039C88.9196 91.5456 88.8571 91.654 88.2216 92.0745C86.9404 92.9224 84.9253 93.8524 83.4724 94.2662C81.5651 94.8096 77.911 94.8465 75.9992 94.3413C74.4544 93.9333 72.4012 93.0155 71.2286 92.2088C70.4161 91.6498 70.3743 91.5802 70.4614 90.9317C70.5997 89.9004 71.5698 88.03 72.534 86.9351C73.296 86.0698 75.0458 84.7022 75.3908 84.7022C75.462 84.7022 75.7929 84.8607 76.1262 85.0545ZM41.3271 91.1548C40.7694 91.7519 40.7809 92.6315 41.3525 93.0811C41.5933 93.2705 42.3442 93.5274 43.0212 93.6521C44.0942 93.85 44.3091 93.8416 44.6985 93.5863C45.6938 92.9343 45.6017 91.6599 44.5264 91.2107C44.1941 91.0718 43.4308 90.9031 42.8307 90.8358C41.8322 90.7239 41.7043 90.751 41.3271 91.1548ZM57.4036 90.9643C55.6695 91.2836 55.0281 92.4199 56.0213 93.4128C56.522 93.9137 56.941 93.9579 58.3405 93.6578C59.6032 93.387 60.2362 92.7734 60.0764 91.975C59.8613 90.8994 59.1719 90.6387 57.4036 90.9643ZM49.0337 91.6559C48.2146 92.0056 47.9788 93.2318 48.6096 93.8626C48.9181 94.1711 49.2202 94.229 50.5199 94.229C51.9698 94.229 52.0871 94.1995 52.4436 93.7463C52.9366 93.1195 52.923 92.7163 52.3875 92.0937C52.001 91.6445 51.8086 91.5811 50.6929 91.5361C50.0005 91.5078 49.2539 91.5619 49.0337 91.6559Z"/>
</mask>
<path fill-rule="evenodd" clip-rule="evenodd" d="M18.5158 4.00155C11.4893 5.33311 5.95711 10.5223 4.23678 17.3956C3.91085 18.6978 3.82896 19.5512 3.8264 21.6784C3.82273 24.8439 4.17962 26.4642 5.47912 29.1797C6.5278 31.3711 7.54295 32.7867 9.24569 34.4314C12.6761 37.7449 16.8747 39.4834 21.5406 39.5222C22.7247 39.5321 23.6933 39.5719 23.6933 39.6105C23.6933 39.6494 23.4447 40.4049 23.1409 41.2896C21.1366 47.127 21.1447 53.9655 23.1631 59.9961C23.4548 60.8675 23.6933 61.6109 23.6933 61.6485C23.6933 61.6859 22.7659 61.7223 21.6322 61.7293C20.4987 61.7363 19.0616 61.8403 18.4389 61.9605C10.2733 63.5361 4.26554 70.3472 3.78078 78.5783C3.16117 89.099 11.983 97.9998 22.5024 97.4674C30.795 97.0479 37.5583 91.129 39.2869 82.7785C39.412 82.1739 39.5188 80.7518 39.5241 79.6182C39.5294 78.4846 39.5941 77.5571 39.6679 77.5571C39.7416 77.5571 40.2157 77.7201 40.7212 77.9193C41.8967 78.3826 44.8401 79.1189 46.5379 79.3741C48.2357 79.6295 53.0141 79.6295 54.7119 79.3741C56.4097 79.1189 59.3531 78.3826 60.5286 77.9193C61.8462 77.4 61.8543 77.4048 61.7117 78.6321C61.5455 80.0639 61.9101 82.9826 62.4812 84.7938C64.4981 91.1902 69.7718 95.9087 76.3231 97.1787C87.6023 99.3651 98.147 90.0896 97.469 78.5783C97.0401 71.2959 92.2576 65.0173 85.3712 62.6957C83.063 61.9175 80.3163 61.5168 78.6315 61.7123C78.0403 61.781 77.5565 61.7735 77.5565 61.6954C77.5565 61.6175 77.7706 60.9333 78.0324 60.1748C79.0524 57.22 79.4116 55.149 79.5188 51.6063C79.5838 49.4571 79.5419 47.7408 79.3997 46.7513C79.1355 44.9106 78.4172 41.9864 77.9187 40.7217C77.7195 40.2162 77.5565 39.7421 77.5565 39.6684C77.5565 39.5946 78.484 39.5299 79.6176 39.5246C84.5473 39.5013 88.9579 37.6291 92.4093 34.0948C97.7508 28.625 99.0145 20.4042 95.5676 13.55C94.7824 11.9885 94.2343 11.4188 93.5172 11.4188C92.9293 11.4188 92.2131 12.1234 92.2131 12.7018C92.2131 12.8764 92.5738 13.7261 93.0146 14.5899C95.2437 18.9585 95.328 23.8951 93.246 28.1492C92.7933 29.0742 92.1603 30.1844 91.8394 30.6163L91.2558 31.4015L90.4655 29.7918C89.4164 27.656 88.1834 26.2964 85.8312 24.6821C85.7975 24.6591 85.9624 24.118 86.1977 23.4799C86.5718 22.4648 86.6243 21.999 86.6183 19.7547C86.6095 16.4759 86.2913 15.5378 84.6261 13.8831C82.2389 11.5111 79.3603 11.0397 76.3295 12.5248C75.0079 13.1722 73.8634 14.3647 73.2097 15.7749C72.2837 17.7728 72.2088 21.4542 73.0514 23.5406L73.487 24.6189L72.6818 25.173C70.9251 26.3816 69.1639 28.5414 68.3624 30.4702L67.9838 31.3812L67.36 30.5642C65.2207 27.7624 64.1028 23.527 64.5507 19.9215C64.9919 16.372 66.4522 13.3831 68.9598 10.899C73.8602 6.04396 81.3172 5.10465 87.2826 8.59093C88.0917 9.06379 88.9031 9.40346 89.2237 9.40346C89.9234 9.40346 90.442 8.84247 90.442 8.08582C90.442 7.36233 89.7634 6.76012 87.8236 5.76255C80.8524 2.17753 72.4972 3.46347 66.981 8.9709C64.8321 11.1163 63.1913 13.9091 62.3381 16.8731C61.8799 18.4648 61.5576 21.3783 61.7 22.6403C61.7751 23.3075 61.7507 23.6937 61.6333 23.6937C61.5313 23.6937 61.034 23.5307 60.5286 23.3315C59.2666 22.8341 56.341 22.1148 54.5104 21.8521C53.5403 21.7129 51.7851 21.6691 49.6553 21.731C46.0223 21.8365 44.1893 22.1456 41.2871 23.1421C40.4035 23.4455 39.6203 23.6937 39.5468 23.6937C39.4734 23.6937 39.4693 23.2099 39.538 22.6187C39.7042 21.1871 39.3396 18.2684 38.7688 16.457C36.8394 10.3371 32.156 5.88585 25.9239 4.2487C24.0445 3.75495 20.4501 3.63495 18.5158 4.00155ZM24.7127 6.81966C28.6088 7.62377 32.1126 10.0183 34.3355 13.3958C35.9899 15.9096 36.7698 18.5776 36.7568 21.6784C36.7425 25.0473 35.761 28.0598 33.8482 30.6062L33.2659 31.3812L32.8874 30.4702C32.0859 28.5414 30.3247 26.3816 28.5679 25.173L27.7627 24.6189L28.1984 23.5406C29.041 21.4542 28.966 17.7728 28.0401 15.7749C26.7281 12.9443 23.5346 11.2491 20.5377 11.7927C18.8757 12.0941 17.5846 12.797 16.4579 14.0141C15.0523 15.5322 14.6804 16.6125 14.5761 19.4799C14.499 21.5965 14.5296 21.8801 14.9807 23.2229C15.4145 24.5149 15.4365 24.6937 15.1796 24.8375C14.4418 25.2504 12.635 26.9112 11.9843 27.7749C11.5875 28.3012 10.9761 29.3311 10.6258 30.0632L9.98878 31.3945L9.40783 30.6128C9.08831 30.183 8.45643 29.0742 8.00372 28.1492C4.56619 21.1253 7.17947 12.6411 14.0522 8.51215C15.2359 7.80093 17.6714 6.92098 19.1217 6.68061C20.7885 6.40415 22.9617 6.45838 24.7127 6.81966ZM48.8062 7.5045C48.3278 8.11238 48.3231 8.67392 48.7921 9.17719C49.5139 9.95198 52.0599 9.98239 52.6742 9.22354C53.113 8.68161 53.0956 7.91928 52.633 7.42279C52.3062 7.07176 52.0676 7.02174 50.7227 7.02174C49.2807 7.02174 49.1623 7.05161 48.8062 7.5045ZM42.7761 7.63769C41.3606 7.93925 40.7644 8.80418 41.2924 9.79076C41.6105 10.3849 42.281 10.5307 43.6221 10.2971C45.5346 9.96426 46.2539 8.86317 45.2285 7.83794C44.7331 7.34236 44.3205 7.30865 42.7761 7.63769ZM56.5542 7.60252C56.159 7.79379 55.7547 8.47221 55.7547 8.94379C55.7547 9.08467 55.9401 9.40914 56.1669 9.66489C56.4874 10.0264 56.8772 10.1779 57.9171 10.3448C59.1583 10.5441 59.291 10.5331 59.7492 10.1925C60.3635 9.73598 60.485 8.89633 60.0198 8.32198C59.7954 8.04478 59.2972 7.82658 58.499 7.65546C57.1055 7.35683 57.0639 7.35555 56.5542 7.60252ZM22.7025 14.589C23.9276 14.9069 24.8035 15.6065 25.4411 16.7769C25.9321 17.6779 25.9656 17.8741 25.9656 19.8463C25.9656 21.8228 25.9328 22.0133 25.4365 22.9244C24.4269 24.7776 22.4519 25.6487 20.533 25.087C19.365 24.7452 18.3257 23.9187 17.7795 22.8973C17.4213 22.2277 17.3726 21.8618 17.3726 19.8463C17.3726 17.8309 17.4213 17.465 17.7795 16.7954C18.2996 15.8225 19.3454 14.9576 20.3955 14.6317C21.4501 14.3041 21.5941 14.3015 22.7025 14.589ZM81.3122 14.8008C82.1422 15.1428 83.0216 15.957 83.473 16.8007C83.8279 17.4641 83.8771 17.8354 83.8771 19.8463C83.8771 22.4649 83.628 23.1905 82.371 24.232C80.0431 26.1606 76.6882 25.2682 75.5355 22.4135C75.3702 22.0045 75.2774 21.0801 75.2774 19.8463C75.2774 17.7992 75.456 17.0916 76.2366 16.0477C77.3471 14.5622 79.469 14.041 81.3122 14.8008ZM55.6175 24.7926L56.4877 25.0059L55.8685 25.7697C53.4534 28.7486 53.9785 31.337 57.4437 33.5329C58.0765 33.934 59.4841 34.8202 60.5716 35.5023C63.7801 37.5148 65.2892 39.1333 66.1655 41.5014C66.9892 43.7272 66.8877 45.6687 65.7366 49.7093C64.8981 52.6522 64.7579 54.0083 65.1782 55.1087C65.5582 56.1039 66.6292 57.0723 67.7076 57.3964C69.3354 57.8854 72.0525 57.6049 74.9575 56.6482C75.5938 56.4386 76.1513 56.3041 76.1963 56.3494C76.4224 56.5755 74.5498 61.9442 74.0795 62.4187C73.9925 62.5065 73.4607 62.7653 72.8978 62.9942C70.0404 64.1555 66.59 66.867 65.0754 69.1414L64.4571 70.0701L63.0675 69.9643C61.1113 69.8158 58.6212 70.1148 55.5629 70.8657C54.1172 71.2208 52.5132 71.5112 51.9988 71.5112C50.5897 71.5112 49.4512 70.8513 48.3348 69.3869C47.2363 67.9461 46.4336 67.2758 45.007 66.6074C44.0156 66.143 43.7709 66.1072 41.6477 66.1164C39.7073 66.1248 38.9983 66.2157 37.0046 66.7111L34.6519 67.2961L33.379 66.1342C32.0732 64.9426 30.1175 63.7144 28.4122 63.0152C27.8825 62.7981 27.3549 62.5603 27.2398 62.487C26.7776 62.1923 24.7828 56.4881 25.1419 56.4881C25.2205 56.4881 25.7441 56.6462 26.3055 56.8393C28.8488 57.7143 32.6976 58.112 33.6563 57.599C34.4848 57.1557 34.5339 55.7977 33.7369 55.3712C33.5198 55.2551 32.4283 55.0915 31.3116 55.0077C29.2872 54.8559 27.0194 54.3165 25.2964 53.5769L24.4261 53.2033V50.5644C24.4261 49.0555 24.5443 47.2285 24.7022 46.2982C25.0261 44.3879 26.0653 41.0527 26.7699 39.6609C27.2397 38.7331 27.3435 38.6481 28.7315 38.0582C31.6482 36.8184 34.823 34.1738 36.5737 31.5259C37.2446 30.5111 37.2996 30.4724 38.0687 30.4724C40.2553 30.4724 43.3524 31.477 43.9425 32.3776C44.3264 32.9634 44.2622 33.2336 43.2086 35.4733C42.2173 37.5806 41.9379 38.759 42.0623 40.3087C42.1911 41.914 42.8717 43.2064 44.3804 44.7112C45.0656 45.3944 45.6874 46.1478 45.7624 46.385C46.2966 48.0792 43.6221 51.1827 39.9576 53.1207C37.9755 54.1688 37.5337 54.7091 37.9901 55.5262C38.1449 55.8032 38.4989 56.1392 38.7764 56.2728C39.233 56.4921 39.3983 56.4608 40.5014 55.9445C43.6992 54.448 46.7456 51.7598 47.8993 49.4166C48.4267 48.3452 48.5173 47.97 48.5132 46.8735C48.507 45.2554 48.2371 44.7248 46.5078 42.9306C44.3813 40.7242 44.2743 39.6932 45.8298 36.402C46.3483 35.3051 46.8233 34.0366 46.8854 33.5831C47.2896 30.6344 44.4799 28.4375 39.4878 27.7991C38.9082 27.7251 38.5432 27.5931 38.5793 27.4708C38.7482 26.8973 43.3057 25.2321 46.1363 24.7093C47.8647 24.3901 54.2028 24.4458 55.6175 24.7926ZM61.3426 26.6251C62.2099 27.0142 62.5983 27.2952 62.6723 27.5869C62.8791 28.4015 64.4798 31.3269 65.307 32.4018C66.383 33.8001 68.3721 35.6767 69.7368 36.581C70.6603 37.1929 72.7548 38.241 73.7641 38.5963C74.4148 38.8253 76.0236 43.2588 76.5287 46.2148C76.7025 47.2331 76.8236 48.9838 76.8236 50.481V53.0201L75.9534 53.3933C74.2884 54.1073 71.2732 54.8557 69.9533 54.8824C68.4902 54.9121 67.9038 54.6738 67.7294 53.9783C67.6068 53.4902 67.7015 53.0328 68.7399 49.1022C69.4942 46.2469 69.6331 44.3778 69.2399 42.3726C68.539 38.7985 66.4832 36.059 62.6474 33.587C56.8761 29.8679 56.8525 29.847 57.2031 28.7844C57.4444 28.0532 59.3434 26.0754 59.804 26.0754C59.9766 26.0754 60.6689 26.3228 61.3426 26.6251ZM18.5376 27.2705C20.5099 28.2611 22.5558 28.2554 24.7892 27.2529L25.8771 26.7649L26.6631 27.2256C27.7239 27.8474 29.4099 29.6469 29.9722 30.7572C30.2247 31.2555 30.5594 32.0953 30.716 32.6235L31.0009 33.5837L30.2325 34.1108C27.605 35.9137 24.8499 36.753 21.5864 36.745C18.3643 36.7369 15.4407 35.839 13.0965 34.1377C12.4271 33.652 12.3192 33.4892 12.4148 33.1085C12.7173 31.9031 13.3492 30.5617 14.086 29.5608C14.8715 28.4938 16.8873 26.8083 17.3777 26.8083C17.5095 26.8083 18.0314 27.0162 18.5376 27.2705ZM76.438 27.2566C78.4175 28.2597 80.7141 28.2529 82.7876 27.2375L83.8088 26.7374L84.4748 27.0935C85.3679 27.571 86.9226 29.1072 87.6107 30.1921C87.9183 30.6771 88.3498 31.6142 88.5695 32.2747L88.969 33.4756L88.3538 33.9891C87.4286 34.7615 84.978 35.9121 83.3275 36.3489C81.3773 36.8651 78.212 36.9058 76.274 36.4399C74.7446 36.072 71.8684 34.7945 70.8906 34.0489L70.2547 33.5637L70.5367 32.6136C70.9767 31.1302 71.6487 29.9492 72.6743 28.8565C73.544 27.9299 75.0364 26.8083 75.3999 26.8083C75.4844 26.8083 75.9514 27.01 76.438 27.2566ZM8.22009 41.2731C7.77288 41.7673 7.31651 43.998 7.55505 44.524C7.82638 45.1225 8.55078 45.5326 9.09546 45.3959C9.84221 45.2083 10.1163 44.7374 10.3488 43.241C10.5622 41.8691 10.5567 41.8213 10.1366 41.3743C9.6035 40.8067 8.68599 40.7583 8.22009 41.2731ZM91.1811 41.5644C90.7579 41.9875 90.7271 42.1177 90.8445 42.9843C91.043 44.4467 91.3431 45.1821 91.8593 45.4714C92.4711 45.814 93.2193 45.6247 93.6097 45.0287C93.8785 44.6185 93.8858 44.4161 93.6764 43.1913C93.491 42.1078 93.3441 41.7389 92.9855 41.4567C92.3661 40.9694 91.7384 41.0069 91.1811 41.5644ZM7.38778 48.6101C7.07925 48.9186 7.02136 49.2207 7.02136 50.5204C7.02136 51.9703 7.05086 52.0876 7.50411 52.4441C8.05759 52.8796 8.28769 52.9069 8.93112 52.6138C9.54267 52.3351 9.83012 51.4055 9.73064 50.029C9.66743 49.1555 9.56227 48.8505 9.23177 48.5828C8.68324 48.1389 7.84671 48.1512 7.38778 48.6101ZM92.0402 48.783C91.3537 49.4695 91.2901 51.9243 91.9399 52.6425C92.3765 53.1249 93.3787 53.124 93.862 52.6407C94.1698 52.3329 94.2284 52.0301 94.2284 50.7489C94.2284 49.3915 94.1817 49.1797 93.8045 48.8252C93.2785 48.3311 92.5105 48.3127 92.0402 48.783ZM7.83755 56.0218C7.32237 56.5368 7.30936 56.6616 7.60524 58.2668C7.90296 59.8827 8.73197 60.5243 9.79037 59.9579C10.3845 59.6398 10.5303 58.9693 10.2968 57.6282C9.96387 55.7157 8.86278 54.9964 7.83755 56.0218ZM92.0299 55.9274C91.4337 56.0724 90.9856 57.0032 90.8343 58.4118C90.7308 59.3753 90.7641 59.5619 91.1053 59.9232C91.6446 60.4943 92.6211 60.4816 93.0804 59.8978C93.2699 59.657 93.528 58.8998 93.654 58.2154C93.8633 57.08 93.8537 56.9309 93.5465 56.5192C93.1381 55.9723 92.642 55.7787 92.0299 55.9274ZM25.4048 64.938C32.0903 66.6151 36.7392 72.6104 36.7529 79.5724C36.7573 81.7861 36.5173 83.1176 35.7555 85.1069C35.2585 86.4046 33.4801 89.4202 33.3112 89.2514C33.2714 89.2115 32.909 88.5203 32.5062 87.7151C31.5137 85.7324 29.9797 84.0732 27.7568 82.5786C27.7246 82.557 27.8734 82.1961 28.0874 81.7767C29.0334 79.9221 28.9871 75.6218 27.9991 73.6023C26.7386 71.026 24.1828 69.5595 21.2246 69.7146C18.549 69.8551 16.5328 71.2034 15.3156 73.6663L14.6245 75.0647V77.8223C14.6245 80.3363 14.6632 80.6656 15.0616 81.5473C15.3022 82.0796 15.4671 82.5458 15.428 82.5838C15.3892 82.6219 14.8627 83.0335 14.2581 83.4987C12.7668 84.6463 11.5384 86.1561 10.6918 87.8827L9.98548 89.3225L9.32465 88.4323C6.95632 85.2416 5.96846 80.6192 6.79986 76.6172C8.57551 68.0687 16.9439 62.8155 25.4048 64.938ZM83.3446 64.9206C88.9575 66.3539 93.26 70.8892 94.4526 76.6304C95.2811 80.6188 94.3022 85.1736 91.9163 88.4323L91.2643 89.3225L90.5575 87.8827C89.5883 85.9086 87.9398 84.0192 86.1707 82.8545L85.7297 82.5641L86.1775 81.5721C86.5886 80.6612 86.6253 80.3543 86.6253 77.8223V75.0647L85.9342 73.6663C84.7122 71.1939 82.7026 69.8552 80.0001 69.7133C78.731 69.6467 78.2671 69.7042 77.3236 70.0453C75.1612 70.8269 73.4806 72.5234 72.8749 74.5361C72.233 76.669 72.3814 80.2455 73.1763 81.8038C73.3826 82.2082 73.5252 82.557 73.4929 82.5786C71.27 84.0732 69.736 85.7324 68.7436 87.7151C68.3407 88.5203 67.9783 89.2115 67.9386 89.2514C67.7697 89.4202 65.9913 86.4046 65.4942 85.1069C64.7139 83.0694 64.4813 81.7606 64.4941 79.4807C64.5161 75.5641 65.8097 72.2689 68.4668 69.3618C72.2222 65.2528 77.9498 63.5431 83.3446 64.9206ZM43.9486 69.1089C44.3788 69.3042 45.1127 69.9343 45.6891 70.603C48.1573 73.4664 49.1261 74.0574 51.6054 74.212C52.9005 74.2928 53.4674 74.2157 55.8344 73.6364C58.6815 72.9397 61.6817 72.5276 62.4695 72.7253C62.8571 72.8226 62.9092 72.9144 62.8075 73.3198C62.619 74.0708 62.4372 74.1979 60.4562 74.965C56.7739 76.3906 54.4827 76.8242 50.6331 76.8242C47.4865 76.8242 45.2847 76.4955 42.6553 75.6336C39.89 74.7269 38.7019 74.1538 38.5782 73.6666C38.5201 73.4383 38.0749 72.4717 37.5887 71.5185C37.1025 70.5655 36.7656 69.7253 36.8403 69.6516C36.9149 69.578 37.7591 69.3537 38.7164 69.1533C40.9858 68.6784 42.9639 68.6615 43.9486 69.1089ZM23.4185 72.7753C24.323 73.195 25.2319 74.1312 25.6062 75.0286C25.9904 75.9496 26.0261 79.6299 25.6595 80.5049C24.8083 82.5363 22.5572 83.6315 20.4439 83.0421C19.8236 82.8692 19.3025 82.5306 18.6424 81.8718C17.5404 80.772 17.281 79.9736 17.281 77.6822C17.281 75.1515 17.9862 73.7551 19.6935 72.9041C20.8658 72.32 22.3282 72.2695 23.4185 72.7753ZM81.5678 72.91C83.3981 73.822 84.0613 75.3148 83.9338 78.2362C83.8423 80.3301 83.4946 81.1809 82.3186 82.1875C80.1276 84.0628 76.7253 83.2136 75.5919 80.5087C75.2129 79.6042 75.2374 76.002 75.6289 75.0634C76.597 72.7429 79.2801 71.7699 81.5678 72.91ZM18.6173 85.261C20.7354 86.2521 23.1543 86.1636 25.2022 85.0199L25.8865 84.6377L26.9102 85.3427C28.7555 86.6136 30.2379 88.6892 30.8087 90.8018C30.993 91.484 30.9824 91.5073 30.2303 92.063C29.1632 92.8517 26.7765 93.9421 25.2506 94.3384C23.3038 94.8441 19.6631 94.8061 17.7515 94.2604C16.3388 93.8569 13.613 92.5613 12.7142 91.866L12.2694 91.5219L12.6682 90.3071C13.1555 88.8224 13.7598 87.8206 14.8744 86.6493C15.5308 85.9592 17.1537 84.7022 17.388 84.7022C17.4072 84.7022 17.9605 84.9537 18.6173 85.261ZM76.1262 85.0545C78.0304 86.1614 80.54 86.2402 82.6376 85.2586L83.8368 84.6974L84.5898 85.1388C86.3534 86.1726 88.42 89.0565 88.8179 91.039C88.9196 91.5456 88.8571 91.654 88.2216 92.0745C86.9404 92.9224 84.9253 93.8524 83.4724 94.2662C81.5651 94.8096 77.911 94.8465 75.9992 94.3413C74.4544 93.9333 72.4012 93.0155 71.2286 92.2088C70.4161 91.6498 70.3743 91.5802 70.4614 90.9317C70.5997 89.9004 71.5698 88.03 72.534 86.9351C73.296 86.0698 75.0458 84.7022 75.3908 84.7022C75.462 84.7022 75.7929 84.8607 76.1262 85.0545ZM41.3271 91.1548C40.7694 91.7519 40.7809 92.6315 41.3525 93.0811C41.5933 93.2705 42.3442 93.5274 43.0212 93.6521C44.0942 93.85 44.3091 93.8416 44.6985 93.5863C45.6938 92.9343 45.6017 91.6599 44.5264 91.2107C44.1941 91.0718 43.4308 90.9031 42.8307 90.8358C41.8322 90.7239 41.7043 90.751 41.3271 91.1548ZM57.4036 90.9643C55.6695 91.2836 55.0281 92.4199 56.0213 93.4128C56.522 93.9137 56.941 93.9579 58.3405 93.6578C59.6032 93.387 60.2362 92.7734 60.0764 91.975C59.8613 90.8994 59.1719 90.6387 57.4036 90.9643ZM49.0337 91.6559C48.2146 92.0056 47.9788 93.2318 48.6096 93.8626C48.9181 94.1711 49.2202 94.229 50.5199 94.229C51.9698 94.229 52.0871 94.1995 52.4436 93.7463C52.9366 93.1195 52.923 92.7163 52.3875 92.0937C52.001 91.6445 51.8086 91.5811 50.6929 91.5361C50.0005 91.5078 49.2539 91.5619 49.0337 91.6559Z" fill="#282626" stroke="white" stroke-width="2" mask="url(#path-1-inside-1)"/>
</svg>
