<svg width="100" height="100" viewBox="0 0 100 100" fill="none" xmlns="http://www.w3.org/2000/svg">
<rect width="100" height="100" fill="#E5E5E5"/>
<rect width="100" height="100" fill="white"/>
<mask id="path-1-inside-1" fill="white">
<path fill-rule="evenodd" clip-rule="evenodd" d="M66.87 8.28056C62.0911 13.3628 60.8924 14.5386 60.589 14.442C58.7141 13.8453 57.2151 14.2247 55.8906 15.6316C54.5659 17.0383 54.2085 18.6308 54.7705 20.6216C54.8612 20.9434 53.8762 22.0876 49.6458 26.5735L44.4086 32.1273L43.7978 31.9011C42.2483 31.3275 40.6948 31.781 39.3517 33.1988C38.8103 33.7704 38.3672 34.3785 38.3672 34.5499C38.3672 34.8206 37.947 34.8616 35.1793 34.8616H31.9913V36.4549V38.0482H35.1793C37.947 38.0482 38.3672 38.0892 38.3672 38.3599C38.3672 38.9024 40.2693 40.7293 41.1081 40.9926C42.8663 41.5443 44.2681 41.1553 45.5933 39.7479C46.8921 38.3685 47.3156 36.6993 46.7806 35.069L46.5675 34.4203L51.7969 28.8581C56.0207 24.3652 57.098 23.319 57.4011 23.4154C59.2769 24.0125 60.7767 23.6325 62.0956 22.2258C63.3944 20.8405 63.8175 19.1719 63.2826 17.5428L63.0698 16.8939L69.0022 10.591C72.2651 7.12442 74.9347 4.19556 74.9347 4.08263C74.9347 3.82352 73.2039 2 72.9582 2C72.8579 2 70.1183 4.8263 66.87 8.28056ZM80.4583 9.85791C79.9979 10.3467 79.9979 10.3473 79.9979 14.6378V18.9287H75.9577C70.5605 18.9287 70.9967 18.4655 70.9967 24.1975V28.4885H66.9565C62.9166 28.4885 62.916 28.4885 62.4558 28.9774C61.9955 29.4662 61.9955 29.4668 61.9955 33.7573V38.0482H57.9552C53.9154 38.0482 53.9148 38.0482 53.4546 38.5372C53.0111 39.008 52.9942 39.1249 52.9942 41.7237V44.4214H48.954C44.9141 44.4214 44.9136 44.4214 44.4534 44.9103L43.993 45.3991V50.4868V55.5744H42.4928H40.9926V57.1677V58.761H48.4936H55.9946V61.1509V63.5409H57.4948H58.9951V61.1509V58.761H76.9975H95V57.1677V55.5744H93.4998H91.9996V32.9606V10.3467L91.5392 9.85791L91.079 9.36897H85.9988H80.9185L80.4583 9.85791ZM88.9992 34.065V55.5744H85.9988H82.9984V34.065V12.5556H85.9988H88.9992V34.065ZM60.0349 17.8244C60.9652 18.8122 60.306 20.522 58.9951 20.522C58.2241 20.522 57.4948 19.7475 57.4948 18.9287C57.4948 18.11 58.2241 17.3354 58.9951 17.3354C59.3604 17.3354 59.7448 17.5161 60.0349 17.8244ZM79.9979 38.8449V55.5744H76.9975H73.9971V38.8449V22.1153H76.9975H79.9979V38.8449ZM70.9967 43.6247V55.5744H67.9963H64.9959V43.6247V31.6751H67.9963H70.9967V43.6247ZM25.9905 36.4549V38.0482H27.4907H28.9909V36.4549V34.8616H27.4907H25.9905V36.4549ZM43.5326 35.3506C44.4629 36.3384 43.8038 38.0482 42.4928 38.0482C42.1275 38.0482 41.7431 37.8676 41.453 37.5593C41.1627 37.2512 40.9926 36.8429 40.9926 36.4549C40.9926 36.067 41.1627 35.6587 41.453 35.3506C41.7431 35.0423 42.1275 34.8616 42.4928 34.8616C42.8581 34.8616 43.2425 35.0423 43.5326 35.3506ZM61.9955 48.4046V55.5744H58.9951H55.9946V48.4046V41.2348H58.9951H61.9955V48.4046ZM52.9942 51.5912V55.5744H49.9938H46.9934V51.5912V47.608H49.9938H52.9942V51.5912ZM22.6773 49.5699C20.8994 50.2226 19.5066 51.7898 19.0284 53.6762C18.7235 54.8786 18.9097 56.7035 19.4763 58.0639C19.8956 59.0711 19.9824 59.5955 20.0285 61.4001L20.0835 63.5413L18.2082 63.5445C15.6967 63.5488 14.0613 63.9442 11.9283 65.0625C6.8839 67.7069 4.09258 73.8588 5.26649 79.7435C5.5821 81.326 6.47828 83.4907 7.36734 84.8189L7.98805 85.7462V91.3731V97H9.48395H10.9798L11.031 93.4669L11.0822 89.9336L12.6119 92.023C14.9796 95.2569 15.9939 96.1323 18.0241 96.6939C18.9909 96.9614 22.0557 97 42.2633 97C58.013 97 65.5127 96.9335 65.7623 96.7915C66.2232 96.5296 75.4973 76.8933 75.4973 76.1793C75.4973 75.9 75.289 75.4503 75.0343 75.1799L74.5713 74.6883L62.6244 74.6969L50.6774 74.7055L46.0627 69.8298C41.9535 65.4881 41.3052 64.8822 40.1422 64.2973L38.836 63.6405L35.3668 63.5729L31.8976 63.5056L31.9606 60.1131L32.0238 56.7206L32.706 55.4023C33.3325 54.1916 33.394 53.9268 33.4612 52.1542C33.5313 50.2984 33.5156 50.2044 33.0526 49.7127L32.571 49.2013L28.1086 49.2078C24.3225 49.2132 23.4996 49.2682 22.6773 49.5699ZM30.4193 53.0184C30.2545 53.8933 29.5175 54.8552 28.6941 55.2701C27.6929 55.7748 26.7204 55.5822 25.7974 54.6963C24.7189 53.6617 24.1646 53.7206 22.8851 55.0058L21.865 56.0305L21.8657 55.2548C21.8665 54.3016 22.411 53.3108 23.2228 52.7852C23.7723 52.4293 24.1721 52.3892 27.186 52.3886L30.538 52.3878L30.4193 53.0184ZM27.5524 58.6549L29.0204 58.6614L28.9589 60.888C28.9069 62.7626 28.836 63.2017 28.5105 63.6642C27.7788 64.7036 27.1746 65.0346 26.0091 65.0346C25.1088 65.0346 24.8125 64.9394 24.2214 64.4606C23.2819 63.6996 22.9901 62.8833 22.9901 61.0155C22.9901 59.4748 22.9909 59.4722 23.7687 58.6306L24.5473 57.7879L25.3158 58.2181C25.9091 58.5503 26.4186 58.6499 27.5524 58.6549ZM22.0525 66.88C22.0525 66.9639 21.0398 68.1051 19.8022 69.4161C18.5645 70.7272 17.5519 71.8614 17.5519 71.9369C17.5519 72.1773 19.2764 74.0964 19.4924 74.0964C19.6066 74.0964 20.3473 73.4131 21.1385 72.5778C22.427 71.2174 22.5961 71.0981 22.7634 71.4327C22.8932 71.6926 22.7857 73.5284 22.4099 77.4742C22.1131 80.5915 21.8466 83.217 21.8179 83.3082C21.7892 83.3997 20.3012 81.6558 18.5112 79.4328C16.7215 77.2097 15.2037 75.3709 15.1386 75.3464C15.0735 75.3219 14.5353 75.77 13.9427 76.3422L12.8652 77.3826L17.3717 82.9591C19.85 86.0262 22.0178 88.6478 22.1886 88.7846C22.4206 88.9706 23.8891 89.0335 27.9954 89.0335H33.4916V91.432V93.8305L26.0374 93.7722L18.5833 93.7138L17.76 93.2159C17.1264 92.8327 16.1287 91.6165 13.431 87.9382C9.29661 82.3011 9.05695 81.9297 8.54725 80.3698C7.31802 76.6085 8.19039 72.678 10.8906 69.8101C12.267 68.3482 13.5489 67.5496 15.3402 67.0376C16.401 66.7342 22.0525 66.6016 22.0525 66.88ZM38.836 67.2066C39.5408 67.5639 40.938 68.924 44.4592 72.6804L49.1447 77.6788L47.8682 80.3991L46.5915 83.1194L41.8616 78.1101C37.6231 73.6214 37.068 73.1006 36.5218 73.1006C36.1248 73.1006 35.752 73.2709 35.4521 73.5896L34.9918 74.0783V79.9627V85.847H32.6477C30.3439 85.847 30.3034 85.8392 30.2963 85.3988C30.2922 85.1523 30.006 81.9932 29.6602 78.3784C29.2214 73.7903 29.0879 71.6934 29.218 71.4327C29.3849 71.0981 29.5543 71.2176 30.8426 72.5778C31.6337 73.4131 32.3463 74.0964 32.4264 74.0964C32.6203 74.0964 34.4292 72.1686 34.4292 71.9618C34.4292 71.8728 33.4165 70.7272 32.1789 69.4161C30.9412 68.1051 29.9286 66.9639 29.9286 66.88C29.9286 66.7962 31.7219 66.7283 33.9135 66.7295C37.7248 66.7312 37.9393 66.7522 38.836 67.2066ZM55.9946 69.1174V71.5073H57.4948H58.9951V69.1174V66.7275H57.4948H55.9946V69.1174ZM27.0185 68.5141C27.0804 68.6203 26.9988 68.9788 26.8372 69.3108C26.611 69.7754 26.4164 69.914 25.9905 69.914C25.5647 69.914 25.37 69.7754 25.1438 69.3108C24.9822 68.9788 24.9006 68.6203 24.9625 68.5141C25.0244 68.4078 25.487 68.3208 25.9905 68.3208C26.494 68.3208 26.9567 68.4078 27.0185 68.5141ZM26.1797 73.4492C26.1809 73.6408 26.4338 76.4416 26.7421 79.673C27.0506 82.9044 27.3028 85.6153 27.303 85.6976C27.3032 85.7798 26.7125 85.847 25.9905 85.847C25.0638 85.847 24.6788 85.7737 24.6808 85.598C24.6825 85.4612 24.9351 82.75 25.2421 79.5734C25.5491 76.3968 25.8007 73.6408 25.8015 73.4492C25.8024 73.2576 25.8874 73.1006 25.9905 73.1006C26.0937 73.1006 26.1788 73.2576 26.1797 73.4492ZM67.8088 85.847L64.0573 93.8134H54.4935H44.9297L48.6811 85.847L52.4326 77.8805H61.9964H71.5602L67.8088 85.847ZM40.4259 81.1623C42.6494 83.5293 42.7259 83.6375 42.0347 83.4347C41.0939 83.1589 39.7907 83.3684 38.7892 83.9567L37.9922 84.4248V81.551C37.9922 79.9703 38.0145 78.6771 38.0419 78.6771C38.0692 78.6771 39.1421 79.7954 40.4259 81.1623ZM57.4011 84.4335C56.5664 84.8229 56.0884 85.6321 56.0884 86.6558C56.0884 87.4924 56.1758 87.7247 56.7014 88.2829C57.2291 88.8433 57.4442 88.934 58.245 88.934C59.0457 88.934 59.2608 88.8433 59.7885 88.2829C60.3162 87.7225 60.4015 87.494 60.4015 86.6436C60.4015 85.8045 60.3139 85.5626 59.8215 85.0394C59.2023 84.3817 58.1022 84.1065 57.4011 84.4335ZM42.6471 87.359C43.3873 87.8619 43.993 88.3578 43.993 88.461C43.993 88.5641 43.7805 89.0937 43.521 89.6376L43.049 90.6268H41.7354H40.4216L38.9176 92.1205C38.0904 92.9421 37.3398 93.6143 37.2496 93.6143C37.1592 93.6143 36.9518 93.6686 36.7886 93.7351C36.5282 93.8413 36.492 93.5617 36.492 91.4448C36.492 89.6503 36.552 89.0327 36.7264 89.0304C36.8554 89.0286 37.7934 88.446 38.8113 87.7358C39.829 87.0256 40.8056 86.4444 40.9815 86.4444C41.1574 86.4444 41.907 86.8559 42.6471 87.359Z"/>
</mask>
<path fill-rule="evenodd" clip-rule="evenodd" d="M66.87 8.28056C62.0911 13.3628 60.8924 14.5386 60.589 14.442C58.7141 13.8453 57.2151 14.2247 55.8906 15.6316C54.5659 17.0383 54.2085 18.6308 54.7705 20.6216C54.8612 20.9434 53.8762 22.0876 49.6458 26.5735L44.4086 32.1273L43.7978 31.9011C42.2483 31.3275 40.6948 31.781 39.3517 33.1988C38.8103 33.7704 38.3672 34.3785 38.3672 34.5499C38.3672 34.8206 37.947 34.8616 35.1793 34.8616H31.9913V36.4549V38.0482H35.1793C37.947 38.0482 38.3672 38.0892 38.3672 38.3599C38.3672 38.9024 40.2693 40.7293 41.1081 40.9926C42.8663 41.5443 44.2681 41.1553 45.5933 39.7479C46.8921 38.3685 47.3156 36.6993 46.7806 35.069L46.5675 34.4203L51.7969 28.8581C56.0207 24.3652 57.098 23.319 57.4011 23.4154C59.2769 24.0125 60.7767 23.6325 62.0956 22.2258C63.3944 20.8405 63.8175 19.1719 63.2826 17.5428L63.0698 16.8939L69.0022 10.591C72.2651 7.12442 74.9347 4.19556 74.9347 4.08263C74.9347 3.82352 73.2039 2 72.9582 2C72.8579 2 70.1183 4.8263 66.87 8.28056ZM80.4583 9.85791C79.9979 10.3467 79.9979 10.3473 79.9979 14.6378V18.9287H75.9577C70.5605 18.9287 70.9967 18.4655 70.9967 24.1975V28.4885H66.9565C62.9166 28.4885 62.916 28.4885 62.4558 28.9774C61.9955 29.4662 61.9955 29.4668 61.9955 33.7573V38.0482H57.9552C53.9154 38.0482 53.9148 38.0482 53.4546 38.5372C53.0111 39.008 52.9942 39.1249 52.9942 41.7237V44.4214H48.954C44.9141 44.4214 44.9136 44.4214 44.4534 44.9103L43.993 45.3991V50.4868V55.5744H42.4928H40.9926V57.1677V58.761H48.4936H55.9946V61.1509V63.5409H57.4948H58.9951V61.1509V58.761H76.9975H95V57.1677V55.5744H93.4998H91.9996V32.9606V10.3467L91.5392 9.85791L91.079 9.36897H85.9988H80.9185L80.4583 9.85791ZM88.9992 34.065V55.5744H85.9988H82.9984V34.065V12.5556H85.9988H88.9992V34.065ZM60.0349 17.8244C60.9652 18.8122 60.306 20.522 58.9951 20.522C58.2241 20.522 57.4948 19.7475 57.4948 18.9287C57.4948 18.11 58.2241 17.3354 58.9951 17.3354C59.3604 17.3354 59.7448 17.5161 60.0349 17.8244ZM79.9979 38.8449V55.5744H76.9975H73.9971V38.8449V22.1153H76.9975H79.9979V38.8449ZM70.9967 43.6247V55.5744H67.9963H64.9959V43.6247V31.6751H67.9963H70.9967V43.6247ZM25.9905 36.4549V38.0482H27.4907H28.9909V36.4549V34.8616H27.4907H25.9905V36.4549ZM43.5326 35.3506C44.4629 36.3384 43.8038 38.0482 42.4928 38.0482C42.1275 38.0482 41.7431 37.8676 41.453 37.5593C41.1627 37.2512 40.9926 36.8429 40.9926 36.4549C40.9926 36.067 41.1627 35.6587 41.453 35.3506C41.7431 35.0423 42.1275 34.8616 42.4928 34.8616C42.8581 34.8616 43.2425 35.0423 43.5326 35.3506ZM61.9955 48.4046V55.5744H58.9951H55.9946V48.4046V41.2348H58.9951H61.9955V48.4046ZM52.9942 51.5912V55.5744H49.9938H46.9934V51.5912V47.608H49.9938H52.9942V51.5912ZM22.6773 49.5699C20.8994 50.2226 19.5066 51.7898 19.0284 53.6762C18.7235 54.8786 18.9097 56.7035 19.4763 58.0639C19.8956 59.0711 19.9824 59.5955 20.0285 61.4001L20.0835 63.5413L18.2082 63.5445C15.6967 63.5488 14.0613 63.9442 11.9283 65.0625C6.8839 67.7069 4.09258 73.8588 5.26649 79.7435C5.5821 81.326 6.47828 83.4907 7.36734 84.8189L7.98805 85.7462V91.3731V97H9.48395H10.9798L11.031 93.4669L11.0822 89.9336L12.6119 92.023C14.9796 95.2569 15.9939 96.1323 18.0241 96.6939C18.9909 96.9614 22.0557 97 42.2633 97C58.013 97 65.5127 96.9335 65.7623 96.7915C66.2232 96.5296 75.4973 76.8933 75.4973 76.1793C75.4973 75.9 75.289 75.4503 75.0343 75.1799L74.5713 74.6883L62.6244 74.6969L50.6774 74.7055L46.0627 69.8298C41.9535 65.4881 41.3052 64.8822 40.1422 64.2973L38.836 63.6405L35.3668 63.5729L31.8976 63.5056L31.9606 60.1131L32.0238 56.7206L32.706 55.4023C33.3325 54.1916 33.394 53.9268 33.4612 52.1542C33.5313 50.2984 33.5156 50.2044 33.0526 49.7127L32.571 49.2013L28.1086 49.2078C24.3225 49.2132 23.4996 49.2682 22.6773 49.5699ZM30.4193 53.0184C30.2545 53.8933 29.5175 54.8552 28.6941 55.2701C27.6929 55.7748 26.7204 55.5822 25.7974 54.6963C24.7189 53.6617 24.1646 53.7206 22.8851 55.0058L21.865 56.0305L21.8657 55.2548C21.8665 54.3016 22.411 53.3108 23.2228 52.7852C23.7723 52.4293 24.1721 52.3892 27.186 52.3886L30.538 52.3878L30.4193 53.0184ZM27.5524 58.6549L29.0204 58.6614L28.9589 60.888C28.9069 62.7626 28.836 63.2017 28.5105 63.6642C27.7788 64.7036 27.1746 65.0346 26.0091 65.0346C25.1088 65.0346 24.8125 64.9394 24.2214 64.4606C23.2819 63.6996 22.9901 62.8833 22.9901 61.0155C22.9901 59.4748 22.9909 59.4722 23.7687 58.6306L24.5473 57.7879L25.3158 58.2181C25.9091 58.5503 26.4186 58.6499 27.5524 58.6549ZM22.0525 66.88C22.0525 66.9639 21.0398 68.1051 19.8022 69.4161C18.5645 70.7272 17.5519 71.8614 17.5519 71.9369C17.5519 72.1773 19.2764 74.0964 19.4924 74.0964C19.6066 74.0964 20.3473 73.4131 21.1385 72.5778C22.427 71.2174 22.5961 71.0981 22.7634 71.4327C22.8932 71.6926 22.7857 73.5284 22.4099 77.4742C22.1131 80.5915 21.8466 83.217 21.8179 83.3082C21.7892 83.3997 20.3012 81.6558 18.5112 79.4328C16.7215 77.2097 15.2037 75.3709 15.1386 75.3464C15.0735 75.3219 14.5353 75.77 13.9427 76.3422L12.8652 77.3826L17.3717 82.9591C19.85 86.0262 22.0178 88.6478 22.1886 88.7846C22.4206 88.9706 23.8891 89.0335 27.9954 89.0335H33.4916V91.432V93.8305L26.0374 93.7722L18.5833 93.7138L17.76 93.2159C17.1264 92.8327 16.1287 91.6165 13.431 87.9382C9.29661 82.3011 9.05695 81.9297 8.54725 80.3698C7.31802 76.6085 8.19039 72.678 10.8906 69.8101C12.267 68.3482 13.5489 67.5496 15.3402 67.0376C16.401 66.7342 22.0525 66.6016 22.0525 66.88ZM38.836 67.2066C39.5408 67.5639 40.938 68.924 44.4592 72.6804L49.1447 77.6788L47.8682 80.3991L46.5915 83.1194L41.8616 78.1101C37.6231 73.6214 37.068 73.1006 36.5218 73.1006C36.1248 73.1006 35.752 73.2709 35.4521 73.5896L34.9918 74.0783V79.9627V85.847H32.6477C30.3439 85.847 30.3034 85.8392 30.2963 85.3988C30.2922 85.1523 30.006 81.9932 29.6602 78.3784C29.2214 73.7903 29.0879 71.6934 29.218 71.4327C29.3849 71.0981 29.5543 71.2176 30.8426 72.5778C31.6337 73.4131 32.3463 74.0964 32.4264 74.0964C32.6203 74.0964 34.4292 72.1686 34.4292 71.9618C34.4292 71.8728 33.4165 70.7272 32.1789 69.4161C30.9412 68.1051 29.9286 66.9639 29.9286 66.88C29.9286 66.7962 31.7219 66.7283 33.9135 66.7295C37.7248 66.7312 37.9393 66.7522 38.836 67.2066ZM55.9946 69.1174V71.5073H57.4948H58.9951V69.1174V66.7275H57.4948H55.9946V69.1174ZM27.0185 68.5141C27.0804 68.6203 26.9988 68.9788 26.8372 69.3108C26.611 69.7754 26.4164 69.914 25.9905 69.914C25.5647 69.914 25.37 69.7754 25.1438 69.3108C24.9822 68.9788 24.9006 68.6203 24.9625 68.5141C25.0244 68.4078 25.487 68.3208 25.9905 68.3208C26.494 68.3208 26.9567 68.4078 27.0185 68.5141ZM26.1797 73.4492C26.1809 73.6408 26.4338 76.4416 26.7421 79.673C27.0506 82.9044 27.3028 85.6153 27.303 85.6976C27.3032 85.7798 26.7125 85.847 25.9905 85.847C25.0638 85.847 24.6788 85.7737 24.6808 85.598C24.6825 85.4612 24.9351 82.75 25.2421 79.5734C25.5491 76.3968 25.8007 73.6408 25.8015 73.4492C25.8024 73.2576 25.8874 73.1006 25.9905 73.1006C26.0937 73.1006 26.1788 73.2576 26.1797 73.4492ZM67.8088 85.847L64.0573 93.8134H54.4935H44.9297L48.6811 85.847L52.4326 77.8805H61.9964H71.5602L67.8088 85.847ZM40.4259 81.1623C42.6494 83.5293 42.7259 83.6375 42.0347 83.4347C41.0939 83.1589 39.7907 83.3684 38.7892 83.9567L37.9922 84.4248V81.551C37.9922 79.9703 38.0145 78.6771 38.0419 78.6771C38.0692 78.6771 39.1421 79.7954 40.4259 81.1623ZM57.4011 84.4335C56.5664 84.8229 56.0884 85.6321 56.0884 86.6558C56.0884 87.4924 56.1758 87.7247 56.7014 88.2829C57.2291 88.8433 57.4442 88.934 58.245 88.934C59.0457 88.934 59.2608 88.8433 59.7885 88.2829C60.3162 87.7225 60.4015 87.494 60.4015 86.6436C60.4015 85.8045 60.3139 85.5626 59.8215 85.0394C59.2023 84.3817 58.1022 84.1065 57.4011 84.4335ZM42.6471 87.359C43.3873 87.8619 43.993 88.3578 43.993 88.461C43.993 88.5641 43.7805 89.0937 43.521 89.6376L43.049 90.6268H41.7354H40.4216L38.9176 92.1205C38.0904 92.9421 37.3398 93.6143 37.2496 93.6143C37.1592 93.6143 36.9518 93.6686 36.7886 93.7351C36.5282 93.8413 36.492 93.5617 36.492 91.4448C36.492 89.6503 36.552 89.0327 36.7264 89.0304C36.8554 89.0286 37.7934 88.446 38.8113 87.7358C39.829 87.0256 40.8056 86.4444 40.9815 86.4444C41.1574 86.4444 41.907 86.8559 42.6471 87.359Z" fill="#282626" stroke="white" stroke-width="2" mask="url(#path-1-inside-1)"/>
</svg>
