<svg width="100" height="100" viewBox="0 0 100 100" fill="none" xmlns="http://www.w3.org/2000/svg">
<rect width="100" height="100" fill="#E5E5E5"/>
<rect width="100" height="100" fill="white"/>
<mask id="path-1-inside-1" fill="white">
<path fill-rule="evenodd" clip-rule="evenodd" d="M47.6554 10.1609C42.9215 11.1674 39.3839 14.5421 38.0995 19.2765C37.7868 20.4294 37.7577 20.9187 37.7442 25.2419C37.7314 29.3803 37.7642 30.0657 38.0151 30.8934C38.3768 32.0874 39.0425 33.2913 40.0403 34.5555L40.8242 35.5491L39.6043 36.7814C38.8037 37.5904 37.8982 38.3006 36.9686 38.8491C34.8806 40.0809 33.3308 41.691 32.4308 43.5632C31.319 45.8754 30.868 48.0825 30.6744 52.1577L30.5695 54.3627H24.3526C18.7195 54.3627 18.131 54.3385 18.0852 54.1057C18.0574 53.9643 18.0699 52.5471 18.1129 50.9563L18.191 48.0641L19.7411 46.1831C20.8811 44.7996 21.3566 44.3293 21.5387 44.4048C21.6747 44.4611 22.2576 44.5442 22.8337 44.5891C24.0131 44.6809 25.1277 44.3941 26.0706 43.7561C26.9637 43.1517 29.0109 40.5869 29.3828 39.6061C29.8348 38.4145 29.7438 36.7205 29.1669 35.586C27.7995 32.897 24.3229 31.9648 21.8593 33.6265C20.9716 34.2252 19.1123 36.4703 18.5973 37.5652C18.0594 38.7086 18.0392 40.4059 18.5499 41.5455L18.8913 42.3075L17.0096 44.5556C15.9605 45.809 15.062 47.0343 14.9792 47.3247C14.8973 47.6112 14.8304 49.312 14.8304 51.1041V54.3627L14.0097 54.3661C12.5601 54.3723 11.1324 55.2724 10.4044 56.639C10.1181 57.1766 10.0618 57.5878 10.0129 59.498C9.94193 62.268 10.1389 63.0096 11.2385 64.114C12.1406 65.0199 13.1108 65.3517 14.8588 65.3517C15.5309 65.3517 16.0808 65.3947 16.0808 65.4474C16.0808 65.5 17.3869 70.6747 18.9833 76.9466C21.0352 85.0083 21.9931 88.5153 22.2519 88.9142C23.0146 90.0896 20.6812 89.9984 50 89.9984C79.3188 89.9984 76.9858 90.0896 77.7479 88.9142C78.0061 88.5158 78.9667 84.9985 81.0163 76.9445C82.6129 70.6714 83.9192 65.4969 83.9192 65.4454C83.9192 65.3937 84.4691 65.3517 85.1412 65.3517C86.8892 65.3517 87.8594 65.0199 88.7615 64.114C89.8611 63.0096 90.0581 62.268 89.9871 59.498C89.9382 57.5878 89.8819 57.1766 89.5956 56.639C88.884 55.303 87.6792 54.5154 86.1314 54.3745L85.1395 54.2842L85.1459 51.1399C85.1493 49.4104 85.0932 47.7327 85.0212 47.4117C84.9286 46.9996 84.3331 46.1633 82.9979 44.5709L81.1059 42.3142L81.4496 41.5488C81.9562 40.4214 81.9339 38.7216 81.3973 37.5652C80.8921 36.4764 79.0337 34.2288 78.1407 33.6265C76.2761 32.3687 73.7111 32.5536 72.0356 34.0665C70.9336 35.0616 70.4428 36.0847 70.3574 37.5652C70.2618 39.2265 70.625 40.1079 72.1577 41.9345C73.5108 43.5472 74.3852 44.2092 75.5249 44.4837C76.2634 44.6618 77.9419 44.6159 78.4604 44.4038C78.6406 44.3301 79.1342 44.8205 80.297 46.2282L81.8872 48.1536V51.2581V54.3627H75.6581H69.429L69.3211 52.1734C68.955 44.7458 67.3149 41.3481 62.833 38.7326C62.1057 38.3083 61.1522 37.5458 60.4055 36.7915L59.1758 35.5491L59.9597 34.5555C60.391 34.0092 60.9582 33.1736 61.2205 32.6987C62.1345 31.0439 62.1921 30.6059 62.1921 25.3169C62.1921 21.0366 62.1578 20.3667 61.8817 19.2623C61.2637 16.7904 59.6249 14.2129 57.6939 12.6749C56.6149 11.8156 54.3343 10.6581 53.048 10.3168C51.75 9.97256 48.9254 9.89093 47.6554 10.1609ZM51.8757 13.301C55.2748 14.0368 57.9394 16.6108 58.8474 20.0361C58.9656 20.4816 59.0631 21.4353 59.0641 22.1553L59.066 23.4642L58.4016 23.3582C55.9243 22.9633 55.2261 22.7563 49.7527 20.7958C46.0541 19.4708 44.0848 19.3807 41.958 20.4392C41.4421 20.6962 41.0034 20.8898 40.9833 20.8697C40.9633 20.8494 41.055 20.4165 41.1874 19.9075C42.404 15.2287 47.1705 12.2824 51.8757 13.301ZM48.2603 23.6039C53.9579 25.6306 55.0774 25.9742 57.038 26.2984L59.066 26.6336V28.3067C59.066 29.8689 59.0333 30.0453 58.5742 30.9681C57.6088 32.9083 55.0189 35.1725 52.5791 36.2095C51.0688 36.8513 49.5228 36.942 48.1243 36.4711C45.5077 35.5896 42.3816 33.0241 41.4094 30.9602C40.9478 29.9802 40.9344 29.8863 40.9342 27.6637L40.934 25.3758L41.7992 24.4859C43.6379 22.5945 44.9276 22.4185 48.2603 23.6039ZM25.6632 36.1841C26.1039 36.4112 26.5523 37.2734 26.5529 37.8949C26.5537 38.5411 26.0488 39.3207 24.7727 40.6437C24.0092 41.4356 23.9087 41.4899 23.2074 41.4899C22.5674 41.4899 22.3828 41.4141 21.9392 40.9685C20.877 39.9018 21.0494 39.0359 22.6929 37.1808C23.8296 35.8977 24.6034 35.6379 25.6632 36.1841ZM77.314 37.2061C77.8506 37.7922 78.4024 38.5081 78.5399 38.7971C78.8859 39.524 78.7114 40.3152 78.0608 40.9685C77.6172 41.4141 77.4326 41.4899 76.7926 41.4899C76.0914 41.4899 75.9908 41.4356 75.2273 40.6437C73.4946 38.8472 73.1355 37.9966 73.6706 36.9574C73.9682 36.3794 74.2813 36.135 74.8932 36.0029C75.7584 35.8164 76.2775 36.0744 77.314 37.2061ZM44.8543 38.4109C45.7501 38.8761 46.745 39.3403 47.0651 39.4422L47.6472 39.6277L46.7736 41.383C46.2933 42.3484 45.8747 43.166 45.8434 43.2001C45.8122 43.2341 45.0376 42.563 44.1221 41.7087C43.2065 40.8544 42.2467 39.9764 41.9891 39.7575L41.5208 39.3597L42.3372 38.4624C42.7863 37.969 43.1699 37.5652 43.1896 37.5652C43.2093 37.5652 43.9583 37.9458 44.8543 38.4109ZM57.6484 38.4619C58.3993 39.3079 58.4285 39.3726 58.1689 39.61C58.0174 39.7483 57.0655 40.6266 56.0536 41.5618C55.0415 42.4969 54.1878 43.2341 54.1566 43.2001C54.1253 43.166 53.7084 42.3517 53.23 41.3904L52.3601 39.6425L53.2512 39.3112C53.7413 39.1291 54.7049 38.6656 55.3927 38.2809C56.0804 37.8965 56.6904 37.5781 56.7479 37.5736C56.8056 37.569 57.2107 37.9687 57.6484 38.4619ZM42.3368 44.3221C45.7784 47.5217 46.0837 47.7114 47.0146 47.2279C47.4162 47.0194 47.7268 46.5283 48.7117 44.5453C49.3748 43.2101 49.9545 42.1178 50 42.1178C50.0455 42.1178 50.6252 43.2101 51.2883 44.5453C52.2732 46.5283 52.5838 47.0194 52.9854 47.2279C53.9132 47.7098 54.2177 47.5205 57.6601 44.3221C59.422 42.685 60.9348 41.3428 61.0219 41.3393C61.2999 41.328 62.7252 42.3695 63.4695 43.1276C65.18 44.8701 65.9433 47.4238 66.1918 52.2346L66.3017 54.3627H49.9986H33.6957L33.7985 52.3212C34.0244 47.841 34.6182 45.5547 36.053 43.6423C36.6077 42.9031 38.6036 41.3252 38.9656 41.3398C39.0596 41.3436 40.5766 42.6856 42.3368 44.3221ZM86.5764 57.8164C86.8512 58.0923 86.8891 58.3396 86.8891 59.8572C86.8891 61.3747 86.8512 61.622 86.5764 61.898C86.2682 62.2076 86.0555 62.2119 71.4822 62.2119C60.9034 62.2119 56.6036 62.2619 56.3593 62.3873C55.1834 62.9914 55.1834 64.5722 56.3593 65.1763C56.602 65.3009 60.162 65.3517 68.6687 65.3517C77.5627 65.3517 80.6367 65.3978 80.6367 65.5317C80.6367 65.6306 79.4273 70.4697 77.9494 76.2852L75.262 86.8586H50H24.738L22.0506 76.2852C20.5727 70.4697 19.3633 65.6306 19.3633 65.5317C19.3633 65.3978 22.4367 65.3517 31.3288 65.3517C41.3791 65.3517 43.3631 65.3159 43.725 65.128C44.7652 64.5876 44.7652 62.976 43.725 62.4356C43.3611 62.2466 41.0006 62.2119 28.5153 62.2119C13.9445 62.2119 13.7318 62.2076 13.4236 61.898C13.1488 61.622 13.1109 61.3747 13.1109 59.8572C13.1109 58.3396 13.1488 58.0923 13.4236 57.8164C13.7345 57.5041 13.9445 57.5024 50 57.5024C86.0555 57.5024 86.2655 57.5041 86.5764 57.8164ZM49.2356 62.4311C47.5222 63.3849 48.8852 65.9981 50.6703 65.1813C51.1007 64.9843 51.5631 64.2713 51.5631 63.8042C51.5631 62.6187 50.2696 61.8554 49.2356 62.4311ZM33.7633 70.0147C33.3873 70.1482 32.8108 70.5273 32.4824 70.8571C31.5581 71.7854 31.3992 72.5557 31.3992 76.1051C31.3992 79.6656 31.5569 80.4237 32.4933 81.3642C33.6341 82.5098 32.8882 82.4631 50 82.4631C67.1118 82.4631 66.3659 82.5098 67.5067 81.3642C68.4431 80.4237 68.6008 79.6656 68.6008 76.1051C68.6008 72.5585 68.4416 71.7851 67.5203 70.8598C66.3548 69.6893 67.2574 69.7458 49.9331 69.7596C36.3833 69.7705 34.3617 69.8023 33.7633 70.0147ZM65.2871 73.0753C65.4192 73.208 65.4746 74.1045 65.4746 76.1051C65.4746 78.1058 65.4192 79.0023 65.2871 79.135C65.0151 79.4081 34.9849 79.4081 34.7129 79.135C34.5808 79.0023 34.5254 78.1058 34.5254 76.1051C34.5254 74.1045 34.5808 73.208 34.7129 73.0753C34.9849 72.8022 65.0151 72.8022 65.2871 73.0753Z"/>
</mask>
<path fill-rule="evenodd" clip-rule="evenodd" d="M47.6554 10.1609C42.9215 11.1674 39.3839 14.5421 38.0995 19.2765C37.7868 20.4294 37.7577 20.9187 37.7442 25.2419C37.7314 29.3803 37.7642 30.0657 38.0151 30.8934C38.3768 32.0874 39.0425 33.2913 40.0403 34.5555L40.8242 35.5491L39.6043 36.7814C38.8037 37.5904 37.8982 38.3006 36.9686 38.8491C34.8806 40.0809 33.3308 41.691 32.4308 43.5632C31.319 45.8754 30.868 48.0825 30.6744 52.1577L30.5695 54.3627H24.3526C18.7195 54.3627 18.131 54.3385 18.0852 54.1057C18.0574 53.9643 18.0699 52.5471 18.1129 50.9563L18.191 48.0641L19.7411 46.1831C20.8811 44.7996 21.3566 44.3293 21.5387 44.4048C21.6747 44.4611 22.2576 44.5442 22.8337 44.5891C24.0131 44.6809 25.1277 44.3941 26.0706 43.7561C26.9637 43.1517 29.0109 40.5869 29.3828 39.6061C29.8348 38.4145 29.7438 36.7205 29.1669 35.586C27.7995 32.897 24.3229 31.9648 21.8593 33.6265C20.9716 34.2252 19.1123 36.4703 18.5973 37.5652C18.0594 38.7086 18.0392 40.4059 18.5499 41.5455L18.8913 42.3075L17.0096 44.5556C15.9605 45.809 15.062 47.0343 14.9792 47.3247C14.8973 47.6112 14.8304 49.312 14.8304 51.1041V54.3627L14.0097 54.3661C12.5601 54.3723 11.1324 55.2724 10.4044 56.639C10.1181 57.1766 10.0618 57.5878 10.0129 59.498C9.94193 62.268 10.1389 63.0096 11.2385 64.114C12.1406 65.0199 13.1108 65.3517 14.8588 65.3517C15.5309 65.3517 16.0808 65.3947 16.0808 65.4474C16.0808 65.5 17.3869 70.6747 18.9833 76.9466C21.0352 85.0083 21.9931 88.5153 22.2519 88.9142C23.0146 90.0896 20.6812 89.9984 50 89.9984C79.3188 89.9984 76.9858 90.0896 77.7479 88.9142C78.0061 88.5158 78.9667 84.9985 81.0163 76.9445C82.6129 70.6714 83.9192 65.4969 83.9192 65.4454C83.9192 65.3937 84.4691 65.3517 85.1412 65.3517C86.8892 65.3517 87.8594 65.0199 88.7615 64.114C89.8611 63.0096 90.0581 62.268 89.9871 59.498C89.9382 57.5878 89.8819 57.1766 89.5956 56.639C88.884 55.303 87.6792 54.5154 86.1314 54.3745L85.1395 54.2842L85.1459 51.1399C85.1493 49.4104 85.0932 47.7327 85.0212 47.4117C84.9286 46.9996 84.3331 46.1633 82.9979 44.5709L81.1059 42.3142L81.4496 41.5488C81.9562 40.4214 81.9339 38.7216 81.3973 37.5652C80.8921 36.4764 79.0337 34.2288 78.1407 33.6265C76.2761 32.3687 73.7111 32.5536 72.0356 34.0665C70.9336 35.0616 70.4428 36.0847 70.3574 37.5652C70.2618 39.2265 70.625 40.1079 72.1577 41.9345C73.5108 43.5472 74.3852 44.2092 75.5249 44.4837C76.2634 44.6618 77.9419 44.6159 78.4604 44.4038C78.6406 44.3301 79.1342 44.8205 80.297 46.2282L81.8872 48.1536V51.2581V54.3627H75.6581H69.429L69.3211 52.1734C68.955 44.7458 67.3149 41.3481 62.833 38.7326C62.1057 38.3083 61.1522 37.5458 60.4055 36.7915L59.1758 35.5491L59.9597 34.5555C60.391 34.0092 60.9582 33.1736 61.2205 32.6987C62.1345 31.0439 62.1921 30.6059 62.1921 25.3169C62.1921 21.0366 62.1578 20.3667 61.8817 19.2623C61.2637 16.7904 59.6249 14.2129 57.6939 12.6749C56.6149 11.8156 54.3343 10.6581 53.048 10.3168C51.75 9.97256 48.9254 9.89093 47.6554 10.1609ZM51.8757 13.301C55.2748 14.0368 57.9394 16.6108 58.8474 20.0361C58.9656 20.4816 59.0631 21.4353 59.0641 22.1553L59.066 23.4642L58.4016 23.3582C55.9243 22.9633 55.2261 22.7563 49.7527 20.7958C46.0541 19.4708 44.0848 19.3807 41.958 20.4392C41.4421 20.6962 41.0034 20.8898 40.9833 20.8697C40.9633 20.8494 41.055 20.4165 41.1874 19.9075C42.404 15.2287 47.1705 12.2824 51.8757 13.301ZM48.2603 23.6039C53.9579 25.6306 55.0774 25.9742 57.038 26.2984L59.066 26.6336V28.3067C59.066 29.8689 59.0333 30.0453 58.5742 30.9681C57.6088 32.9083 55.0189 35.1725 52.5791 36.2095C51.0688 36.8513 49.5228 36.942 48.1243 36.4711C45.5077 35.5896 42.3816 33.0241 41.4094 30.9602C40.9478 29.9802 40.9344 29.8863 40.9342 27.6637L40.934 25.3758L41.7992 24.4859C43.6379 22.5945 44.9276 22.4185 48.2603 23.6039ZM25.6632 36.1841C26.1039 36.4112 26.5523 37.2734 26.5529 37.8949C26.5537 38.5411 26.0488 39.3207 24.7727 40.6437C24.0092 41.4356 23.9087 41.4899 23.2074 41.4899C22.5674 41.4899 22.3828 41.4141 21.9392 40.9685C20.877 39.9018 21.0494 39.0359 22.6929 37.1808C23.8296 35.8977 24.6034 35.6379 25.6632 36.1841ZM77.314 37.2061C77.8506 37.7922 78.4024 38.5081 78.5399 38.7971C78.8859 39.524 78.7114 40.3152 78.0608 40.9685C77.6172 41.4141 77.4326 41.4899 76.7926 41.4899C76.0914 41.4899 75.9908 41.4356 75.2273 40.6437C73.4946 38.8472 73.1355 37.9966 73.6706 36.9574C73.9682 36.3794 74.2813 36.135 74.8932 36.0029C75.7584 35.8164 76.2775 36.0744 77.314 37.2061ZM44.8543 38.4109C45.7501 38.8761 46.745 39.3403 47.0651 39.4422L47.6472 39.6277L46.7736 41.383C46.2933 42.3484 45.8747 43.166 45.8434 43.2001C45.8122 43.2341 45.0376 42.563 44.1221 41.7087C43.2065 40.8544 42.2467 39.9764 41.9891 39.7575L41.5208 39.3597L42.3372 38.4624C42.7863 37.969 43.1699 37.5652 43.1896 37.5652C43.2093 37.5652 43.9583 37.9458 44.8543 38.4109ZM57.6484 38.4619C58.3993 39.3079 58.4285 39.3726 58.1689 39.61C58.0174 39.7483 57.0655 40.6266 56.0536 41.5618C55.0415 42.4969 54.1878 43.2341 54.1566 43.2001C54.1253 43.166 53.7084 42.3517 53.23 41.3904L52.3601 39.6425L53.2512 39.3112C53.7413 39.1291 54.7049 38.6656 55.3927 38.2809C56.0804 37.8965 56.6904 37.5781 56.7479 37.5736C56.8056 37.569 57.2107 37.9687 57.6484 38.4619ZM42.3368 44.3221C45.7784 47.5217 46.0837 47.7114 47.0146 47.2279C47.4162 47.0194 47.7268 46.5283 48.7117 44.5453C49.3748 43.2101 49.9545 42.1178 50 42.1178C50.0455 42.1178 50.6252 43.2101 51.2883 44.5453C52.2732 46.5283 52.5838 47.0194 52.9854 47.2279C53.9132 47.7098 54.2177 47.5205 57.6601 44.3221C59.422 42.685 60.9348 41.3428 61.0219 41.3393C61.2999 41.328 62.7252 42.3695 63.4695 43.1276C65.18 44.8701 65.9433 47.4238 66.1918 52.2346L66.3017 54.3627H49.9986H33.6957L33.7985 52.3212C34.0244 47.841 34.6182 45.5547 36.053 43.6423C36.6077 42.9031 38.6036 41.3252 38.9656 41.3398C39.0596 41.3436 40.5766 42.6856 42.3368 44.3221ZM86.5764 57.8164C86.8512 58.0923 86.8891 58.3396 86.8891 59.8572C86.8891 61.3747 86.8512 61.622 86.5764 61.898C86.2682 62.2076 86.0555 62.2119 71.4822 62.2119C60.9034 62.2119 56.6036 62.2619 56.3593 62.3873C55.1834 62.9914 55.1834 64.5722 56.3593 65.1763C56.602 65.3009 60.162 65.3517 68.6687 65.3517C77.5627 65.3517 80.6367 65.3978 80.6367 65.5317C80.6367 65.6306 79.4273 70.4697 77.9494 76.2852L75.262 86.8586H50H24.738L22.0506 76.2852C20.5727 70.4697 19.3633 65.6306 19.3633 65.5317C19.3633 65.3978 22.4367 65.3517 31.3288 65.3517C41.3791 65.3517 43.3631 65.3159 43.725 65.128C44.7652 64.5876 44.7652 62.976 43.725 62.4356C43.3611 62.2466 41.0006 62.2119 28.5153 62.2119C13.9445 62.2119 13.7318 62.2076 13.4236 61.898C13.1488 61.622 13.1109 61.3747 13.1109 59.8572C13.1109 58.3396 13.1488 58.0923 13.4236 57.8164C13.7345 57.5041 13.9445 57.5024 50 57.5024C86.0555 57.5024 86.2655 57.5041 86.5764 57.8164ZM49.2356 62.4311C47.5222 63.3849 48.8852 65.9981 50.6703 65.1813C51.1007 64.9843 51.5631 64.2713 51.5631 63.8042C51.5631 62.6187 50.2696 61.8554 49.2356 62.4311ZM33.7633 70.0147C33.3873 70.1482 32.8108 70.5273 32.4824 70.8571C31.5581 71.7854 31.3992 72.5557 31.3992 76.1051C31.3992 79.6656 31.5569 80.4237 32.4933 81.3642C33.6341 82.5098 32.8882 82.4631 50 82.4631C67.1118 82.4631 66.3659 82.5098 67.5067 81.3642C68.4431 80.4237 68.6008 79.6656 68.6008 76.1051C68.6008 72.5585 68.4416 71.7851 67.5203 70.8598C66.3548 69.6893 67.2574 69.7458 49.9331 69.7596C36.3833 69.7705 34.3617 69.8023 33.7633 70.0147ZM65.2871 73.0753C65.4192 73.208 65.4746 74.1045 65.4746 76.1051C65.4746 78.1058 65.4192 79.0023 65.2871 79.135C65.0151 79.4081 34.9849 79.4081 34.7129 79.135C34.5808 79.0023 34.5254 78.1058 34.5254 76.1051C34.5254 74.1045 34.5808 73.208 34.7129 73.0753C34.9849 72.8022 65.0151 72.8022 65.2871 73.0753Z" fill="#282626" stroke="white" stroke-width="2" mask="url(#path-1-inside-1)"/>
</svg>
