<svg xmlns="http://www.w3.org/2000/svg" width="100" height="100" fill="none" xmlns:v="https://vecta.io/nano"><path fill="#e5e5e5" d="M0 0h100v100H0z"/><path fill="#fff" d="M0 0h100v100H0z"/><mask id="A" fill="#fff"><path fill-rule="evenodd" d="M47.655 10.161c-4.734 1.007-8.272 4.381-9.556 9.116-.313 1.153-.342 1.642-.355 5.965-.013 4.138.02 4.824.271 5.651.362 1.194 1.027 2.398 2.025 3.662l.784.994-1.22 1.232c-.801.809-1.706 1.519-2.636 2.068-2.088 1.232-3.638 2.842-4.538 4.714-1.112 2.312-1.563 4.519-1.756 8.594l-.105 2.205h-6.217c-5.633 0-6.222-.024-6.267-.257-.028-.141-.015-1.559.028-3.149l.078-2.892 1.55-1.881c1.14-1.384 1.616-1.854 1.798-1.778.136.056.719.139 1.295.184 1.179.092 2.294-.195 3.237-.833.893-.604 2.94-3.169 3.312-4.15.452-1.192.361-2.886-.216-4.02-1.367-2.689-4.844-3.621-7.308-1.959-.888.599-2.747 2.844-3.262 3.939-.538 1.143-.558 2.841-.047 3.98l.341.762-1.882 2.248c-1.049 1.253-1.948 2.479-2.03 2.769s-.149 1.987-.149 3.779v3.259l-.821.003c-1.45.006-2.877.906-3.605 2.273-.286.538-.343.949-.392 2.859-.071 2.77.126 3.512 1.226 4.616.902.906 1.872 1.238 3.62 1.238.672 0 1.222.043 1.222.096s1.306 5.227 2.903 11.499c2.052 8.062 3.01 11.569 3.269 11.968.763 1.175-1.571 1.084 27.748 1.084s26.986.091 27.748-1.084c.258-.398 1.219-3.916 3.268-11.97l2.903-11.499c0-.052.55-.094 1.222-.094 1.748 0 2.718-.332 3.62-1.238 1.1-1.104 1.297-1.846 1.226-4.616-.049-1.91-.105-2.321-.391-2.859-.712-1.336-1.916-2.124-3.464-2.265l-.992-.09.006-3.144c.003-1.729-.053-3.407-.125-3.728-.093-.412-.688-1.248-2.023-2.841l-1.892-2.257.344-.765c.507-1.127.484-2.827-.052-3.984-.505-1.089-2.364-3.336-3.257-3.939a5.02 5.02 0 0 0-6.105.44c-1.102.995-1.593 2.018-1.678 3.499-.096 1.661.268 2.543 1.8 4.369 1.353 1.613 2.227 2.275 3.367 2.549.739.178 2.417.132 2.936-.08.18-.074.674.417 1.837 1.824l1.59 1.925v3.105 3.105h-6.229-6.229l-.108-2.189c-.366-7.428-2.006-10.825-6.488-13.441-.727-.424-1.681-1.187-2.427-1.941l-1.23-1.242.784-.994c.431-.546.999-1.382 1.261-1.857.914-1.655.972-2.093.972-7.382 0-4.28-.034-4.95-.31-6.055-.618-2.472-2.257-5.049-4.188-6.587-1.079-.859-3.36-2.017-4.646-2.358-1.298-.344-4.123-.426-5.393-.156zm4.22 3.14c3.399.736 6.064 3.31 6.972 6.735.118.445.216 1.399.217 2.119l.002 1.309-.664-.106c-2.477-.395-3.175-.602-8.649-2.562-3.699-1.325-5.668-1.415-7.795-.357-.516.257-.955.451-.975.431s.072-.453.204-.962c1.217-4.679 5.983-7.625 10.688-6.606zM48.26 23.604c5.698 2.027 6.817 2.37 8.778 2.695l2.028.335v1.673c0 1.562-.033 1.739-.492 2.661-.965 1.94-3.555 4.204-5.995 5.241-1.51.642-3.056.733-4.455.262-2.617-.882-5.743-3.447-6.715-5.511-.462-.98-.475-1.074-.475-3.297v-2.288l.865-.89c1.839-1.891 3.128-2.067 6.461-.882zm-22.597 12.58c.441.227.889 1.089.89 1.711.001.646-.504 1.426-1.78 2.749-.764.792-.864.846-1.565.846-.64 0-.825-.076-1.268-.521-1.062-1.067-.89-1.933.754-3.788 1.137-1.283 1.91-1.543 2.97-.997zm51.651 1.022c.537.586 1.088 1.302 1.226 1.591.346.727.171 1.518-.479 2.171-.444.446-.628.521-1.268.521-.701 0-.802-.054-1.565-.846-1.733-1.797-2.092-2.647-1.557-3.686.298-.578.611-.822 1.223-.955.865-.186 1.384.072 2.421 1.203zm-32.46 1.205c.896.465 1.891.929 2.211 1.031l.582.185-.874 1.755-.93 1.817c-.031.034-.806-.637-1.721-1.491l-2.133-1.951-.468-.398.816-.897c.449-.493.833-.897.852-.897s.769.381 1.665.846zm12.794.051c.751.846.78.911.52 1.148l-2.115 1.952c-1.012.935-1.866 1.672-1.897 1.638s-.448-.848-.927-1.81l-.87-1.748.891-.331c.49-.182 1.454-.646 2.142-1.03s1.298-.703 1.355-.707.463.395.901.888zm-15.312 5.86c3.442 3.2 3.747 3.389 4.678 2.906.402-.209.712-.7 1.697-2.683.663-1.335 1.243-2.427 1.288-2.427s.625 1.092 1.288 2.427c.985 1.983 1.295 2.474 1.697 2.683.928.482 1.232.293 4.675-2.906 1.762-1.637 3.275-2.979 3.362-2.983.278-.011 1.703 1.03 2.448 1.788 1.711 1.742 2.474 4.296 2.722 9.107l.11 2.128H49.999 33.696l.103-2.041c.226-4.48.82-6.767 2.255-8.679.555-.739 2.551-2.317 2.913-2.303.094.004 1.611 1.346 3.371 2.982zm44.24 13.494c.275.276.313.523.313 2.041s-.038 1.765-.313 2.041c-.308.31-.521.314-15.094.314l-15.123.175a1.54 1.54 0 0 0 0 2.789c.243.125 3.803.175 12.309.175 8.894 0 11.968.046 11.968.18 0 .099-1.209 4.938-2.687 10.754l-2.687 10.573H50 24.738l-2.687-10.573-2.687-10.754c0-.134 3.073-.18 11.966-.18 10.05 0 12.034-.036 12.396-.224 1.04-.54 1.04-2.152 0-2.692-.364-.189-2.724-.224-15.21-.224-14.571 0-14.783-.004-15.092-.314-.275-.276-.313-.523-.313-2.041s.038-1.765.313-2.041c.311-.312.521-.314 36.576-.314l36.576.314zm-37.341 4.615c-1.713.954-.35 3.567 1.435 2.75.43-.197.893-.91.893-1.377 0-1.186-1.294-1.949-2.328-1.373zm-15.472 7.584c-.376.133-.953.513-1.281.842-.924.928-1.083 1.699-1.083 5.248 0 3.561.158 4.319 1.094 5.259 1.141 1.146.395 1.099 17.507 1.099s16.366.047 17.507-1.099c.936-.941 1.094-1.699 1.094-5.259 0-3.547-.159-4.32-1.081-5.245-1.166-1.171-.263-1.114-17.587-1.1-13.55.011-15.571.043-16.17.255zm31.524 3.061c.132.133.188 1.029.188 3.03s-.055 2.897-.187 3.03c-.272.273-30.302.273-30.574 0-.132-.133-.187-1.029-.187-3.03s.055-2.897.188-3.03c.272-.273 30.302-.273 30.574 0z"/></mask><path fill-rule="evenodd" d="M47.655 10.161c-4.734 1.007-8.272 4.381-9.556 9.116-.313 1.153-.342 1.642-.355 5.965-.013 4.138.02 4.824.271 5.651.362 1.194 1.027 2.398 2.025 3.662l.784.994-1.22 1.232c-.801.809-1.706 1.519-2.636 2.068-2.088 1.232-3.638 2.842-4.538 4.714-1.112 2.312-1.563 4.519-1.756 8.594l-.105 2.205h-6.217c-5.633 0-6.222-.024-6.267-.257-.028-.141-.015-1.559.028-3.149l.078-2.892 1.55-1.881c1.14-1.384 1.616-1.854 1.798-1.778.136.056.719.139 1.295.184 1.179.092 2.294-.195 3.237-.833.893-.604 2.94-3.169 3.312-4.15.452-1.192.361-2.886-.216-4.02-1.367-2.689-4.844-3.621-7.308-1.959-.888.599-2.747 2.844-3.262 3.939-.538 1.143-.558 2.841-.047 3.98l.341.762-1.882 2.248c-1.049 1.253-1.948 2.479-2.03 2.769s-.149 1.987-.149 3.779v3.259l-.821.003c-1.45.006-2.877.906-3.605 2.273-.286.538-.343.949-.392 2.859-.071 2.77.126 3.512 1.226 4.616.902.906 1.872 1.238 3.62 1.238.672 0 1.222.043 1.222.096s1.306 5.227 2.903 11.499c2.052 8.062 3.01 11.569 3.269 11.968.763 1.175-1.571 1.084 27.748 1.084s26.986.091 27.748-1.084c.258-.398 1.219-3.916 3.268-11.97l2.903-11.499c0-.052.55-.094 1.222-.094 1.748 0 2.718-.332 3.62-1.238 1.1-1.104 1.297-1.846 1.226-4.616-.049-1.91-.105-2.321-.391-2.859-.712-1.336-1.916-2.124-3.464-2.265l-.992-.09.006-3.144c.003-1.729-.053-3.407-.125-3.728-.093-.412-.688-1.248-2.023-2.841l-1.892-2.257.344-.765c.507-1.127.484-2.827-.052-3.984-.505-1.089-2.364-3.336-3.257-3.939a5.02 5.02 0 0 0-6.105.44c-1.102.995-1.593 2.018-1.678 3.499-.096 1.661.268 2.543 1.8 4.369 1.353 1.613 2.227 2.275 3.367 2.549.739.178 2.417.132 2.936-.08.18-.074.674.417 1.837 1.824l1.59 1.925v3.105 3.105h-6.229-6.229l-.108-2.189c-.366-7.428-2.006-10.825-6.488-13.441-.727-.424-1.681-1.187-2.427-1.941l-1.23-1.242.784-.994c.431-.546.999-1.382 1.261-1.857.914-1.655.972-2.093.972-7.382 0-4.28-.034-4.95-.31-6.055-.618-2.472-2.257-5.049-4.188-6.587-1.079-.859-3.36-2.017-4.646-2.358-1.298-.344-4.123-.426-5.393-.156zm4.22 3.14c3.399.736 6.064 3.31 6.972 6.735.118.445.216 1.399.217 2.119l.002 1.309-.664-.106c-2.477-.395-3.175-.602-8.649-2.562-3.699-1.325-5.668-1.415-7.795-.357-.516.257-.955.451-.975.431s.072-.453.204-.962c1.217-4.679 5.983-7.625 10.688-6.606zM48.26 23.604c5.698 2.027 6.817 2.37 8.778 2.695l2.028.335v1.673c0 1.562-.033 1.739-.492 2.661-.965 1.94-3.555 4.204-5.995 5.241-1.51.642-3.056.733-4.455.262-2.617-.882-5.743-3.447-6.715-5.511-.462-.98-.475-1.074-.475-3.297v-2.288l.865-.89c1.839-1.891 3.128-2.067 6.461-.882zm-22.597 12.58c.441.227.889 1.089.89 1.711.001.646-.504 1.426-1.78 2.749-.764.792-.864.846-1.565.846-.64 0-.825-.076-1.268-.521-1.062-1.067-.89-1.933.754-3.788 1.137-1.283 1.91-1.543 2.97-.997zm51.651 1.022c.537.586 1.088 1.302 1.226 1.591.346.727.171 1.518-.479 2.171-.444.446-.628.521-1.268.521-.701 0-.802-.054-1.565-.846-1.733-1.797-2.092-2.647-1.557-3.686.298-.578.611-.822 1.223-.955.865-.186 1.384.072 2.421 1.203zm-32.46 1.205c.896.465 1.891.929 2.211 1.031l.582.185-.874 1.755-.93 1.817c-.031.034-.806-.637-1.721-1.491l-2.133-1.951-.468-.398.816-.897c.449-.493.833-.897.852-.897s.769.381 1.665.846zm12.794.051c.751.846.78.911.52 1.148l-2.115 1.952c-1.012.935-1.866 1.672-1.897 1.638s-.448-.848-.927-1.81l-.87-1.748.891-.331c.49-.182 1.454-.646 2.142-1.03s1.298-.703 1.355-.707.463.395.901.888zm-15.312 5.86c3.442 3.2 3.747 3.389 4.678 2.906.402-.209.712-.7 1.697-2.683.663-1.335 1.243-2.427 1.288-2.427s.625 1.092 1.288 2.427c.985 1.983 1.295 2.474 1.697 2.683.928.482 1.232.293 4.675-2.906 1.762-1.637 3.275-2.979 3.362-2.983.278-.011 1.703 1.03 2.448 1.788 1.711 1.742 2.474 4.296 2.722 9.107l.11 2.128H49.999 33.696l.103-2.041c.226-4.48.82-6.767 2.255-8.679.555-.739 2.551-2.317 2.913-2.303.094.004 1.611 1.346 3.371 2.982zm44.24 13.494c.275.276.313.523.313 2.041s-.038 1.765-.313 2.041c-.308.31-.521.314-15.094.314l-15.123.175a1.54 1.54 0 0 0 0 2.789c.243.125 3.803.175 12.309.175 8.894 0 11.968.046 11.968.18 0 .099-1.209 4.938-2.687 10.754l-2.687 10.573H50 24.738l-2.687-10.573-2.687-10.754c0-.134 3.073-.18 11.966-.18 10.05 0 12.034-.036 12.396-.224 1.04-.54 1.04-2.152 0-2.692-.364-.189-2.724-.224-15.21-.224-14.571 0-14.783-.004-15.092-.314-.275-.276-.313-.523-.313-2.041s.038-1.765.313-2.041c.311-.312.521-.314 36.576-.314l36.576.314zm-37.341 4.615c-1.713.954-.35 3.567 1.435 2.75.43-.197.893-.91.893-1.377 0-1.186-1.294-1.949-2.328-1.373zm-15.472 7.584c-.376.133-.953.513-1.281.842-.924.928-1.083 1.699-1.083 5.248 0 3.561.158 4.319 1.094 5.259 1.141 1.146.395 1.099 17.507 1.099s16.366.047 17.507-1.099c.936-.941 1.094-1.699 1.094-5.259 0-3.547-.159-4.32-1.081-5.245-1.166-1.171-.263-1.114-17.587-1.1-13.55.011-15.571.043-16.17.255zm31.524 3.061c.132.133.188 1.029.188 3.03s-.055 2.897-.187 3.03c-.272.273-30.302.273-30.574 0-.132-.133-.187-1.029-.187-3.03s.055-2.897.188-3.03c.272-.273 30.302-.273 30.574 0z" fill="#282626" stroke="#fff" stroke-width="2" mask="url(#A)"/></svg>