<svg width="100" height="100" viewBox="0 0 100 100" fill="none" xmlns="http://www.w3.org/2000/svg">
<rect width="100" height="100" fill="#E5E5E5"/>
<rect width="100" height="100" fill="white"/>
<mask id="path-1-inside-1" fill="white">
<path fill-rule="evenodd" clip-rule="evenodd" d="M46.4785 2.28383C44.4757 2.74261 42.3823 3.97931 40.8307 5.62038C36.2699 10.4444 36.2498 17.9714 40.7848 22.8214C41.5108 23.598 42.1048 24.2572 42.1048 24.2863C42.1048 24.3154 41.7579 24.4478 41.3337 24.5801C40.2802 24.9094 37.5003 26.4382 36.5228 27.2259C35.7662 27.8354 35.6994 27.8546 35.3294 27.5669C34.0654 26.584 32.6095 25.6431 31.5514 25.1253L30.3426 24.5338L31.5173 23.2814C33.3494 21.3281 34.4839 18.506 34.4839 15.9012C34.4839 10.5716 30.7431 5.9625 25.8 5.20182C19.6663 4.25821 14.1613 9.31896 14.1613 15.9012C14.1613 18.5076 15.2955 21.3281 17.1304 23.2842L18.3078 24.5395L16.6027 25.4331C11.9675 27.8623 8.61522 32.2836 7.34597 37.642C7.17758 38.3531 7.01482 40.1215 6.95621 41.8794L6.85532 44.8965H5.42766H4V49.4938V54.0912H5.45161H6.90323V75.5456V97H49H91.0968V75.5456V54.0912H92.5484H94V49.4938V44.8965H92.5484H91.0968L91.0953 42.6457C91.0946 41.4076 91.0091 39.8346 90.9053 39.1498C89.9707 32.9824 86.3714 27.9109 81.0278 25.232L79.6608 24.5466L80.8545 23.2863C82.7034 21.3344 83.8387 18.525 83.8387 15.9012C83.8387 10.5716 80.0979 5.9625 75.1548 5.20182C69.0212 4.25821 63.5161 9.31896 63.5161 15.9012C63.5161 18.5361 64.6504 21.3334 66.5184 23.3053L67.7302 24.5845L67.2108 24.7893C65.926 25.2956 64.39 26.2396 62.6038 27.6203C62.3216 27.8385 62.1727 27.7862 61.4772 27.2259C60.4997 26.4382 57.7198 24.9094 56.6663 24.5801C56.2423 24.4478 55.8952 24.3154 55.8952 24.2863C55.8952 24.2572 56.4892 23.598 57.2152 22.8214C61.745 17.977 61.7306 10.4064 57.1824 5.62957C54.3236 2.62691 50.3729 1.39214 46.4785 2.28383ZM50.6538 5.24397C53.1888 5.7401 55.7204 7.81945 56.8258 10.3131C59.2977 15.8896 56.0316 22.3611 50.2702 23.3026C46.6417 23.8955 42.8972 21.8405 41.2689 18.3622C38.0735 11.5366 43.5677 3.8569 50.6538 5.24397ZM27.3036 8.84926C28.9409 9.65821 30.0002 10.7581 30.8122 12.4927C31.4525 13.8604 31.4899 14.0414 31.4899 15.7798C31.4899 17.5182 31.4525 17.6992 30.8122 19.0669C29.996 20.8105 28.9454 21.8964 27.2585 22.74C26.1623 23.2883 25.8814 23.3463 24.3226 23.3463C22.7637 23.3463 22.4828 23.2883 21.3867 22.74C19.6997 21.8964 18.6491 20.8105 17.833 19.0669C17.1933 17.7007 17.1552 17.5166 17.1552 15.7898C17.1552 14.1328 17.2095 13.8391 17.7295 12.6804C18.4586 11.0556 19.4967 9.86624 20.8507 9.10441C22.28 8.30026 23.062 8.11828 24.7307 8.20218C25.8197 8.25697 26.3998 8.40274 27.3036 8.84926ZM76.6585 8.84926C78.2957 9.65821 79.355 10.7581 80.167 12.4927C80.8074 13.8604 80.8448 14.0414 80.8448 15.7798C80.8448 17.5182 80.8074 17.6992 80.167 19.0669C79.3509 20.8105 78.3003 21.8964 76.6133 22.74C75.5172 23.2883 75.2363 23.3463 73.6774 23.3463C72.1186 23.3463 71.8377 23.2883 70.7415 22.74C69.0546 21.8964 68.004 20.8105 67.1878 19.0669C66.5482 17.7007 66.5101 17.5166 66.5101 15.7898C66.5101 14.1328 66.5643 13.8391 67.0844 12.6804C67.8134 11.0556 68.8515 9.86624 70.2055 9.10441C71.6348 8.30026 72.4169 8.11828 74.0855 8.20218C75.1746 8.25697 75.7547 8.40274 76.6585 8.84926ZM27.0483 26.8177C27.3129 27.097 26.5895 28.5208 25.9315 29.0162C24.671 29.9652 22.5763 29.4754 21.8882 28.0707C21.4021 27.078 21.4511 26.8096 22.1452 26.665C23.0012 26.4867 26.8482 26.6064 27.0483 26.8177ZM49.6004 27.2253C49.6567 27.6205 50.0027 30.4971 50.3692 33.6178L51.0359 39.2919L50.229 42.0463C49.4934 44.5574 49.3847 44.8007 49 44.8007C48.6153 44.8007 48.5066 44.5574 47.771 42.0463L46.9641 39.2919L47.6308 33.6178C48.5509 25.7841 48.4117 26.507 49 26.507C49.4362 26.507 49.5106 26.5961 49.6004 27.2253ZM74.0583 26.5549C74.0681 26.5811 74.3009 28.844 74.5754 31.5833L75.0748 36.5637L74.3762 37.3271L73.6774 38.0906L72.9786 37.3271L72.2801 36.5637L72.7794 31.5833C73.0539 28.844 73.2868 26.5811 73.2966 26.5549C73.3065 26.5286 73.4778 26.507 73.6774 26.507C73.877 26.507 74.0483 26.5286 74.0583 26.5549ZM45.5045 26.938C45.4568 27.0698 45.3104 28.2345 45.179 29.5265C45.0476 30.8184 44.8812 31.8097 44.8092 31.7294C44.651 31.5526 43.3514 27.2343 43.4311 27.1502C43.5156 27.0608 44.8694 26.7397 45.2543 26.7177C45.4537 26.7064 45.5559 26.7962 45.5045 26.938ZM53.7157 26.9075C54.5424 27.0947 54.6266 27.1598 54.5203 27.5301C53.8722 29.7893 53.2951 31.6097 53.1894 31.7294C53.1182 31.8097 52.9524 30.8184 52.821 29.5265C52.6896 28.2345 52.5432 27.0698 52.4955 26.938C52.3893 26.6451 52.5398 26.6413 53.7157 26.9075ZM70.2338 27.2253C70.236 27.3043 70.0163 29.7225 69.7454 32.5991L69.2531 37.8292L71.4652 40.1646L73.6774 42.5001L75.8897 40.1646L78.1018 37.8292L77.6095 32.5991C77.3386 29.7225 77.1188 27.3043 77.121 27.2253C77.1286 26.9541 77.7018 27.0826 79.0772 27.664C80.962 28.4607 82.6395 29.6819 84.1394 31.3488C86.9684 34.4928 88.1935 37.9263 88.1935 42.7104V44.8965H86.0161H83.8387V40.2991V35.7017H82.3871H80.9355V40.2991V44.8965H75.129H69.3226V43.4736C69.3226 39.1436 67.9524 34.87 65.4337 31.3442L64.4421 29.956L65.476 29.2169C67.4678 27.7935 70.2177 26.6424 70.2338 27.2253ZM18.8683 28.5662C19.4648 30.3249 20.8155 31.7005 22.5598 32.3257C25.4414 33.3584 28.7333 31.6436 29.7768 28.5662C29.9109 28.1712 30.0989 27.8479 30.1949 27.8479C30.4016 27.8479 31.7254 28.6444 32.7951 29.4123L33.5561 29.9585L32.5652 31.3455C30.0476 34.87 28.6774 39.1442 28.6774 43.4736V44.8965H22.871H17.0645V40.2991V35.7017H15.6129H14.1613V40.2991V44.8965H11.9839H9.80645L9.8128 42.7415C9.82895 37.2146 11.497 33.255 15.1767 30.0087C16.1271 29.1702 18.1191 27.8492 18.4343 27.8485C18.539 27.8481 18.7342 28.1712 18.8683 28.5662ZM43.1086 36.5637C44.3821 40.8833 45.4617 44.5254 45.5076 44.657C45.5726 44.8432 44.8397 44.8965 42.215 44.8965H38.8387V40.2991V35.7017H37.3871H35.9355V40.2991V44.8965H33.7581H31.5806L31.5821 43.5077C31.5879 37.4528 34.6862 31.757 39.5607 28.839C40.2753 28.4114 40.5884 28.3095 40.6741 28.477C40.7398 28.6051 41.8352 32.2441 43.1086 36.5637ZM60.5997 30.4071C64.1459 33.3743 66.413 38.4787 66.4179 43.5077L66.4194 44.8965H64.2419H62.0645V40.2991V35.7017H60.6129H59.1613V40.2991V44.8965H55.7923C52.6668 44.8965 52.4303 44.8721 52.5223 44.5612C52.577 44.3768 53.3628 41.7262 54.269 38.6709C55.175 35.6155 56.2432 32.0114 56.6427 30.6619L57.3693 28.2078L58.4014 28.8197C58.9689 29.156 59.9582 29.8705 60.5997 30.4071ZM91.0968 49.4938V51.0263H49H6.90323V49.4938V47.9614H49H91.0968V49.4938ZM88.1935 74.0131V93.9351H49H9.80645V74.0131V54.0912H49H88.1935V74.0131ZM12.7097 74.0131V90.8702H49H85.2903V74.0131V57.1561H49H12.7097V74.0131ZM22.6202 60.8436C22.0944 63.6978 18.9062 67.0635 16.2026 67.6186L15.6129 67.7396V63.9803V60.221H19.1739H22.7349L22.6202 60.8436ZM38.5032 61.3587C32.6213 66.7031 31.3478 75.9107 35.5131 82.9805C36.3423 84.3881 38.0195 86.349 39.2016 87.2936L39.8367 87.801L32.7394 87.8032L25.6421 87.8053L25.5292 86.9365C25.2373 84.6871 23.3879 81.4599 21.4714 79.8552C20.1334 78.7348 18.0714 77.6751 16.6898 77.398L15.6129 77.1819V73.9693V70.7567H16.0491C16.7383 70.7567 18.9937 69.8868 20.1115 69.1899C21.4194 68.3745 23.3362 66.3509 24.1086 64.9701C24.7688 63.7901 25.5927 61.4091 25.5927 60.6815V60.221H32.6741H39.7552L38.5032 61.3587ZM51.3997 60.4923C56.6937 61.5616 60.7947 65.8909 61.8076 71.4798C63.5183 80.9188 55.5413 89.34 46.6003 87.534C39.5213 86.1042 34.8428 78.8933 36.1917 71.4919C36.5334 69.6165 37.0634 68.1779 37.9545 66.706C40.8746 61.8832 46.1699 59.4358 51.3997 60.4923ZM72.4708 61.0897C72.8582 64.0734 75.2528 67.5544 78.1517 69.348C79.0854 69.9255 81.3267 70.7567 81.9509 70.7567H82.3871V74.0131V77.2696H81.9509C81.3267 77.2696 79.0854 78.1008 78.1517 78.6783C75.2528 80.4719 72.8582 83.9528 72.4708 86.9365L72.3579 87.8053H65.2697C61.3712 87.8053 58.2591 87.7365 58.3538 87.6526C58.4487 87.5685 58.992 87.0911 59.5612 86.5917C61.706 84.7099 63.6404 81.3935 64.4579 78.1977C65.0403 75.9205 65.0403 72.1058 64.4579 69.8286C63.6392 66.6275 61.7276 63.3382 59.6 61.4696C59.0094 60.9509 58.4485 60.4578 58.3538 60.3737C58.2591 60.2898 61.3712 60.221 65.2697 60.221H72.3579L72.4708 61.0897ZM82.3871 63.9803V67.7396L81.7974 67.6197C80.5572 67.3678 78.665 66.1961 77.6066 65.0247C76.5774 63.8855 75.6166 62.0788 75.3829 60.8436L75.2651 60.221H78.8261H82.3871V63.9803ZM47.5484 64.8184V66.3509H45.371H43.1935V68.9626C43.1935 72.2131 43.3654 72.8667 44.5483 74.1154C45.6949 75.3259 46.3764 75.5456 48.9838 75.5456C50.8958 75.5456 51.0381 75.5726 51.4578 76.0159C51.8236 76.4019 51.9032 76.6758 51.9032 77.5483V78.6105H49.4455C47.0777 78.6105 46.9712 78.5933 46.5422 78.1402C46.2973 77.8816 46.0968 77.5368 46.0968 77.374C46.0968 77.1317 45.8335 77.0781 44.6452 77.0781C43.4229 77.0781 43.1935 77.1275 43.1935 77.3911C43.1935 79.2915 45.4517 81.6754 47.2519 81.6754C47.5016 81.6754 47.5484 81.9176 47.5484 83.2079V84.7403H49H50.4516V83.2079V81.6754H52.629H54.8065V79.0637C54.8065 75.8132 54.6346 75.1596 53.4517 73.9109C52.3051 72.7004 51.6236 72.4807 49.0161 72.4807C47.1042 72.4807 46.9619 72.4537 46.5422 72.0104C46.1764 71.6244 46.0968 71.3505 46.0968 70.478V69.4158H48.5545C50.9223 69.4158 51.0288 69.433 51.4578 69.886C51.7027 70.1446 51.9032 70.4895 51.9032 70.6523C51.9032 70.8946 52.1665 70.9482 53.3548 70.9482C54.5771 70.9482 54.8065 70.8988 54.8065 70.6352C54.8065 69.1871 53.3545 67.1571 51.9595 66.6554C51.4939 66.4878 50.964 66.3509 50.7822 66.3509C50.4899 66.3509 50.4516 66.1733 50.4516 64.8184V63.286H49H47.5484V64.8184ZM18.0888 81.1971C20.1613 82.2696 22.2147 84.9819 22.6202 87.1827L22.7349 87.8053H19.1739H15.6129V84.0459V80.2866L16.2026 80.4066C16.5269 80.4725 17.3757 80.8282 18.0888 81.1971ZM82.3871 84.0699V87.8053H78.8261H75.2651L75.3829 87.1827C75.6068 85.9987 76.5667 84.1582 77.5088 83.1067C78.5717 81.9202 79.2569 81.4272 80.7344 80.7855C82.4969 80.0202 82.3871 79.8022 82.3871 84.0699Z"/>
</mask>
<path fill-rule="evenodd" clip-rule="evenodd" d="M46.4785 2.28383C44.4757 2.74261 42.3823 3.97931 40.8307 5.62038C36.2699 10.4444 36.2498 17.9714 40.7848 22.8214C41.5108 23.598 42.1048 24.2572 42.1048 24.2863C42.1048 24.3154 41.7579 24.4478 41.3337 24.5801C40.2802 24.9094 37.5003 26.4382 36.5228 27.2259C35.7662 27.8354 35.6994 27.8546 35.3294 27.5669C34.0654 26.584 32.6095 25.6431 31.5514 25.1253L30.3426 24.5338L31.5173 23.2814C33.3494 21.3281 34.4839 18.506 34.4839 15.9012C34.4839 10.5716 30.7431 5.9625 25.8 5.20182C19.6663 4.25821 14.1613 9.31896 14.1613 15.9012C14.1613 18.5076 15.2955 21.3281 17.1304 23.2842L18.3078 24.5395L16.6027 25.4331C11.9675 27.8623 8.61522 32.2836 7.34597 37.642C7.17758 38.3531 7.01482 40.1215 6.95621 41.8794L6.85532 44.8965H5.42766H4V49.4938V54.0912H5.45161H6.90323V75.5456V97H49H91.0968V75.5456V54.0912H92.5484H94V49.4938V44.8965H92.5484H91.0968L91.0953 42.6457C91.0946 41.4076 91.0091 39.8346 90.9053 39.1498C89.9707 32.9824 86.3714 27.9109 81.0278 25.232L79.6608 24.5466L80.8545 23.2863C82.7034 21.3344 83.8387 18.525 83.8387 15.9012C83.8387 10.5716 80.0979 5.9625 75.1548 5.20182C69.0212 4.25821 63.5161 9.31896 63.5161 15.9012C63.5161 18.5361 64.6504 21.3334 66.5184 23.3053L67.7302 24.5845L67.2108 24.7893C65.926 25.2956 64.39 26.2396 62.6038 27.6203C62.3216 27.8385 62.1727 27.7862 61.4772 27.2259C60.4997 26.4382 57.7198 24.9094 56.6663 24.5801C56.2423 24.4478 55.8952 24.3154 55.8952 24.2863C55.8952 24.2572 56.4892 23.598 57.2152 22.8214C61.745 17.977 61.7306 10.4064 57.1824 5.62957C54.3236 2.62691 50.3729 1.39214 46.4785 2.28383ZM50.6538 5.24397C53.1888 5.7401 55.7204 7.81945 56.8258 10.3131C59.2977 15.8896 56.0316 22.3611 50.2702 23.3026C46.6417 23.8955 42.8972 21.8405 41.2689 18.3622C38.0735 11.5366 43.5677 3.8569 50.6538 5.24397ZM27.3036 8.84926C28.9409 9.65821 30.0002 10.7581 30.8122 12.4927C31.4525 13.8604 31.4899 14.0414 31.4899 15.7798C31.4899 17.5182 31.4525 17.6992 30.8122 19.0669C29.996 20.8105 28.9454 21.8964 27.2585 22.74C26.1623 23.2883 25.8814 23.3463 24.3226 23.3463C22.7637 23.3463 22.4828 23.2883 21.3867 22.74C19.6997 21.8964 18.6491 20.8105 17.833 19.0669C17.1933 17.7007 17.1552 17.5166 17.1552 15.7898C17.1552 14.1328 17.2095 13.8391 17.7295 12.6804C18.4586 11.0556 19.4967 9.86624 20.8507 9.10441C22.28 8.30026 23.062 8.11828 24.7307 8.20218C25.8197 8.25697 26.3998 8.40274 27.3036 8.84926ZM76.6585 8.84926C78.2957 9.65821 79.355 10.7581 80.167 12.4927C80.8074 13.8604 80.8448 14.0414 80.8448 15.7798C80.8448 17.5182 80.8074 17.6992 80.167 19.0669C79.3509 20.8105 78.3003 21.8964 76.6133 22.74C75.5172 23.2883 75.2363 23.3463 73.6774 23.3463C72.1186 23.3463 71.8377 23.2883 70.7415 22.74C69.0546 21.8964 68.004 20.8105 67.1878 19.0669C66.5482 17.7007 66.5101 17.5166 66.5101 15.7898C66.5101 14.1328 66.5643 13.8391 67.0844 12.6804C67.8134 11.0556 68.8515 9.86624 70.2055 9.10441C71.6348 8.30026 72.4169 8.11828 74.0855 8.20218C75.1746 8.25697 75.7547 8.40274 76.6585 8.84926ZM27.0483 26.8177C27.3129 27.097 26.5895 28.5208 25.9315 29.0162C24.671 29.9652 22.5763 29.4754 21.8882 28.0707C21.4021 27.078 21.4511 26.8096 22.1452 26.665C23.0012 26.4867 26.8482 26.6064 27.0483 26.8177ZM49.6004 27.2253C49.6567 27.6205 50.0027 30.4971 50.3692 33.6178L51.0359 39.2919L50.229 42.0463C49.4934 44.5574 49.3847 44.8007 49 44.8007C48.6153 44.8007 48.5066 44.5574 47.771 42.0463L46.9641 39.2919L47.6308 33.6178C48.5509 25.7841 48.4117 26.507 49 26.507C49.4362 26.507 49.5106 26.5961 49.6004 27.2253ZM74.0583 26.5549C74.0681 26.5811 74.3009 28.844 74.5754 31.5833L75.0748 36.5637L74.3762 37.3271L73.6774 38.0906L72.9786 37.3271L72.2801 36.5637L72.7794 31.5833C73.0539 28.844 73.2868 26.5811 73.2966 26.5549C73.3065 26.5286 73.4778 26.507 73.6774 26.507C73.877 26.507 74.0483 26.5286 74.0583 26.5549ZM45.5045 26.938C45.4568 27.0698 45.3104 28.2345 45.179 29.5265C45.0476 30.8184 44.8812 31.8097 44.8092 31.7294C44.651 31.5526 43.3514 27.2343 43.4311 27.1502C43.5156 27.0608 44.8694 26.7397 45.2543 26.7177C45.4537 26.7064 45.5559 26.7962 45.5045 26.938ZM53.7157 26.9075C54.5424 27.0947 54.6266 27.1598 54.5203 27.5301C53.8722 29.7893 53.2951 31.6097 53.1894 31.7294C53.1182 31.8097 52.9524 30.8184 52.821 29.5265C52.6896 28.2345 52.5432 27.0698 52.4955 26.938C52.3893 26.6451 52.5398 26.6413 53.7157 26.9075ZM70.2338 27.2253C70.236 27.3043 70.0163 29.7225 69.7454 32.5991L69.2531 37.8292L71.4652 40.1646L73.6774 42.5001L75.8897 40.1646L78.1018 37.8292L77.6095 32.5991C77.3386 29.7225 77.1188 27.3043 77.121 27.2253C77.1286 26.9541 77.7018 27.0826 79.0772 27.664C80.962 28.4607 82.6395 29.6819 84.1394 31.3488C86.9684 34.4928 88.1935 37.9263 88.1935 42.7104V44.8965H86.0161H83.8387V40.2991V35.7017H82.3871H80.9355V40.2991V44.8965H75.129H69.3226V43.4736C69.3226 39.1436 67.9524 34.87 65.4337 31.3442L64.4421 29.956L65.476 29.2169C67.4678 27.7935 70.2177 26.6424 70.2338 27.2253ZM18.8683 28.5662C19.4648 30.3249 20.8155 31.7005 22.5598 32.3257C25.4414 33.3584 28.7333 31.6436 29.7768 28.5662C29.9109 28.1712 30.0989 27.8479 30.1949 27.8479C30.4016 27.8479 31.7254 28.6444 32.7951 29.4123L33.5561 29.9585L32.5652 31.3455C30.0476 34.87 28.6774 39.1442 28.6774 43.4736V44.8965H22.871H17.0645V40.2991V35.7017H15.6129H14.1613V40.2991V44.8965H11.9839H9.80645L9.8128 42.7415C9.82895 37.2146 11.497 33.255 15.1767 30.0087C16.1271 29.1702 18.1191 27.8492 18.4343 27.8485C18.539 27.8481 18.7342 28.1712 18.8683 28.5662ZM43.1086 36.5637C44.3821 40.8833 45.4617 44.5254 45.5076 44.657C45.5726 44.8432 44.8397 44.8965 42.215 44.8965H38.8387V40.2991V35.7017H37.3871H35.9355V40.2991V44.8965H33.7581H31.5806L31.5821 43.5077C31.5879 37.4528 34.6862 31.757 39.5607 28.839C40.2753 28.4114 40.5884 28.3095 40.6741 28.477C40.7398 28.6051 41.8352 32.2441 43.1086 36.5637ZM60.5997 30.4071C64.1459 33.3743 66.413 38.4787 66.4179 43.5077L66.4194 44.8965H64.2419H62.0645V40.2991V35.7017H60.6129H59.1613V40.2991V44.8965H55.7923C52.6668 44.8965 52.4303 44.8721 52.5223 44.5612C52.577 44.3768 53.3628 41.7262 54.269 38.6709C55.175 35.6155 56.2432 32.0114 56.6427 30.6619L57.3693 28.2078L58.4014 28.8197C58.9689 29.156 59.9582 29.8705 60.5997 30.4071ZM91.0968 49.4938V51.0263H49H6.90323V49.4938V47.9614H49H91.0968V49.4938ZM88.1935 74.0131V93.9351H49H9.80645V74.0131V54.0912H49H88.1935V74.0131ZM12.7097 74.0131V90.8702H49H85.2903V74.0131V57.1561H49H12.7097V74.0131ZM22.6202 60.8436C22.0944 63.6978 18.9062 67.0635 16.2026 67.6186L15.6129 67.7396V63.9803V60.221H19.1739H22.7349L22.6202 60.8436ZM38.5032 61.3587C32.6213 66.7031 31.3478 75.9107 35.5131 82.9805C36.3423 84.3881 38.0195 86.349 39.2016 87.2936L39.8367 87.801L32.7394 87.8032L25.6421 87.8053L25.5292 86.9365C25.2373 84.6871 23.3879 81.4599 21.4714 79.8552C20.1334 78.7348 18.0714 77.6751 16.6898 77.398L15.6129 77.1819V73.9693V70.7567H16.0491C16.7383 70.7567 18.9937 69.8868 20.1115 69.1899C21.4194 68.3745 23.3362 66.3509 24.1086 64.9701C24.7688 63.7901 25.5927 61.4091 25.5927 60.6815V60.221H32.6741H39.7552L38.5032 61.3587ZM51.3997 60.4923C56.6937 61.5616 60.7947 65.8909 61.8076 71.4798C63.5183 80.9188 55.5413 89.34 46.6003 87.534C39.5213 86.1042 34.8428 78.8933 36.1917 71.4919C36.5334 69.6165 37.0634 68.1779 37.9545 66.706C40.8746 61.8832 46.1699 59.4358 51.3997 60.4923ZM72.4708 61.0897C72.8582 64.0734 75.2528 67.5544 78.1517 69.348C79.0854 69.9255 81.3267 70.7567 81.9509 70.7567H82.3871V74.0131V77.2696H81.9509C81.3267 77.2696 79.0854 78.1008 78.1517 78.6783C75.2528 80.4719 72.8582 83.9528 72.4708 86.9365L72.3579 87.8053H65.2697C61.3712 87.8053 58.2591 87.7365 58.3538 87.6526C58.4487 87.5685 58.992 87.0911 59.5612 86.5917C61.706 84.7099 63.6404 81.3935 64.4579 78.1977C65.0403 75.9205 65.0403 72.1058 64.4579 69.8286C63.6392 66.6275 61.7276 63.3382 59.6 61.4696C59.0094 60.9509 58.4485 60.4578 58.3538 60.3737C58.2591 60.2898 61.3712 60.221 65.2697 60.221H72.3579L72.4708 61.0897ZM82.3871 63.9803V67.7396L81.7974 67.6197C80.5572 67.3678 78.665 66.1961 77.6066 65.0247C76.5774 63.8855 75.6166 62.0788 75.3829 60.8436L75.2651 60.221H78.8261H82.3871V63.9803ZM47.5484 64.8184V66.3509H45.371H43.1935V68.9626C43.1935 72.2131 43.3654 72.8667 44.5483 74.1154C45.6949 75.3259 46.3764 75.5456 48.9838 75.5456C50.8958 75.5456 51.0381 75.5726 51.4578 76.0159C51.8236 76.4019 51.9032 76.6758 51.9032 77.5483V78.6105H49.4455C47.0777 78.6105 46.9712 78.5933 46.5422 78.1402C46.2973 77.8816 46.0968 77.5368 46.0968 77.374C46.0968 77.1317 45.8335 77.0781 44.6452 77.0781C43.4229 77.0781 43.1935 77.1275 43.1935 77.3911C43.1935 79.2915 45.4517 81.6754 47.2519 81.6754C47.5016 81.6754 47.5484 81.9176 47.5484 83.2079V84.7403H49H50.4516V83.2079V81.6754H52.629H54.8065V79.0637C54.8065 75.8132 54.6346 75.1596 53.4517 73.9109C52.3051 72.7004 51.6236 72.4807 49.0161 72.4807C47.1042 72.4807 46.9619 72.4537 46.5422 72.0104C46.1764 71.6244 46.0968 71.3505 46.0968 70.478V69.4158H48.5545C50.9223 69.4158 51.0288 69.433 51.4578 69.886C51.7027 70.1446 51.9032 70.4895 51.9032 70.6523C51.9032 70.8946 52.1665 70.9482 53.3548 70.9482C54.5771 70.9482 54.8065 70.8988 54.8065 70.6352C54.8065 69.1871 53.3545 67.1571 51.9595 66.6554C51.4939 66.4878 50.964 66.3509 50.7822 66.3509C50.4899 66.3509 50.4516 66.1733 50.4516 64.8184V63.286H49H47.5484V64.8184ZM18.0888 81.1971C20.1613 82.2696 22.2147 84.9819 22.6202 87.1827L22.7349 87.8053H19.1739H15.6129V84.0459V80.2866L16.2026 80.4066C16.5269 80.4725 17.3757 80.8282 18.0888 81.1971ZM82.3871 84.0699V87.8053H78.8261H75.2651L75.3829 87.1827C75.6068 85.9987 76.5667 84.1582 77.5088 83.1067C78.5717 81.9202 79.2569 81.4272 80.7344 80.7855C82.4969 80.0202 82.3871 79.8022 82.3871 84.0699Z" fill="#282626" stroke="white" stroke-width="2" mask="url(#path-1-inside-1)"/>
</svg>
