<svg width="100" height="100" viewBox="0 0 100 100" fill="none" xmlns="http://www.w3.org/2000/svg">
<rect width="100" height="100" fill="#E5E5E5"/>
<rect width="100" height="100" fill="white"/>
<mask id="path-1-inside-1" fill="white">
<path fill-rule="evenodd" clip-rule="evenodd" d="M17.1338 3.1045C17.0906 3.18554 16.8578 4.02767 16.6165 4.97593C16.1926 6.64161 15.7521 7.37053 15.1691 7.37053C15.031 7.37053 14.1723 6.9395 13.2606 6.41269C12.3488 5.88588 11.5441 5.45485 11.4721 5.45485C11.3042 5.45485 5.50634 11.2603 5.50634 11.4285C5.50634 11.498 5.93713 12.3011 6.46346 13.2132C7.1734 14.443 7.39052 14.9919 7.30398 15.3373C7.14928 15.9537 7.05125 16.0051 4.93195 16.5819L3.11306 17.0769V21.3529V25.629L4.93482 26.1262C7.05259 26.7039 7.14889 26.7545 7.30398 27.3727C7.39052 27.7181 7.1734 28.2669 6.46346 29.4968C5.93713 30.4089 5.50634 31.214 5.50634 31.286C5.50634 31.454 11.3086 37.2551 11.4767 37.2551C11.5462 37.2551 12.3488 36.8241 13.2606 36.2973C14.1723 35.7704 15.0241 35.3394 15.1537 35.3394C15.767 35.3394 16.1348 35.9478 16.6175 37.7597L17.1208 39.6497L18.4934 39.706L19.866 39.7623V52.0142V64.2662H13.4264C8.93007 64.2662 6.74893 64.3365 6.19867 64.4991C5.14696 64.81 3.56089 66.397 3.25015 67.4492C2.91662 68.5785 2.91662 93.6697 3.25015 94.799C3.56089 95.8513 5.14696 97.4382 6.19867 97.7491C7.33002 98.0836 35.4654 98.0836 36.5968 97.7491C37.6485 97.4382 39.2345 95.8513 39.5453 94.799C39.8744 93.6845 39.8792 68.5753 39.5505 67.4776C39.4252 67.0596 38.9504 66.3031 38.4951 65.7964C37.1524 64.302 36.9395 64.2662 29.4051 64.2662H22.9294V52.0142V39.7623L24.302 39.706L25.6746 39.6497L26.1688 37.8298C26.7428 35.7157 26.7971 35.6109 27.3993 35.4597C27.7267 35.3775 28.3405 35.6187 29.6178 36.3314L31.3836 37.3164L34.3364 34.3666C35.9603 32.7443 37.2891 31.3581 37.2891 31.286C37.2891 31.214 36.8583 30.4089 36.332 29.4968C35.622 28.2669 35.4049 27.7181 35.4915 27.3727C35.6462 26.7562 35.7444 26.7047 37.8635 26.1287L39.6824 25.6342L39.7387 24.2609L39.795 22.8875H41.3182H42.8415V27.0319C42.8415 31.9538 42.9323 32.3782 44.271 33.7176C45.6097 35.057 46.0338 35.1479 50.953 35.1479H55.0951V39.8273V44.5065L54.0602 44.9806C52.8286 45.5448 51.6652 46.6881 51.051 47.9377C50.6911 48.6702 50.6047 49.1584 50.6032 50.4733C50.6015 51.8786 50.6729 52.2384 51.1249 53.101C51.8167 54.4207 52.8203 55.3979 54.0735 55.9718L55.0951 56.44V64.9506V73.4614H59.6902H64.2853V79.1383C64.2853 83.0356 64.3582 85.0624 64.5181 85.6037C64.8289 86.656 66.4149 88.243 67.4666 88.5539C68.5953 88.8876 93.6727 88.8876 94.8013 88.5539C95.853 88.243 97.4391 86.656 97.7499 85.6037C98.0834 84.4744 98.0834 59.3833 97.7499 58.254C97.4391 57.2017 95.853 55.6148 94.8013 55.3038C93.6727 54.9701 68.5953 54.9701 67.4666 55.3038C66.4149 55.6148 64.8289 57.2017 64.5181 58.254C64.3582 58.7954 64.2853 60.8222 64.2853 64.7194V70.3963H61.2219H58.1585V63.4181V56.44L59.1801 55.9718C60.4333 55.3979 61.4369 54.4207 62.1287 53.101C62.5801 52.2399 62.6525 51.8763 62.6525 50.4733C62.6525 49.0702 62.5801 48.7066 62.1287 47.8455C61.4369 46.5258 60.4333 45.5486 59.1801 44.9747L58.1585 44.5065V39.8273V35.1479H62.3006C67.2198 35.1479 67.6439 35.057 68.9826 33.7176C70.3213 32.3782 70.4121 31.9538 70.4121 27.0319V22.8875H73.55H76.6877L76.811 23.5446C77.2048 25.6448 79.3836 28.415 81.4761 29.4759C85.1133 31.3199 89.1365 30.7263 92.0874 27.9102C94.7037 25.4133 95.6105 21.3965 94.2941 18.1357L93.8276 16.9801L95.6179 15.1963C96.6026 14.2152 97.4083 13.3214 97.4083 13.2099C97.4083 12.9603 95.6455 11.2019 95.3951 11.2019C95.2955 11.2019 94.4737 11.939 93.5691 12.8402L91.924 14.4785L90.9353 13.8128C87.2336 11.3203 82.6025 11.7155 79.3708 14.7997C78.219 15.8989 77.0493 17.8935 76.811 19.1654L76.6877 19.8224H73.55H70.4121V15.6781C70.4121 13.0304 70.33 11.2592 70.1844 10.7735C70.0592 10.3555 69.5844 9.59903 69.1291 9.09234C67.728 7.53298 67.965 7.56209 56.6628 7.56209C49.4874 7.56209 46.5968 7.62531 46.0228 7.79504C44.9711 8.10595 43.3851 9.6929 43.0743 10.7452C42.9231 11.2578 42.8415 12.984 42.8415 15.6781V19.8224H41.3182H39.795L39.7387 18.4491L39.6824 17.0757L37.8635 16.5813C35.7444 16.0053 35.6462 15.9537 35.4915 15.3373C35.4049 14.9919 35.622 14.443 36.332 13.2132C36.8583 12.3011 37.2891 11.4959 37.2891 11.4239C37.2891 11.2559 31.4868 5.45485 31.3187 5.45485C31.2492 5.45485 30.4466 5.88588 29.5351 6.4125C28.3059 7.12283 27.7573 7.34007 27.4121 7.25348C26.796 7.09869 26.7447 7.00061 26.1684 4.88014L25.6736 3.06025L21.4431 3.00872C19.1164 2.98037 17.1771 3.02347 17.1338 3.1045ZM23.4877 6.74793C23.5921 7.14313 23.7885 7.88642 23.9241 8.40001C24.0594 8.91341 24.3003 9.37682 24.4592 9.42988C24.6183 9.48275 25.4571 9.82374 26.3237 10.1877L27.8988 10.8494L29.4334 10.0201L30.9678 9.19099L32.2617 10.487L33.5556 11.7829L32.7149 13.3628L31.8742 14.9426L32.3113 15.7999C32.5515 16.2713 32.8925 17.0817 33.0689 17.6008C33.4149 18.619 33.3216 18.565 35.901 19.2408L36.7147 19.454V21.355V23.2559L35.901 23.4691C33.273 24.1576 33.5071 23.9858 32.7666 25.7702C32.3968 26.6608 32.0516 27.5231 31.999 27.6863C31.9465 27.8497 32.2536 28.5911 32.6817 29.3338C33.1097 30.0767 33.4598 30.7644 33.4598 30.8623C33.4598 30.9602 32.896 31.5981 32.2069 32.2799L30.954 33.5195L29.4219 32.692L27.8896 31.8646L26.3189 32.5241C25.4552 32.8872 24.6183 33.2272 24.4592 33.2801C24.3003 33.3331 24.0594 33.7965 23.9241 34.3099C23.7885 34.8235 23.5921 35.567 23.4877 35.962L23.2976 36.6804H21.3977H19.4978L19.3077 35.962C19.2034 35.567 19.0069 34.8235 18.8714 34.3099C18.736 33.7965 18.4951 33.3331 18.3362 33.2801C18.1771 33.2272 17.3402 32.8872 16.4766 32.5241L14.9058 31.8646L13.371 32.692L11.8361 33.5195L10.538 32.2234L9.23985 30.927L10.0806 29.3472L10.9213 27.7673L10.4842 26.9101C10.2439 26.4386 9.90289 25.6283 9.72655 25.1091C9.38058 24.0909 9.47382 24.145 6.89444 23.4691L6.08073 23.2559V21.355V19.454L6.79871 19.2638C7.1937 19.1594 7.93657 18.9629 8.44988 18.8272C8.963 18.6918 9.42615 18.4508 9.47918 18.2918C9.53203 18.1326 9.87283 17.2934 10.2366 16.4263L10.8979 14.8503L10.0691 13.3149L9.24043 11.7796L10.5382 10.485L11.8361 9.19042L13.371 10.018L14.9058 10.8454L16.4766 10.1858C17.3402 9.82278 18.1771 9.48275 18.3362 9.42988C18.4951 9.37682 18.736 8.91341 18.8714 8.40001C19.0069 7.88642 19.2034 7.14313 19.3077 6.74793L19.4978 6.02955H21.3977H23.2976L23.4877 6.74793ZM66.8787 11.0975C67.2646 11.4835 67.3487 11.7574 67.3487 12.63V13.6923H56.6268H45.9049V12.63C45.9049 11.7574 45.989 11.4835 46.3749 11.0975L46.8448 10.6272H56.6268H66.4088L66.8787 11.0975ZM19.1216 12.4626C14.2671 13.7689 11.2636 18.7981 12.5007 23.55C13.7815 28.4704 18.8005 31.5056 23.5915 30.2569C28.4948 28.979 31.5423 23.9526 30.3022 19.1889C29.0097 14.2237 23.9313 11.1684 19.1216 12.4626ZM23.6953 15.6742C25.0573 16.2507 26.1299 17.2704 26.7943 18.6205C28.3265 21.7349 27.1508 25.23 24.024 26.8549C23.1701 27.2986 22.7889 27.3744 21.3977 27.3781C19.9078 27.3819 19.6684 27.3273 18.5648 26.7319C17.3039 26.0514 16.5826 25.2902 15.8304 23.8454C15.1798 22.5961 15.1895 20.132 15.8505 18.7688C16.6452 17.1296 18.1961 15.8553 19.9617 15.3911C20.7751 15.1771 22.902 15.3386 23.6953 15.6742ZM88.1643 15.7945C89.8737 16.5303 89.8727 16.5363 87.6807 18.7293L85.7352 20.6761L84.8162 19.7703C84.3105 19.2722 83.8091 18.8646 83.7017 18.8646C83.4683 18.8646 81.7084 20.669 81.7084 20.908C81.7084 20.9996 82.6132 21.9768 83.7193 23.0797L85.73 25.0848L88.5932 22.2247C91.8101 19.0115 91.7636 19.023 91.7559 21.4508C91.7485 23.7829 90.525 25.7273 88.3554 26.8549C87.4988 27.2999 87.1246 27.3738 85.7291 27.3742C84.394 27.3746 83.9468 27.294 83.2401 26.9254C81.7961 26.1727 81.0352 25.4511 80.3551 24.1894C79.7593 23.0837 79.7057 22.8477 79.7114 21.355C79.7181 19.5734 80.0539 18.6079 81.115 17.3198C81.6936 16.6175 83.2799 15.6522 84.2812 15.3932C85.2453 15.1436 87.0967 15.3351 88.1643 15.7945ZM67.3487 23.9498V31.1424L66.8787 31.6125L66.4088 32.0828H56.6268H46.8448L46.3749 31.6125L45.9049 31.1424V23.9498V16.7573H56.6268H67.3487V23.9498ZM48.9683 21.355V22.8875H50.5H52.0317V21.355V19.8224H50.5H48.9683V21.355ZM55.0951 21.355V22.8875H59.6902H64.2853V21.355V19.8224H59.6902H55.0951V21.355ZM48.9683 27.4851V29.0177H56.6268H64.2853V27.4851V25.9526H56.6268H48.9683V27.4851ZM58.3046 47.9201C59.2803 48.649 59.5945 49.271 59.5945 50.4733C59.5945 52.3382 58.4907 53.4426 56.6268 53.4426C55.416 53.4426 54.8041 53.1288 54.0539 52.1236C53.4412 51.3026 53.5004 49.598 54.1722 48.7168C54.4543 48.3467 54.9712 47.8978 55.321 47.7195C56.1307 47.3065 57.6167 47.4063 58.3046 47.9201ZM94.4492 58.6063C94.8352 58.9923 94.9193 59.2662 94.9193 60.1388V61.2011H81.134H67.3487V60.1388C67.3487 59.2662 67.4327 58.9923 67.8187 58.6063L68.2886 58.136H81.134H93.9794L94.4492 58.6063ZM94.9193 74.5237V84.7813L94.4492 85.2515L93.9794 85.7217H81.134H68.2886L67.8187 85.2515L67.3487 84.7813V74.5237V64.2662H81.134H94.9193V74.5237ZM36.2447 67.8015C36.6307 68.1875 36.7147 68.4615 36.7147 69.3341V70.3963H21.3977H6.08073V69.3341C6.08073 68.4615 6.16478 68.1875 6.55077 67.8015L7.02061 67.3312H21.3977H35.7748L36.2447 67.8015ZM70.4121 71.9289V76.5265H75.0072H79.6023V71.9289V67.3312H75.0072H70.4121V71.9289ZM82.6657 68.8638V70.3963H87.2608H91.8559V68.8638V67.3312H87.2608H82.6657V68.8638ZM76.5389 71.9289V73.4614H75.0072H73.4755V71.9289V70.3963H75.0072H76.5389V71.9289ZM36.7147 83.7189V93.9766L36.2447 94.4467L35.7748 94.917H21.3977H7.02061L6.55077 94.4467L6.08073 93.9766V83.7189V73.4614H21.3977H36.7147V83.7189ZM82.6657 74.994V76.5265H87.2608H91.8559V74.994V73.4614H87.2608H82.6657V74.994ZM9.14412 81.1241V85.7217H15.2709H21.3977V81.1241V76.5265H15.2709H9.14412V81.1241ZM24.4611 78.059V79.5916H29.0562H33.6513V78.059V76.5265H29.0562H24.4611V78.059ZM18.3343 81.1241V82.6567H15.2709H12.2075V81.1241V79.5916H15.2709H18.3343V81.1241ZM70.4121 81.1241V82.6567H81.134H91.8559V81.1241V79.5916H81.134H70.4121V81.1241ZM24.4611 84.1892V85.7217H29.0562H33.6513V84.1892V82.6567H29.0562H24.4611V84.1892ZM9.14412 90.3194V91.8519H21.3977H33.6513V90.3194V88.7868H21.3977H9.14412V90.3194Z"/>
</mask>
<path fill-rule="evenodd" clip-rule="evenodd" d="M17.1338 3.1045C17.0906 3.18554 16.8578 4.02767 16.6165 4.97593C16.1926 6.64161 15.7521 7.37053 15.1691 7.37053C15.031 7.37053 14.1723 6.9395 13.2606 6.41269C12.3488 5.88588 11.5441 5.45485 11.4721 5.45485C11.3042 5.45485 5.50634 11.2603 5.50634 11.4285C5.50634 11.498 5.93713 12.3011 6.46346 13.2132C7.1734 14.443 7.39052 14.9919 7.30398 15.3373C7.14928 15.9537 7.05125 16.0051 4.93195 16.5819L3.11306 17.0769V21.3529V25.629L4.93482 26.1262C7.05259 26.7039 7.14889 26.7545 7.30398 27.3727C7.39052 27.7181 7.1734 28.2669 6.46346 29.4968C5.93713 30.4089 5.50634 31.214 5.50634 31.286C5.50634 31.454 11.3086 37.2551 11.4767 37.2551C11.5462 37.2551 12.3488 36.8241 13.2606 36.2973C14.1723 35.7704 15.0241 35.3394 15.1537 35.3394C15.767 35.3394 16.1348 35.9478 16.6175 37.7597L17.1208 39.6497L18.4934 39.706L19.866 39.7623V52.0142V64.2662H13.4264C8.93007 64.2662 6.74893 64.3365 6.19867 64.4991C5.14696 64.81 3.56089 66.397 3.25015 67.4492C2.91662 68.5785 2.91662 93.6697 3.25015 94.799C3.56089 95.8513 5.14696 97.4382 6.19867 97.7491C7.33002 98.0836 35.4654 98.0836 36.5968 97.7491C37.6485 97.4382 39.2345 95.8513 39.5453 94.799C39.8744 93.6845 39.8792 68.5753 39.5505 67.4776C39.4252 67.0596 38.9504 66.3031 38.4951 65.7964C37.1524 64.302 36.9395 64.2662 29.4051 64.2662H22.9294V52.0142V39.7623L24.302 39.706L25.6746 39.6497L26.1688 37.8298C26.7428 35.7157 26.7971 35.6109 27.3993 35.4597C27.7267 35.3775 28.3405 35.6187 29.6178 36.3314L31.3836 37.3164L34.3364 34.3666C35.9603 32.7443 37.2891 31.3581 37.2891 31.286C37.2891 31.214 36.8583 30.4089 36.332 29.4968C35.622 28.2669 35.4049 27.7181 35.4915 27.3727C35.6462 26.7562 35.7444 26.7047 37.8635 26.1287L39.6824 25.6342L39.7387 24.2609L39.795 22.8875H41.3182H42.8415V27.0319C42.8415 31.9538 42.9323 32.3782 44.271 33.7176C45.6097 35.057 46.0338 35.1479 50.953 35.1479H55.0951V39.8273V44.5065L54.0602 44.9806C52.8286 45.5448 51.6652 46.6881 51.051 47.9377C50.6911 48.6702 50.6047 49.1584 50.6032 50.4733C50.6015 51.8786 50.6729 52.2384 51.1249 53.101C51.8167 54.4207 52.8203 55.3979 54.0735 55.9718L55.0951 56.44V64.9506V73.4614H59.6902H64.2853V79.1383C64.2853 83.0356 64.3582 85.0624 64.5181 85.6037C64.8289 86.656 66.4149 88.243 67.4666 88.5539C68.5953 88.8876 93.6727 88.8876 94.8013 88.5539C95.853 88.243 97.4391 86.656 97.7499 85.6037C98.0834 84.4744 98.0834 59.3833 97.7499 58.254C97.4391 57.2017 95.853 55.6148 94.8013 55.3038C93.6727 54.9701 68.5953 54.9701 67.4666 55.3038C66.4149 55.6148 64.8289 57.2017 64.5181 58.254C64.3582 58.7954 64.2853 60.8222 64.2853 64.7194V70.3963H61.2219H58.1585V63.4181V56.44L59.1801 55.9718C60.4333 55.3979 61.4369 54.4207 62.1287 53.101C62.5801 52.2399 62.6525 51.8763 62.6525 50.4733C62.6525 49.0702 62.5801 48.7066 62.1287 47.8455C61.4369 46.5258 60.4333 45.5486 59.1801 44.9747L58.1585 44.5065V39.8273V35.1479H62.3006C67.2198 35.1479 67.6439 35.057 68.9826 33.7176C70.3213 32.3782 70.4121 31.9538 70.4121 27.0319V22.8875H73.55H76.6877L76.811 23.5446C77.2048 25.6448 79.3836 28.415 81.4761 29.4759C85.1133 31.3199 89.1365 30.7263 92.0874 27.9102C94.7037 25.4133 95.6105 21.3965 94.2941 18.1357L93.8276 16.9801L95.6179 15.1963C96.6026 14.2152 97.4083 13.3214 97.4083 13.2099C97.4083 12.9603 95.6455 11.2019 95.3951 11.2019C95.2955 11.2019 94.4737 11.939 93.5691 12.8402L91.924 14.4785L90.9353 13.8128C87.2336 11.3203 82.6025 11.7155 79.3708 14.7997C78.219 15.8989 77.0493 17.8935 76.811 19.1654L76.6877 19.8224H73.55H70.4121V15.6781C70.4121 13.0304 70.33 11.2592 70.1844 10.7735C70.0592 10.3555 69.5844 9.59903 69.1291 9.09234C67.728 7.53298 67.965 7.56209 56.6628 7.56209C49.4874 7.56209 46.5968 7.62531 46.0228 7.79504C44.9711 8.10595 43.3851 9.6929 43.0743 10.7452C42.9231 11.2578 42.8415 12.984 42.8415 15.6781V19.8224H41.3182H39.795L39.7387 18.4491L39.6824 17.0757L37.8635 16.5813C35.7444 16.0053 35.6462 15.9537 35.4915 15.3373C35.4049 14.9919 35.622 14.443 36.332 13.2132C36.8583 12.3011 37.2891 11.4959 37.2891 11.4239C37.2891 11.2559 31.4868 5.45485 31.3187 5.45485C31.2492 5.45485 30.4466 5.88588 29.5351 6.4125C28.3059 7.12283 27.7573 7.34007 27.4121 7.25348C26.796 7.09869 26.7447 7.00061 26.1684 4.88014L25.6736 3.06025L21.4431 3.00872C19.1164 2.98037 17.1771 3.02347 17.1338 3.1045ZM23.4877 6.74793C23.5921 7.14313 23.7885 7.88642 23.9241 8.40001C24.0594 8.91341 24.3003 9.37682 24.4592 9.42988C24.6183 9.48275 25.4571 9.82374 26.3237 10.1877L27.8988 10.8494L29.4334 10.0201L30.9678 9.19099L32.2617 10.487L33.5556 11.7829L32.7149 13.3628L31.8742 14.9426L32.3113 15.7999C32.5515 16.2713 32.8925 17.0817 33.0689 17.6008C33.4149 18.619 33.3216 18.565 35.901 19.2408L36.7147 19.454V21.355V23.2559L35.901 23.4691C33.273 24.1576 33.5071 23.9858 32.7666 25.7702C32.3968 26.6608 32.0516 27.5231 31.999 27.6863C31.9465 27.8497 32.2536 28.5911 32.6817 29.3338C33.1097 30.0767 33.4598 30.7644 33.4598 30.8623C33.4598 30.9602 32.896 31.5981 32.2069 32.2799L30.954 33.5195L29.4219 32.692L27.8896 31.8646L26.3189 32.5241C25.4552 32.8872 24.6183 33.2272 24.4592 33.2801C24.3003 33.3331 24.0594 33.7965 23.9241 34.3099C23.7885 34.8235 23.5921 35.567 23.4877 35.962L23.2976 36.6804H21.3977H19.4978L19.3077 35.962C19.2034 35.567 19.0069 34.8235 18.8714 34.3099C18.736 33.7965 18.4951 33.3331 18.3362 33.2801C18.1771 33.2272 17.3402 32.8872 16.4766 32.5241L14.9058 31.8646L13.371 32.692L11.8361 33.5195L10.538 32.2234L9.23985 30.927L10.0806 29.3472L10.9213 27.7673L10.4842 26.9101C10.2439 26.4386 9.90289 25.6283 9.72655 25.1091C9.38058 24.0909 9.47382 24.145 6.89444 23.4691L6.08073 23.2559V21.355V19.454L6.79871 19.2638C7.1937 19.1594 7.93657 18.9629 8.44988 18.8272C8.963 18.6918 9.42615 18.4508 9.47918 18.2918C9.53203 18.1326 9.87283 17.2934 10.2366 16.4263L10.8979 14.8503L10.0691 13.3149L9.24043 11.7796L10.5382 10.485L11.8361 9.19042L13.371 10.018L14.9058 10.8454L16.4766 10.1858C17.3402 9.82278 18.1771 9.48275 18.3362 9.42988C18.4951 9.37682 18.736 8.91341 18.8714 8.40001C19.0069 7.88642 19.2034 7.14313 19.3077 6.74793L19.4978 6.02955H21.3977H23.2976L23.4877 6.74793ZM66.8787 11.0975C67.2646 11.4835 67.3487 11.7574 67.3487 12.63V13.6923H56.6268H45.9049V12.63C45.9049 11.7574 45.989 11.4835 46.3749 11.0975L46.8448 10.6272H56.6268H66.4088L66.8787 11.0975ZM19.1216 12.4626C14.2671 13.7689 11.2636 18.7981 12.5007 23.55C13.7815 28.4704 18.8005 31.5056 23.5915 30.2569C28.4948 28.979 31.5423 23.9526 30.3022 19.1889C29.0097 14.2237 23.9313 11.1684 19.1216 12.4626ZM23.6953 15.6742C25.0573 16.2507 26.1299 17.2704 26.7943 18.6205C28.3265 21.7349 27.1508 25.23 24.024 26.8549C23.1701 27.2986 22.7889 27.3744 21.3977 27.3781C19.9078 27.3819 19.6684 27.3273 18.5648 26.7319C17.3039 26.0514 16.5826 25.2902 15.8304 23.8454C15.1798 22.5961 15.1895 20.132 15.8505 18.7688C16.6452 17.1296 18.1961 15.8553 19.9617 15.3911C20.7751 15.1771 22.902 15.3386 23.6953 15.6742ZM88.1643 15.7945C89.8737 16.5303 89.8727 16.5363 87.6807 18.7293L85.7352 20.6761L84.8162 19.7703C84.3105 19.2722 83.8091 18.8646 83.7017 18.8646C83.4683 18.8646 81.7084 20.669 81.7084 20.908C81.7084 20.9996 82.6132 21.9768 83.7193 23.0797L85.73 25.0848L88.5932 22.2247C91.8101 19.0115 91.7636 19.023 91.7559 21.4508C91.7485 23.7829 90.525 25.7273 88.3554 26.8549C87.4988 27.2999 87.1246 27.3738 85.7291 27.3742C84.394 27.3746 83.9468 27.294 83.2401 26.9254C81.7961 26.1727 81.0352 25.4511 80.3551 24.1894C79.7593 23.0837 79.7057 22.8477 79.7114 21.355C79.7181 19.5734 80.0539 18.6079 81.115 17.3198C81.6936 16.6175 83.2799 15.6522 84.2812 15.3932C85.2453 15.1436 87.0967 15.3351 88.1643 15.7945ZM67.3487 23.9498V31.1424L66.8787 31.6125L66.4088 32.0828H56.6268H46.8448L46.3749 31.6125L45.9049 31.1424V23.9498V16.7573H56.6268H67.3487V23.9498ZM48.9683 21.355V22.8875H50.5H52.0317V21.355V19.8224H50.5H48.9683V21.355ZM55.0951 21.355V22.8875H59.6902H64.2853V21.355V19.8224H59.6902H55.0951V21.355ZM48.9683 27.4851V29.0177H56.6268H64.2853V27.4851V25.9526H56.6268H48.9683V27.4851ZM58.3046 47.9201C59.2803 48.649 59.5945 49.271 59.5945 50.4733C59.5945 52.3382 58.4907 53.4426 56.6268 53.4426C55.416 53.4426 54.8041 53.1288 54.0539 52.1236C53.4412 51.3026 53.5004 49.598 54.1722 48.7168C54.4543 48.3467 54.9712 47.8978 55.321 47.7195C56.1307 47.3065 57.6167 47.4063 58.3046 47.9201ZM94.4492 58.6063C94.8352 58.9923 94.9193 59.2662 94.9193 60.1388V61.2011H81.134H67.3487V60.1388C67.3487 59.2662 67.4327 58.9923 67.8187 58.6063L68.2886 58.136H81.134H93.9794L94.4492 58.6063ZM94.9193 74.5237V84.7813L94.4492 85.2515L93.9794 85.7217H81.134H68.2886L67.8187 85.2515L67.3487 84.7813V74.5237V64.2662H81.134H94.9193V74.5237ZM36.2447 67.8015C36.6307 68.1875 36.7147 68.4615 36.7147 69.3341V70.3963H21.3977H6.08073V69.3341C6.08073 68.4615 6.16478 68.1875 6.55077 67.8015L7.02061 67.3312H21.3977H35.7748L36.2447 67.8015ZM70.4121 71.9289V76.5265H75.0072H79.6023V71.9289V67.3312H75.0072H70.4121V71.9289ZM82.6657 68.8638V70.3963H87.2608H91.8559V68.8638V67.3312H87.2608H82.6657V68.8638ZM76.5389 71.9289V73.4614H75.0072H73.4755V71.9289V70.3963H75.0072H76.5389V71.9289ZM36.7147 83.7189V93.9766L36.2447 94.4467L35.7748 94.917H21.3977H7.02061L6.55077 94.4467L6.08073 93.9766V83.7189V73.4614H21.3977H36.7147V83.7189ZM82.6657 74.994V76.5265H87.2608H91.8559V74.994V73.4614H87.2608H82.6657V74.994ZM9.14412 81.1241V85.7217H15.2709H21.3977V81.1241V76.5265H15.2709H9.14412V81.1241ZM24.4611 78.059V79.5916H29.0562H33.6513V78.059V76.5265H29.0562H24.4611V78.059ZM18.3343 81.1241V82.6567H15.2709H12.2075V81.1241V79.5916H15.2709H18.3343V81.1241ZM70.4121 81.1241V82.6567H81.134H91.8559V81.1241V79.5916H81.134H70.4121V81.1241ZM24.4611 84.1892V85.7217H29.0562H33.6513V84.1892V82.6567H29.0562H24.4611V84.1892ZM9.14412 90.3194V91.8519H21.3977H33.6513V90.3194V88.7868H21.3977H9.14412V90.3194Z" fill="#282626" stroke="white" stroke-width="2" mask="url(#path-1-inside-1)"/>
</svg>
