<svg xmlns="http://www.w3.org/2000/svg" width="100" height="100" fill="none" xmlns:v="https://vecta.io/nano"><path fill="#e5e5e5" d="M0 0h100v100H0z"/><path fill="#fff" d="M0 0h100v100H0z"/><mask id="A" fill="#fff"><path fill-rule="evenodd" d="M17.134 3.105c-.043.081-.276.923-.517 1.871-.424 1.666-.864 2.395-1.447 2.395-.138 0-.997-.431-1.908-.958l-1.789-.958c-.168 0-5.966 5.805-5.966 5.974 0 .069.431.873.957 1.785.71 1.23.927 1.779.841 2.124-.155.616-.253.668-2.372 1.245l-1.819.495v4.276 4.276l1.822.497c2.118.578 2.214.628 2.369 1.246.087.345-.131.894-.841 2.124l-.957 1.789c0 .168 5.802 5.969 5.97 5.969.07 0 .872-.431 1.784-.958s1.764-.958 1.893-.958c.613 0 .981.608 1.464 2.42l.503 1.89 1.373.056 1.373.056v12.252 12.252h-6.44l-7.228.233c-1.052.311-2.638 1.898-2.949 2.95-.334 1.129-.334 26.221 0 27.35.311 1.052 1.897 2.639 2.949 2.95 1.131.335 29.267.335 30.398 0 1.052-.311 2.638-1.898 2.948-2.95.329-1.115.334-26.224.005-27.321-.125-.418-.6-1.174-1.055-1.681-1.343-1.494-1.556-1.53-9.09-1.53h-6.476V52.014 39.762l1.373-.056 1.373-.056.494-1.82c.574-2.114.628-2.219 1.23-2.37.327-.082.941.159 2.218.872l1.766.985 2.953-2.95c1.624-1.622 2.953-3.008 2.953-3.081s-.431-.877-.957-1.789c-.71-1.23-.927-1.779-.84-2.124.155-.616.253-.668 2.372-1.244l1.819-.494.056-1.373.056-1.373h1.523 1.523v4.144c0 4.922.091 5.346 1.429 6.686s1.763 1.43 6.682 1.43h4.142v4.679 4.679l-1.035.474c-1.232.564-2.395 1.707-3.009 2.957-.36.733-.446 1.221-.448 2.536-.002 1.405.07 1.765.522 2.628.692 1.32 1.695 2.297 2.949 2.871l1.022.468v8.511 8.511h4.595 4.595v5.677c0 3.897.073 5.924.233 6.465.311 1.052 1.897 2.639 2.948 2.95 1.129.334 26.206.334 27.335 0 1.052-.311 2.638-1.898 2.949-2.95.334-1.129.334-26.22 0-27.35-.311-1.052-1.897-2.639-2.949-2.95-1.129-.334-26.206-.334-27.335 0-1.052.311-2.638 1.898-2.948 2.95-.16.541-.233 2.568-.233 6.465v5.677h-3.063-3.063v-6.978-6.978l1.022-.468c1.253-.574 2.257-1.551 2.949-2.871.451-.861.524-1.225.524-2.628s-.072-1.767-.524-2.628c-.692-1.32-1.695-2.297-2.949-2.871l-1.022-.468v-4.679-4.679h4.142c4.919 0 5.343-.091 6.682-1.43s1.429-1.764 1.429-6.686v-4.144h3.138 3.138l.123.657c.394 2.1 2.573 4.87 4.665 5.931 3.637 1.844 7.66 1.25 10.611-1.566 2.616-2.497 3.523-6.514 2.207-9.774l-.466-1.156 1.79-1.784c.985-.981 1.79-1.875 1.79-1.986 0-.25-1.763-2.008-2.013-2.008-.1 0-.921.737-1.826 1.638l-1.645 1.638-.989-.666c-3.702-2.492-8.333-2.097-11.564.987-1.152 1.099-2.322 3.094-2.56 4.366l-.123.657H73.55h-3.138v-4.144c0-2.648-.082-4.419-.228-4.905-.125-.418-.6-1.174-1.055-1.681-1.401-1.559-1.164-1.53-12.466-1.53-7.175 0-10.066.063-10.64.233-1.052.311-2.638 1.898-2.948 2.95-.151.513-.233 2.239-.233 4.933v4.144h-1.523-1.523l-.056-1.373-.056-1.373-1.819-.494c-2.119-.576-2.217-.628-2.372-1.244-.087-.345.13-.894.84-2.124.526-.912.957-1.717.957-1.789 0-.168-5.802-5.969-5.97-5.969-.07 0-.872.431-1.784.958-1.229.71-1.778.928-2.123.841-.616-.155-.667-.253-1.244-2.373l-.495-1.82-4.23-.052c-2.327-.028-4.266.015-4.309.096zm6.354 3.643l.436 1.652c.135.513.376.977.535 1.03s.998.394 1.864.758l1.575.662 1.535-.829 1.534-.829 1.294 1.296 1.294 1.296-.841 1.58-.841 1.58.437.857c.24.471.581 1.282.758 1.801.346 1.018.253.964 2.832 1.64l.814.213v1.901 1.901l-.814.213c-2.628.688-2.394.517-3.134 2.301l-.768 1.916c-.052.163.255.905.683 1.648s.778 1.431.778 1.529-.564.736-1.253 1.418l-1.253 1.24-1.532-.828-1.532-.827-1.571.659-1.86.756c-.159.053-.4.516-.535 1.03l-.436 1.652-.19.718h-1.9-1.9l-.19-.718-.436-1.652c-.135-.513-.376-.977-.535-1.03s-.996-.393-1.86-.756l-1.571-.659-1.535.827-1.535.828-1.298-1.296-1.298-1.296.841-1.58.841-1.58-.437-.857c-.24-.471-.581-1.282-.758-1.801-.346-1.018-.253-.964-2.832-1.64l-.814-.213v-1.901-1.901l.718-.19 1.651-.437c.513-.135.976-.376 1.029-.535s.394-.998.757-1.865l.661-1.576-.829-1.535-.829-1.535 1.298-1.295 1.298-1.295 1.535.828 1.535.827 1.571-.66 1.86-.756c.159-.053.4-.516.535-1.03l.436-1.652.19-.718h1.9 1.9l.19.718zm43.391 4.35c.386.386.47.66.47 1.533v1.062H56.627 45.905V12.63c0-.873.084-1.147.47-1.533l.47-.47h9.782 9.782l.47.47zm-47.757 1.365c-4.855 1.306-7.858 6.336-6.621 11.087 1.281 4.92 6.3 7.956 11.091 6.707 4.903-1.278 7.951-6.304 6.711-11.068-1.293-4.965-6.371-8.02-11.181-6.726zm4.574 3.212c1.362.576 2.435 1.596 3.099 2.946 1.532 3.114.357 6.61-2.77 8.234-.854.444-1.235.52-2.626.523-1.49.004-1.729-.051-2.833-.646-1.261-.68-1.982-1.442-2.734-2.886-.651-1.249-.641-3.713.02-5.077a6.48 6.48 0 0 1 4.111-3.378c.813-.214 2.94-.053 3.734.283zm64.469.12c1.709.736 1.708.742-.484 2.935l-1.945 1.947-.919-.906c-.506-.498-1.007-.906-1.114-.906-.233 0-1.993 1.804-1.993 2.043 0 .092.905 1.069 2.011 2.172l2.011 2.005 2.863-2.86c3.217-3.213 3.17-3.202 3.163-.774-.007 2.332-1.231 4.276-3.4 5.404-.857.445-1.231.519-2.626.519-1.335 0-1.782-.08-2.489-.449-1.444-.753-2.205-1.474-2.885-2.736-.596-1.106-.649-1.342-.644-2.834.007-1.782.343-2.747 1.404-4.035.579-.702 2.165-1.668 3.166-1.927.964-.25 2.816-.058 3.883.401zM67.349 23.95v7.193l-.47.47-.47.47h-9.782-9.782l-.47-.47-.47-.47V23.95v-7.192h10.722 10.722v7.192zm-18.38-2.595v1.532H50.5h1.532v-1.532-1.533H50.5h-1.532v1.533zm6.127 0v1.532h4.595 4.595v-1.532-1.533H59.69h-4.595v1.533zm-6.127 6.13v1.533h7.659 7.659v-1.533-1.532h-7.659-7.659v1.532zm9.336 20.435c.976.729 1.29 1.351 1.29 2.553 0 1.865-1.104 2.969-2.968 2.969-1.211 0-1.823-.314-2.573-1.319-.613-.821-.553-2.526.118-3.407.282-.37.799-.819 1.149-.997.81-.413 2.296-.313 2.984.201zm36.145 10.686c.386.386.47.66.47 1.533v1.062H81.134 67.349v-1.062c0-.873.084-1.147.47-1.533l.47-.47h12.845 12.845l.47.47zm.47 15.917v10.258l-.47.47-.47.47H81.134 68.289l-.47-.47-.47-.47V74.524 64.266h13.785 13.785v10.258zm-58.675-6.722c.386.386.47.66.47 1.533v1.062H21.398 6.081v-1.062c0-.873.084-1.147.47-1.533l.47-.47h14.377 14.377l.47.47zm34.167 4.127v4.598h4.595 4.595v-4.598-4.598h-4.595-4.595v4.598zm12.254-3.065v1.532h4.595 4.595v-1.532-1.533h-4.595-4.595v1.533zm-6.127 3.065v1.532h-1.532-1.532v-1.532-1.533h1.532 1.532v1.533zm-39.824 11.79v10.258l-.47.47-.47.47H21.398 7.021l-.47-.47-.47-.47V83.719 73.461h15.317 15.317v10.258zm45.951-8.725v1.532h4.595 4.595v-1.532-1.533h-4.595-4.595v1.533zm-73.522 6.13v4.598h6.127 6.127v-4.598-4.598h-6.127-6.127v4.598zm15.317-3.065v1.533h4.595 4.595v-1.533-1.532h-4.595-4.595v1.532zm-6.127 3.065v1.533h-3.063-3.063v-1.533-1.532h3.063 3.063v1.532zm52.078 0v1.533h10.722 10.722v-1.533-1.532H81.134 70.412v1.532zm-45.951 3.065v1.532h4.595 4.595v-1.532-1.532h-4.595-4.595v1.532zm-15.317 6.13v1.532h12.254 12.254v-1.532-1.533H21.398 9.144v1.533z"/></mask><path fill-rule="evenodd" d="M17.134 3.105c-.043.081-.276.923-.517 1.871-.424 1.666-.864 2.395-1.447 2.395-.138 0-.997-.431-1.908-.958l-1.789-.958c-.168 0-5.966 5.805-5.966 5.974 0 .069.431.873.957 1.785.71 1.23.927 1.779.841 2.124-.155.616-.253.668-2.372 1.245l-1.819.495v4.276 4.276l1.822.497c2.118.578 2.214.628 2.369 1.246.087.345-.131.894-.841 2.124l-.957 1.789c0 .168 5.802 5.969 5.97 5.969.07 0 .872-.431 1.784-.958s1.764-.958 1.893-.958c.613 0 .981.608 1.464 2.42l.503 1.89 1.373.056 1.373.056v12.252 12.252h-6.44l-7.228.233c-1.052.311-2.638 1.898-2.949 2.95-.334 1.129-.334 26.221 0 27.35.311 1.052 1.897 2.639 2.949 2.95 1.131.335 29.267.335 30.398 0 1.052-.311 2.638-1.898 2.948-2.95.329-1.115.334-26.224.005-27.321-.125-.418-.6-1.174-1.055-1.681-1.343-1.494-1.556-1.53-9.09-1.53h-6.476V52.014 39.762l1.373-.056 1.373-.056.494-1.82c.574-2.114.628-2.219 1.23-2.37.327-.082.941.159 2.218.872l1.766.985 2.953-2.95c1.624-1.622 2.953-3.008 2.953-3.081s-.431-.877-.957-1.789c-.71-1.23-.927-1.779-.84-2.124.155-.616.253-.668 2.372-1.244l1.819-.494.056-1.373.056-1.373h1.523 1.523v4.144c0 4.922.091 5.346 1.429 6.686s1.763 1.43 6.682 1.43h4.142v4.679 4.679l-1.035.474c-1.232.564-2.395 1.707-3.009 2.957-.36.733-.446 1.221-.448 2.536-.002 1.405.07 1.765.522 2.628.692 1.32 1.695 2.297 2.949 2.871l1.022.468v8.511 8.511h4.595 4.595v5.677c0 3.897.073 5.924.233 6.465.311 1.052 1.897 2.639 2.948 2.95 1.129.334 26.206.334 27.335 0 1.052-.311 2.638-1.898 2.949-2.95.334-1.129.334-26.22 0-27.35-.311-1.052-1.897-2.639-2.949-2.95-1.129-.334-26.206-.334-27.335 0-1.052.311-2.638 1.898-2.948 2.95-.16.541-.233 2.568-.233 6.465v5.677h-3.063-3.063v-6.978-6.978l1.022-.468c1.253-.574 2.257-1.551 2.949-2.871.451-.861.524-1.225.524-2.628s-.072-1.767-.524-2.628c-.692-1.32-1.695-2.297-2.949-2.871l-1.022-.468v-4.679-4.679h4.142c4.919 0 5.343-.091 6.682-1.43s1.429-1.764 1.429-6.686v-4.144h3.138 3.138l.123.657c.394 2.1 2.573 4.87 4.665 5.931 3.637 1.844 7.66 1.25 10.611-1.566 2.616-2.497 3.523-6.514 2.207-9.774l-.466-1.156 1.79-1.784c.985-.981 1.79-1.875 1.79-1.986 0-.25-1.763-2.008-2.013-2.008-.1 0-.921.737-1.826 1.638l-1.645 1.638-.989-.666c-3.702-2.492-8.333-2.097-11.564.987-1.152 1.099-2.322 3.094-2.56 4.366l-.123.657H73.55h-3.138v-4.144c0-2.648-.082-4.419-.228-4.905-.125-.418-.6-1.174-1.055-1.681-1.401-1.559-1.164-1.53-12.466-1.53-7.175 0-10.066.063-10.64.233-1.052.311-2.638 1.898-2.948 2.95-.151.513-.233 2.239-.233 4.933v4.144h-1.523-1.523l-.056-1.373-.056-1.373-1.819-.494c-2.119-.576-2.217-.628-2.372-1.244-.087-.345.13-.894.84-2.124.526-.912.957-1.717.957-1.789 0-.168-5.802-5.969-5.97-5.969-.07 0-.872.431-1.784.958-1.229.71-1.778.928-2.123.841-.616-.155-.667-.253-1.244-2.373l-.495-1.82-4.23-.052c-2.327-.028-4.266.015-4.309.096zm6.354 3.643l.436 1.652c.135.513.376.977.535 1.03s.998.394 1.864.758l1.575.662 1.535-.829 1.534-.829 1.294 1.296 1.294 1.296-.841 1.58-.841 1.58.437.857c.24.471.581 1.282.758 1.801.346 1.018.253.964 2.832 1.64l.814.213v1.901 1.901l-.814.213c-2.628.688-2.394.517-3.134 2.301l-.768 1.916c-.052.163.255.905.683 1.648s.778 1.431.778 1.529-.564.736-1.253 1.418l-1.253 1.24-1.532-.828-1.532-.827-1.571.659-1.86.756c-.159.053-.4.516-.535 1.03l-.436 1.652-.19.718h-1.9-1.9l-.19-.718-.436-1.652c-.135-.513-.376-.977-.535-1.03s-.996-.393-1.86-.756l-1.571-.659-1.535.827-1.535.828-1.298-1.296-1.298-1.296.841-1.58.841-1.58-.437-.857c-.24-.471-.581-1.282-.758-1.801-.346-1.018-.253-.964-2.832-1.64l-.814-.213v-1.901-1.901l.718-.19 1.651-.437c.513-.135.976-.376 1.029-.535s.394-.998.757-1.865l.661-1.576-.829-1.535-.829-1.535 1.298-1.295 1.298-1.295 1.535.828 1.535.827 1.571-.66 1.86-.756c.159-.053.4-.516.535-1.03l.436-1.652.19-.718h1.9 1.9l.19.718zm43.391 4.35c.386.386.47.66.47 1.533v1.062H56.627 45.905V12.63c0-.873.084-1.147.47-1.533l.47-.47h9.782 9.782l.47.47zm-47.757 1.365c-4.855 1.306-7.858 6.336-6.621 11.087 1.281 4.92 6.3 7.956 11.091 6.707 4.903-1.278 7.951-6.304 6.711-11.068-1.293-4.965-6.371-8.02-11.181-6.726zm4.574 3.212c1.362.576 2.435 1.596 3.099 2.946 1.532 3.114.357 6.61-2.77 8.234-.854.444-1.235.52-2.626.523-1.49.004-1.729-.051-2.833-.646-1.261-.68-1.982-1.442-2.734-2.886-.651-1.249-.641-3.713.02-5.077a6.48 6.48 0 0 1 4.111-3.378c.813-.214 2.94-.053 3.734.283zm64.469.12c1.709.736 1.708.742-.484 2.935l-1.945 1.947-.919-.906c-.506-.498-1.007-.906-1.114-.906-.233 0-1.993 1.804-1.993 2.043 0 .092.905 1.069 2.011 2.172l2.011 2.005 2.863-2.86c3.217-3.213 3.17-3.202 3.163-.774-.007 2.332-1.231 4.276-3.4 5.404-.857.445-1.231.519-2.626.519-1.335 0-1.782-.08-2.489-.449-1.444-.753-2.205-1.474-2.885-2.736-.596-1.106-.649-1.342-.644-2.834.007-1.782.343-2.747 1.404-4.035.579-.702 2.165-1.668 3.166-1.927.964-.25 2.816-.058 3.883.401zM67.349 23.95v7.193l-.47.47-.47.47h-9.782-9.782l-.47-.47-.47-.47V23.95v-7.192h10.722 10.722v7.192zm-18.38-2.595v1.532H50.5h1.532v-1.532-1.533H50.5h-1.532v1.533zm6.127 0v1.532h4.595 4.595v-1.532-1.533H59.69h-4.595v1.533zm-6.127 6.13v1.533h7.659 7.659v-1.533-1.532h-7.659-7.659v1.532zm9.336 20.435c.976.729 1.29 1.351 1.29 2.553 0 1.865-1.104 2.969-2.968 2.969-1.211 0-1.823-.314-2.573-1.319-.613-.821-.553-2.526.118-3.407.282-.37.799-.819 1.149-.997.81-.413 2.296-.313 2.984.201zm36.145 10.686c.386.386.47.66.47 1.533v1.062H81.134 67.349v-1.062c0-.873.084-1.147.47-1.533l.47-.47h12.845 12.845l.47.47zm.47 15.917v10.258l-.47.47-.47.47H81.134 68.289l-.47-.47-.47-.47V74.524 64.266h13.785 13.785v10.258zm-58.675-6.722c.386.386.47.66.47 1.533v1.062H21.398 6.081v-1.062c0-.873.084-1.147.47-1.533l.47-.47h14.377 14.377l.47.47zm34.167 4.127v4.598h4.595 4.595v-4.598-4.598h-4.595-4.595v4.598zm12.254-3.065v1.532h4.595 4.595v-1.532-1.533h-4.595-4.595v1.533zm-6.127 3.065v1.532h-1.532-1.532v-1.532-1.533h1.532 1.532v1.533zm-39.824 11.79v10.258l-.47.47-.47.47H21.398 7.021l-.47-.47-.47-.47V83.719 73.461h15.317 15.317v10.258zm45.951-8.725v1.532h4.595 4.595v-1.532-1.533h-4.595-4.595v1.533zm-73.522 6.13v4.598h6.127 6.127v-4.598-4.598h-6.127-6.127v4.598zm15.317-3.065v1.533h4.595 4.595v-1.533-1.532h-4.595-4.595v1.532zm-6.127 3.065v1.533h-3.063-3.063v-1.533-1.532h3.063 3.063v1.532zm52.078 0v1.533h10.722 10.722v-1.533-1.532H81.134 70.412v1.532zm-45.951 3.065v1.532h4.595 4.595v-1.532-1.532h-4.595-4.595v1.532zm-15.317 6.13v1.532h12.254 12.254v-1.532-1.533H21.398 9.144v1.533z" fill="#282626" stroke="#fff" stroke-width="2" mask="url(#A)"/></svg>